<svg width="30" height="26" viewBox="0 0 30 26" fill="none" xmlns="http://www.w3.org/2000/svg">
<path d="M14.9448 2.33906L15.7817 0.922411C16.2968 0.0381352 17.4464 -0.259631 18.3476 0.245669C19.2489 0.75097 19.5524 1.87887 19.0374 2.76315L10.9902 16.4333H16.8118C18.6971 16.4333 19.7548 18.6079 18.9362 20.1148H1.87615C0.836911 20.1148 0 19.2937 0 18.2741C0 17.2544 0.836911 16.4333 1.87615 16.4333H6.65849L12.7836 6.02053L10.8706 2.76315C10.3556 1.87887 10.6591 0.759993 11.5604 0.245669C12.4617 -0.259631 13.6021 0.0381352 14.1263 0.922411L14.9448 2.33906ZM7.70693 22.0097L5.90435 25.0776C5.38933 25.9619 4.23973 26.2596 3.33844 25.7543C2.43716 25.249 2.13366 24.1211 2.64868 23.2368L3.99142 20.963C5.49969 20.5028 6.73207 20.8547 7.70693 22.0097ZM23.2403 16.4424H28.1239C29.1631 16.4424 30 17.2635 30 18.2831C30 19.3027 29.1631 20.1238 28.1239 20.1238H25.4108L27.241 23.2368C27.756 24.1211 27.4525 25.24 26.5512 25.7543C25.6499 26.2596 24.5095 25.9619 23.9853 25.0776C20.9044 19.8351 18.5868 15.91 17.0509 13.2933C15.4782 10.6314 16.6002 7.96053 17.7131 7.05821C18.9454 9.13355 20.7848 12.2646 23.2403 16.4424Z" fill="#302E2B"/>
</svg>
