<svg width="1920" height="257" viewBox="0 0 1920 257" fill="none" xmlns="http://www.w3.org/2000/svg">
<path d="M0 43.0496C0 43.0496 218 26.9999 382.5 27C547 27.0001 653 39.4995 783 39.4995C964.562 39.4995 1110 27 1226 27C1395.99 27 1570 42.6211 1694.5 34.8106C1819 27 1920 43.0496 1920 43.0496V82.5001H0V43.0496Z" fill="#D3F0D6"/>
<path d="M0 24.002C0 24.002 218 -0.000198956 382.5 0C547 0.000198956 653 18.6928 783 18.6928C964.562 18.6928 1110 1.23686e-09 1226 1.23686e-09C1395.99 1.23686e-09 1570 23.3612 1694.5 11.6806C1819 0 1920 24.002 1920 24.002V83H0V24.002Z" fill="#B9DFB3" fill-opacity="0.3"/>
<path fill-rule="evenodd" clip-rule="evenodd" d="M382.5 53C218 52.9999 0 69.0496 0 69.0496V91.5002V108.5V256.5H1920V108.5V91.5002V69.0496C1920 69.0496 1819 53 1694.5 60.8106C1622.02 65.3574 1532.77 61.9636 1437.3 58.3333C1368.76 55.7276 1297.03 53 1226 53C1174.47 53 1117.13 55.4667 1053.39 58.2085C973.654 61.6387 883.906 65.4995 783 65.4995C721.82 65.4995 665.956 62.7311 606.808 59.8001C540.273 56.503 469.584 53.0001 382.5 53Z" fill="#302E2B"/>
</svg>
