<svg width="1920" height="655" viewBox="0 0 1920 655" fill="none" xmlns="http://www.w3.org/2000/svg">
<path d="M0 43.0496C0 43.0496 218 26.9999 382.5 27C547 27.0001 653 39.4995 783 39.4995C964.562 39.4995 1110 27 1226 27C1395.99 27 1570 42.6211 1694.5 34.8106C1819 27 1920 43.0496 1920 43.0496V82.5001H0V43.0496Z" fill="#D3F0D6"/>
<path d="M0 24.002C0 24.002 218 -0.000198956 382.5 0C547 0.000198956 653 18.6928 783 18.6928C964.562 18.6928 1110 1.23686e-09 1226 1.23686e-09C1395.99 1.23686e-09 1570 23.3612 1694.5 11.6806C1819 0 1920 24.002 1920 24.002V83H0V24.002Z" fill="#B9DFB3" fill-opacity="0.3"/>
<path fill-rule="evenodd" clip-rule="evenodd" d="M382.5 53C218 52.9999 0 68.1893 0 68.1893V97.319V105.525V655H1920V105.525V97.319V68.1893C1920 68.1893 1819 53 1694.5 60.3919C1622.02 64.695 1532.77 61.4831 1437.3 58.0475C1368.76 55.5814 1297.03 53 1226 53C1174.47 53 1117.13 55.3344 1053.39 57.9293C973.654 61.1756 883.906 64.8294 783 64.8294C721.82 64.8294 665.956 62.2095 606.808 59.4356C540.273 56.3153 469.584 53.0001 382.5 53Z" fill="#302E2B"/>
</svg>
