<svg width="480" height="480" viewBox="0 0 480 480" fill="none" xmlns="http://www.w3.org/2000/svg">
<g clip-path="url(#clip0_214_4697)">
<path d="M480 240C480 372.551 372.551 480 240 480C224.204 480 208.769 478.476 193.827 475.56C192.333 475.271 190.849 474.964 189.364 474.644C188.893 474.542 188.422 474.44 187.951 474.333C187.604 474.262 187.253 474.182 186.907 474.102C186.431 473.996 185.951 473.884 185.476 473.773C185.302 473.738 185.124 473.693 184.947 473.649C184.289 473.498 183.631 473.342 182.973 473.178C182.258 473.004 181.542 472.827 180.827 472.644C179.902 472.413 178.982 472.173 178.062 471.924C177.556 471.791 177.053 471.658 176.551 471.52C174.422 470.938 172.307 470.329 170.2 469.689C169.511 469.48 168.818 469.267 168.129 469.049C168.111 469.044 168.098 469.04 168.084 469.036C167.391 468.818 166.698 468.596 166.009 468.373C165.333 468.156 164.662 467.933 163.987 467.711C163.44 467.529 162.893 467.342 162.347 467.156C161.898 467.004 161.444 466.849 161 466.689C160.591 466.547 160.187 466.404 159.782 466.262C158.964 465.973 158.147 465.68 157.333 465.378C156.52 465.08 155.707 464.778 154.898 464.471C154.093 464.164 153.289 463.853 152.484 463.542C152.471 463.533 152.458 463.529 152.444 463.524C151.702 463.236 150.964 462.942 150.231 462.644C150.107 462.596 149.987 462.547 149.867 462.498C149.129 462.2 148.4 461.898 147.667 461.591C146.88 461.262 146.098 460.933 145.316 460.596C145.289 460.587 145.262 460.573 145.24 460.564C144.462 460.227 143.684 459.889 142.911 459.547C142.129 459.2 141.351 458.849 140.573 458.498C140.556 458.489 140.542 458.484 140.533 458.48C139.773 458.133 139.018 457.782 138.267 457.431C138.24 457.418 138.213 457.404 138.187 457.396C137.413 457.031 136.644 456.667 135.88 456.293C135.24 455.987 134.609 455.68 133.973 455.364C133.773 455.271 133.578 455.169 133.378 455.071C132.671 454.72 131.964 454.364 131.258 454.004C130.582 453.662 129.907 453.311 129.231 452.96C128.382 452.52 127.538 452.076 126.698 451.622C125.942 451.218 125.187 450.804 124.436 450.391C122.093 449.107 119.778 447.778 117.484 446.413C116.836 446.027 116.191 445.64 115.547 445.249C113.938 444.271 112.338 443.276 110.751 442.253C110.253 441.938 109.76 441.618 109.267 441.298C108.644 440.893 108.022 440.484 107.404 440.071C107 439.809 106.6 439.538 106.2 439.267C105.796 438.996 105.391 438.724 104.987 438.444C104.862 438.364 104.738 438.276 104.609 438.187C104.044 437.804 103.484 437.418 102.929 437.027C102.747 436.902 102.569 436.778 102.387 436.649C101.924 436.329 101.467 436.004 101.013 435.68C100.733 435.48 100.453 435.284 100.173 435.08C99.8222 434.827 99.4711 434.573 99.12 434.32C98.7511 434.053 98.3822 433.782 98.0178 433.511C97.7867 433.347 97.5556 433.178 97.3244 433C96.8933 432.684 96.4667 432.364 96.04 432.044C95.1422 431.373 94.2533 430.693 93.3644 430.004C92.8933 429.64 92.4222 429.276 91.9511 428.907C91.3333 428.422 90.7156 427.933 90.1022 427.44C89.2978 426.796 88.4933 426.147 87.6933 425.484C87.2267 425.102 86.76 424.716 86.2978 424.329C85.6756 423.813 85.0578 423.293 84.4444 422.769C81.9867 420.671 79.5689 418.529 77.2 416.338C76.6044 415.787 76.0133 415.236 75.4267 414.684C74.2533 413.578 73.0889 412.458 71.9378 411.324C71.36 410.76 70.7867 410.191 70.2178 409.622C69.0756 408.48 67.9467 407.324 66.8267 406.16C66.2711 405.578 65.7111 404.991 65.16 404.404C64.6089 403.818 64.0578 403.227 63.5111 402.631C62.9644 402.036 62.4178 401.44 61.8756 400.84C61.3378 400.244 60.7956 399.64 60.2622 399.036C59.6756 398.369 59.0889 397.702 58.5067 397.031C56.7733 395.031 55.0711 393 53.4044 390.942C53.3822 390.92 53.36 390.893 53.3467 390.871C52.8578 390.267 52.3733 389.662 51.8889 389.053C51.7644 388.898 51.6444 388.747 51.5244 388.591C51.1244 388.089 50.7289 387.582 50.3378 387.076C49.9067 386.524 49.48 385.969 49.0578 385.413C48.7467 385.013 48.44 384.609 48.1422 384.204C47.8356 383.8 47.5333 383.396 47.2356 382.991C46.8044 382.413 46.3778 381.836 45.96 381.258C45.6133 380.787 45.2711 380.316 44.9333 379.844C44.7911 379.649 44.6533 379.453 44.5156 379.258C44.1733 378.787 43.84 378.316 43.5111 377.84C42.0489 375.76 40.6178 373.658 39.2267 371.533C38.7378 370.791 38.2533 370.044 37.7733 369.293C37.3822 368.684 36.9911 368.071 36.6044 367.453C36.0444 366.56 35.4889 365.662 34.9378 364.76C28.0533 353.476 22.0756 341.573 17.1067 329.156C16.6044 327.907 16.1156 326.649 15.6356 325.387C15.6222 325.356 15.6133 325.329 15.6044 325.298C13.0933 318.702 10.8667 311.969 8.93778 305.107C8.88889 304.933 8.84 304.76 8.79556 304.587C3.06222 284.04 0 262.378 0 240C0 107.453 107.453 0 240 0C325.929 0 401.311 45.16 443.707 113.036C444.707 114.64 445.689 116.253 446.649 117.884C450.16 123.813 453.427 129.907 456.422 136.151C459.507 142.564 462.316 149.133 464.827 155.849C465.947 158.827 467 161.831 468 164.862C475.782 188.498 479.996 213.756 479.996 240H480Z" fill="#D3F0D6"/>
<path d="M204.924 151.653C204.924 182.747 172.289 207.956 132.031 207.956C126.707 207.956 121.511 207.516 116.511 206.676C83.7111 201.182 59.1378 178.631 59.1378 151.653C59.1378 121.022 90.7956 96.1066 130.218 95.3644C130.818 95.3511 131.422 95.3466 132.031 95.3466C132.64 95.3466 133.244 95.3511 133.844 95.3644C150.253 95.6755 165.316 100.169 177.311 107.529C194.133 117.84 204.924 133.773 204.924 151.653Z" fill="white"/>
<path d="M133.849 64.3022H130.218V99.4H133.849V64.3022Z" fill="white"/>
<path d="M132.031 68.3333C136.673 68.3333 140.436 64.5705 140.436 59.9289C140.436 55.2872 136.673 51.5244 132.031 51.5244C127.389 51.5244 123.627 55.2872 123.627 59.9289C123.627 64.5705 127.389 68.3333 132.031 68.3333Z" fill="#FF6948"/>
<path d="M111.333 139.298C109.507 138.431 106.018 137.071 101.44 137.067C96.8311 137.062 93.3156 138.431 91.4889 139.298C91.4889 133.858 95.9689 129.382 101.409 129.382C106.849 129.382 111.329 133.822 111.329 139.298H111.333Z" fill="#C1A193"/>
<path d="M152.729 139.298C154.556 138.431 158.044 137.071 162.622 137.067C167.231 137.062 170.747 138.431 172.573 139.298C172.573 133.858 168.093 129.382 162.653 129.382C157.213 129.382 152.733 133.822 152.733 139.298H152.729Z" fill="#C1A193"/>
<path d="M150.462 162.724H113.6C113.6 172.831 121.924 181.147 132.031 181.147C142.138 181.147 150.462 172.898 150.462 162.724Z" fill="#FF6948"/>
<path opacity="0.4" d="M204.924 151.653C204.924 182.747 172.289 207.956 132.031 207.956C126.707 207.956 121.511 207.516 116.511 206.676C121.293 206.707 126.311 206.329 131.516 205.413C137.089 204.436 181.742 196.578 191.236 161.573C196.027 143.902 190.653 123.751 177.311 107.529C194.133 117.84 204.924 133.773 204.924 151.653Z" fill="#C1A193"/>
<path d="M109.502 275.564L61.1778 303.591L39.3067 316.276L36.6489 317.818L17.1067 329.156C16.6044 327.907 16.1156 326.649 15.6356 325.387C15.6222 325.356 15.6133 325.329 15.6044 325.298C13.0933 318.702 10.8667 311.969 8.93778 305.107C8.88889 304.933 8.84 304.76 8.79556 304.587L75.5022 243.138L81.6889 237.44C82.0444 237.129 82.4489 236.907 82.8978 236.773C85.44 235.978 89.2489 237.942 91.9867 241.698L108.582 264.444C111.8 268.853 112.218 273.929 109.502 275.564Z" fill="white"/>
<path opacity="0.4" d="M66.6356 277.791C64.8178 286.391 62.9956 294.991 61.1778 303.591L39.3067 316.276L36.6489 317.818L17.1067 329.156C16.6578 328.004 16.2044 326.853 15.7556 325.702C20.5244 322.898 25.4933 319.636 30.5378 315.84C47.1111 303.364 58.6978 289.467 66.6311 277.791H66.6356Z" fill="#C1A193"/>
<path d="M319.564 194.253L262.511 245.938L216.942 287.218C214.782 289.084 210.573 287.307 207.707 283.329L192.929 262.782C190.067 258.8 189.724 254.244 192.178 252.787L207.253 244.209L310.862 185.258C313.138 183.907 321.467 180.311 324.129 184.013C326.791 187.716 321.56 192.52 319.556 194.253H319.564Z" fill="white"/>
<path opacity="0.4" d="M262.511 245.938L216.942 287.218C214.782 289.084 210.573 287.307 207.707 283.329L192.929 262.782C190.067 258.8 189.724 254.244 192.178 252.787C195.907 250.667 199.636 248.547 203.36 246.422C208.707 248.987 219.293 253.191 233.218 253.027C246.889 252.867 257.218 248.578 262.502 245.933L262.511 245.938Z" fill="#C1A193"/>
<path d="M237.04 358.422C237.04 406.898 219.951 449.738 193.827 475.56C182.156 473.284 170.782 470.164 159.782 466.262C107.422 447.702 63.4222 411.48 34.9378 364.76C34.8667 362.658 34.8356 360.547 34.8356 358.422C34.8356 341.782 36.8489 325.809 40.5467 310.96C47.2756 283.969 59.5733 260.693 75.4933 243.889C92.3556 226.093 113.276 215.556 135.938 215.556C156.173 215.556 175.027 223.96 190.836 238.431C200.436 247.218 208.911 258.244 215.902 270.987C220.844 280 225.04 289.871 228.36 300.418C233.938 318.142 237.04 337.769 237.04 358.422Z" fill="white"/>
<path opacity="0.4" d="M237.04 358.422C237.04 406.898 219.951 449.738 193.827 475.56C141.084 465.284 94.5155 437.733 60.2622 399.036C70.4578 406.667 98.7778 425.729 138.382 425.444C150.947 425.356 179.511 425.151 202.382 406.044C229.662 383.253 239.049 341.756 228.36 300.418C233.938 318.142 237.04 337.769 237.04 358.422Z" fill="#C1A193"/>
<path d="M132.031 256.124C134.13 256.124 135.831 254.423 135.831 252.324C135.831 250.226 134.13 248.524 132.031 248.524C129.932 248.524 128.231 250.226 128.231 252.324C128.231 254.423 129.932 256.124 132.031 256.124Z" fill="#C1A193"/>
<path d="M115.547 256.124C117.645 256.124 119.347 254.423 119.347 252.324C119.347 250.226 117.645 248.524 115.547 248.524C113.448 248.524 111.747 250.226 111.747 252.324C111.747 254.423 113.448 256.124 115.547 256.124Z" fill="#C1A193"/>
<path d="M148.627 256.124C150.725 256.124 152.427 254.423 152.427 252.324C152.427 250.226 150.725 248.524 148.627 248.524C146.528 248.524 144.827 250.226 144.827 252.324C144.827 254.423 146.528 256.124 148.627 256.124Z" fill="#C1A193"/>
<path d="M164.8 271.24H99.2622C94.9691 271.24 91.4889 274.72 91.4889 279.013V312.649C91.4889 316.942 94.9691 320.422 99.2622 320.422H164.8C169.093 320.422 172.573 316.942 172.573 312.649V279.013C172.573 274.72 169.093 271.24 164.8 271.24Z" fill="#F8E4DA"/>
<path d="M156.507 278.382H127.711C123.597 278.382 120.262 281.717 120.262 285.831C120.262 289.945 123.597 293.28 127.711 293.28H156.507C160.621 293.28 163.956 289.945 163.956 285.831C163.956 281.717 160.621 278.382 156.507 278.382Z" fill="#C1A193"/>
<path d="M156.507 297.871H127.711C123.597 297.871 120.262 301.206 120.262 305.32C120.262 309.434 123.597 312.769 127.711 312.769H156.507C160.621 312.769 163.956 309.434 163.956 305.32C163.956 301.206 160.621 297.871 156.507 297.871Z" fill="#C1A193"/>
<path d="M105.907 293.28C110.021 293.28 113.356 289.945 113.356 285.831C113.356 281.717 110.021 278.382 105.907 278.382C101.793 278.382 98.4578 281.717 98.4578 285.831C98.4578 289.945 101.793 293.28 105.907 293.28Z" fill="#C1A193"/>
<path d="M105.907 312.769C110.021 312.769 113.356 309.434 113.356 305.32C113.356 301.206 110.021 297.871 105.907 297.871C101.793 297.871 98.4578 301.206 98.4578 305.32C98.4578 309.434 101.793 312.769 105.907 312.769Z" fill="#C1A193"/>
<path d="M468.004 164.862L437.693 339.204C436.173 347.947 427.858 353.8 419.12 352.28L328.951 336.604C320.213 335.084 314.36 326.769 315.88 318.031L351.471 113.307C352.987 104.564 361.307 98.7111 370.044 100.231L443.707 113.036C444.707 114.64 445.689 116.253 446.649 117.884C450.16 123.813 453.427 129.907 456.422 136.151C459.507 142.564 462.316 149.133 464.827 155.849C465.947 158.827 467 161.831 468 164.862H468.004Z" fill="white"/>
<path d="M464.831 155.849L433.831 334.178C432.809 340.04 428.947 344.644 424.049 346.604C423.511 346.818 422.964 347.004 422.409 347.151C420.453 347.693 418.369 347.813 416.267 347.449L371.88 339.733L363.164 338.218L333.271 333.018C333.018 332.978 332.769 332.924 332.524 332.867C330.711 332.453 329.053 331.698 327.587 330.68C327.396 330.551 327.209 330.413 327.027 330.271C322.564 326.836 320.124 320.849 321.213 314.596L355.293 118.569L355.342 118.293C356.876 109.56 364.733 103.64 372.898 105.062L446.649 117.884C450.16 123.813 453.427 129.907 456.422 136.151C459.507 142.564 462.316 149.133 464.827 155.849H464.831Z" fill="white"/>
<path d="M456.427 136.151L355.293 118.569L355.342 118.293L356.276 112.902C357.28 107.151 362.751 103.298 368.507 104.298L372.898 105.062L446.649 117.884C450.16 123.813 453.427 129.907 456.422 136.151H456.427Z" fill="#F8E4DA"/>
<path d="M430.594 121.819L395.945 115.797C395.338 115.692 394.76 116.098 394.655 116.705L394.518 117.493C394.412 118.1 394.819 118.678 395.426 118.783L430.075 124.806C430.682 124.911 431.26 124.505 431.365 123.898L431.502 123.11C431.608 122.503 431.201 121.925 430.594 121.819Z" fill="white"/>
<g opacity="0.6">
<path d="M360.454 141.51L354.91 173.406C354.479 175.887 356.141 178.248 358.622 178.679L385.447 183.341C387.928 183.773 390.289 182.111 390.72 179.63L396.264 147.734C396.695 145.253 395.033 142.892 392.552 142.461L365.728 137.799C363.246 137.367 360.885 139.029 360.454 141.51Z" fill="#F8E4DA"/>
</g>
<path d="M453.743 153.089L408.125 145.16C406.834 144.936 405.605 145.801 405.38 147.092L404.802 150.42C404.578 151.711 405.442 152.94 406.734 153.165L452.352 161.094C453.644 161.318 454.872 160.453 455.097 159.162L455.675 155.834C455.9 154.542 455.035 153.314 453.743 153.089Z" fill="#F8E4DA"/>
<path d="M451.869 163.858L406.251 155.929C404.96 155.704 403.731 156.569 403.506 157.861L402.928 161.189C402.703 162.48 403.568 163.709 404.86 163.933L450.478 171.862C451.769 172.087 452.998 171.222 453.223 169.93L453.801 166.602C454.026 165.311 453.161 164.082 451.869 163.858Z" fill="#F8E4DA"/>
<path d="M449.951 174.912L404.333 166.984C403.042 166.759 401.813 167.624 401.588 168.915L401.01 172.243C400.786 173.535 401.651 174.763 402.942 174.988L448.56 182.917C449.852 183.141 451.08 182.276 451.305 180.985L451.883 177.657C452.108 176.366 451.243 175.137 449.951 174.912Z" fill="#F8E4DA"/>
<path d="M448.029 185.967L402.411 178.038C401.12 177.814 399.891 178.679 399.666 179.97L399.088 183.298C398.863 184.589 399.728 185.818 401.02 186.043L446.638 193.971C447.929 194.196 449.158 193.331 449.383 192.04L449.961 188.712C450.186 187.42 449.321 186.191 448.029 185.967Z" fill="#F8E4DA"/>
<g opacity="0.6">
<path d="M350.043 201.425L344.499 233.321C344.068 235.802 345.73 238.163 348.211 238.594L375.036 243.256C377.517 243.688 379.878 242.026 380.309 239.545L385.853 207.649C386.284 205.168 384.622 202.807 382.141 202.376L355.316 197.714C352.835 197.282 350.474 198.944 350.043 201.425Z" fill="#F8E4DA"/>
</g>
<path d="M443.331 213.007L397.712 205.078C396.421 204.853 395.192 205.718 394.968 207.01L394.389 210.338C394.165 211.629 395.03 212.858 396.321 213.082L441.939 221.011C443.231 221.236 444.46 220.371 444.684 219.079L445.262 215.751C445.487 214.46 444.622 213.231 443.331 213.007Z" fill="#F8E4DA"/>
<path d="M441.456 223.776L395.838 215.847C394.547 215.623 393.318 216.488 393.093 217.779L392.515 221.107C392.291 222.398 393.155 223.627 394.447 223.852L440.065 231.781C441.357 232.005 442.585 231.14 442.81 229.849L443.388 226.521C443.613 225.229 442.748 224.001 441.456 223.776Z" fill="#F8E4DA"/>
<path d="M439.539 234.831L393.92 226.902C392.629 226.678 391.4 227.542 391.176 228.834L390.597 232.162C390.373 233.453 391.238 234.682 392.529 234.906L438.147 242.835C439.439 243.06 440.668 242.195 440.892 240.903L441.47 237.575C441.695 236.284 440.83 235.055 439.539 234.831Z" fill="#F8E4DA"/>
<path d="M437.613 245.876L391.995 237.947C390.703 237.723 389.474 238.587 389.25 239.879L388.671 243.207C388.447 244.498 389.312 245.727 390.603 245.951L436.222 253.88C437.513 254.105 438.742 253.24 438.966 251.948L439.545 248.621C439.769 247.329 438.904 246.1 437.613 245.876Z" fill="#F8E4DA"/>
<g opacity="0.6">
<path d="M339.627 261.341L334.084 293.236C333.652 295.717 335.314 298.078 337.795 298.509L364.62 303.172C367.101 303.603 369.462 301.941 369.893 299.46L375.437 267.565C375.868 265.083 374.206 262.722 371.725 262.291L344.901 257.629C342.42 257.197 340.059 258.859 339.627 261.341Z" fill="#F8E4DA"/>
</g>
<path d="M432.918 272.916L387.3 264.988C386.009 264.763 384.78 265.628 384.555 266.919L383.977 270.247C383.753 271.539 384.618 272.768 385.909 272.992L431.527 280.921C432.819 281.145 434.047 280.28 434.272 278.989L434.85 275.661C435.075 274.37 434.21 273.141 432.918 272.916Z" fill="#F8E4DA"/>
<path d="M431.044 283.69L385.425 275.761C384.134 275.536 382.905 276.401 382.681 277.693L382.102 281.02C381.878 282.312 382.743 283.541 384.034 283.765L429.652 291.694C430.944 291.918 432.173 291.053 432.397 289.762L432.975 286.434C433.2 285.143 432.335 283.914 431.044 283.69Z" fill="#F8E4DA"/>
<path d="M429.122 294.74L383.504 286.811C382.212 286.586 380.984 287.451 380.759 288.743L380.181 292.071C379.956 293.362 380.821 294.591 382.113 294.815L427.731 302.744C429.022 302.969 430.251 302.104 430.476 300.812L431.054 297.484C431.278 296.193 430.414 294.964 429.122 294.74Z" fill="#F8E4DA"/>
<path d="M427.204 305.794L381.586 297.866C380.295 297.641 379.066 298.506 378.841 299.797L378.263 303.125C378.038 304.417 378.903 305.645 380.195 305.87L425.813 313.799C427.104 314.023 428.333 313.158 428.558 311.867L429.136 308.539C429.361 307.248 428.496 306.019 427.204 305.794Z" fill="#F8E4DA"/>
<g opacity="0.6">
<path d="M364.751 329.089L363.164 338.218L333.093 332.991C332.849 332.951 332.609 332.902 332.369 332.84C330.609 332.436 329 331.693 327.582 330.68L328.942 322.862C329.529 319.498 332.471 317.204 335.524 317.733L360.284 322.04C363.338 322.569 365.333 325.724 364.751 329.089Z" fill="#F8E4DA"/>
</g>
<path d="M422.501 332.834L376.883 324.905C375.592 324.681 374.363 325.546 374.138 326.837L373.56 330.165C373.335 331.456 374.2 332.685 375.492 332.91L421.11 340.839C422.401 341.063 423.63 340.198 423.855 338.907L424.433 335.579C424.658 334.287 423.793 333.059 422.501 332.834Z" fill="#F8E4DA"/>
<path d="M422.409 347.151C420.453 347.693 418.369 347.813 416.267 347.449L371.88 339.733L372.102 338.453C372.404 336.702 373.978 335.516 375.613 335.8L419.987 343.516C421.613 343.8 422.684 345.422 422.404 347.16L422.409 347.151Z" fill="#F8E4DA"/>
<path d="M286.227 37.5822L243.676 80.1333C238.707 85.1022 238.707 93.16 243.676 98.1289L266.28 120.733C271.249 125.702 279.307 125.702 284.276 120.733L296.578 108.431C297.524 107.484 298.902 107.116 300.196 107.462L312.182 110.676C314.964 111.422 317.511 108.876 316.769 106.089L313.556 94.1022C313.209 92.8089 313.578 91.4311 314.524 90.4844L326.827 78.1822C331.796 73.2133 331.796 65.1555 326.827 60.1866L304.222 37.5822C299.253 32.6133 291.196 32.6133 286.227 37.5822Z" fill="white"/>
<path d="M291.396 65.5822C291.373 65.5644 291.351 65.5511 291.329 65.5289C288.573 63.4089 284.636 63.4266 281.902 65.5733C279.404 67.5333 278.48 70.6222 279.124 73.4133C276.333 72.7644 273.249 73.6888 271.284 76.1911C269.138 78.9244 269.12 82.8622 271.24 85.6177C271.262 85.64 271.276 85.6577 271.293 85.6844C272.289 86.9466 273.729 87.7911 275.302 88.1466C276.769 88.4755 278.267 88.6622 279.769 88.6933L293.396 88.9911C294.12 89.0089 294.716 88.4133 294.698 87.6889L294.4 74.0622C294.369 72.56 294.182 71.0622 293.853 69.5955C293.498 68.0222 292.658 66.5866 291.391 65.5866L291.396 65.5822Z" fill="#FF6948"/>
</g>
<defs>
<clipPath id="clip0_214_4697">
<rect width="480" height="480" fill="white"/>
</clipPath>
</defs>
</svg>
