<svg width="480" height="480" viewBox="0 0 480 480" fill="none" xmlns="http://www.w3.org/2000/svg">
<g clip-path="url(#clip0_18_438)">
<path d="M480 240C480 372.551 372.551 480 240 480C224.204 480 208.769 478.476 193.827 475.56C192.333 475.271 190.849 474.964 189.364 474.644C188.893 474.542 188.422 474.44 187.951 474.333C187.604 474.262 187.253 474.182 186.907 474.102C186.431 473.996 185.951 473.884 185.476 473.773C185.302 473.738 185.124 473.693 184.947 473.649C184.289 473.498 183.631 473.342 182.973 473.178C182.258 473.004 181.542 472.827 180.827 472.644C179.902 472.413 178.982 472.173 178.062 471.924C177.556 471.791 177.053 471.658 176.551 471.52C174.422 470.938 172.307 470.329 170.2 469.689C169.511 469.48 168.818 469.267 168.129 469.049C168.111 469.044 168.098 469.04 168.084 469.036C167.391 468.818 166.698 468.596 166.009 468.373C165.333 468.156 164.662 467.933 163.987 467.711C163.44 467.529 162.893 467.342 162.347 467.156C161.898 467.004 161.444 466.849 161 466.689C160.591 466.547 160.187 466.404 159.782 466.262C158.964 465.973 158.147 465.68 157.333 465.378C156.52 465.08 155.707 464.778 154.898 464.471C154.093 464.164 153.289 463.853 152.484 463.542C152.471 463.533 152.458 463.529 152.444 463.524C151.702 463.236 150.964 462.942 150.231 462.644C150.107 462.596 149.987 462.547 149.867 462.498C149.129 462.2 148.4 461.898 147.667 461.591C146.88 461.262 146.098 460.933 145.316 460.596C145.289 460.587 145.262 460.573 145.24 460.564C144.462 460.227 143.684 459.889 142.911 459.547C142.129 459.2 141.351 458.849 140.573 458.498C140.556 458.489 140.542 458.484 140.533 458.48C139.773 458.133 139.018 457.782 138.267 457.431C138.24 457.418 138.213 457.404 138.187 457.396C137.413 457.031 136.644 456.667 135.88 456.293C135.24 455.987 134.609 455.68 133.973 455.364C133.773 455.271 133.578 455.169 133.378 455.071C132.671 454.72 131.964 454.364 131.258 454.004C130.582 453.662 129.907 453.311 129.231 452.96C128.382 452.52 127.538 452.076 126.698 451.622C125.942 451.218 125.187 450.804 124.436 450.391C122.093 449.107 119.778 447.778 117.484 446.413C116.836 446.027 116.191 445.64 115.547 445.249C113.938 444.271 112.338 443.276 110.751 442.253C110.253 441.938 109.76 441.618 109.267 441.298C108.644 440.893 108.022 440.484 107.404 440.071C107 439.809 106.6 439.538 106.2 439.267C105.796 438.996 105.391 438.724 104.987 438.444C104.862 438.364 104.738 438.276 104.609 438.187C104.044 437.804 103.484 437.418 102.929 437.027C102.747 436.902 102.569 436.778 102.387 436.649C101.924 436.329 101.467 436.004 101.013 435.68C100.733 435.48 100.453 435.284 100.173 435.08C99.8222 434.827 99.4711 434.573 99.12 434.32C98.7511 434.053 98.3822 433.782 98.0178 433.511C97.7867 433.347 97.5556 433.178 97.3244 433C96.8933 432.684 96.4667 432.364 96.04 432.044C95.1422 431.373 94.2533 430.693 93.3644 430.004C92.8933 429.64 92.4222 429.276 91.9511 428.907C91.3333 428.422 90.7156 427.933 90.1022 427.44C89.2978 426.796 88.4933 426.147 87.6933 425.484C87.2267 425.102 86.76 424.716 86.2978 424.329C85.6756 423.813 85.0578 423.293 84.4444 422.769C81.9867 420.671 79.5689 418.529 77.2 416.338C76.6044 415.787 76.0133 415.236 75.4267 414.684C74.2533 413.578 73.0889 412.458 71.9378 411.324C71.36 410.76 70.7867 410.191 70.2178 409.622C69.0756 408.48 67.9467 407.324 66.8267 406.16C66.2711 405.578 65.7111 404.991 65.16 404.404C64.6089 403.818 64.0578 403.227 63.5111 402.631C62.9644 402.036 62.4178 401.44 61.8756 400.84C61.3378 400.244 60.7956 399.64 60.2622 399.036C59.6756 398.369 59.0889 397.702 58.5067 397.031C56.7733 395.031 55.0711 393 53.4044 390.942C53.3822 390.92 53.36 390.893 53.3467 390.871C52.8578 390.267 52.3733 389.662 51.8889 389.053C51.7644 388.898 51.6444 388.747 51.5244 388.591C51.1244 388.089 50.7289 387.582 50.3378 387.076C49.9067 386.524 49.48 385.969 49.0578 385.413C48.7467 385.013 48.44 384.609 48.1422 384.204C47.8356 383.8 47.5333 383.396 47.2356 382.991C46.8044 382.413 46.3778 381.836 45.96 381.258C45.6133 380.787 45.2711 380.316 44.9333 379.844C44.7911 379.649 44.6533 379.453 44.5156 379.258C44.1733 378.787 43.84 378.316 43.5111 377.84C42.0489 375.76 40.6178 373.658 39.2267 371.533C38.7378 370.791 38.2533 370.044 37.7733 369.293C37.3822 368.684 36.9911 368.071 36.6044 367.453C36.0444 366.56 35.4889 365.662 34.9378 364.76C28.0533 353.476 22.0756 341.573 17.1067 329.156C16.6044 327.907 16.1156 326.649 15.6356 325.387C15.6222 325.356 15.6133 325.329 15.6044 325.298C13.0933 318.702 10.8667 311.969 8.93778 305.107C8.88889 304.933 8.84 304.76 8.79556 304.587C3.06222 284.04 0 262.378 0 240C0 107.453 107.453 0 240 0C325.929 0 401.311 45.16 443.707 113.036C444.707 114.64 445.689 116.253 446.649 117.884C450.16 123.813 453.427 129.907 456.422 136.151C459.507 142.564 462.316 149.133 464.827 155.849C465.947 158.827 467 161.831 468 164.862C475.782 188.498 479.996 213.756 479.996 240H480Z" fill="#D3F0D6"/>
<path d="M204.925 151.653C204.925 182.747 172.29 207.956 132.032 207.956C126.708 207.956 121.512 207.516 116.512 206.676C83.712 201.182 59.1387 178.631 59.1387 151.653C59.1387 121.022 90.7964 96.1067 130.219 95.3645C130.819 95.3511 131.423 95.3467 132.032 95.3467C132.641 95.3467 133.245 95.3511 133.845 95.3645C150.254 95.6756 165.316 100.169 177.312 107.529C194.134 117.84 204.925 133.773 204.925 151.653Z" fill="white"/>
<path d="M133.85 64.3018H130.219V99.3995H133.85V64.3018Z" fill="white"/>
<path d="M132.031 68.3333C136.673 68.3333 140.436 64.5705 140.436 59.9289C140.436 55.2872 136.673 51.5244 132.031 51.5244C127.39 51.5244 123.627 55.2872 123.627 59.9289C123.627 64.5705 127.39 68.3333 132.031 68.3333Z" fill="#FF6948"/>
<path d="M111.335 139.297C109.508 138.431 106.019 137.071 101.441 137.066C96.8325 137.062 93.3169 138.431 91.4902 139.297C91.4902 133.857 95.9702 129.382 101.41 129.382C106.85 129.382 111.33 133.822 111.33 139.297H111.335Z" fill="#C1A193"/>
<path d="M152.73 139.297C154.557 138.431 158.046 137.071 162.624 137.066C167.233 137.062 170.748 138.431 172.575 139.297C172.575 133.857 168.095 129.382 162.655 129.382C157.215 129.382 152.735 133.822 152.735 139.297H152.73Z" fill="#C1A193"/>
<path d="M150.464 162.725H113.602C113.602 172.831 121.926 181.147 132.033 181.147C142.139 181.147 150.464 172.898 150.464 162.725V162.725Z" fill="#FF6948"/>
<path opacity="0.4" d="M204.925 151.654C204.925 182.747 172.29 207.956 132.032 207.956C126.707 207.956 121.512 207.516 116.512 206.676C121.294 206.707 126.312 206.329 131.516 205.414C137.09 204.436 181.743 196.578 191.236 161.574C196.027 143.903 190.654 123.752 177.312 107.529C194.134 117.84 204.925 133.774 204.925 151.654V151.654Z" fill="#C1A193"/>
<path d="M109.502 275.565L61.1771 303.591L39.306 316.276L36.6483 317.818L17.106 329.156C16.6038 327.907 16.1149 326.649 15.6349 325.387C15.6216 325.356 15.6127 325.329 15.6038 325.298C13.0927 318.703 10.866 311.969 8.93714 305.107C8.88826 304.934 8.83937 304.76 8.79492 304.587L75.5016 243.138L81.6883 237.44C82.0438 237.129 82.4483 236.907 82.8971 236.774C85.4394 235.978 89.2483 237.943 91.986 241.698L108.582 264.445C111.799 268.854 112.217 273.929 109.502 275.565V275.565Z" fill="white"/>
<path opacity="0.4" d="M66.6359 277.791C64.8181 286.391 62.9959 294.991 61.1781 303.591L39.307 316.275L36.6492 317.818L17.107 329.155C16.6581 328.004 16.2047 326.853 15.7559 325.702C20.5247 322.898 25.4936 319.635 30.5381 315.84C47.1114 303.364 58.6981 289.467 66.6314 277.791H66.6359Z" fill="#C1A193"/>
<path d="M319.565 194.254L262.511 245.938L216.942 287.218C214.782 289.085 210.573 287.307 207.707 283.329L192.929 262.783C190.067 258.8 189.725 254.245 192.178 252.787L207.253 244.209L310.862 185.258C313.138 183.907 321.467 180.311 324.129 184.014C326.791 187.716 321.56 192.52 319.556 194.254H319.565Z" fill="white"/>
<path opacity="0.4" d="M262.511 245.938L216.942 287.218C214.782 289.085 210.573 287.307 207.707 283.329L192.929 262.782C190.067 258.8 189.725 254.245 192.178 252.787C195.907 250.667 199.636 248.547 203.36 246.422C208.707 248.987 219.293 253.191 233.218 253.027C246.889 252.867 257.218 248.578 262.502 245.934L262.511 245.938Z" fill="#C1A193"/>
<path d="M237.038 358.422C237.038 406.898 219.95 449.738 193.825 475.56C182.154 473.285 170.781 470.165 159.781 466.262C107.421 447.702 63.4207 411.48 34.9362 364.76C34.8651 362.658 34.834 360.547 34.834 358.422C34.834 341.782 36.8473 325.809 40.5451 310.96C47.274 283.969 59.5718 260.693 75.4918 243.889C92.354 226.093 113.274 215.556 135.936 215.556C156.172 215.556 175.025 223.96 190.834 238.431C200.434 247.218 208.91 258.245 215.901 270.987C220.843 280 225.038 289.871 228.358 300.418C233.936 318.142 237.038 337.769 237.038 358.422V358.422Z" fill="white"/>
<path opacity="0.4" d="M237.039 358.422C237.039 406.898 219.951 449.738 193.826 475.56C141.084 465.285 94.515 437.734 60.2617 399.036C70.4573 406.667 98.7773 425.729 138.382 425.445C150.946 425.356 179.511 425.151 202.382 406.045C229.662 383.254 239.048 341.756 228.359 300.418C233.937 318.142 237.039 337.769 237.039 358.422V358.422Z" fill="#C1A193"/>
<path d="M132.03 256.124C134.129 256.124 135.83 254.423 135.83 252.324C135.83 250.226 134.129 248.524 132.03 248.524C129.932 248.524 128.23 250.226 128.23 252.324C128.23 254.423 129.932 256.124 132.03 256.124Z" fill="#C1A193"/>
<path d="M115.546 256.124C117.645 256.124 119.346 254.423 119.346 252.324C119.346 250.226 117.645 248.524 115.546 248.524C113.447 248.524 111.746 250.226 111.746 252.324C111.746 254.423 113.447 256.124 115.546 256.124Z" fill="#C1A193"/>
<path d="M148.626 256.124C150.725 256.124 152.426 254.423 152.426 252.324C152.426 250.226 150.725 248.524 148.626 248.524C146.527 248.524 144.826 250.226 144.826 252.324C144.826 254.423 146.527 256.124 148.626 256.124Z" fill="#C1A193"/>
<path d="M164.799 271.24H99.2616C94.9685 271.24 91.4883 274.72 91.4883 279.014V312.649C91.4883 316.942 94.9685 320.422 99.2616 320.422H164.799C169.092 320.422 172.573 316.942 172.573 312.649V279.014C172.573 274.72 169.092 271.24 164.799 271.24Z" fill="#F8E4DA"/>
<path d="M156.506 278.382H127.711C123.597 278.382 120.262 281.717 120.262 285.831C120.262 289.945 123.597 293.28 127.711 293.28H156.506C160.62 293.28 163.955 289.945 163.955 285.831C163.955 281.717 160.62 278.382 156.506 278.382Z" fill="#C1A193"/>
<path d="M156.506 297.871H127.711C123.597 297.871 120.262 301.206 120.262 305.32C120.262 309.434 123.597 312.769 127.711 312.769H156.506C160.62 312.769 163.955 309.434 163.955 305.32C163.955 301.206 160.62 297.871 156.506 297.871Z" fill="#C1A193"/>
<path d="M105.906 293.28C110.02 293.28 113.355 289.945 113.355 285.831C113.355 281.717 110.02 278.382 105.906 278.382C101.792 278.382 98.457 281.717 98.457 285.831C98.457 289.945 101.792 293.28 105.906 293.28Z" fill="#C1A193"/>
<path d="M105.906 312.769C110.02 312.769 113.355 309.434 113.355 305.32C113.355 301.206 110.02 297.871 105.906 297.871C101.792 297.871 98.457 301.206 98.457 305.32C98.457 309.434 101.792 312.769 105.906 312.769Z" fill="#C1A193"/>
<path d="M468.005 164.862L437.694 339.205C436.174 347.947 427.859 353.8 419.121 352.28L328.952 336.605C320.214 335.085 314.361 326.769 315.881 318.031L351.472 113.307C352.987 104.565 361.307 98.7114 370.045 100.231L443.707 113.036C444.707 114.64 445.69 116.254 446.65 117.885C450.161 123.814 453.427 129.907 456.423 136.151C459.507 142.565 462.316 149.134 464.827 155.849C465.947 158.827 467.001 161.831 468.001 164.862H468.005Z" fill="white"/>
<path d="M464.833 155.849L433.833 334.178C432.81 340.04 428.948 344.645 424.05 346.605C423.513 346.818 422.966 347.005 422.41 347.151C420.455 347.694 418.37 347.814 416.268 347.449L371.882 339.734L363.166 338.218L333.273 333.018C333.019 332.978 332.77 332.925 332.526 332.867C330.713 332.454 329.055 331.698 327.588 330.68C327.397 330.551 327.21 330.414 327.028 330.271C322.566 326.836 320.126 320.849 321.215 314.596L355.295 118.569L355.344 118.294C356.877 109.56 364.735 103.64 372.899 105.062L446.65 117.885C450.162 123.814 453.428 129.907 456.424 136.151C459.508 142.565 462.317 149.134 464.828 155.849H464.833Z" fill="white"/>
<path d="M456.428 136.151L355.295 118.569L355.344 118.293L356.277 112.902C357.282 107.151 362.753 103.298 368.508 104.298L372.899 105.062L446.65 117.884C450.162 123.813 453.428 129.906 456.424 136.151H456.428Z" fill="#F8E4DA"/>
<path d="M430.594 121.82L395.945 115.797C395.338 115.692 394.76 116.099 394.655 116.706L394.518 117.494C394.412 118.101 394.819 118.678 395.426 118.784L430.075 124.806C430.682 124.912 431.26 124.505 431.365 123.898L431.502 123.11C431.608 122.503 431.201 121.925 430.594 121.82Z" fill="white"/>
<g opacity="0.6">
<path d="M360.455 141.511L354.912 173.406C354.48 175.887 356.142 178.248 358.624 178.679L385.448 183.342C387.929 183.773 390.29 182.111 390.722 179.63L396.265 147.735C396.696 145.253 395.035 142.892 392.553 142.461L365.729 137.799C363.248 137.368 360.887 139.029 360.455 141.511Z" fill="#F8E4DA"/>
</g>
<path d="M453.746 153.089L408.127 145.16C406.836 144.936 405.607 145.801 405.383 147.092L404.804 150.42C404.58 151.711 405.445 152.94 406.736 153.165L452.354 161.094C453.646 161.318 454.875 160.453 455.099 159.162L455.677 155.834C455.902 154.542 455.037 153.314 453.746 153.089Z" fill="#F8E4DA"/>
<path d="M451.871 163.858L406.252 155.929C404.961 155.704 403.732 156.569 403.508 157.861L402.929 161.189C402.705 162.48 403.57 163.709 404.861 163.933L450.479 171.862C451.771 172.087 453 171.222 453.224 169.93L453.802 166.602C454.027 165.311 453.162 164.082 451.871 163.858Z" fill="#F8E4DA"/>
<path d="M449.953 174.912L404.334 166.984C403.043 166.759 401.814 167.624 401.59 168.915L401.011 172.243C400.787 173.535 401.652 174.764 402.943 174.988L448.561 182.917C449.853 183.141 451.082 182.276 451.306 180.985L451.885 177.657C452.109 176.366 451.244 175.137 449.953 174.912Z" fill="#F8E4DA"/>
<path d="M448.031 185.967L402.413 178.038C401.121 177.814 399.892 178.679 399.668 179.97L399.089 183.298C398.865 184.589 399.73 185.818 401.021 186.043L446.64 193.972C447.931 194.196 449.16 193.331 449.384 192.04L449.963 188.712C450.187 187.42 449.322 186.192 448.031 185.967Z" fill="#F8E4DA"/>
<g opacity="0.6">
<path d="M350.043 201.426L344.5 233.321C344.068 235.802 345.73 238.163 348.211 238.594L375.036 243.257C377.517 243.688 379.878 242.026 380.309 239.545L385.853 207.65C386.284 205.168 384.622 202.807 382.141 202.376L355.317 197.714C352.836 197.283 350.475 198.944 350.043 201.426Z" fill="#F8E4DA"/>
</g>
<path d="M443.332 213.006L397.713 205.077C396.422 204.853 395.193 205.718 394.969 207.009L394.39 210.337C394.166 211.628 395.031 212.857 396.322 213.082L441.94 221.011C443.232 221.235 444.461 220.37 444.685 219.079L445.263 215.751C445.488 214.459 444.623 213.231 443.332 213.006Z" fill="#F8E4DA"/>
<path d="M441.457 223.776L395.838 215.847C394.547 215.622 393.318 216.487 393.094 217.779L392.515 221.107C392.291 222.398 393.156 223.627 394.447 223.851L440.065 231.78C441.357 232.005 442.586 231.14 442.81 229.848L443.388 226.52C443.613 225.229 442.748 224 441.457 223.776Z" fill="#F8E4DA"/>
<path d="M439.539 234.83L393.92 226.902C392.629 226.677 391.4 227.542 391.176 228.833L390.597 232.161C390.373 233.453 391.238 234.682 392.529 234.906L438.147 242.835C439.439 243.059 440.668 242.194 440.892 240.903L441.47 237.575C441.695 236.284 440.83 235.055 439.539 234.83Z" fill="#F8E4DA"/>
<path d="M437.613 245.875L391.995 237.946C390.703 237.722 389.474 238.587 389.25 239.878L388.671 243.206C388.447 244.498 389.312 245.726 390.603 245.951L436.222 253.88C437.513 254.104 438.742 253.239 438.966 251.948L439.545 248.62C439.769 247.329 438.904 246.1 437.613 245.875Z" fill="#F8E4DA"/>
<g opacity="0.6">
<path d="M339.627 261.341L334.084 293.236C333.652 295.717 335.314 298.078 337.795 298.509L364.62 303.172C367.101 303.603 369.462 301.941 369.893 299.46L375.437 267.565C375.868 265.084 374.206 262.723 371.725 262.291L344.901 257.629C342.42 257.198 340.059 258.859 339.627 261.341Z" fill="#F8E4DA"/>
</g>
<path d="M432.918 272.916L387.299 264.987C386.008 264.763 384.779 265.628 384.555 266.919L383.976 270.247C383.752 271.539 384.617 272.767 385.908 272.992L431.526 280.921C432.818 281.145 434.047 280.28 434.271 278.989L434.849 275.661C435.074 274.37 434.209 273.141 432.918 272.916Z" fill="#F8E4DA"/>
<path d="M431.044 283.69L385.426 275.761C384.135 275.536 382.906 276.401 382.681 277.693L382.103 281.021C381.879 282.312 382.744 283.541 384.035 283.765L429.653 291.694C430.945 291.919 432.173 291.054 432.398 289.762L432.976 286.434C433.201 285.143 432.336 283.914 431.044 283.69Z" fill="#F8E4DA"/>
<path d="M429.123 294.74L383.504 286.811C382.213 286.586 380.984 287.451 380.76 288.743L380.181 292.07C379.957 293.362 380.822 294.591 382.113 294.815L427.731 302.744C429.023 302.968 430.252 302.104 430.476 300.812L431.054 297.484C431.279 296.193 430.414 294.964 429.123 294.74Z" fill="#F8E4DA"/>
<path d="M427.205 305.794L381.586 297.865C380.295 297.641 379.066 298.506 378.842 299.797L378.263 303.125C378.039 304.417 378.904 305.645 380.195 305.87L425.813 313.799C427.105 314.023 428.334 313.158 428.558 311.867L429.136 308.539C429.361 307.248 428.496 306.019 427.205 305.794Z" fill="#F8E4DA"/>
<g opacity="0.6">
<path d="M364.753 329.09L363.166 338.218L333.095 332.992C332.851 332.952 332.611 332.903 332.371 332.841C330.611 332.436 329.002 331.694 327.584 330.681L328.944 322.863C329.531 319.498 332.473 317.205 335.526 317.734L360.286 322.041C363.34 322.57 365.335 325.725 364.753 329.09V329.09Z" fill="#F8E4DA"/>
</g>
<path d="M422.503 332.835L376.885 324.906C375.594 324.682 374.365 325.547 374.14 326.838L373.562 330.166C373.338 331.458 374.202 332.686 375.494 332.911L421.112 340.84C422.404 341.064 423.632 340.199 423.857 338.908L424.435 335.58C424.66 334.289 423.795 333.06 422.503 332.835Z" fill="#F8E4DA"/>
<path d="M422.41 347.152C420.454 347.694 418.37 347.814 416.268 347.45L371.881 339.734L372.103 338.454C372.405 336.703 373.979 335.516 375.614 335.801L419.988 343.516C421.614 343.801 422.685 345.423 422.405 347.161L422.41 347.152Z" fill="#F8E4DA"/>
<path d="M286.227 37.5821L243.676 80.1333C238.707 85.1021 238.707 93.1599 243.676 98.1288L266.28 120.733C271.249 125.702 279.307 125.702 284.276 120.733L296.578 108.431C297.525 107.484 298.903 107.115 300.196 107.462L312.183 110.675C314.965 111.422 317.511 108.875 316.769 106.089L313.556 94.1021C313.209 92.8088 313.578 91.431 314.525 90.4844L326.827 78.1821C331.796 73.2133 331.796 65.1555 326.827 60.1866L304.223 37.5821C299.254 32.6132 291.196 32.6132 286.227 37.5821V37.5821Z" fill="white"/>
<path d="M291.396 65.5824C291.373 65.5646 291.351 65.5513 291.329 65.529C288.573 63.409 284.636 63.4268 281.902 65.5735C279.404 67.5335 278.48 70.6224 279.124 73.4135C276.333 72.7646 273.249 73.689 271.284 76.1913C269.138 78.9246 269.12 82.8624 271.24 85.6179C271.262 85.6401 271.276 85.6579 271.293 85.6846C272.289 86.9468 273.729 87.7913 275.302 88.1468C276.769 88.4757 278.267 88.6624 279.769 88.6935L293.396 88.9913C294.12 89.009 294.716 88.4135 294.698 87.689L294.4 74.0624C294.369 72.5601 294.182 71.0624 293.853 69.5957C293.498 68.0224 292.658 66.5868 291.391 65.5868L291.396 65.5824Z" fill="#FF6948"/>
</g>
<defs>
<clipPath id="clip0_18_438">
<rect width="480" height="480" fill="white"/>
</clipPath>
</defs>
</svg>
