<svg width="24" height="26" viewBox="0 0 24 26" fill="none" xmlns="http://www.w3.org/2000/svg">
<path d="M23.5428 12.0592L18.684 9.32643L14.6874 13.0924L18.3405 16.533L23.5428 13.6051C23.6823 13.5273 23.7981 13.4149 23.8784 13.2794C23.9587 13.1438 24.0007 12.9899 24 12.8334C24.0011 12.6765 23.9594 12.5221 23.8791 12.386C23.7988 12.25 23.6827 12.1372 23.5428 12.0592ZM17.8593 8.86186L12.5126 5.85325L0.795321 0L14.0297 12.4717L17.8593 8.86186ZM0.989138 26L12.5327 19.8019L17.5158 16.9976L14.0297 13.7131L0.989138 26ZM0.0133667 0.504905L0 25.6916L13.3707 13.0924L0.0133667 0.504905Z" fill="#302E2B"/>
</svg>
