<svg width="216" height="50" viewBox="0 0 216 50" fill="none" xmlns="http://www.w3.org/2000/svg">
<g clip-path="url(#clip0_214_4878)">
<path d="M29 0C30.1046 0 31 0.895431 31 2V28.1465C31 28.6917 30.7774 29.2133 30.3838 29.5905L19.5802 39.944C19.2079 40.3008 18.7121 40.5 18.1964 40.5H14C12.8954 40.5 12 39.6046 12 38.5V2C12 0.895429 12.8954 0 14 0H29Z" fill="#302E2B"/>
<path d="M3.41421 49C2.52331 49 2.05018 47.9515 2.68134 47.3228C11.3115 38.7255 50.333 1.05125e-07 53 9.47052e-07C56 1.8941e-06 95 22 95 22L58.2092 6.50915C57.475 6.20001 56.6274 6.35608 56.0514 6.90644L13.4495 47.615C12.5192 48.5039 11.2819 49 9.99518 49H3.41421Z" fill="#FF6948"/>
<path d="M66.727 24.4838L63.0896 28.4386C62.6743 28.0647 59.982 25.7206 56.4305 26.2814C52.5783 26.8711 49.8574 30.5382 49.6855 34.1334C49.4421 38.9654 53.8099 42.7908 58.0344 43.2366C60.9558 43.5529 63.2615 42.1868 64.1493 41.5971L65.7819 46.0552C64.5503 46.8462 62.5597 47.896 59.9391 48.4568C58.8507 48.6869 55.6715 49.3628 52.7788 48.4568C47.5088 46.803 43.7425 40.044 44.2151 33.6876C44.616 28.3379 48.0243 22.8875 52.7788 21.2337C55.4997 20.2846 59.3376 20.3421 61.6289 21.2769C63.9775 22.2404 65.5957 23.3765 66.7127 24.5126L66.727 24.4838Z" fill="#302E2B"/>
<path d="M75.7633 32.6809C80.6896 32.6666 84.6421 37.441 83.8831 42.2011C83.2673 46.0121 79.7588 49.0321 75.7633 49.0033C71.4672 48.9602 67.6436 45.3937 67.6436 40.8493C67.6436 36.3049 71.5244 32.7097 75.7633 32.6953V32.6809ZM75.7633 36.7651C73.5293 36.7651 71.6963 38.6059 71.6963 40.8493C71.6963 43.0927 73.5293 44.9335 75.7633 44.9335C77.9974 44.9335 79.8304 43.0927 79.8304 40.8493C79.8304 38.6059 77.9974 36.7651 75.7633 36.7651V36.7651Z" fill="#302E2B"/>
<path d="M101.655 26.7848C101.741 27.3169 101.813 27.9784 101.798 28.7406C101.77 29.6035 101.626 30.3369 101.483 30.8978C99.8507 30.2794 98.4616 30.1643 97.5737 30.1643C97.0868 30.1643 94.1367 30.1931 91.7738 31.9332C90.7571 32.681 90.4134 33.3282 90.2415 33.7883C90.0267 34.3923 90.0267 34.9388 90.0554 35.284C90.6139 34.6943 92.5901 32.7817 95.3683 32.7817C99.2778 32.7817 102.93 36.5639 102.944 40.8206C102.944 45.3794 98.8339 48.9315 94.595 48.989C90.8573 49.0321 87.85 46.3285 86.7616 43.7112C86.3034 42.5895 86.2747 41.2089 86.2174 38.4478C86.1745 35.888 86.1602 34.3348 86.9335 32.5372C87.7354 30.6677 88.9384 29.5028 89.4539 29.057C92.2464 26.5979 95.6691 26.5116 97.7169 26.4541C99.4067 26.4109 100.782 26.6266 101.655 26.7992V26.7848ZM99.0774 39.5982C98.6191 37.6281 96.5856 36.1037 94.4088 36.5207C92.318 36.9234 90.9576 38.9511 91.1867 41.0076C91.4301 43.1072 93.2775 44.6891 95.2394 44.6316C97.6883 44.574 99.6359 41.9999 99.063 39.5839L99.0774 39.5982Z" fill="#302E2B"/>
<path d="M107.011 49.0032H104.977V33.0403C105.493 33.1122 106.066 33.1554 106.71 33.1698C107.455 33.1698 108.114 33.1266 108.701 33.0403V41.6833L116.491 33.0403C116.72 32.9828 117.007 32.9397 117.35 32.9253C117.737 32.9253 118.081 32.9828 118.324 33.0403V49.0032H114.601V40.4321L107.011 49.0032V49.0032Z" fill="#302E2B"/>
<path d="M120.2 32.9829C122.262 32.8103 124.496 32.6953 126.874 32.6809C129.566 32.6809 132.072 32.7816 134.378 32.9829V36.7939H129.752V48.9457C128.148 48.9457 126.544 48.9745 124.926 48.9889L125.026 36.7939H120.186V32.9829H120.2Z" fill="#302E2B"/>
<path d="M151.448 42.0861H139.404C139.977 44.0994 141.71 45.5231 143.686 45.6381C145.376 45.7388 147.023 44.876 147.968 43.3947L150.46 45.6525C150.145 46.0408 147.638 49.1183 143.715 49.0033C139.733 48.8882 135.896 45.5375 135.767 41.0506C135.652 36.5638 139.318 32.6809 143.543 32.6665C148.011 32.6522 151.978 36.9377 151.448 42.0717V42.0861ZM147.524 39.4256C147.295 37.3835 145.533 35.8447 143.543 35.8879C141.624 35.931 139.991 37.3979 139.733 39.3537L147.538 39.4112L147.524 39.4256Z" fill="#302E2B"/>
<path d="M153.682 33.0406C154.183 33.1269 154.784 33.1844 155.443 33.1988C156.231 33.1988 156.918 33.1412 157.505 33.0406V39.0087L162.761 33.0406C163.32 32.9687 163.921 32.9112 164.58 32.8968C165.639 32.868 166.599 32.9399 167.43 33.0406L160.656 40.8207L167.515 49.0034H162.446C160.799 47.2921 159.152 45.5808 157.505 43.8694V49.0034H153.682V33.0406V33.0406Z" fill="#302E2B"/>
<path d="M178.857 33.0549H182.681C182.867 35.2264 182.982 37.5705 182.996 40.0297C183.025 43.1072 182.896 45.969 182.681 48.6151H178.857V46.9757C178.141 47.6372 176.452 49.0178 174.175 49.0178C170.322 49.0321 166.685 45.1205 166.685 40.8206C166.685 36.5926 170.222 32.7529 174.06 32.6666C176.366 32.6091 178.127 33.9178 178.857 34.5362V33.0549V33.0549ZM173.759 36.7796C171.84 36.9809 170.509 38.8792 170.48 40.6912C170.451 42.7908 172.184 44.9336 174.375 44.8329C176.452 44.7322 177.984 42.6758 177.898 40.6481C177.812 38.5197 175.907 36.5495 173.774 36.7796H173.759Z" fill="#302E2B"/>
</g>
<defs>
<clipPath id="clip0_214_4878">
<rect width="216" height="50" fill="white"/>
</clipPath>
</defs>
</svg>
