<svg width="1920" height="626" viewBox="0 0 1920 626" fill="none" xmlns="http://www.w3.org/2000/svg">
<path d="M0 0H1920V578H0V0Z" fill="#FBF8F4"/>
<g clip-path="url(#clip0_2_1214)">
<path d="M1920 53V568H950C950 472.469 980.084 383.014 1032.51 306.329C1037.56 298.947 1042.81 291.685 1048.27 284.543C1154.85 145.035 1337.85 53 1545.71 53H1920Z" fill="#F8E4DA"/>
<rect x="1115" y="213" width="2" height="263" fill="#C69F8E" fill-opacity="0.4"/>
<rect x="1413" y="213" width="2" height="269" fill="#C69F8E" fill-opacity="0.4"/>
<path d="M1562.48 526.159C1574.25 532.684 1580.08 549.459 1576.42 567.931H1408.37C1378.1 559.02 1365 526.215 1375.53 504.152C1385.47 483.314 1416.25 472.547 1442.04 487.138C1451.11 476.788 1465.09 472.585 1477.58 476.429C1492.98 481.155 1498.53 495.753 1499.15 497.457C1500.33 496.788 1514.64 489.082 1529.77 496.642C1545.79 504.638 1547.62 522.189 1547.71 523.18C1555.06 522.681 1559.94 524.751 1562.48 526.159V526.159Z" fill="#8DC292"/>
<path d="M1010.02 567.931H1174.02C1178.5 564.485 1185.21 558.332 1189.75 548.745C1198.31 530.652 1198.77 501.092 1179.84 488.59C1163.73 477.949 1143.13 485.996 1140.34 487.138C1138.16 484.746 1130.2 476.618 1117.88 475.709C1103.99 474.687 1090.19 483.282 1083.23 497.457C1074.97 491.947 1064.39 491.366 1055.81 495.986C1046.4 501.047 1040.93 511.517 1042.04 522.404C1040 522.397 1025.65 522.593 1015.77 534.388C1003.64 548.853 1009.71 567.06 1010.02 567.931V567.931Z" fill="#8DC292"/>
<path d="M1134.5 555.624C1134.5 559.991 1133.61 564.15 1132.01 567.931H1045.39C1044.76 565.943 1044.42 563.822 1044.42 561.62C1044.42 550.121 1053.73 540.8 1065.22 540.8C1068.47 540.8 1071.54 541.545 1074.29 542.876C1079.17 531.838 1090.21 524.139 1103.05 524.139C1120.42 524.139 1134.5 538.238 1134.5 555.624V555.624Z" fill="#3B5737"/>
<path d="M1507.18 567.931H1376.3C1371.86 540.478 1384.05 519.639 1397.87 517.033C1407.4 515.234 1416.46 522.353 1420.12 525.622C1425.19 513.739 1437.94 507.794 1448.81 511.132C1457.47 513.795 1463.88 522.031 1464.84 531.87C1474.86 524.688 1487.99 524.183 1497.6 530.456C1509.2 538.017 1513.72 554.135 1507.18 567.937L1507.18 567.931Z" fill="#4D8344"/>
<g filter="url(#filter0_d_2_1214)">
<path d="M1413.78 218.873H1115.5V567.867H1413.78V218.873Z" fill="#C1A193"/>
<path opacity="0.5" d="M1161.1 230.271H1145.61V237.131H1161.1V230.271Z" fill="#9F7464"/>
<path opacity="0.5" d="M1239.52 348.872H1226.77V354.514H1239.52V348.872Z" fill="#9F7464"/>
<path opacity="0.5" d="M1257.69 357.493H1242.2V363.753H1257.69V357.493Z" fill="#9F7464"/>
<path opacity="0.5" d="M1232.55 402.9H1217.06V409.76H1232.55V402.9Z" fill="#9F7464"/>
<path opacity="0.5" d="M1242.64 503.023H1229.51V508.507H1242.64V503.023Z" fill="#9F7464"/>
<path opacity="0.5" d="M1259.8 506.424H1246.67V511.909H1259.8V506.424Z" fill="#9F7464"/>
<path opacity="0.5" d="M1386.11 231.748H1370.62V238.608H1386.11V231.748Z" fill="#9F7464"/>
<path opacity="0.5" d="M1235.82 422.35H1223.58V427.765H1235.82V422.35Z" fill="#9F7464"/>
<path opacity="0.5" d="M1302.32 388.511H1290.09V393.926H1302.32V388.511Z" fill="#9F7464"/>
<path opacity="0.5" d="M1309.76 456.694H1297.53V462.109H1309.76V456.694Z" fill="#9F7464"/>
<path opacity="0.5" d="M1318.16 442.116H1305.92V447.531H1318.16V442.116Z" fill="#9F7464"/>
<path opacity="0.5" d="M1374.22 381.866H1361.99V387.28H1374.22V381.866Z" fill="#9F7464"/>
<path opacity="0.2" d="M1397.02 350.98H1384.78V356.395H1397.02V350.98Z" fill="#9F7464"/>
<path opacity="0.2" d="M1144.37 430.655H1132.14V436.07H1144.37V430.655Z" fill="#9F7464"/>
<path opacity="0.2" d="M1403.13 431.735H1390.9V437.149H1403.13V431.735Z" fill="#9F7464"/>
<path opacity="0.2" d="M1390.1 500.315H1377.87V505.73H1390.1V500.315Z" fill="#9F7464"/>
<path opacity="0.2" d="M1138.25 497.608H1126.02V503.023H1138.25V497.608Z" fill="#9F7464"/>
<path opacity="0.5" d="M1309.51 262.646H1297.78V267.834H1309.51V262.646Z" fill="#9F7464"/>
<path opacity="0.5" d="M1244.62 234.531H1232.9V239.718H1244.62V234.531Z" fill="#9F7464"/>
<path opacity="0.5" d="M1255.54 226.213H1243.82V231.401H1255.54V226.213Z" fill="#9F7464"/>
<path opacity="0.5" d="M1158.44 359.127H1146.72V364.315H1158.44V359.127Z" fill="#9F7464"/>
<path opacity="0.5" d="M1166.23 352.305H1154.51V357.493H1166.23V352.305Z" fill="#9F7464"/>
<path opacity="0.5" d="M1316.47 270.749H1304.75V275.937H1316.47V270.749Z" fill="#9F7464"/>
<path d="M1413.78 515.771H1115.5V567.861H1413.78V515.771Z" fill="white"/>
<path d="M1123 238.141V268.995H1128.29V299.836H1123V330.69H1128.29V361.532H1123V392.386H1128.29V423.227H1123V454.082H1128.29V484.923H1123V515.777H1115.5V218.873H1128.29V238.141H1123Z" fill="white"/>
<path d="M1413.78 218.873V515.777H1406.11V484.923H1400.82V454.082H1406.11V423.227H1400.82V392.386H1406.11V361.532H1400.82V330.69H1406.11V299.836H1400.82V268.995H1406.11V238.141H1400.82V218.873H1413.78Z" fill="white"/>
<path d="M1413.78 369.136H1115.5V374.772H1413.78V369.136Z" fill="white"/>
</g>
<path d="M1179.77 388.511C1196.53 388.511 1210.15 402.136 1210.15 418.917V514.862C1210.15 516.478 1208.84 517.784 1207.23 517.784H1152.31C1150.69 517.784 1149.39 516.478 1149.39 514.862V418.917C1149.39 402.136 1163 388.511 1179.77 388.511V388.511Z" fill="#FBF8F4"/>
<path d="M1179.5 391C1195.23 391 1208 403.841 1208 419.666V515H1151V419.666C1151 403.848 1163.77 391 1179.5 391H1179.5Z" fill="#594B3E"/>
<path d="M1179.5 393C1194.13 393 1206 405.072 1206 419.939V511H1153V419.939C1153 405.072 1164.87 393 1179.5 393H1179.5Z" fill="#8D7064"/>
<path d="M1208.48 510.804H1151.05V518.952H1208.48V510.804Z" fill="#B57E6B"/>
<path d="M1208.48 517.532H1151.05V518.952H1208.48V517.532Z" fill="#967366"/>
<path d="M1208.48 518.952H1151.05V527.099H1208.48V518.952Z" fill="#B57E6B"/>
<path d="M1208.48 525.679H1151.05V527.099H1208.48V525.679Z" fill="#967366"/>
<path d="M1208.48 527.099H1151.05V535.246H1208.48V527.099Z" fill="#B57E6B"/>
<path d="M1208.48 533.833H1151.05V535.253H1208.48V533.833Z" fill="#967366"/>
<path d="M1208.48 535.253H1151.05V543.4H1208.48V535.253Z" fill="#B57E6B"/>
<path d="M1208.48 541.98H1151.05V543.4H1208.48V541.98Z" fill="#967366"/>
<path d="M1208.48 543.4H1151.05V551.547H1208.48V543.4Z" fill="#B57E6B"/>
<path d="M1208.48 550.134H1151.05V551.554H1208.48V550.134Z" fill="#967366"/>
<path d="M1208.48 551.547H1151.05V559.695H1208.48V551.547Z" fill="#B57E6B"/>
<path d="M1208.48 558.281H1151.05V559.701H1208.48V558.281Z" fill="#967366"/>
<path d="M1208.48 559.701H1151.05V567.924H1208.48V559.701Z" fill="#B57E6B"/>
<path d="M1208.48 566.492H1151.05V567.924H1208.48V566.492Z" fill="#967366"/>
<path d="M1147.25 464H1148.75C1151.09 464 1153 465.64 1153 467.665V568H1143V467.665C1143 465.646 1144.9 464 1147.25 464H1147.25Z" fill="#B08B7C"/>
<path d="M1209.82 464H1211.17C1213.28 464 1215 465.639 1215 467.665V568H1206V467.665C1206 465.646 1207.71 464 1209.83 464H1209.82Z" fill="#B08B7C"/>
<path d="M1179.77 401C1190.93 401 1200 410.611 1200 422.443V427.039H1159.54V422.443C1159.54 410.611 1168.6 401 1179.77 401V401Z" fill="#FBF8F4"/>
<path d="M1179.53 402.666C1190.02 402.666 1198.54 411.551 1198.54 422.493V425.13H1160.53V422.493C1160.53 411.551 1169.04 402.666 1179.53 402.666Z" fill="#C2D4EA"/>
<path d="M1179.77 402.884C1190.17 402.884 1198.62 411.84 1198.62 422.868V425.526H1160.91V422.868C1160.91 411.84 1169.36 402.884 1179.77 402.884V402.884Z" stroke="#84695D" stroke-miterlimit="10"/>
<path d="M1179.53 405.474C1188.55 405.474 1195.88 413.055 1195.88 422.387V425.13H1163.18V422.387C1163.18 413.055 1170.51 405.474 1179.53 405.474V405.474Z" fill="#EAEEFB"/>
<path d="M1179.77 402.884V425.526" stroke="#84695D" stroke-miterlimit="10"/>
<path d="M1196.97 414.575H1162.61" stroke="#84695D" stroke-miterlimit="10"/>
<path d="M1164.07 458.065C1164.07 456.375 1162.7 455.005 1161.01 455.005C1159.33 455.005 1157.96 456.375 1157.96 458.065V466.459C1157.96 468.149 1159.33 469.52 1161.01 469.52C1162.7 469.52 1164.07 468.149 1164.07 466.459V458.065Z" fill="#594B3E"/>
<path d="M1163.14 458.28C1163.14 457.102 1162.19 456.147 1161.01 456.147C1159.83 456.147 1158.88 457.102 1158.88 458.28V466.289C1158.88 467.467 1159.83 468.422 1161.01 468.422C1162.19 468.422 1163.14 467.467 1163.14 466.289V458.28Z" fill="#594B3E"/>
<path d="M1293.03 397.34H1241V490.843H1293.03V397.34Z" fill="#FBF8F4"/>
<path d="M1290.6 399.524H1243.07V488.653H1290.6V399.524Z" fill="#C7CCFF"/>
<path d="M1290.84 402.9H1246.67V488.306H1290.84V402.9Z" fill="#F2F5FF"/>
<path d="M1290.96 399.524H1243.07V488.653H1290.96V399.524Z" stroke="#84695D" stroke-miterlimit="10"/>
<path d="M1267.01 399.334V488.659" stroke="#84695D" stroke-miterlimit="10"/>
<path d="M1243.07 424.395H1290.97" stroke="#84695D" stroke-miterlimit="10"/>
<path d="M1243.07 449.664H1290.97" stroke="#84695D" stroke-miterlimit="10"/>
<path d="M1243.07 474.939H1290.97" stroke="#84695D" stroke-miterlimit="10"/>
<path d="M1298.65 488.659H1235.38V497.608H1298.65V488.659Z" fill="url(#paint0_linear_2_1214)"/>
<path d="M1289.67 471.992C1288.55 471.992 1287.47 472.213 1286.48 472.598C1285.1 469.253 1282.2 466.95 1278.86 466.95C1277.52 466.95 1276.27 467.322 1275.15 467.972C1274.22 467.562 1273.22 467.328 1272.18 467.328C1270.05 467.328 1268.11 468.262 1266.62 469.789C1265.65 469.152 1264.54 468.786 1263.36 468.786C1261.06 468.786 1259.02 470.168 1257.75 472.282C1256.59 471.184 1255.14 470.521 1253.56 470.521C1251.3 470.521 1249.3 471.878 1248.04 473.961C1246.81 473.292 1245.4 472.907 1243.89 472.907C1239.19 472.907 1235.38 476.637 1235.38 481.237C1235.38 485.838 1239.19 489.568 1243.89 489.568C1246.51 489.568 1248.84 488.413 1250.41 486.602C1251.35 487.208 1252.42 487.555 1253.56 487.555C1255.8 487.555 1257.78 486.236 1259.04 484.197C1260.24 485.352 1261.73 486.046 1263.36 486.046C1264.53 486.046 1265.63 485.687 1266.6 485.062C1268.09 486.608 1270.04 487.555 1272.18 487.555C1273.51 487.555 1274.77 487.182 1275.89 486.532C1276.82 486.943 1277.82 487.176 1278.86 487.176C1280.05 487.176 1281.18 486.886 1282.2 486.368C1283.81 488.848 1286.56 490.489 1289.68 490.489C1294.64 490.489 1298.65 486.349 1298.65 481.244C1298.65 476.138 1294.63 471.998 1289.68 471.998L1289.67 471.992Z" fill="#3B5737"/>
<path d="M1282.95 474.598C1282.87 474.598 1282.78 474.611 1282.69 474.617C1281.64 472.465 1279.25 470.957 1276.47 470.957C1274.33 470.957 1272.42 471.853 1271.18 473.242C1270.28 472.055 1269 471.31 1267.58 471.31C1264.85 471.31 1262.64 474.043 1262.64 477.413C1262.64 480.783 1264.86 483.516 1267.58 483.516C1269.16 483.516 1270.56 482.594 1271.47 481.174C1272.71 482.392 1274.49 483.169 1276.47 483.169C1277.13 483.169 1277.76 483.08 1278.36 482.922C1279.08 485.194 1280.86 486.804 1282.95 486.804C1285.68 486.804 1287.89 484.071 1287.89 480.701C1287.89 477.331 1285.68 474.598 1282.95 474.598Z" fill="#4D8344"/>
<path d="M1272.52 474.188C1269.2 474.188 1266.31 475.766 1264.7 478.126C1263.84 476.34 1262.27 475.135 1260.46 475.135C1258.12 475.135 1256.16 477.148 1255.65 479.849C1254.44 478.17 1252.32 477.06 1249.91 477.06C1246.14 477.06 1243.07 479.792 1243.07 483.162C1243.07 486.532 1246.14 489.265 1249.91 489.265C1253.04 489.265 1255.66 487.397 1256.48 484.847C1257.39 486.356 1258.83 487.34 1260.46 487.34C1261.87 487.34 1263.14 486.614 1264.03 485.447C1265.39 488.445 1268.68 490.565 1272.52 490.565C1277.58 490.565 1281.68 486.898 1281.68 482.38C1281.68 477.861 1277.58 474.194 1272.52 474.194V474.188Z" fill="#8DC292"/>
<path d="M1297.07 481.219H1236.98C1236.1 481.219 1235.39 481.982 1235.39 482.922V489.132C1235.39 490.073 1236.1 490.836 1236.98 490.836H1240.75C1240.75 490.836 1240.78 490.849 1240.78 490.868V491.833C1240.78 493.386 1241.84 494.787 1243.28 494.92C1244.91 495.071 1246.28 493.702 1246.28 491.985V490.868C1246.28 490.868 1246.29 490.836 1246.3 490.836H1287.73C1287.73 490.836 1287.76 490.849 1287.76 490.868V491.833C1287.76 493.386 1288.82 494.787 1290.26 494.92C1291.89 495.071 1293.26 493.702 1293.26 491.985V490.868C1293.26 490.868 1293.27 490.836 1293.28 490.836H1297.06C1297.94 490.836 1298.65 490.073 1298.65 489.132V482.922C1298.65 481.982 1297.94 481.219 1297.06 481.219H1297.07Z" fill="#84695D"/>
<path d="M1235.38 488.659H1298.65V489.461C1298.65 490.224 1298.03 490.843 1297.27 490.843H1236.76C1236 490.843 1235.38 490.224 1235.38 489.461V488.659V488.659Z" fill="#594B3E"/>
<path d="M1378.36 397.34H1326.33V490.843H1378.36V397.34Z" fill="#FBF8F4"/>
<path d="M1375.93 399.524H1328.4V488.653H1375.93V399.524Z" fill="#C7CCFF"/>
<path d="M1376.16 402.9H1332V488.306H1376.16V402.9Z" fill="#F2F5FF"/>
<path d="M1376.29 399.524H1328.4V488.653H1376.29V399.524Z" stroke="#84695D" stroke-miterlimit="10"/>
<path d="M1352.34 399.334V488.659" stroke="#84695D" stroke-miterlimit="10"/>
<path d="M1328.4 424.395H1376.29" stroke="#84695D" stroke-miterlimit="10"/>
<path d="M1328.4 449.664H1376.29" stroke="#84695D" stroke-miterlimit="10"/>
<path d="M1328.4 474.939H1376.29" stroke="#84695D" stroke-miterlimit="10"/>
<path d="M1383.98 488.659H1320.71V497.608H1383.98V488.659Z" fill="url(#paint1_linear_2_1214)"/>
<path d="M1375 490.477C1379.96 490.477 1383.98 486.337 1383.98 481.231C1383.98 476.125 1379.96 471.986 1375 471.986C1370.04 471.986 1366.02 476.125 1366.02 481.231C1366.02 486.337 1370.04 490.477 1375 490.477Z" fill="#3B5737"/>
<path d="M1352.52 468.78C1349.75 468.78 1347.24 469.613 1345.33 470.976C1344.03 470.244 1342.53 469.815 1340.92 469.815C1337.74 469.815 1334.96 471.474 1333.38 473.961C1332.15 473.286 1330.74 472.901 1329.23 472.901C1324.52 472.901 1320.72 476.63 1320.72 481.231C1320.72 485.832 1324.52 489.562 1329.23 489.562C1332.06 489.562 1334.56 488.205 1336.1 486.128C1337.49 487.018 1339.15 487.542 1340.92 487.542C1343.4 487.542 1345.63 486.545 1347.24 484.936C1348.81 485.636 1350.6 486.034 1352.52 486.034C1358.5 486.034 1363.34 482.171 1363.34 477.407C1363.34 472.642 1358.5 468.78 1352.52 468.78V468.78Z" fill="#3B5737"/>
<path d="M1364.18 487.17C1368.89 487.17 1372.7 483.285 1372.7 478.492C1372.7 473.7 1368.89 469.815 1364.18 469.815C1359.48 469.815 1355.67 473.7 1355.67 478.492C1355.67 483.285 1359.48 487.17 1364.18 487.17Z" fill="#3B5737"/>
<path d="M1360.96 474.422C1359.42 474.422 1358.01 474.882 1356.88 475.652C1355.91 475.097 1354.77 474.769 1353.55 474.769C1350 474.769 1347.12 477.501 1347.12 480.871C1347.12 484.241 1350 486.974 1353.55 486.974C1355.01 486.974 1356.35 486.507 1357.43 485.731C1358.46 486.292 1359.66 486.621 1360.95 486.621C1364.7 486.621 1367.73 483.888 1367.73 480.518C1367.73 477.148 1364.7 474.415 1360.95 474.415L1360.96 474.422Z" fill="#4D8344"/>
<path d="M1327.55 487.952C1331.33 487.952 1334.39 485.508 1334.39 482.493C1334.39 479.478 1331.33 477.034 1327.55 477.034C1323.77 477.034 1320.71 479.478 1320.71 482.493C1320.71 485.508 1323.77 487.952 1327.55 487.952Z" fill="#8DC292"/>
<path d="M1336.41 485.106C1340.13 485.106 1343.14 482.874 1343.14 480.12C1343.14 477.367 1340.13 475.135 1336.41 475.135C1332.69 475.135 1329.68 477.367 1329.68 480.12C1329.68 482.874 1332.69 485.106 1336.41 485.106Z" fill="#8DC292"/>
<path d="M1344.56 489.423C1348.52 489.423 1351.73 486.142 1351.73 482.096C1351.73 478.049 1348.52 474.769 1344.56 474.769C1340.6 474.769 1337.39 478.049 1337.39 482.096C1337.39 486.142 1340.6 489.423 1344.56 489.423Z" fill="#8DC292"/>
<path d="M1382.39 481.218H1322.3C1321.42 481.218 1320.71 481.982 1320.71 482.922V489.132C1320.71 490.073 1321.42 490.836 1322.3 490.836H1326.08C1326.08 490.836 1326.1 490.849 1326.1 490.868V491.833C1326.1 493.386 1327.16 494.787 1328.6 494.919C1330.23 495.071 1331.6 493.701 1331.6 491.985V490.868C1331.6 490.868 1331.61 490.836 1331.62 490.836H1373.06C1373.06 490.836 1373.08 490.849 1373.08 490.868V491.833C1373.08 493.386 1374.14 494.787 1375.58 494.919C1377.21 495.071 1378.58 493.701 1378.58 491.985V490.868C1378.58 490.868 1378.59 490.836 1378.6 490.836H1382.38C1383.26 490.836 1383.97 490.073 1383.97 489.132V482.922C1383.97 481.982 1383.26 481.218 1382.38 481.218H1382.39Z" fill="#84695D"/>
<path d="M1320.71 488.659H1383.98V489.461C1383.98 490.224 1383.36 490.843 1382.6 490.843H1322.09C1321.33 490.843 1320.71 490.224 1320.71 489.461V488.659V488.659Z" fill="#594B3E"/>
<path d="M1361.01 445.177C1360.99 444.117 1361.45 443.176 1362.55 442.116C1362.44 442.495 1362.34 443.075 1362.43 443.751C1362.53 444.508 1362.8 444.836 1362.92 445.341C1363.05 445.928 1363 446.818 1362.09 448.118C1361.27 446.401 1361.03 446.029 1361.01 445.177V445.177Z" fill="#4D8344"/>
<path d="M1363.3 459.439C1362.58 458.575 1361.55 458.146 1359.93 458.051C1360.7 458.657 1361.13 460.418 1361.9 461.56C1362.46 462.406 1363.64 462.431 1364.48 462.557C1363.94 460.601 1363.88 460.127 1363.3 459.439V459.439Z" fill="#4D8344"/>
<path d="M1363.38 451.336C1362.63 450.977 1361.79 451.008 1360.67 451.45C1361.38 451.62 1362.22 452.674 1363.09 453.204C1363.74 453.596 1364.54 453.249 1365.15 453.072C1364.18 451.917 1363.99 451.62 1363.38 451.33V451.336Z" fill="#4D8344"/>
<path d="M1362.63 449.67C1362.52 448.963 1362.8 448.282 1363.59 447.436C1363.54 448.061 1364.3 448.97 1364.54 449.803C1364.73 450.415 1364.14 451.021 1363.78 451.488C1362.95 450.453 1362.73 450.232 1362.63 449.67V449.67Z" fill="#4D8344"/>
<path d="M1371.52 462.04C1371.71 461.692 1371.73 461.396 1372.1 460.418C1372.4 459.629 1372.7 459.004 1372.9 458.588C1371.39 458.903 1370.64 459.528 1370.24 460.058C1369.99 460.386 1369.9 460.639 1369.49 461.459C1369.01 462.406 1368.59 463.15 1368.3 463.643C1370.38 463.359 1371.18 462.658 1371.52 462.033V462.04Z" fill="#4D8344"/>
<path d="M1366.3 465.921C1365.19 465.17 1364.1 464.949 1363.48 464.873C1364.31 467.372 1365.41 468.395 1366.28 468.855C1366.74 469.102 1367.7 469.493 1368.62 470.471C1369.03 470.906 1369.3 471.317 1369.47 471.601C1369.39 470.843 1369.18 469.707 1368.54 468.502C1368.2 467.884 1367.59 466.785 1366.3 465.915V465.921Z" fill="#4D8344"/>
<path d="M1366.21 478.107C1368.56 475.835 1370.19 472.257 1368.81 469.07C1367.89 467.101 1366.48 465.435 1365.11 463.75C1364.63 463.125 1364.15 462.425 1364 461.598C1363.73 459.932 1364.47 458.398 1364.84 456.903C1365.57 454.271 1365.31 452.378 1362.86 450.863C1362.55 450.617 1362.24 450.32 1362.07 449.929C1361.69 448.761 1362.36 447.556 1362.12 446.37C1362.07 445.978 1361.86 445.644 1361.67 445.29C1361.47 444.924 1361.53 444.495 1361.65 444.129C1361.54 444.508 1361.5 444.931 1361.7 445.278C1361.89 445.619 1362.13 445.959 1362.19 446.363C1362.55 447.884 1361.37 449.695 1362.97 450.712C1366.63 452.819 1365.42 455.962 1364.46 459.263C1364 460.803 1364.26 462.361 1365.34 463.579C1366.69 465.277 1368.13 466.981 1369.03 468.982C1370.4 472.257 1368.68 475.892 1366.2 478.114L1366.21 478.107Z" fill="#4D8344"/>
<path d="M1368.72 469.6C1367.65 468.325 1365.68 467.966 1365.09 466.255C1365.86 467.839 1367.8 468.174 1368.72 469.6Z" fill="#4D8344"/>
<path d="M1363.62 461.617C1363.08 460.746 1362.61 459.717 1361.55 459.402C1362.68 459.496 1363.3 460.664 1363.62 461.617Z" fill="#4D8344"/>
<path d="M1369.13 462.74C1369.55 462.412 1370 462.122 1370.28 461.692C1370.55 461.263 1370.69 460.708 1371.05 460.323C1370.78 460.796 1370.69 461.314 1370.41 461.781C1370.09 462.235 1369.61 462.526 1369.13 462.74Z" fill="#4D8344"/>
<path d="M1364.44 452.598C1364 452.447 1363.68 452.725 1363.24 452.643C1362.84 452.498 1362.58 452.163 1362.36 451.822C1362.66 452.068 1362.95 452.384 1363.29 452.491C1363.65 452.573 1364.06 452.327 1364.44 452.598H1364.44Z" fill="#4D8344"/>
<path d="M1363.6 450.56C1363.71 449.942 1363.29 449.525 1363.47 448.919C1363.52 449.531 1363.94 449.973 1363.6 450.56Z" fill="#4D8344"/>
<path d="M1380.95 451.551C1380.99 451.444 1381.09 451.179 1381.04 450.844C1380.96 450.32 1380.58 450.017 1380.48 449.942C1380.42 450.15 1380.33 450.453 1380.15 450.794C1379.93 451.216 1379.76 451.362 1379.64 451.595C1379.49 451.904 1379.4 452.403 1379.71 453.249C1380 452.781 1380.27 452.447 1380.47 452.22C1380.66 452.012 1380.83 451.854 1380.94 451.551H1380.95Z" fill="#4D8344"/>
<path d="M1376.43 460.721C1376.89 460.367 1377.2 460.323 1377.73 459.957C1378.02 459.755 1378.24 459.553 1378.36 459.427C1378.38 459.787 1378.38 460.506 1378.02 461.289C1377.84 461.686 1377.41 462.444 1376.51 462.948C1375.87 463.314 1375.26 463.39 1374.94 463.409C1375.02 462.873 1375.23 462.052 1375.81 461.327C1375.92 461.188 1376.11 460.954 1376.43 460.714V460.721Z" fill="#4D8344"/>
<path d="M1376.2 456.833C1376.68 456.341 1377.31 456.126 1378.29 456.139C1377.8 456.473 1377.47 457.515 1376.97 458.165C1376.59 458.651 1375.88 458.619 1375.37 458.657C1375.77 457.502 1375.83 457.224 1376.21 456.833H1376.2Z" fill="#4D8344"/>
<path d="M1378.88 454.656C1379.14 454.138 1379.08 453.539 1378.69 452.699C1378.58 453.192 1377.77 453.716 1377.38 454.296C1377.08 454.725 1377.39 455.337 1377.56 455.786C1378.45 455.18 1378.67 455.066 1378.88 454.656Z" fill="#4D8344"/>
<path d="M1372.13 466.337C1373.17 466.028 1374.07 466.123 1374.56 466.211C1373.32 467.947 1372.22 468.47 1371.44 468.616C1371.01 468.698 1370.18 468.761 1369.23 469.297C1368.81 469.537 1368.5 469.789 1368.31 469.966C1368.55 469.398 1368.98 468.571 1369.78 467.795C1370.19 467.398 1370.92 466.697 1372.12 466.337H1372.13Z" fill="#4D8344"/>
<path d="M1369.26 475.778C1368.01 473.658 1367.43 470.774 1368.85 468.578C1369.91 466.994 1371.59 465.965 1373.13 464.911C1374.21 464.267 1374.99 463.333 1375.07 462.046C1375.21 459.711 1374.85 456.29 1377.75 455.552C1378.35 455.356 1378.99 455.217 1379.29 454.668C1379.6 454.157 1379.58 453.488 1379.76 452.889C1379.92 452.283 1380.18 451.696 1380.53 451.179C1380.2 451.715 1379.97 452.302 1379.84 452.908C1379.68 453.507 1379.75 454.157 1379.42 454.75C1379.11 455.356 1378.4 455.533 1377.82 455.741C1375.03 456.543 1375.53 459.806 1375.37 462.077C1375.32 463.409 1374.41 464.539 1373.3 465.164C1371.77 466.18 1370.12 467.215 1369.05 468.71C1367.63 470.805 1368.13 473.645 1369.25 475.778H1369.26Z" fill="#4D8344"/>
<path d="M1369.3 468.603C1370.62 468.231 1371.45 466.659 1372.97 466.899C1371.49 466.874 1370.7 468.433 1369.3 468.603Z" fill="#4D8344"/>
<path d="M1375.57 462.702C1376.2 462.166 1376.93 461.762 1377.34 461.017C1377.14 461.857 1376.3 462.368 1375.57 462.702Z" fill="#4D8344"/>
<path d="M1375.94 458.19C1376.22 458.007 1376.35 457.761 1376.45 457.439C1376.57 457.105 1376.96 456.947 1377.29 456.997C1376.98 457.086 1376.69 457.218 1376.59 457.502C1376.5 457.792 1376.28 458.133 1375.94 458.19V458.19Z" fill="#4D8344"/>
<path d="M1377.66 455.419C1377.58 454.58 1378.29 454.195 1378.6 453.476C1378.5 454.252 1377.79 454.65 1377.66 455.419Z" fill="#4D8344"/>
<path d="M1370.29 441.718C1370.2 441.258 1370.26 441.207 1370.15 440.702C1370.06 440.292 1369.95 439.964 1369.87 439.749C1370.17 439.831 1370.91 440.078 1371.32 440.766C1371.61 441.245 1371.62 441.725 1371.64 442.312C1371.65 442.949 1371.55 443.473 1371.45 443.82C1371.32 443.713 1371.11 443.536 1370.92 443.277C1370.51 442.728 1370.38 442.141 1370.3 441.712L1370.29 441.718Z" fill="#4D8344"/>
<path d="M1371.99 454.53C1372.53 453.602 1373.43 453.034 1374.94 452.693C1374.32 453.381 1374.18 455.104 1373.65 456.297C1373.25 457.18 1372.15 457.395 1371.38 457.647C1371.57 455.722 1371.56 455.274 1371.99 454.53Z" fill="#4D8344"/>
<path d="M1369.56 449.254C1369.82 448.49 1370.38 447.941 1371.42 447.455C1371.08 448.055 1371.25 449.329 1371.04 450.282C1370.89 450.983 1370.12 451.311 1369.6 451.62C1369.44 450.194 1369.36 449.866 1369.56 449.26V449.254Z" fill="#4D8344"/>
<path d="M1370.89 445.316C1370.89 444.634 1370.51 444.041 1369.64 443.366C1369.8 443.94 1369.22 444.918 1369.12 445.739C1369.05 446.344 1369.7 446.818 1370.11 447.203C1370.72 446.098 1370.89 445.852 1370.89 445.309V445.316Z" fill="#4D8344"/>
<path d="M1367.89 453.905C1367.65 453.615 1367.56 453.349 1367.03 452.504C1366.59 451.829 1366.2 451.298 1365.93 450.958C1367.4 450.958 1368.22 451.393 1368.7 451.81C1369 452.068 1369.13 452.289 1369.67 452.971C1370.29 453.76 1370.84 454.372 1371.21 454.776C1369.21 454.921 1368.33 454.416 1367.89 453.905Z" fill="#4D8344"/>
<path d="M1372.03 456.619C1372.17 455.666 1372.58 454.467 1373.62 454.208C1372.68 454.681 1372.4 455.71 1372.03 456.619Z" fill="#4D8344"/>
<path d="M1370.25 454.094C1369.76 453.987 1369.26 453.81 1368.87 453.45C1368.51 453.072 1368.33 452.605 1367.99 452.214C1368.4 452.497 1368.64 452.99 1368.98 453.337C1369.32 453.678 1369.8 453.867 1370.25 454.094Z" fill="#4D8344"/>
<path d="M1369.74 450.806C1369.8 450.364 1370.24 450.238 1370.41 449.935C1370.57 449.626 1370.53 449.228 1370.57 448.85C1370.65 449.228 1370.72 449.626 1370.55 450.005C1370.32 450.364 1369.92 450.402 1369.74 450.8V450.806Z" fill="#4D8344"/>
<path d="M1367.03 461.08C1366.73 460.298 1366.83 459.484 1367.38 458.411C1367.49 459.124 1368.52 460.045 1369 460.954C1369.35 461.623 1368.92 462.393 1368.69 462.974C1367.57 461.913 1367.28 461.699 1367.03 461.08V461.08Z" fill="#4D8344"/>
<path d="M1368.25 462.223C1367.99 461.8 1368.3 461.44 1368.23 461.068C1368.16 460.752 1367.8 460.361 1367.61 460.096C1367.94 460.348 1368.26 460.62 1368.38 461.036C1368.45 461.484 1368.12 461.781 1368.25 462.223Z" fill="#4D8344"/>
<path d="M1370.12 446.382C1369.71 445.903 1370.03 445.385 1369.99 444.823C1370.26 445.347 1369.93 445.833 1370.12 446.382Z" fill="#4D8344"/>
<path d="M1372.22 472.522C1369.79 470.957 1367.67 468.269 1367.97 465.22C1368.23 463.005 1369.45 461.036 1370.5 459.118C1371.29 457.874 1371.66 456.467 1371.07 455.066C1370.04 452.567 1367.68 449.191 1370.28 446.856C1370.78 446.325 1371.48 445.928 1371.6 445.221C1371.71 444.527 1371.42 443.814 1371.15 443.138C1370.87 442.432 1371.18 441.662 1370.77 440.986C1371.21 441.617 1370.95 442.425 1371.25 443.094C1371.71 444.035 1372.17 445.417 1371.21 446.237C1367.72 448.913 1370.02 451.822 1371.35 454.952C1372 456.372 1371.59 458.007 1370.76 459.25C1369.71 461.137 1368.52 463.062 1368.21 465.227C1367.87 468.186 1369.89 470.875 1372.22 472.503V472.522Z" fill="#4D8344"/>
<path d="M1374.32 481.231H1363.33L1361.85 469.057H1375.79L1374.32 481.231Z" fill="#594B3E"/>
<path d="M1292.16 244.458H1240.13V337.961H1292.16V244.458Z" fill="#FBF8F4"/>
<path d="M1289.73 246.648H1242.2V335.777H1289.73V246.648Z" fill="#C7CCFF"/>
<path d="M1289.97 249.948H1245.8V335.424H1289.97V249.948Z" fill="#F2F5FF"/>
<path d="M1290.09 246.648H1242.2V335.777H1290.09V246.648Z" stroke="#84695D" stroke-miterlimit="10"/>
<path d="M1266.14 246.452V335.777" stroke="#84695D" stroke-miterlimit="10"/>
<path d="M1242.2 271.513H1290.09" stroke="#84695D" stroke-miterlimit="10"/>
<path d="M1242.2 296.788H1290.09" stroke="#84695D" stroke-miterlimit="10"/>
<path d="M1242.2 322.057H1290.09" stroke="#84695D" stroke-miterlimit="10"/>
<path d="M1297.78 335.777H1234.51V344.726H1297.78V335.777Z" fill="url(#paint2_linear_2_1214)"/>
<path d="M1286.36 328.69C1288.43 324.465 1287.33 319.684 1283.91 318.013C1280.48 316.341 1276.04 318.411 1273.98 322.635C1271.92 326.86 1273.02 331.641 1276.44 333.312C1279.86 334.984 1284.3 332.914 1286.36 328.69Z" fill="#3B5737"/>
<path d="M1295.95 331.574C1298.04 327.292 1296.92 322.448 1293.46 320.753C1289.99 319.058 1285.49 321.155 1283.4 325.437C1281.31 329.718 1282.43 334.562 1285.89 336.257C1289.36 337.952 1293.86 335.855 1295.95 331.574Z" fill="#3B5737"/>
<path d="M1256.59 331.321C1262.67 331.321 1267.59 327.459 1267.59 322.694C1267.59 317.93 1262.67 314.067 1256.59 314.067C1250.51 314.067 1245.59 317.93 1245.59 322.694C1245.59 327.459 1250.51 331.321 1256.59 331.321Z" fill="#3B5737"/>
<path d="M1278.17 327.134C1280.18 323 1278.39 317.975 1274.17 315.91C1269.94 313.845 1264.89 315.522 1262.87 319.656C1260.85 323.79 1262.64 328.816 1266.86 330.88C1271.09 332.945 1276.15 331.268 1278.17 327.134Z" fill="#3B5737"/>
<path d="M1243.09 331.227C1247.4 331.227 1250.89 328.495 1250.89 325.124C1250.89 321.754 1247.4 319.021 1243.09 319.021C1238.77 319.021 1235.28 321.754 1235.28 325.124C1235.28 328.495 1238.77 331.227 1243.09 331.227Z" fill="#4D8344"/>
<path d="M1257.14 330.88C1263.06 330.88 1267.87 328.147 1267.87 324.777C1267.87 321.407 1263.06 318.674 1257.14 318.674C1251.22 318.674 1246.41 321.407 1246.41 324.777C1246.41 328.147 1251.22 330.88 1257.14 330.88Z" fill="#4D8344"/>
<path d="M1273.22 330.906C1275.98 327.594 1276.13 323.158 1273.54 320.998C1270.96 318.837 1266.62 319.77 1263.86 323.082C1261.1 326.394 1260.95 330.83 1263.53 332.991C1266.12 335.151 1270.45 334.218 1273.22 330.906Z" fill="#4D8344"/>
<path d="M1274.68 336.907C1278.93 336.907 1282.37 333.725 1282.37 329.801C1282.37 325.876 1278.93 322.694 1274.68 322.694C1270.44 322.694 1267 325.876 1267 329.801C1267 333.725 1270.44 336.907 1274.68 336.907Z" fill="#8DC292"/>
<path d="M1284.6 336.351C1289.66 336.351 1293.76 333.158 1293.76 329.22C1293.76 325.281 1289.66 322.089 1284.6 322.089C1279.54 322.089 1275.44 325.281 1275.44 329.22C1275.44 333.158 1279.54 336.351 1284.6 336.351Z" fill="#8DC292"/>
<path d="M1296.19 328.343H1236.11C1235.23 328.343 1234.52 329.106 1234.52 330.047V336.257C1234.52 337.197 1235.23 337.961 1236.11 337.961H1239.88C1239.88 337.961 1239.91 337.973 1239.91 337.992V338.958C1239.91 340.51 1240.97 341.911 1242.41 342.044C1244.04 342.195 1245.41 340.826 1245.41 339.109V337.992C1245.41 337.992 1245.42 337.961 1245.43 337.961H1286.86C1286.86 337.961 1286.89 337.973 1286.89 337.992V338.958C1286.89 340.51 1287.95 341.911 1289.39 342.044C1291.02 342.195 1292.39 340.826 1292.39 339.109V337.992C1292.39 337.992 1292.4 337.961 1292.41 337.961H1296.19C1297.07 337.961 1297.78 337.197 1297.78 336.257V330.047C1297.78 329.106 1297.07 328.343 1296.19 328.343H1296.19Z" fill="#84695D"/>
<path d="M1234.51 335.777H1297.78V336.578C1297.78 337.342 1297.16 337.961 1296.4 337.961H1235.89C1235.13 337.961 1234.51 337.342 1234.51 336.578V335.777V335.777Z" fill="#594B3E"/>
<path d="M1378.36 244.458H1326.33V337.961H1378.36V244.458Z" fill="#FBF8F4"/>
<path d="M1375.93 246.648H1328.4V335.777H1375.93V246.648Z" fill="#C7CCFF"/>
<path d="M1376.16 249.948H1332V335.424H1376.16V249.948Z" fill="#F2F5FF"/>
<path d="M1376.29 246.648H1328.4V335.777H1376.29V246.648Z" stroke="#84695D" stroke-miterlimit="10"/>
<path d="M1352.34 246.452V335.777" stroke="#84695D" stroke-miterlimit="10"/>
<path d="M1328.4 271.513H1376.29" stroke="#84695D" stroke-miterlimit="10"/>
<path d="M1328.4 296.788H1376.29" stroke="#84695D" stroke-miterlimit="10"/>
<path d="M1328.4 322.057H1376.29" stroke="#84695D" stroke-miterlimit="10"/>
<path d="M1383.98 335.777H1320.71V344.726H1383.98V335.777Z" fill="url(#paint3_linear_2_1214)"/>
<path d="M1335.62 330.943C1340.54 330.943 1344.54 327.578 1344.54 323.426C1344.54 319.275 1340.54 315.91 1335.62 315.91C1330.69 315.91 1326.69 319.275 1326.69 323.426C1326.69 327.578 1330.69 330.943 1335.62 330.943Z" fill="#3B5737"/>
<path d="M1343.76 333.745C1349.74 333.745 1354.58 330.47 1354.58 326.431C1354.58 322.391 1349.74 319.116 1343.76 319.116C1337.79 319.116 1332.94 322.391 1332.94 326.431C1332.94 330.47 1337.79 333.745 1343.76 333.745Z" fill="#3B5737"/>
<path d="M1329.22 334.591C1333.92 334.591 1337.73 331.429 1337.73 327.529C1337.73 323.628 1333.92 320.467 1329.22 320.467C1324.52 320.467 1320.71 323.628 1320.71 327.529C1320.71 331.429 1324.52 334.591 1329.22 334.591Z" fill="#3B5737"/>
<path d="M1355.01 335.184C1359.71 335.184 1363.52 331.889 1363.52 327.825C1363.52 323.761 1359.71 320.467 1355.01 320.467C1350.31 320.467 1346.5 323.761 1346.5 327.825C1346.5 331.889 1350.31 335.184 1355.01 335.184Z" fill="#3B5737"/>
<path d="M1373.84 317.639C1371.56 317.639 1369.45 318.359 1367.75 319.558C1366.3 318.693 1364.61 318.188 1362.79 318.188C1357.48 318.188 1353.18 322.436 1353.18 327.674C1353.18 332.912 1357.48 337.159 1362.79 337.159C1364.97 337.159 1366.97 336.433 1368.59 335.228C1370.12 336.105 1371.91 336.616 1373.84 336.616C1379.44 336.616 1383.98 332.369 1383.98 327.131C1383.98 321.893 1379.44 317.646 1373.84 317.646V317.639Z" fill="#4D8344"/>
<path d="M1382.39 328.343H1322.3C1321.42 328.343 1320.71 329.106 1320.71 330.047V336.257C1320.71 337.197 1321.42 337.961 1322.3 337.961H1326.08C1326.08 337.961 1326.1 337.973 1326.1 337.992V338.958C1326.1 340.51 1327.16 341.911 1328.6 342.044C1330.23 342.195 1331.6 340.826 1331.6 339.109V337.992C1331.6 337.992 1331.61 337.961 1331.62 337.961H1373.06C1373.06 337.961 1373.08 337.973 1373.08 337.992V338.958C1373.08 340.51 1374.14 341.911 1375.58 342.044C1377.21 342.195 1378.58 340.826 1378.58 339.109V337.992C1378.58 337.992 1378.59 337.961 1378.6 337.961H1382.38C1383.26 337.961 1383.97 337.197 1383.97 336.257V330.047C1383.97 329.106 1383.26 328.343 1382.38 328.343H1382.39Z" fill="#84695D"/>
<path d="M1320.71 335.777H1383.98V336.578C1383.98 337.342 1383.36 337.961 1382.6 337.961H1322.09C1321.33 337.961 1320.71 337.342 1320.71 336.578V335.777V335.777Z" fill="#594B3E"/>
<path d="M1205.96 244.458H1153.93V337.961H1205.96V244.458Z" fill="#FBF8F4"/>
<path d="M1203.54 246.648H1156V335.777H1203.54V246.648Z" fill="#C7CCFF"/>
<path d="M1203.77 249.948H1159.6V335.424H1203.77V249.948Z" fill="#F2F5FF"/>
<path d="M1203.9 246.648H1156V335.777H1203.9V246.648Z" stroke="#84695D" stroke-miterlimit="10"/>
<path d="M1179.95 246.452V335.777" stroke="#84695D" stroke-miterlimit="10"/>
<path d="M1156 271.513H1203.9" stroke="#84695D" stroke-miterlimit="10"/>
<path d="M1156 296.788H1203.9" stroke="#84695D" stroke-miterlimit="10"/>
<path d="M1156 322.057H1203.9" stroke="#84695D" stroke-miterlimit="10"/>
<path d="M1211.58 335.777H1148.31V344.726H1211.58V335.777Z" fill="url(#paint4_linear_2_1214)"/>
<path d="M1201.59 337.064C1206.55 337.064 1210.57 332.925 1210.57 327.819C1210.57 322.713 1206.55 318.573 1201.59 318.573C1196.63 318.573 1192.61 322.713 1192.61 327.819C1192.61 332.925 1196.63 337.064 1201.59 337.064Z" fill="#3B5737"/>
<path d="M1158.97 336.679C1164.85 336.679 1169.62 332.594 1169.62 327.554C1169.62 322.514 1164.85 318.428 1158.97 318.428C1153.08 318.428 1148.31 322.514 1148.31 327.554C1148.31 332.594 1153.08 336.679 1158.97 336.679Z" fill="#3B5737"/>
<path d="M1177.7 334.66C1184.03 334.66 1189.17 330.133 1189.17 324.55C1189.17 318.966 1184.03 314.44 1177.7 314.44C1171.37 314.44 1166.23 318.966 1166.23 324.55C1166.23 330.133 1171.37 334.66 1177.7 334.66Z" fill="#3B5737"/>
<path d="M1181.67 330.634C1185.03 330.634 1187.76 327.901 1187.76 324.531C1187.76 321.16 1185.03 318.428 1181.67 318.428C1178.3 318.428 1175.57 321.16 1175.57 324.531C1175.57 327.901 1178.3 330.634 1181.67 330.634Z" fill="#4D8344"/>
<path d="M1192.28 330.899C1196.6 330.899 1200.1 327.858 1200.1 324.108C1200.1 320.358 1196.6 317.318 1192.28 317.318C1187.96 317.318 1184.46 320.358 1184.46 324.108C1184.46 327.858 1187.96 330.899 1192.28 330.899Z" fill="#4D8344"/>
<path d="M1198.56 335.316C1202.88 335.316 1206.38 332.276 1206.38 328.526C1206.38 324.775 1202.88 321.735 1198.56 321.735C1194.25 321.735 1190.75 324.775 1190.75 328.526C1190.75 332.276 1194.25 335.316 1198.56 335.316Z" fill="#4D8344"/>
<path d="M1167.34 335.203C1171.12 335.203 1174.18 332.47 1174.18 329.1C1174.18 325.73 1171.12 322.997 1167.34 322.997C1163.56 322.997 1160.5 325.73 1160.5 329.1C1160.5 332.47 1163.56 335.203 1167.34 335.203Z" fill="#8DC292"/>
<path d="M1176.6 332.849C1179.62 332.849 1182.07 330.244 1182.07 327.03C1182.07 323.816 1179.62 321.211 1176.6 321.211C1173.58 321.211 1171.14 323.816 1171.14 327.03C1171.14 330.244 1173.58 332.849 1176.6 332.849Z" fill="#8DC292"/>
<path d="M1186.52 334.452C1190.97 334.452 1194.58 331.428 1194.58 327.699C1194.58 323.97 1190.97 320.946 1186.52 320.946C1182.07 320.946 1178.46 323.97 1178.46 327.699C1178.46 331.428 1182.07 334.452 1186.52 334.452Z" fill="#8DC292"/>
<path d="M1210 328.343H1149.91C1149.03 328.343 1148.32 329.106 1148.32 330.047V336.257C1148.32 337.197 1149.03 337.96 1149.91 337.96H1153.68C1153.68 337.96 1153.71 337.973 1153.71 337.992V338.958C1153.71 340.51 1154.77 341.911 1156.21 342.044C1157.84 342.195 1159.21 340.826 1159.21 339.109V337.992C1159.21 337.992 1159.22 337.96 1159.23 337.96H1200.66C1200.66 337.96 1200.69 337.973 1200.69 337.992V338.958C1200.69 340.51 1201.75 341.911 1203.19 342.044C1204.82 342.195 1206.19 340.826 1206.19 339.109V337.992C1206.19 337.992 1206.2 337.96 1206.21 337.96H1209.99C1210.87 337.96 1211.58 337.197 1211.58 336.257V330.047C1211.58 329.106 1210.87 328.343 1209.99 328.343H1210Z" fill="#84695D"/>
<path d="M1148.31 335.777H1211.58V336.578C1211.58 337.342 1210.96 337.96 1210.2 337.96H1149.69C1148.93 337.96 1148.31 337.342 1148.31 336.578V335.777V335.777Z" fill="#594B3E"/>
<path d="M1415 213H1115V219H1415V213Z" fill="white"/>
<path d="M1415 208H1115V219H1415V208Z" fill="url(#paint5_linear_2_1214)"/>
<path d="M1417.63 201.966H1111.48V207.602H1417.63V201.966Z" fill="white"/>
<path d="M1399.87 126.179H1129.41L1115.5 196.331H1413.78L1399.87 126.179Z" fill="#5E5043"/>
<path d="M1411.03 196.331L1397.38 128.943H1131.9L1118.25 196.331" fill="#8D7064"/>
<path d="M1131 133H1399" stroke="#5E5043" stroke-width="0.25" stroke-miterlimit="10"/>
<path d="M1129 138H1401" stroke="#5E5043" stroke-width="0.25" stroke-miterlimit="10"/>
<path d="M1128 144H1402" stroke="#5E5043" stroke-width="0.25" stroke-miterlimit="10"/>
<path d="M1127 149H1403" stroke="#5E5043" stroke-width="0.25" stroke-miterlimit="10"/>
<path d="M1126 155H1404" stroke="#5E5043" stroke-width="0.25" stroke-miterlimit="10"/>
<path d="M1124 160H1406" stroke="#5E5043" stroke-width="0.25" stroke-miterlimit="10"/>
<path d="M1124 165H1406" stroke="#5E5043" stroke-width="0.25" stroke-miterlimit="10"/>
<path d="M1123 171H1407" stroke="#5E5043" stroke-width="0.25" stroke-miterlimit="10"/>
<path d="M1122 176H1408" stroke="#5E5043" stroke-width="0.25" stroke-miterlimit="10"/>
<path d="M1121 182H1409" stroke="#5E5043" stroke-width="0.25" stroke-miterlimit="10"/>
<path d="M1119 187H1411" stroke="#5E5043" stroke-width="0.25" stroke-miterlimit="10"/>
<path d="M1118 193H1412" stroke="#5E5043" stroke-width="0.25" stroke-miterlimit="10"/>
<path d="M1111.68 198.054H1417.63" stroke="#5E5043" stroke-width="0.25" stroke-miterlimit="10"/>
<path d="M1419.15 207.602H1109.96C1108.55 207.602 1107.41 208.746 1107.41 210.158V210.682C1107.41 212.093 1108.55 213.238 1109.96 213.238H1419.15C1420.56 213.238 1421.71 212.093 1421.71 210.682V210.158C1421.71 208.746 1420.56 207.602 1419.15 207.602Z" fill="#5E5043"/>
<path d="M1418 197H1111V208H1418V197Z" fill="url(#paint6_linear_2_1214)"/>
<path d="M1419.15 196.331H1109.96C1108.55 196.331 1107.41 197.475 1107.41 198.887V199.41C1107.41 200.822 1108.55 201.966 1109.96 201.966H1419.15C1420.56 201.966 1421.71 200.822 1421.71 199.41V198.887C1421.71 197.475 1420.56 196.331 1419.15 196.331Z" fill="#5E5043"/>
<path d="M1230.49 118.41V174.236H1174.77V118.41L1202.63 98.1202L1230.49 118.41Z" fill="#C1A193"/>
<path d="M1231.45 117.804V120.543H1230.49V119.805L1202.63 99.5149L1174.77 119.805V120.543H1173.82V117.804L1202.63 96.8138L1231.45 117.804Z" fill="#5E5043"/>
<path d="M1221.12 123H1184.14V160.516H1221.12V123Z" fill="white"/>
<path d="M1219.4 124.292H1185.61V160.511H1219.4V124.292Z" fill="#C7CCFF"/>
<path d="M1219.56 126.37H1187.79V160.516H1219.56V126.37Z" fill="#F2F5FF"/>
<path d="M1219.66 124.292H1185.61V160.511H1219.66V124.292Z" stroke="#8D7064" stroke-miterlimit="10"/>
<path d="M1202.63 160.516V154.031V139.046V125.438V124.292V124.18" stroke="#8D7064" stroke-miterlimit="10"/>
<path d="M1185.61 142.618H1219.66" stroke="#8D7064" stroke-miterlimit="10"/>
<path d="M1225.12 163.381H1180.15V169.32H1225.12V163.381Z" fill="url(#paint7_linear_2_1214)"/>
<path d="M1223.99 158.453H1181.28C1180.66 158.453 1180.15 158.957 1180.15 159.582V163.703C1180.15 164.328 1180.66 164.833 1181.28 164.833H1183.97C1183.97 164.833 1183.99 164.839 1183.99 164.852V165.496C1183.99 166.524 1184.74 167.452 1185.76 167.547C1186.92 167.648 1187.89 166.739 1187.89 165.603V164.858C1187.89 164.858 1187.9 164.839 1187.91 164.839H1217.36C1217.36 164.839 1217.38 164.846 1217.38 164.858V165.502C1217.38 166.531 1218.13 167.458 1219.16 167.553C1220.32 167.654 1221.28 166.745 1221.28 165.609V164.865C1221.28 164.865 1221.29 164.846 1221.3 164.846H1223.99C1224.61 164.846 1225.12 164.341 1225.12 163.716V159.595C1225.12 158.97 1224.61 158.465 1223.99 158.465L1223.99 158.453Z" fill="#8D7064"/>
<path d="M1180.15 163.381H1225.12V163.615C1225.12 164.29 1224.57 164.833 1223.9 164.833H1181.36C1180.69 164.833 1180.15 164.284 1180.15 163.615V163.381Z" fill="#5E5043"/>
<path d="M1354.34 118.41V174.236H1298.62V118.41L1326.48 98.1202L1354.34 118.41Z" fill="#C1A193"/>
<path d="M1355.3 117.804V120.543H1354.34V119.805L1326.48 99.5149L1298.62 119.805V120.543H1297.67V117.804L1326.48 96.8138L1355.3 117.804Z" fill="#5E5043"/>
<path d="M1344.98 123H1307.99V160.516H1344.98V123Z" fill="white"/>
<path d="M1343.24 124.292H1309.46V160.511H1343.24V124.292Z" fill="#C7CCFF"/>
<path d="M1343.41 126.37H1312.07V160.516H1343.41V126.37Z" fill="#F2F5FF"/>
<path d="M1343.5 124.292H1309.46V160.511H1343.5V124.292Z" stroke="#8D7064" stroke-miterlimit="10"/>
<path d="M1326.49 160.516V154.031V139.046V125.438V124.292V124.18" stroke="#8D7064" stroke-miterlimit="10"/>
<path d="M1309.46 142.618H1343.51" stroke="#8D7064" stroke-miterlimit="10"/>
<path d="M1348.97 163.381H1304V169.32H1348.97V163.381Z" fill="url(#paint8_linear_2_1214)"/>
<path d="M1347.84 158.453H1305.13C1304.51 158.453 1304 158.957 1304 159.582V163.703C1304 164.328 1304.51 164.833 1305.13 164.833H1307.82C1307.82 164.833 1307.83 164.839 1307.83 164.852V165.496C1307.83 166.524 1308.58 167.452 1309.61 167.547C1310.77 167.648 1311.74 166.739 1311.74 165.603V164.858C1311.74 164.858 1311.74 164.839 1311.76 164.839H1341.21C1341.21 164.839 1341.23 164.846 1341.23 164.858V165.502C1341.23 166.531 1341.98 167.458 1343.01 167.553C1344.17 167.654 1345.13 166.745 1345.13 165.609V164.865C1345.13 164.865 1345.14 164.846 1345.15 164.846H1347.83C1348.46 164.846 1348.96 164.341 1348.96 163.716V159.595C1348.96 158.97 1348.46 158.465 1347.83 158.465L1347.84 158.453Z" fill="#8D7064"/>
<path d="M1304 163.381H1348.97V163.615C1348.97 164.29 1348.42 164.833 1347.75 164.833H1305.22C1304.54 164.833 1304 164.284 1304 163.615V163.381Z" fill="#5E5043"/>
<path d="M1467.84 568H1355.67C1357.15 557.36 1363.9 548.411 1373.38 544.763C1383.41 540.895 1392.44 544.53 1394.52 545.426C1395.33 544.347 1401.51 536.414 1412.46 535.934C1423.91 535.442 1430.91 543.52 1431.7 544.467C1432.82 543.861 1443.25 538.427 1454.05 543.57C1462.96 547.811 1468.47 557.511 1467.84 568Z" fill="#3B5737"/>
<path d="M1516.98 123.342H1442C1441.87 115.043 1446.49 108 1453.01 105.892C1458.28 104.189 1463.06 106.277 1464.53 106.984C1470.08 97.5557 1480.05 94.2993 1486.25 97.5431C1491.19 100.124 1492.55 106.195 1492.82 107.609C1501.56 100.856 1512.53 102.504 1516.75 108.512C1520.97 114.501 1517.16 122.957 1516.98 123.336L1516.98 123.342Z" fill="#FBF8F4"/>
<path d="M1162.17 75.3183H1050C1053.95 60.6644 1064.32 50.4343 1075.69 49.6013C1078.2 49.4183 1083.01 49.5193 1088.85 52.7441C1095.85 42.9054 1107.07 38.8286 1115.75 42.1229C1121.72 44.3885 1124.84 49.5193 1126.03 51.7849C1138.07 44.4958 1152.27 46.774 1158.95 55.2874C1165.23 63.2897 1162.56 73.8731 1162.18 75.3183H1162.17Z" fill="#F8E4DA"/>
<path d="M1009.75 216.994H910C913.738 205.651 921.408 198.301 929.394 198.398C934.438 198.458 938.273 201.472 940.205 203.302C946.66 190.945 958.548 185.72 966.509 188.921C971.718 191.017 974.209 196.302 975.164 198.778C986.17 191.796 999.188 193.234 1005.61 200.566C1011.06 206.775 1010.01 215.218 1009.74 217L1009.75 216.994Z" fill="#F8E4DA"/>
<path d="M1527.98 451.021C1489.78 412.972 1473.64 389.426 1479.58 380.376C1481.6 377.29 1486.2 375.889 1493.37 376.186C1493.37 376.186 1469.59 345.067 1497.29 347.162C1497.29 347.162 1478.48 303.232 1510.88 321.009C1512.65 290.105 1516.53 274.227 1522.54 273.381C1527.27 272.712 1533.31 281.352 1540.66 299.306C1549.28 291.247 1555.57 288.155 1559.54 290.016C1566.76 293.412 1566.26 313.266 1558.02 349.585C1568.65 340.813 1575.63 337.538 1578.94 339.747C1583.85 343.028 1580.69 358.414 1569.46 385.898C1574.88 387.703 1577.34 390.228 1578.4 392.695C1585.64 409.495 1537.25 444.432 1528 451.014L1527.98 451.021Z" fill="#8DC292"/>
<path d="M1527.5 342C1527.21 342 1526.97 342.204 1526.96 342.457L1523 568H1532L1528.04 342.457C1528.04 342.204 1527.79 342 1527.5 342H1527.5Z" fill="#594B3E"/>
</g>
<path d="M0 590.652C0 590.652 167.5 530.641 316 552.649C464.5 574.658 625 582.313 754 557.503C918.5 525.866 1047.05 551.458 1239 557.503C1444.5 563.976 1514 552.5 1616.5 552.5C1719 552.5 1920 590.652 1920 590.652V626H0V590.652Z" fill="white"/>
<defs>
<filter id="filter0_d_2_1214" x="1115.5" y="218.873" width="298.271" height="368.994" filterUnits="userSpaceOnUse" color-interpolation-filters="sRGB">
<feFlood flood-opacity="0" result="BackgroundImageFix"/>
<feColorMatrix in="SourceAlpha" type="matrix" values="0 0 0 0 0 0 0 0 0 0 0 0 0 0 0 0 0 0 127 0" result="hardAlpha"/>
<feOffset dy="20"/>
<feComposite in2="hardAlpha" operator="out"/>
<feColorMatrix type="matrix" values="0 0 0 0 0.776471 0 0 0 0 0.623529 0 0 0 0 0.556863 0 0 0 1 0"/>
<feBlend mode="normal" in2="BackgroundImageFix" result="effect1_dropShadow_2_1214"/>
<feBlend mode="normal" in="SourceGraphic" in2="effect1_dropShadow_2_1214" result="shape"/>
</filter>
<linearGradient id="paint0_linear_2_1214" x1="1267.01" y1="497.889" x2="1267.01" y2="487.877" gradientUnits="userSpaceOnUse">
<stop stop-color="#C9A291" stop-opacity="0"/>
<stop offset="1" stop-color="#775C52"/>
</linearGradient>
<linearGradient id="paint1_linear_2_1214" x1="1352.34" y1="497.889" x2="1352.34" y2="487.877" gradientUnits="userSpaceOnUse">
<stop stop-color="#C9A291" stop-opacity="0"/>
<stop offset="1" stop-color="#775C52"/>
</linearGradient>
<linearGradient id="paint2_linear_2_1214" x1="1266.14" y1="345.006" x2="1266.14" y2="334.995" gradientUnits="userSpaceOnUse">
<stop stop-color="#C9A291" stop-opacity="0"/>
<stop offset="1" stop-color="#775C52"/>
</linearGradient>
<linearGradient id="paint3_linear_2_1214" x1="1352.34" y1="345.006" x2="1352.34" y2="334.995" gradientUnits="userSpaceOnUse">
<stop stop-color="#C9A291" stop-opacity="0"/>
<stop offset="1" stop-color="#775C52"/>
</linearGradient>
<linearGradient id="paint4_linear_2_1214" x1="1179.95" y1="345.006" x2="1179.95" y2="334.995" gradientUnits="userSpaceOnUse">
<stop stop-color="#C9A291" stop-opacity="0"/>
<stop offset="1" stop-color="#775C52"/>
</linearGradient>
<linearGradient id="paint5_linear_2_1214" x1="1265" y1="219.345" x2="1265" y2="207.039" gradientUnits="userSpaceOnUse">
<stop stop-color="#C9A291" stop-opacity="0"/>
<stop offset="1" stop-color="#775C52"/>
</linearGradient>
<linearGradient id="paint6_linear_2_1214" x1="1264.5" y1="208.345" x2="1264.5" y2="196.039" gradientUnits="userSpaceOnUse">
<stop stop-color="#C9A291" stop-opacity="0"/>
<stop offset="1" stop-color="#775C52"/>
</linearGradient>
<linearGradient id="paint7_linear_2_1214" x1="1202.63" y1="169.506" x2="1202.63" y2="162.863" gradientUnits="userSpaceOnUse">
<stop stop-color="#C9A291" stop-opacity="0"/>
<stop offset="1" stop-color="#775C52"/>
</linearGradient>
<linearGradient id="paint8_linear_2_1214" x1="1326.49" y1="169.506" x2="1326.49" y2="162.863" gradientUnits="userSpaceOnUse">
<stop stop-color="#C9A291" stop-opacity="0"/>
<stop offset="1" stop-color="#775C52"/>
</linearGradient>
<clipPath id="clip0_2_1214">
<rect width="1010" height="527" fill="white" transform="translate(910 41)"/>
</clipPath>
</defs>
</svg>
