<svg width="1920" height="520" viewBox="0 0 1920 520" fill="none" xmlns="http://www.w3.org/2000/svg">
<path d="M0 0H1920V454H0V0Z" fill="#FBF8F4"/>
<path d="M1438 193.057V453H947.238C947.238 404.781 962.459 359.629 988.982 320.923C991.537 317.197 994.196 313.532 996.958 309.927C1050.88 239.511 1143.46 193.057 1248.63 193.057H1438Z" fill="#F8E4DA"/>
<g clip-path="url(#clip0_60_552)">
<rect x="1030.72" y="273.816" width="1.01188" height="132.748" fill="#C69F8E" fill-opacity="0.4"/>
<rect x="1181.49" y="273.816" width="1.01188" height="135.776" fill="#C69F8E" fill-opacity="0.4"/>
<path d="M1257.12 431.881C1263.07 435.175 1266.02 443.641 1264.17 452.965H1179.14C1163.83 448.467 1157.2 431.909 1162.53 420.773C1167.56 410.255 1183.13 404.821 1196.18 412.185C1200.77 406.961 1207.84 404.84 1214.16 406.78C1221.95 409.166 1224.76 416.534 1225.07 417.394C1225.67 417.056 1232.91 413.167 1240.57 416.983C1248.67 421.019 1249.6 429.877 1249.64 430.377C1253.36 430.126 1255.83 431.17 1257.12 431.881Z" fill="#8DC292"/>
<path d="M977.604 452.965H1060.58C1062.85 451.225 1066.24 448.12 1068.54 443.281C1072.87 434.149 1073.1 419.228 1063.53 412.918C1055.37 407.547 1044.95 411.609 1043.54 412.185C1042.44 410.978 1038.41 406.875 1032.18 406.416C1025.15 405.9 1018.17 410.239 1014.65 417.393C1010.47 414.612 1005.12 414.319 1000.77 416.651C996.011 419.206 993.242 424.49 993.806 429.985C992.773 429.982 985.515 430.081 980.513 436.034C974.379 443.335 977.448 452.525 977.604 452.965Z" fill="#8DC292"/>
<path d="M1040.58 446.753C1040.58 448.958 1040.13 451.057 1039.32 452.965H995.499C995.18 451.961 995.008 450.891 995.008 449.779C995.008 443.976 999.72 439.271 1005.53 439.271C1007.17 439.271 1008.73 439.647 1010.12 440.319C1012.59 434.748 1018.17 430.861 1024.67 430.861C1033.46 430.861 1040.58 437.978 1040.58 446.753Z" fill="#3B5737"/>
<path d="M1229.14 452.965H1162.92C1160.67 439.109 1166.84 428.591 1173.83 427.275C1178.66 426.367 1183.24 429.96 1185.09 431.611C1187.65 425.612 1194.1 422.612 1199.6 424.297C1203.99 425.641 1207.23 429.798 1207.72 434.764C1212.79 431.139 1219.43 430.884 1224.29 434.051C1230.16 437.867 1232.45 446.002 1229.14 452.969L1229.14 452.965Z" fill="#4D8344"/>
<g filter="url(#filter0_d_60_552)">
<path d="M1181.88 276.78H1030.97V452.933H1181.88V276.78Z" fill="#C1A193"/>
<path opacity="0.5" d="M1054.04 282.533H1046.2V285.996H1054.04V282.533Z" fill="#9F7464"/>
<path opacity="0.5" d="M1093.72 342.396H1087.27V345.244H1093.72V342.396Z" fill="#9F7464"/>
<path opacity="0.5" d="M1102.91 346.748H1095.07V349.908H1102.91V346.748Z" fill="#9F7464"/>
<path opacity="0.5" d="M1090.19 369.667H1082.35V373.13H1090.19V369.667Z" fill="#9F7464"/>
<path opacity="0.5" d="M1095.29 420.203H1088.65V422.971H1095.29V420.203Z" fill="#9F7464"/>
<path opacity="0.5" d="M1103.98 421.92H1097.34V424.688H1103.98V421.92Z" fill="#9F7464"/>
<path opacity="0.5" d="M1167.88 283.279H1160.04V286.742H1167.88V283.279Z" fill="#9F7464"/>
<path opacity="0.5" d="M1091.84 379.484H1085.65V382.217H1091.84V379.484Z" fill="#9F7464"/>
<path opacity="0.5" d="M1125.49 362.404H1119.3V365.137H1125.49V362.404Z" fill="#9F7464"/>
<path opacity="0.5" d="M1129.25 396.819H1123.06V399.552H1129.25V396.819Z" fill="#9F7464"/>
<path opacity="0.5" d="M1133.5 389.461H1127.31V392.194H1133.5V389.461Z" fill="#9F7464"/>
<path opacity="0.5" d="M1161.87 359.05H1155.68V361.783H1161.87V359.05Z" fill="#9F7464"/>
<path opacity="0.2" d="M1173.4 343.461H1167.21V346.194H1173.4V343.461Z" fill="#9F7464"/>
<path opacity="0.2" d="M1045.58 383.677H1039.39V386.41H1045.58V383.677Z" fill="#9F7464"/>
<path opacity="0.2" d="M1176.49 384.221H1170.3V386.954H1176.49V384.221Z" fill="#9F7464"/>
<path opacity="0.2" d="M1169.9 418.837H1163.71V421.57H1169.9V418.837Z" fill="#9F7464"/>
<path opacity="0.2" d="M1042.48 417.471H1036.29V420.204H1042.48V417.471Z" fill="#9F7464"/>
<path opacity="0.5" d="M1129.13 298.875H1123.2V301.493H1129.13V298.875Z" fill="#9F7464"/>
<path opacity="0.5" d="M1096.3 284.684H1090.37V287.302H1096.3V284.684Z" fill="#9F7464"/>
<path opacity="0.5" d="M1101.82 280.485H1095.89V283.104H1101.82V280.485Z" fill="#9F7464"/>
<path opacity="0.5" d="M1052.69 347.573H1046.76V350.192H1052.69V347.573Z" fill="#9F7464"/>
<path opacity="0.5" d="M1056.64 344.13H1050.71V346.748H1056.64V344.13Z" fill="#9F7464"/>
<path opacity="0.5" d="M1132.65 302.965H1126.72V305.583H1132.65V302.965Z" fill="#9F7464"/>
<path d="M1181.88 426.638H1030.97V452.93H1181.88V426.638Z" fill="white"/>
<path d="M1034.77 286.505V302.079H1037.44V317.646H1034.77V333.219H1037.44V348.786H1034.77V364.36H1037.44V379.927H1034.77V395.5H1037.44V411.067H1034.77V426.641H1030.97V276.78H1037.44V286.505H1034.77Z" fill="white"/>
<path d="M1181.88 276.78V426.641H1178V411.067H1175.33V395.5H1178V379.927H1175.33V364.36H1178V348.786H1175.33V333.219H1178V317.646H1175.33V302.079H1178V286.505H1175.33V276.78H1181.88Z" fill="white"/>
<path d="M1181.88 352.625H1030.97V355.47H1181.88V352.625Z" fill="white"/>
</g>
<path d="M1063.49 362.404C1071.97 362.404 1078.86 369.282 1078.86 377.752V426.179C1078.86 426.995 1078.2 427.654 1077.38 427.654H1049.59C1048.78 427.654 1048.12 426.995 1048.12 426.179V377.752C1048.12 369.282 1055 362.404 1063.49 362.404Z" fill="#FBF8F4"/>
<path d="M1063.35 363.66C1071.31 363.66 1077.77 370.142 1077.77 378.129V426.248H1048.93V378.129C1048.93 370.145 1055.39 363.66 1063.35 363.66H1063.35Z" fill="#594B3E"/>
<path d="M1063.35 364.67C1070.75 364.67 1076.76 370.763 1076.76 378.267V424.23H1049.94V378.267C1049.94 370.763 1055.95 364.67 1063.35 364.67H1063.35Z" fill="#8D7064"/>
<path d="M1078.01 424.131H1048.96V428.243H1078.01V424.131Z" fill="#B57E6B"/>
<path d="M1078.01 427.526H1048.96V428.243H1078.01V427.526Z" fill="#967366"/>
<path d="M1078.01 428.243H1048.96V432.356H1078.01V428.243Z" fill="#B57E6B"/>
<path d="M1078.01 431.639H1048.96V432.355H1078.01V431.639Z" fill="#967366"/>
<path d="M1078.01 432.355H1048.96V436.468H1078.01V432.355Z" fill="#B57E6B"/>
<path d="M1078.01 435.754H1048.96V436.471H1078.01V435.754Z" fill="#967366"/>
<path d="M1078.01 436.471H1048.96V440.583H1078.01V436.471Z" fill="#B57E6B"/>
<path d="M1078.01 439.866H1048.96V440.583H1078.01V439.866Z" fill="#967366"/>
<path d="M1078.01 440.583H1048.96V444.695H1078.01V440.583Z" fill="#B57E6B"/>
<path d="M1078.01 443.981H1048.96V444.698H1078.01V443.981Z" fill="#967366"/>
<path d="M1078.01 444.695H1048.96V448.808H1078.01V444.695Z" fill="#B57E6B"/>
<path d="M1078.01 448.094H1048.96V448.81H1078.01V448.094Z" fill="#967366"/>
<path d="M1078.01 448.812H1048.96V452.962H1078.01V448.812Z" fill="#B57E6B"/>
<path d="M1078.01 452.239H1048.96V452.962H1078.01V452.239Z" fill="#967366"/>
<path d="M1047.03 400.507H1047.79C1048.98 400.507 1049.94 401.334 1049.94 402.357V453H1044.88V402.357C1044.88 401.338 1045.85 400.507 1047.04 400.507H1047.03Z" fill="#B08B7C"/>
<path d="M1078.69 400.507H1079.37C1080.44 400.507 1081.31 401.334 1081.31 402.356V453H1076.76V402.356C1076.76 401.337 1077.62 400.507 1078.69 400.507H1078.69Z" fill="#B08B7C"/>
<path d="M1063.49 368.708C1069.13 368.708 1073.72 373.559 1073.72 379.531V381.851H1053.25V379.531C1053.25 373.559 1057.84 368.708 1063.49 368.708Z" fill="#FBF8F4"/>
<path d="M1063.37 369.549C1068.67 369.549 1072.98 374.033 1072.98 379.556V380.888H1053.75V379.556C1053.75 374.033 1058.06 369.549 1063.37 369.549Z" fill="#C2D4EA"/>
<path d="M1063.49 369.659C1068.75 369.659 1073.02 374.179 1073.02 379.746V381.088H1053.95V379.746C1053.95 374.179 1058.22 369.659 1063.49 369.659V369.659Z" stroke="#84695D" stroke-miterlimit="10"/>
<path d="M1063.37 370.966C1067.93 370.966 1071.64 374.792 1071.64 379.503V380.887H1055.09V379.503C1055.09 374.792 1058.8 370.966 1063.37 370.966Z" fill="#EAEEFB"/>
<path d="M1063.48 369.659V381.088" stroke="#84695D" stroke-miterlimit="10"/>
<path d="M1072.19 375.56H1054.8" stroke="#84695D" stroke-miterlimit="10"/>
<path d="M1055.54 397.512C1055.54 396.658 1054.85 395.967 1054 395.967C1053.15 395.967 1052.45 396.658 1052.45 397.512V401.748C1052.45 402.602 1053.15 403.293 1054 403.293C1054.85 403.293 1055.54 402.602 1055.54 401.748V397.512Z" fill="#594B3E"/>
<path d="M1055.07 397.62C1055.07 397.025 1054.59 396.543 1054 396.543C1053.4 396.543 1052.92 397.025 1052.92 397.62V401.662C1052.92 402.257 1053.4 402.739 1054 402.739C1054.59 402.739 1055.07 402.257 1055.07 401.662V397.62Z" fill="#594B3E"/>
<path d="M1120.79 366.86H1094.46V414.055H1120.79V366.86Z" fill="#FBF8F4"/>
<path d="M1119.56 367.963H1095.51V412.95H1119.56V367.963Z" fill="#C7CCFF"/>
<path d="M1119.68 369.667H1097.34V412.775H1119.68V369.667Z" fill="#F2F5FF"/>
<path d="M1119.74 367.963H1095.51V412.95H1119.74V367.963Z" stroke="#84695D" stroke-miterlimit="10"/>
<path d="M1107.63 367.867V412.953" stroke="#84695D" stroke-miterlimit="10"/>
<path d="M1095.51 380.517H1119.75" stroke="#84695D" stroke-miterlimit="10"/>
<path d="M1095.51 393.271H1119.75" stroke="#84695D" stroke-miterlimit="10"/>
<path d="M1095.51 406.028H1119.75" stroke="#84695D" stroke-miterlimit="10"/>
<path d="M1123.63 412.953H1091.62V417.47H1123.63V412.953Z" fill="url(#paint0_linear_60_552)"/>
<path d="M1119.09 404.54C1118.52 404.54 1117.98 404.652 1117.48 404.846C1116.77 403.158 1115.31 401.995 1113.62 401.995C1112.94 401.995 1112.31 402.183 1111.74 402.511C1111.27 402.304 1110.77 402.186 1110.24 402.186C1109.16 402.186 1108.18 402.658 1107.43 403.429C1106.93 403.107 1106.37 402.922 1105.78 402.922C1104.61 402.922 1103.58 403.62 1102.94 404.687C1102.35 404.133 1101.62 403.798 1100.82 403.798C1099.68 403.798 1098.66 404.483 1098.02 405.534C1097.4 405.196 1096.69 405.002 1095.93 405.002C1093.55 405.002 1091.62 406.885 1091.62 409.207C1091.62 411.529 1093.55 413.412 1095.93 413.412C1097.25 413.412 1098.43 412.829 1099.22 411.914C1099.7 412.22 1100.24 412.395 1100.82 412.395C1101.95 412.395 1102.96 411.73 1103.59 410.701C1104.2 411.284 1104.95 411.634 1105.78 411.634C1106.37 411.634 1106.93 411.453 1107.42 411.137C1108.17 411.918 1109.16 412.395 1110.24 412.395C1110.91 412.395 1111.55 412.207 1112.12 411.879C1112.59 412.086 1113.09 412.204 1113.62 412.204C1114.22 412.204 1114.79 412.058 1115.31 411.797C1116.12 413.048 1117.52 413.877 1119.09 413.877C1121.6 413.877 1123.63 411.787 1123.63 409.21C1123.63 406.633 1121.6 404.543 1119.09 404.543L1119.09 404.54Z" fill="#3B5737"/>
<path d="M1115.69 405.856C1115.64 405.856 1115.6 405.862 1115.56 405.865C1115.03 404.779 1113.82 404.018 1112.41 404.018C1111.33 404.018 1110.36 404.47 1109.73 405.171C1109.28 404.572 1108.63 404.196 1107.91 404.196C1106.53 404.196 1105.41 405.575 1105.41 407.276C1105.41 408.977 1106.53 410.357 1107.91 410.357C1108.71 410.357 1109.42 409.891 1109.88 409.175C1110.51 409.79 1111.41 410.181 1112.41 410.181C1112.74 410.181 1113.06 410.137 1113.36 410.057C1113.73 411.204 1114.63 412.016 1115.69 412.016C1117.07 412.016 1118.19 410.637 1118.19 408.936C1118.19 407.235 1117.07 405.856 1115.69 405.856Z" fill="#4D8344"/>
<path d="M1110.41 405.648C1108.73 405.648 1107.27 406.445 1106.45 407.636C1106.02 406.735 1105.22 406.126 1104.31 406.126C1103.12 406.126 1102.13 407.142 1101.88 408.506C1101.26 407.658 1100.19 407.098 1098.97 407.098C1097.06 407.098 1095.51 408.477 1095.51 410.178C1095.51 411.879 1097.06 413.258 1098.97 413.258C1100.55 413.258 1101.88 412.315 1102.3 411.029C1102.75 411.79 1103.48 412.287 1104.31 412.287C1105.02 412.287 1105.66 411.92 1106.12 411.331C1106.8 412.844 1108.47 413.915 1110.41 413.915C1112.97 413.915 1115.04 412.064 1115.04 409.783C1115.04 407.502 1112.97 405.652 1110.41 405.652V405.648Z" fill="#8DC292"/>
<path d="M1122.83 409.197H1092.43C1091.99 409.197 1091.62 409.583 1091.62 410.057V413.192C1091.62 413.666 1091.99 414.052 1092.43 414.052H1094.34C1094.34 414.052 1094.35 414.058 1094.35 414.068V414.555C1094.35 415.339 1094.89 416.046 1095.62 416.113C1096.44 416.189 1097.13 415.498 1097.13 414.632V414.068C1097.13 414.068 1097.14 414.052 1097.15 414.052H1118.11C1118.11 414.052 1118.12 414.058 1118.12 414.068V414.555C1118.12 415.339 1118.66 416.046 1119.39 416.113C1120.21 416.189 1120.9 415.498 1120.9 414.632V414.068C1120.9 414.068 1120.91 414.052 1120.92 414.052H1122.83C1123.27 414.052 1123.63 413.666 1123.63 413.192V410.057C1123.63 409.583 1123.27 409.197 1122.83 409.197H1122.83Z" fill="#84695D"/>
<path d="M1091.62 412.953H1123.63V413.358C1123.63 413.743 1123.32 414.055 1122.93 414.055H1092.32C1091.93 414.055 1091.62 413.743 1091.62 413.358V412.953Z" fill="#594B3E"/>
<path d="M1163.96 366.86H1137.64V414.055H1163.96V366.86Z" fill="#FBF8F4"/>
<path d="M1162.73 367.963H1138.68V412.95H1162.73V367.963Z" fill="#C7CCFF"/>
<path d="M1162.85 369.667H1140.5V412.775H1162.85V369.667Z" fill="#F2F5FF"/>
<path d="M1162.92 367.963H1138.68V412.95H1162.92V367.963Z" stroke="#84695D" stroke-miterlimit="10"/>
<path d="M1150.8 367.867V412.953" stroke="#84695D" stroke-miterlimit="10"/>
<path d="M1138.68 380.517H1162.92" stroke="#84695D" stroke-miterlimit="10"/>
<path d="M1138.68 393.271H1162.92" stroke="#84695D" stroke-miterlimit="10"/>
<path d="M1138.68 406.028H1162.92" stroke="#84695D" stroke-miterlimit="10"/>
<path d="M1166.8 412.953H1134.79V417.47H1166.8V412.953Z" fill="url(#paint1_linear_60_552)"/>
<path d="M1162.26 413.87C1164.77 413.87 1166.8 411.781 1166.8 409.204C1166.8 406.626 1164.77 404.537 1162.26 404.537C1159.75 404.537 1157.72 406.626 1157.72 409.204C1157.72 411.781 1159.75 413.87 1162.26 413.87Z" fill="#3B5737"/>
<path d="M1150.89 402.919C1149.49 402.919 1148.21 403.339 1147.25 404.027C1146.59 403.658 1145.83 403.441 1145.02 403.441C1143.41 403.441 1142 404.279 1141.2 405.534C1140.58 405.193 1139.87 404.999 1139.1 404.999C1136.72 404.999 1134.8 406.882 1134.8 409.204C1134.8 411.526 1136.72 413.408 1139.1 413.408C1140.54 413.408 1141.8 412.724 1142.58 411.676C1143.29 412.125 1144.12 412.389 1145.02 412.389C1146.27 412.389 1147.4 411.886 1148.22 411.074C1149.01 411.427 1149.92 411.628 1150.89 411.628C1153.91 411.628 1156.36 409.678 1156.36 407.273C1156.36 404.868 1153.91 402.919 1150.89 402.919Z" fill="#3B5737"/>
<path d="M1156.79 412.201C1159.17 412.201 1161.09 410.24 1161.09 407.821C1161.09 405.402 1159.17 403.441 1156.79 403.441C1154.41 403.441 1152.48 405.402 1152.48 407.821C1152.48 410.24 1154.41 412.201 1156.79 412.201Z" fill="#3B5737"/>
<path d="M1155.16 405.767C1154.38 405.767 1153.67 405.999 1153.09 406.388C1152.6 406.108 1152.03 405.942 1151.41 405.942C1149.61 405.942 1148.16 407.321 1148.16 409.022C1148.16 410.723 1149.61 412.103 1151.41 412.103C1152.15 412.103 1152.83 411.867 1153.37 411.475C1153.89 411.759 1154.5 411.924 1155.15 411.924C1157.05 411.924 1158.58 410.545 1158.58 408.844C1158.58 407.143 1157.05 405.764 1155.15 405.764L1155.16 405.767Z" fill="#4D8344"/>
<path d="M1138.25 412.596C1140.17 412.596 1141.72 411.362 1141.72 409.84C1141.72 408.319 1140.17 407.085 1138.25 407.085C1136.34 407.085 1134.79 408.319 1134.79 409.84C1134.79 411.362 1136.34 412.596 1138.25 412.596Z" fill="#8DC292"/>
<path d="M1142.74 411.16C1144.62 411.16 1146.14 410.033 1146.14 408.643C1146.14 407.254 1144.62 406.127 1142.74 406.127C1140.85 406.127 1139.33 407.254 1139.33 408.643C1139.33 410.033 1140.85 411.16 1142.74 411.16Z" fill="#8DC292"/>
<path d="M1146.86 413.338C1148.86 413.338 1150.49 411.682 1150.49 409.64C1150.49 407.597 1148.86 405.941 1146.86 405.941C1144.86 405.941 1143.23 407.597 1143.23 409.64C1143.23 411.682 1144.86 413.338 1146.86 413.338Z" fill="#8DC292"/>
<path d="M1166 409.197H1135.6C1135.15 409.197 1134.79 409.583 1134.79 410.057V413.192C1134.79 413.666 1135.15 414.052 1135.6 414.052H1137.51C1137.51 414.052 1137.52 414.058 1137.52 414.068V414.555C1137.52 415.339 1138.06 416.046 1138.79 416.113C1139.61 416.189 1140.3 415.498 1140.3 414.632V414.068C1140.3 414.068 1140.31 414.052 1140.32 414.052H1161.28C1161.28 414.052 1161.29 414.058 1161.29 414.068V414.555C1161.29 415.339 1161.83 416.046 1162.56 416.113C1163.38 416.189 1164.07 415.498 1164.07 414.632V414.068C1164.07 414.068 1164.08 414.052 1164.08 414.052H1166C1166.44 414.052 1166.8 413.666 1166.8 413.192V410.057C1166.8 409.583 1166.44 409.197 1166 409.197H1166Z" fill="#84695D"/>
<path d="M1134.79 412.953H1166.8V413.358C1166.8 413.743 1166.49 414.055 1166.1 414.055H1135.49C1135.11 414.055 1134.79 413.743 1134.79 413.358V412.953Z" fill="#594B3E"/>
<path d="M1155.18 391.006C1155.17 390.471 1155.41 389.996 1155.96 389.461C1155.91 389.652 1155.86 389.945 1155.9 390.286C1155.96 390.668 1156.09 390.834 1156.15 391.089C1156.22 391.385 1156.19 391.834 1155.73 392.49C1155.31 391.624 1155.19 391.436 1155.18 391.006Z" fill="#4D8344"/>
<path d="M1156.34 398.205C1155.98 397.768 1155.46 397.552 1154.64 397.504C1155.03 397.81 1155.25 398.698 1155.63 399.275C1155.92 399.702 1156.52 399.715 1156.94 399.778C1156.67 398.791 1156.63 398.552 1156.34 398.205Z" fill="#4D8344"/>
<path d="M1156.38 394.115C1156 393.933 1155.58 393.949 1155.01 394.172C1155.37 394.258 1155.8 394.79 1156.24 395.057C1156.56 395.255 1156.97 395.08 1157.28 394.991C1156.79 394.408 1156.69 394.258 1156.38 394.111V394.115Z" fill="#4D8344"/>
<path d="M1156 393.274C1155.95 392.917 1156.09 392.573 1156.49 392.146C1156.46 392.462 1156.85 392.921 1156.97 393.341C1157.06 393.65 1156.77 393.956 1156.58 394.192C1156.17 393.669 1156.05 393.558 1156 393.274Z" fill="#4D8344"/>
<path d="M1160.5 399.517C1160.6 399.342 1160.61 399.192 1160.8 398.698C1160.95 398.3 1161.1 397.985 1161.2 397.774C1160.44 397.934 1160.06 398.249 1159.85 398.517C1159.73 398.682 1159.68 398.81 1159.47 399.224C1159.23 399.702 1159.02 400.077 1158.87 400.326C1159.93 400.183 1160.33 399.829 1160.5 399.514V399.517Z" fill="#4D8344"/>
<path d="M1157.86 401.476C1157.3 401.097 1156.75 400.985 1156.44 400.947C1156.86 402.209 1157.41 402.725 1157.85 402.957C1158.09 403.081 1158.57 403.279 1159.04 403.773C1159.24 403.993 1159.38 404.2 1159.46 404.343C1159.43 403.961 1159.32 403.387 1158.99 402.779C1158.82 402.467 1158.51 401.912 1157.86 401.473V401.476Z" fill="#4D8344"/>
<path d="M1157.81 407.628C1159 406.481 1159.83 404.675 1159.13 403.066C1158.66 402.072 1157.95 401.231 1157.26 400.381C1157.01 400.066 1156.77 399.712 1156.7 399.295C1156.56 398.454 1156.93 397.68 1157.12 396.925C1157.49 395.596 1157.36 394.641 1156.12 393.876C1155.96 393.752 1155.81 393.602 1155.72 393.405C1155.53 392.816 1155.87 392.207 1155.75 391.608C1155.72 391.411 1155.61 391.242 1155.52 391.064C1155.42 390.879 1155.45 390.662 1155.51 390.478C1155.45 390.669 1155.43 390.882 1155.53 391.057C1155.63 391.229 1155.75 391.401 1155.78 391.605C1155.96 392.373 1155.37 393.287 1156.18 393.8C1158.03 394.864 1157.42 396.45 1156.93 398.116C1156.7 398.893 1156.83 399.68 1157.37 400.295C1158.06 401.152 1158.79 402.012 1159.24 403.022C1159.94 404.675 1159.07 406.51 1157.81 407.631L1157.81 407.628Z" fill="#4D8344"/>
<path d="M1159.08 403.334C1158.54 402.69 1157.55 402.509 1157.25 401.646C1157.64 402.445 1158.62 402.614 1159.08 403.334Z" fill="#4D8344"/>
<path d="M1156.51 399.304C1156.23 398.864 1155.99 398.345 1155.46 398.186C1156.03 398.233 1156.34 398.823 1156.51 399.304Z" fill="#4D8344"/>
<path d="M1159.29 399.87C1159.5 399.705 1159.73 399.558 1159.87 399.342C1160.01 399.125 1160.08 398.845 1160.26 398.65C1160.13 398.889 1160.08 399.15 1159.94 399.386C1159.77 399.616 1159.54 399.762 1159.29 399.87Z" fill="#4D8344"/>
<path d="M1156.92 394.752C1156.7 394.676 1156.53 394.816 1156.31 394.774C1156.11 394.701 1155.98 394.532 1155.86 394.36C1156.02 394.485 1156.16 394.644 1156.34 394.698C1156.52 394.739 1156.72 394.615 1156.92 394.752H1156.92Z" fill="#4D8344"/>
<path d="M1156.5 393.723C1156.55 393.411 1156.34 393.2 1156.43 392.895C1156.45 393.204 1156.67 393.426 1156.5 393.723Z" fill="#4D8344"/>
<path d="M1165.27 394.223C1165.29 394.169 1165.34 394.035 1165.32 393.867C1165.28 393.602 1165.08 393.449 1165.03 393.411C1165 393.516 1164.96 393.669 1164.87 393.841C1164.75 394.055 1164.67 394.128 1164.61 394.246C1164.53 394.402 1164.49 394.653 1164.65 395.08C1164.79 394.845 1164.93 394.676 1165.03 394.561C1165.12 394.456 1165.21 394.376 1165.27 394.223H1165.27Z" fill="#4D8344"/>
<path d="M1162.98 398.852C1163.22 398.674 1163.37 398.652 1163.64 398.467C1163.79 398.365 1163.9 398.263 1163.96 398.199C1163.97 398.381 1163.97 398.744 1163.79 399.139C1163.7 399.34 1163.48 399.722 1163.02 399.977C1162.7 400.161 1162.39 400.2 1162.23 400.209C1162.27 399.938 1162.37 399.524 1162.67 399.158C1162.73 399.088 1162.82 398.97 1162.98 398.849V398.852Z" fill="#4D8344"/>
<path d="M1162.87 396.89C1163.11 396.641 1163.43 396.533 1163.93 396.539C1163.68 396.708 1163.51 397.234 1163.26 397.562C1163.07 397.807 1162.71 397.791 1162.45 397.81C1162.65 397.227 1162.68 397.087 1162.87 396.89H1162.87Z" fill="#4D8344"/>
<path d="M1164.23 395.79C1164.36 395.529 1164.33 395.226 1164.13 394.803C1164.07 395.051 1163.66 395.316 1163.46 395.609C1163.32 395.825 1163.47 396.134 1163.56 396.36C1164.01 396.055 1164.12 395.997 1164.23 395.79Z" fill="#4D8344"/>
<path d="M1160.81 401.686C1161.33 401.53 1161.79 401.578 1162.04 401.623C1161.41 402.499 1160.86 402.763 1160.46 402.836C1160.24 402.878 1159.82 402.91 1159.34 403.18C1159.13 403.301 1158.97 403.429 1158.88 403.518C1159 403.231 1159.22 402.814 1159.62 402.422C1159.83 402.221 1160.2 401.868 1160.8 401.686H1160.81Z" fill="#4D8344"/>
<path d="M1159.36 406.452C1158.73 405.382 1158.43 403.926 1159.15 402.817C1159.69 402.018 1160.54 401.499 1161.32 400.967C1161.86 400.642 1162.26 400.17 1162.3 399.52C1162.37 398.342 1162.18 396.615 1163.65 396.243C1163.95 396.144 1164.28 396.074 1164.43 395.797C1164.59 395.539 1164.58 395.201 1164.67 394.898C1164.75 394.593 1164.88 394.296 1165.06 394.035C1164.89 394.306 1164.78 394.602 1164.71 394.908C1164.63 395.211 1164.66 395.539 1164.5 395.838C1164.34 396.144 1163.98 396.233 1163.69 396.338C1162.28 396.743 1162.53 398.39 1162.45 399.536C1162.42 400.208 1161.96 400.779 1161.4 401.094C1160.63 401.607 1159.79 402.129 1159.25 402.884C1158.53 403.942 1158.78 405.375 1159.35 406.452H1159.36Z" fill="#4D8344"/>
<path d="M1159.38 402.831C1160.04 402.643 1160.46 401.849 1161.23 401.971C1160.48 401.958 1160.08 402.745 1159.38 402.831Z" fill="#4D8344"/>
<path d="M1162.55 399.852C1162.87 399.582 1163.24 399.378 1163.44 399.002C1163.34 399.426 1162.92 399.684 1162.55 399.852Z" fill="#4D8344"/>
<path d="M1162.73 397.574C1162.88 397.482 1162.94 397.358 1162.99 397.195C1163.06 397.027 1163.25 396.947 1163.42 396.972C1163.26 397.017 1163.11 397.084 1163.07 397.227C1163.02 397.374 1162.91 397.546 1162.73 397.574Z" fill="#4D8344"/>
<path d="M1163.6 396.176C1163.57 395.753 1163.92 395.558 1164.08 395.195C1164.03 395.587 1163.67 395.788 1163.6 396.176Z" fill="#4D8344"/>
<path d="M1159.88 389.26C1159.83 389.028 1159.86 389.002 1159.81 388.748C1159.76 388.541 1159.71 388.375 1159.66 388.267C1159.82 388.308 1160.19 388.432 1160.4 388.779C1160.55 389.022 1160.55 389.264 1160.56 389.56C1160.57 389.882 1160.52 390.146 1160.47 390.321C1160.4 390.267 1160.3 390.178 1160.2 390.047C1159.99 389.77 1159.93 389.474 1159.88 389.257L1159.88 389.26Z" fill="#4D8344"/>
<path d="M1160.74 395.727C1161.01 395.259 1161.47 394.972 1162.23 394.8C1161.92 395.147 1161.85 396.017 1161.58 396.619C1161.38 397.065 1160.82 397.173 1160.43 397.3C1160.53 396.329 1160.52 396.103 1160.74 395.727Z" fill="#4D8344"/>
<path d="M1159.51 393.064C1159.64 392.679 1159.92 392.402 1160.45 392.156C1160.28 392.459 1160.36 393.102 1160.26 393.583C1160.18 393.937 1159.79 394.103 1159.53 394.259C1159.45 393.539 1159.41 393.373 1159.51 393.067V393.064Z" fill="#4D8344"/>
<path d="M1160.18 391.076C1160.18 390.732 1159.99 390.433 1159.55 390.092C1159.63 390.382 1159.34 390.875 1159.28 391.29C1159.25 391.595 1159.57 391.834 1159.78 392.029C1160.09 391.471 1160.18 391.347 1160.18 391.073V391.076Z" fill="#4D8344"/>
<path d="M1158.66 395.411C1158.54 395.265 1158.5 395.131 1158.23 394.704C1158.01 394.363 1157.81 394.096 1157.67 393.924C1158.42 393.924 1158.83 394.144 1159.07 394.354C1159.22 394.484 1159.29 394.596 1159.56 394.94C1159.88 395.338 1160.16 395.647 1160.34 395.851C1159.33 395.924 1158.88 395.669 1158.66 395.411Z" fill="#4D8344"/>
<path d="M1160.76 396.781C1160.83 396.3 1161.04 395.695 1161.56 395.564C1161.09 395.803 1160.95 396.323 1160.76 396.781Z" fill="#4D8344"/>
<path d="M1159.86 395.507C1159.61 395.453 1159.36 395.364 1159.16 395.182C1158.98 394.991 1158.89 394.755 1158.71 394.558C1158.92 394.701 1159.04 394.949 1159.21 395.125C1159.39 395.297 1159.63 395.392 1159.86 395.507Z" fill="#4D8344"/>
<path d="M1159.6 393.848C1159.63 393.625 1159.85 393.561 1159.94 393.408C1160.02 393.252 1160 393.051 1160.02 392.86C1160.06 393.051 1160.09 393.252 1160.01 393.443C1159.89 393.625 1159.69 393.644 1159.6 393.845V393.848Z" fill="#4D8344"/>
<path d="M1158.23 399.033C1158.08 398.638 1158.13 398.227 1158.41 397.686C1158.46 398.045 1158.98 398.511 1159.22 398.969C1159.4 399.307 1159.19 399.696 1159.07 399.989C1158.5 399.453 1158.36 399.345 1158.23 399.033Z" fill="#4D8344"/>
<path d="M1158.84 399.61C1158.71 399.396 1158.87 399.215 1158.84 399.027C1158.8 398.867 1158.62 398.67 1158.52 398.536C1158.69 398.664 1158.85 398.801 1158.91 399.011C1158.94 399.237 1158.78 399.387 1158.84 399.61Z" fill="#4D8344"/>
<path d="M1159.79 391.615C1159.58 391.373 1159.74 391.112 1159.72 390.828C1159.86 391.093 1159.69 391.338 1159.79 391.615Z" fill="#4D8344"/>
<path d="M1160.85 404.808C1159.62 404.018 1158.55 402.661 1158.71 401.123C1158.84 400.004 1159.45 399.011 1159.99 398.042C1160.38 397.415 1160.57 396.704 1160.27 395.997C1159.75 394.736 1158.56 393.032 1159.87 391.853C1160.13 391.585 1160.48 391.385 1160.54 391.028C1160.59 390.678 1160.45 390.318 1160.31 389.977C1160.17 389.62 1160.33 389.231 1160.12 388.891C1160.34 389.209 1160.21 389.617 1160.36 389.955C1160.6 390.429 1160.83 391.127 1160.35 391.541C1158.58 392.891 1159.74 394.36 1160.42 395.94C1160.74 396.657 1160.53 397.482 1160.12 398.109C1159.58 399.062 1158.98 400.033 1158.82 401.126C1158.65 402.62 1159.68 403.977 1160.85 404.799V404.808Z" fill="#4D8344"/>
<path d="M1161.92 409.204H1156.36L1155.61 403.06H1162.66L1161.92 409.204Z" fill="#594B3E"/>
<path d="M1120.35 289.694H1094.03V336.889H1120.35V289.694Z" fill="#FBF8F4"/>
<path d="M1119.12 290.8H1095.07V335.787H1119.12V290.8Z" fill="#C7CCFF"/>
<path d="M1119.24 292.466H1096.9V335.609H1119.24V292.466Z" fill="#F2F5FF"/>
<path d="M1119.31 290.8H1095.07V335.787H1119.31V290.8Z" stroke="#84695D" stroke-miterlimit="10"/>
<path d="M1107.19 290.701V335.787" stroke="#84695D" stroke-miterlimit="10"/>
<path d="M1095.07 303.351H1119.31" stroke="#84695D" stroke-miterlimit="10"/>
<path d="M1095.07 316.108H1119.31" stroke="#84695D" stroke-miterlimit="10"/>
<path d="M1095.07 328.862H1119.31" stroke="#84695D" stroke-miterlimit="10"/>
<path d="M1123.19 335.787H1091.18V340.304H1123.19V335.787Z" fill="url(#paint2_linear_60_552)"/>
<path d="M1117.42 332.21C1118.46 330.078 1117.91 327.665 1116.18 326.821C1114.45 325.977 1112.2 327.022 1111.15 329.154C1110.11 331.287 1110.67 333.7 1112.4 334.544C1114.13 335.387 1116.38 334.343 1117.42 332.21Z" fill="#3B5737"/>
<path d="M1122.27 333.665C1123.33 331.504 1122.76 329.059 1121.01 328.204C1119.25 327.348 1116.97 328.407 1115.92 330.568C1114.86 332.729 1115.43 335.174 1117.18 336.029C1118.93 336.885 1121.21 335.826 1122.27 333.665Z" fill="#3B5737"/>
<path d="M1102.36 333.538C1105.43 333.538 1107.92 331.588 1107.92 329.184C1107.92 326.779 1105.43 324.829 1102.36 324.829C1099.28 324.829 1096.79 326.779 1096.79 329.184C1096.79 331.588 1099.28 333.538 1102.36 333.538Z" fill="#3B5737"/>
<path d="M1113.27 331.425C1114.29 329.338 1113.39 326.802 1111.25 325.759C1109.11 324.717 1106.55 325.564 1105.53 327.65C1104.51 329.737 1105.42 332.274 1107.55 333.316C1109.69 334.358 1112.25 333.511 1113.27 331.425Z" fill="#3B5737"/>
<path d="M1095.52 333.491C1097.7 333.491 1099.47 332.112 1099.47 330.41C1099.47 328.709 1097.7 327.33 1095.52 327.33C1093.34 327.33 1091.57 328.709 1091.57 330.41C1091.57 332.112 1093.34 333.491 1095.52 333.491Z" fill="#4D8344"/>
<path d="M1102.63 333.315C1105.63 333.315 1108.06 331.936 1108.06 330.235C1108.06 328.533 1105.63 327.154 1102.63 327.154C1099.64 327.154 1097.21 328.533 1097.21 330.235C1097.21 331.936 1099.64 333.315 1102.63 333.315Z" fill="#4D8344"/>
<path d="M1110.77 333.329C1112.17 331.657 1112.24 329.418 1110.93 328.328C1109.62 327.237 1107.43 327.708 1106.03 329.38C1104.63 331.051 1104.56 333.29 1105.87 334.381C1107.18 335.471 1109.37 335 1110.77 333.329Z" fill="#4D8344"/>
<path d="M1111.51 336.357C1113.66 336.357 1115.4 334.751 1115.4 332.77C1115.4 330.789 1113.66 329.184 1111.51 329.184C1109.36 329.184 1107.62 330.789 1107.62 332.77C1107.62 334.751 1109.36 336.357 1111.51 336.357Z" fill="#8DC292"/>
<path d="M1116.53 336.077C1119.09 336.077 1121.16 334.465 1121.16 332.477C1121.16 330.489 1119.09 328.878 1116.53 328.878C1113.97 328.878 1111.89 330.489 1111.89 332.477C1111.89 334.465 1113.97 336.077 1116.53 336.077Z" fill="#8DC292"/>
<path d="M1122.39 332.035H1091.99C1091.55 332.035 1091.19 332.421 1091.19 332.895V336.03C1091.19 336.504 1091.55 336.89 1091.99 336.89H1093.9C1093.9 336.89 1093.92 336.896 1093.92 336.906V337.393C1093.92 338.177 1094.45 338.884 1095.18 338.951C1096 339.027 1096.7 338.336 1096.7 337.469V336.906C1096.7 336.906 1096.7 336.89 1096.71 336.89H1117.67C1117.67 336.89 1117.68 336.896 1117.68 336.906V337.393C1117.68 338.177 1118.22 338.884 1118.95 338.951C1119.77 339.027 1120.47 338.336 1120.47 337.469V336.906C1120.47 336.906 1120.47 336.89 1120.48 336.89H1122.39C1122.83 336.89 1123.19 336.504 1123.19 336.03V332.895C1123.19 332.421 1122.83 332.035 1122.39 332.035H1122.39Z" fill="#84695D"/>
<path d="M1091.18 335.787H1123.19V336.192C1123.19 336.577 1122.88 336.889 1122.49 336.889H1091.88C1091.5 336.889 1091.18 336.577 1091.18 336.192V335.787Z" fill="#594B3E"/>
<path d="M1163.96 289.694H1137.64V336.889H1163.96V289.694Z" fill="#FBF8F4"/>
<path d="M1162.73 290.8H1138.68V335.787H1162.73V290.8Z" fill="#C7CCFF"/>
<path d="M1162.85 292.466H1140.5V335.609H1162.85V292.466Z" fill="#F2F5FF"/>
<path d="M1162.92 290.8H1138.68V335.787H1162.92V290.8Z" stroke="#84695D" stroke-miterlimit="10"/>
<path d="M1150.8 290.701V335.787" stroke="#84695D" stroke-miterlimit="10"/>
<path d="M1138.68 303.351H1162.92" stroke="#84695D" stroke-miterlimit="10"/>
<path d="M1138.68 316.108H1162.92" stroke="#84695D" stroke-miterlimit="10"/>
<path d="M1138.68 328.862H1162.92" stroke="#84695D" stroke-miterlimit="10"/>
<path d="M1166.8 335.787H1134.79V340.304H1166.8V335.787Z" fill="url(#paint3_linear_60_552)"/>
<path d="M1142.33 333.347C1144.83 333.347 1146.85 331.649 1146.85 329.554C1146.85 327.458 1144.83 325.76 1142.33 325.76C1139.84 325.76 1137.82 327.458 1137.82 329.554C1137.82 331.649 1139.84 333.347 1142.33 333.347Z" fill="#3B5737"/>
<path d="M1146.45 334.762C1149.48 334.762 1151.93 333.109 1151.93 331.07C1151.93 329.031 1149.48 327.378 1146.45 327.378C1143.43 327.378 1140.98 329.031 1140.98 331.07C1140.98 333.109 1143.43 334.762 1146.45 334.762Z" fill="#3B5737"/>
<path d="M1139.1 335.188C1141.48 335.188 1143.41 333.593 1143.41 331.624C1143.41 329.655 1141.48 328.06 1139.1 328.06C1136.72 328.06 1134.79 329.655 1134.79 331.624C1134.79 333.593 1136.72 335.188 1139.1 335.188Z" fill="#3B5737"/>
<path d="M1152.15 335.488C1154.52 335.488 1156.45 333.825 1156.45 331.774C1156.45 329.722 1154.52 328.06 1152.15 328.06C1149.77 328.06 1147.84 329.722 1147.84 331.774C1147.84 333.825 1149.77 335.488 1152.15 335.488Z" fill="#3B5737"/>
<path d="M1161.68 326.633C1160.52 326.633 1159.45 326.996 1158.59 327.601C1157.86 327.165 1157.01 326.91 1156.08 326.91C1153.4 326.91 1151.22 329.054 1151.22 331.698C1151.22 334.341 1153.4 336.485 1156.08 336.485C1157.19 336.485 1158.2 336.119 1159.02 335.511C1159.79 335.953 1160.7 336.211 1161.68 336.211C1164.51 336.211 1166.8 334.068 1166.8 331.424C1166.8 328.78 1164.51 326.636 1161.68 326.636V326.633Z" fill="#4D8344"/>
<path d="M1166 332.035H1135.6C1135.15 332.035 1134.79 332.421 1134.79 332.895V336.03C1134.79 336.504 1135.15 336.89 1135.6 336.89H1137.51C1137.51 336.89 1137.52 336.896 1137.52 336.906V337.393C1137.52 338.177 1138.06 338.884 1138.79 338.951C1139.61 339.027 1140.3 338.336 1140.3 337.469V336.906C1140.3 336.906 1140.31 336.89 1140.32 336.89H1161.28C1161.28 336.89 1161.29 336.896 1161.29 336.906V337.393C1161.29 338.177 1161.83 338.884 1162.56 338.951C1163.38 339.027 1164.07 338.336 1164.07 337.469V336.906C1164.07 336.906 1164.08 336.89 1164.08 336.89H1166C1166.44 336.89 1166.8 336.504 1166.8 336.03V332.895C1166.8 332.421 1166.44 332.035 1166 332.035H1166Z" fill="#84695D"/>
<path d="M1134.79 335.787H1166.8V336.192C1166.8 336.577 1166.49 336.889 1166.1 336.889H1135.49C1135.11 336.889 1134.79 336.577 1134.79 336.192V335.787Z" fill="#594B3E"/>
<path d="M1076.74 289.694H1050.41V336.889H1076.74V289.694Z" fill="#FBF8F4"/>
<path d="M1075.51 290.8H1051.46V335.787H1075.51V290.8Z" fill="#C7CCFF"/>
<path d="M1075.63 292.466H1053.29V335.609H1075.63V292.466Z" fill="#F2F5FF"/>
<path d="M1075.7 290.8H1051.46V335.787H1075.7V290.8Z" stroke="#84695D" stroke-miterlimit="10"/>
<path d="M1063.58 290.701V335.787" stroke="#84695D" stroke-miterlimit="10"/>
<path d="M1051.46 303.351H1075.7" stroke="#84695D" stroke-miterlimit="10"/>
<path d="M1051.46 316.108H1075.7" stroke="#84695D" stroke-miterlimit="10"/>
<path d="M1051.46 328.862H1075.7" stroke="#84695D" stroke-miterlimit="10"/>
<path d="M1079.58 335.787H1047.57V340.304H1079.58V335.787Z" fill="url(#paint4_linear_60_552)"/>
<path d="M1074.53 336.438C1077.04 336.438 1079.07 334.348 1079.07 331.771C1079.07 329.194 1077.04 327.104 1074.53 327.104C1072.02 327.104 1069.98 329.194 1069.98 331.771C1069.98 334.348 1072.02 336.438 1074.53 336.438Z" fill="#3B5737"/>
<path d="M1052.96 336.242C1055.94 336.242 1058.35 334.18 1058.35 331.636C1058.35 329.092 1055.94 327.03 1052.96 327.03C1049.98 327.03 1047.57 329.092 1047.57 331.636C1047.57 334.18 1049.98 336.242 1052.96 336.242Z" fill="#3B5737"/>
<path d="M1062.44 335.224C1065.64 335.224 1068.24 332.939 1068.24 330.121C1068.24 327.302 1065.64 325.018 1062.44 325.018C1059.23 325.018 1056.64 327.302 1056.64 330.121C1056.64 332.939 1059.23 335.224 1062.44 335.224Z" fill="#3B5737"/>
<path d="M1064.44 333.191C1066.15 333.191 1067.53 331.812 1067.53 330.111C1067.53 328.409 1066.15 327.03 1064.44 327.03C1062.74 327.03 1061.36 328.409 1061.36 330.111C1061.36 331.812 1062.74 333.191 1064.44 333.191Z" fill="#4D8344"/>
<path d="M1069.82 333.325C1072 333.325 1073.77 331.79 1073.77 329.897C1073.77 328.004 1072 326.47 1069.82 326.47C1067.63 326.47 1065.86 328.004 1065.86 329.897C1065.86 331.79 1067.63 333.325 1069.82 333.325Z" fill="#4D8344"/>
<path d="M1072.99 335.555C1075.18 335.555 1076.95 334.021 1076.95 332.128C1076.95 330.235 1075.18 328.7 1072.99 328.7C1070.81 328.7 1069.04 330.235 1069.04 332.128C1069.04 334.021 1070.81 335.555 1072.99 335.555Z" fill="#4D8344"/>
<path d="M1057.2 335.497C1059.11 335.497 1060.66 334.118 1060.66 332.417C1060.66 330.716 1059.11 329.337 1057.2 329.337C1055.29 329.337 1053.74 330.716 1053.74 332.417C1053.74 334.118 1055.29 335.497 1057.2 335.497Z" fill="#8DC292"/>
<path d="M1061.88 334.309C1063.41 334.309 1064.65 332.995 1064.65 331.372C1064.65 329.75 1063.41 328.436 1061.88 328.436C1060.36 328.436 1059.12 329.75 1059.12 331.372C1059.12 332.995 1060.36 334.309 1061.88 334.309Z" fill="#8DC292"/>
<path d="M1066.9 335.119C1069.15 335.119 1070.98 333.593 1070.98 331.71C1070.98 329.828 1069.15 328.302 1066.9 328.302C1064.65 328.302 1062.82 329.828 1062.82 331.71C1062.82 333.593 1064.65 335.119 1066.9 335.119Z" fill="#8DC292"/>
<path d="M1078.78 332.035H1048.38C1047.93 332.035 1047.57 332.421 1047.57 332.895V336.03C1047.57 336.504 1047.93 336.89 1048.38 336.89H1050.29C1050.29 336.89 1050.3 336.896 1050.3 336.906V337.393C1050.3 338.177 1050.84 338.884 1051.57 338.951C1052.39 339.027 1053.08 338.336 1053.08 337.469V336.906C1053.08 336.906 1053.09 336.89 1053.1 336.89H1074.06C1074.06 336.89 1074.07 336.896 1074.07 336.906V337.393C1074.07 338.177 1074.61 338.884 1075.34 338.951C1076.16 339.027 1076.85 338.336 1076.85 337.469V336.906C1076.85 336.906 1076.86 336.89 1076.87 336.89H1078.78C1079.22 336.89 1079.58 336.504 1079.58 336.03V332.895C1079.58 332.421 1079.22 332.035 1078.78 332.035H1078.78Z" fill="#84695D"/>
<path d="M1047.57 335.787H1079.58V336.192C1079.58 336.577 1079.27 336.889 1078.88 336.889H1048.27C1047.88 336.889 1047.57 336.577 1047.57 336.192V335.787Z" fill="#594B3E"/>
<path d="M1182.5 273.815H1030.72V276.844H1182.5V273.815Z" fill="white"/>
<path d="M1182.5 271.292H1030.72V276.844H1182.5V271.292Z" fill="url(#paint5_linear_60_552)"/>
<path d="M1183.84 268.247H1028.94V271.092H1183.84V268.247Z" fill="white"/>
<path d="M1174.85 229.993H1038.01L1030.98 265.402H1181.88L1174.85 229.993Z" fill="#5E5043"/>
<path d="M1180.5 265.402L1173.59 231.389H1039.27L1032.36 265.402" fill="#8D7064"/>
<path d="M1038.82 233.437H1174.41" stroke="#5E5043" stroke-width="0.25" stroke-miterlimit="10"/>
<path d="M1037.8 235.96H1175.42" stroke="#5E5043" stroke-width="0.25" stroke-miterlimit="10"/>
<path d="M1037.3 238.988H1175.92" stroke="#5E5043" stroke-width="0.25" stroke-miterlimit="10"/>
<path d="M1036.79 241.513H1176.43" stroke="#5E5043" stroke-width="0.25" stroke-miterlimit="10"/>
<path d="M1036.29 244.541H1176.94" stroke="#5E5043" stroke-width="0.25" stroke-miterlimit="10"/>
<path d="M1035.27 247.064H1177.95" stroke="#5E5043" stroke-width="0.25" stroke-miterlimit="10"/>
<path d="M1035.27 249.588H1177.95" stroke="#5E5043" stroke-width="0.25" stroke-miterlimit="10"/>
<path d="M1034.77 252.617H1178.45" stroke="#5E5043" stroke-width="0.25" stroke-miterlimit="10"/>
<path d="M1034.26 255.141H1178.96" stroke="#5E5043" stroke-width="0.25" stroke-miterlimit="10"/>
<path d="M1033.75 258.169H1179.46" stroke="#5E5043" stroke-width="0.25" stroke-miterlimit="10"/>
<path d="M1032.74 260.692H1180.48" stroke="#5E5043" stroke-width="0.25" stroke-miterlimit="10"/>
<path d="M1032.24 263.721H1180.98" stroke="#5E5043" stroke-width="0.25" stroke-miterlimit="10"/>
<path d="M1029.04 266.271H1183.83" stroke="#5E5043" stroke-width="0.25" stroke-miterlimit="10"/>
<path d="M1184.6 271.091H1028.17C1027.46 271.091 1026.88 271.668 1026.88 272.381V272.645C1026.88 273.358 1027.46 273.935 1028.17 273.935H1184.6C1185.32 273.935 1185.9 273.358 1185.9 272.645V272.381C1185.9 271.668 1185.32 271.091 1184.6 271.091Z" fill="#5E5043"/>
<path d="M1184.02 265.74H1028.7V271.292H1184.02V265.74Z" fill="url(#paint6_linear_60_552)"/>
<path d="M1184.6 265.402H1028.17C1027.46 265.402 1026.88 265.98 1026.88 266.692V266.957C1026.88 267.669 1027.46 268.247 1028.17 268.247H1184.6C1185.32 268.247 1185.9 267.669 1185.9 266.957V266.692C1185.9 265.98 1185.32 265.402 1184.6 265.402Z" fill="#5E5043"/>
<path d="M1089.15 226.072V254.25H1060.96V226.072L1075.05 215.831L1089.15 226.072Z" fill="#C1A193"/>
<path d="M1089.63 225.767V227.149H1089.15V226.776L1075.06 216.535L1060.96 226.776V227.149H1060.48V225.767L1075.06 215.172L1089.63 225.767Z" fill="#5E5043"/>
<path d="M1084.41 228.39H1065.7V247.326H1084.41V228.39Z" fill="white"/>
<path d="M1083.54 229.042H1066.45V247.323H1083.54V229.042Z" fill="#C7CCFF"/>
<path d="M1083.62 230.091H1067.55V247.326H1083.62V230.091Z" fill="#F2F5FF"/>
<path d="M1083.67 229.042H1066.45V247.323H1083.67V229.042Z" stroke="#8D7064" stroke-miterlimit="10"/>
<path d="M1075.05 247.326V244.053V236.489V229.621V229.042V228.985" stroke="#8D7064" stroke-miterlimit="10"/>
<path d="M1066.45 238.292H1083.67" stroke="#8D7064" stroke-miterlimit="10"/>
<path d="M1086.43 248.772H1063.68V251.77H1086.43V248.772Z" fill="url(#paint7_linear_60_552)"/>
<path d="M1085.86 246.284H1064.25C1063.94 246.284 1063.68 246.539 1063.68 246.854V248.934C1063.68 249.25 1063.94 249.505 1064.25 249.505H1065.61C1065.61 249.505 1065.62 249.508 1065.62 249.514V249.839C1065.62 250.358 1066 250.827 1066.52 250.874C1067.11 250.925 1067.6 250.467 1067.6 249.893V249.517C1067.6 249.517 1067.6 249.508 1067.61 249.508H1082.51C1082.51 249.508 1082.52 249.511 1082.52 249.517V249.842C1082.52 250.361 1082.9 250.83 1083.42 250.878C1084 250.928 1084.49 250.47 1084.49 249.896V249.521C1084.49 249.521 1084.5 249.511 1084.5 249.511H1085.86C1086.18 249.511 1086.43 249.256 1086.43 248.941V246.861C1086.43 246.545 1086.18 246.291 1085.86 246.291L1085.86 246.284Z" fill="#8D7064"/>
<path d="M1063.68 248.772H1086.43V248.89C1086.43 249.231 1086.15 249.505 1085.82 249.505H1064.3C1063.95 249.505 1063.68 249.228 1063.68 248.89V248.772Z" fill="#5E5043"/>
<path d="M1151.81 226.072V254.25H1123.62V226.072L1137.71 215.831L1151.81 226.072Z" fill="#C1A193"/>
<path d="M1152.3 225.767V227.149H1151.81V226.776L1137.72 216.535L1123.62 226.776V227.149H1123.14V225.767L1137.72 215.172L1152.3 225.767Z" fill="#5E5043"/>
<path d="M1147.08 228.39H1128.36V247.326H1147.08V228.39Z" fill="white"/>
<path d="M1146.2 229.042H1129.11V247.323H1146.2V229.042Z" fill="#C7CCFF"/>
<path d="M1146.28 230.091H1130.43V247.326H1146.28V230.091Z" fill="#F2F5FF"/>
<path d="M1146.33 229.042H1129.11V247.323H1146.33V229.042Z" stroke="#8D7064" stroke-miterlimit="10"/>
<path d="M1137.72 247.326V244.053V236.489V229.621V229.042V228.985" stroke="#8D7064" stroke-miterlimit="10"/>
<path d="M1129.11 238.292H1146.33" stroke="#8D7064" stroke-miterlimit="10"/>
<path d="M1149.1 248.772H1126.34V251.77H1149.1V248.772Z" fill="url(#paint8_linear_60_552)"/>
<path d="M1148.52 246.284H1126.91C1126.6 246.284 1126.34 246.539 1126.34 246.854V248.934C1126.34 249.25 1126.6 249.505 1126.91 249.505H1128.27C1128.27 249.505 1128.28 249.508 1128.28 249.514V249.839C1128.28 250.358 1128.66 250.827 1129.18 250.874C1129.77 250.925 1130.26 250.467 1130.26 249.893V249.517C1130.26 249.517 1130.26 249.508 1130.27 249.508H1145.17C1145.17 249.508 1145.18 249.511 1145.18 249.517V249.842C1145.18 250.361 1145.56 250.83 1146.08 250.878C1146.66 250.928 1147.15 250.47 1147.15 249.896V249.521C1147.15 249.521 1147.16 249.511 1147.16 249.511H1148.52C1148.84 249.511 1149.09 249.256 1149.09 248.941V246.861C1149.09 246.545 1148.84 246.291 1148.52 246.291L1148.52 246.284Z" fill="#8D7064"/>
<path d="M1126.34 248.772H1149.1V248.89C1149.1 249.231 1148.82 249.505 1148.48 249.505H1126.96C1126.62 249.505 1126.34 249.228 1126.34 248.89V248.772Z" fill="#5E5043"/>
<path d="M1209.24 453H1152.48C1153.23 447.629 1156.65 443.112 1161.44 441.271C1166.52 439.318 1171.09 441.153 1172.14 441.605C1172.55 441.061 1175.67 437.057 1181.22 436.815C1187.01 436.566 1190.55 440.643 1190.95 441.121C1191.52 440.815 1196.79 438.073 1202.26 440.669C1206.76 442.81 1209.56 447.705 1209.24 453Z" fill="#3B5737"/>
<path d="M1234.1 228.562H1196.16C1196.09 224.373 1198.43 220.818 1201.73 219.754C1204.4 218.894 1206.82 219.949 1207.56 220.306C1210.37 215.547 1215.41 213.903 1218.55 215.54C1221.05 216.843 1221.73 219.907 1221.87 220.621C1226.29 217.213 1231.84 218.044 1233.98 221.076C1236.11 224.099 1234.19 228.368 1234.09 228.559L1234.1 228.562Z" fill="#FBF8F4"/>
<path d="M1054.58 204.322H997.832C999.832 196.925 1005.08 191.762 1010.83 191.341C1012.1 191.249 1014.54 191.3 1017.49 192.928C1021.03 187.962 1026.71 185.904 1031.1 187.567C1034.12 188.71 1035.7 191.3 1036.3 192.444C1042.39 188.764 1049.57 189.914 1052.95 194.211C1056.13 198.251 1054.78 203.593 1054.59 204.322H1054.58Z" fill="#F8E4DA"/>
<path d="M977.468 275.832H927C928.891 270.107 932.772 266.397 936.812 266.445C939.364 266.476 941.304 267.997 942.282 268.921C945.548 262.683 951.562 260.047 955.59 261.662C958.225 262.72 959.486 265.388 959.969 266.637C965.538 263.113 972.124 263.839 975.374 267.54C978.129 270.674 977.597 274.936 977.465 275.835L977.468 275.832Z" fill="#F8E4DA"/>
<path d="M1239.66 393.955C1220.33 374.75 1212.17 362.866 1215.17 358.298C1216.2 356.74 1218.52 356.033 1222.15 356.183C1222.15 356.183 1210.12 340.476 1224.13 341.533C1224.13 341.533 1214.62 319.36 1231.01 328.333C1231.9 312.734 1233.87 304.719 1236.91 304.293C1239.3 303.955 1242.36 308.316 1246.08 317.378C1250.44 313.31 1253.62 311.75 1255.63 312.689C1259.28 314.403 1259.03 324.424 1254.86 342.756C1260.24 338.329 1263.77 336.675 1265.44 337.79C1267.93 339.447 1266.33 347.213 1260.65 361.085C1263.39 361.996 1264.63 363.27 1265.17 364.516C1268.83 372.995 1244.35 390.63 1239.67 393.952L1239.66 393.955Z" fill="#8DC292"/>
<path d="M1239.42 338.928C1239.27 338.928 1239.15 339.031 1239.14 339.158L1237.14 453H1241.69L1239.69 339.158C1239.69 339.031 1239.57 338.928 1239.42 338.928H1239.42Z" fill="#594B3E"/>
</g>
<path d="M0 484.652C0 484.652 167.5 424.641 316 446.649C464.5 468.658 625 476.313 754 451.503C918.5 419.866 1047.05 445.458 1239 451.503C1444.5 457.976 1514 446.5 1616.5 446.5C1719 446.5 1920 484.652 1920 484.652V520H0V484.652Z" fill="white"/>
<defs>
<filter id="filter0_d_60_552" x="1030.97" y="276.78" width="150.906" height="196.152" filterUnits="userSpaceOnUse" color-interpolation-filters="sRGB">
<feFlood flood-opacity="0" result="BackgroundImageFix"/>
<feColorMatrix in="SourceAlpha" type="matrix" values="0 0 0 0 0 0 0 0 0 0 0 0 0 0 0 0 0 0 127 0" result="hardAlpha"/>
<feOffset dy="20"/>
<feComposite in2="hardAlpha" operator="out"/>
<feColorMatrix type="matrix" values="0 0 0 0 0.776471 0 0 0 0 0.623529 0 0 0 0 0.556863 0 0 0 1 0"/>
<feBlend mode="normal" in2="BackgroundImageFix" result="effect1_dropShadow_60_552"/>
<feBlend mode="normal" in="SourceGraphic" in2="effect1_dropShadow_60_552" result="shape"/>
</filter>
<linearGradient id="paint0_linear_60_552" x1="1107.63" y1="417.612" x2="1107.63" y2="412.559" gradientUnits="userSpaceOnUse">
<stop stop-color="#C9A291" stop-opacity="0"/>
<stop offset="1" stop-color="#775C52"/>
</linearGradient>
<linearGradient id="paint1_linear_60_552" x1="1150.8" y1="417.612" x2="1150.8" y2="412.559" gradientUnits="userSpaceOnUse">
<stop stop-color="#C9A291" stop-opacity="0"/>
<stop offset="1" stop-color="#775C52"/>
</linearGradient>
<linearGradient id="paint2_linear_60_552" x1="1107.19" y1="340.446" x2="1107.19" y2="335.393" gradientUnits="userSpaceOnUse">
<stop stop-color="#C9A291" stop-opacity="0"/>
<stop offset="1" stop-color="#775C52"/>
</linearGradient>
<linearGradient id="paint3_linear_60_552" x1="1150.8" y1="340.446" x2="1150.8" y2="335.393" gradientUnits="userSpaceOnUse">
<stop stop-color="#C9A291" stop-opacity="0"/>
<stop offset="1" stop-color="#775C52"/>
</linearGradient>
<linearGradient id="paint4_linear_60_552" x1="1063.58" y1="340.446" x2="1063.58" y2="335.393" gradientUnits="userSpaceOnUse">
<stop stop-color="#C9A291" stop-opacity="0"/>
<stop offset="1" stop-color="#775C52"/>
</linearGradient>
<linearGradient id="paint5_linear_60_552" x1="1106.61" y1="277.018" x2="1106.61" y2="270.807" gradientUnits="userSpaceOnUse">
<stop stop-color="#C9A291" stop-opacity="0"/>
<stop offset="1" stop-color="#775C52"/>
</linearGradient>
<linearGradient id="paint6_linear_60_552" x1="1106.36" y1="271.467" x2="1106.36" y2="265.255" gradientUnits="userSpaceOnUse">
<stop stop-color="#C9A291" stop-opacity="0"/>
<stop offset="1" stop-color="#775C52"/>
</linearGradient>
<linearGradient id="paint7_linear_60_552" x1="1075.06" y1="251.864" x2="1075.06" y2="248.511" gradientUnits="userSpaceOnUse">
<stop stop-color="#C9A291" stop-opacity="0"/>
<stop offset="1" stop-color="#775C52"/>
</linearGradient>
<linearGradient id="paint8_linear_60_552" x1="1137.72" y1="251.864" x2="1137.72" y2="248.511" gradientUnits="userSpaceOnUse">
<stop stop-color="#C9A291" stop-opacity="0"/>
<stop offset="1" stop-color="#775C52"/>
</linearGradient>
<clipPath id="clip0_60_552">
<rect width="511" height="266" fill="white" transform="translate(927 187)"/>
</clipPath>
</defs>
</svg>
