<svg width="480" height="480" viewBox="0 0 480 480" fill="none" xmlns="http://www.w3.org/2000/svg">
<g clip-path="url(#clip0_214_4518)">
<path d="M480 239.785V240.322C479.996 242.649 479.956 244.962 479.884 247.271C479.716 252.733 479.369 258.155 478.84 263.519C478.782 264.105 478.72 264.691 478.658 265.277C478.618 265.681 478.573 266.081 478.529 266.485C478.507 266.667 478.489 266.854 478.467 267.036C478.413 267.529 478.356 268.022 478.293 268.514C478.276 268.688 478.253 268.861 478.231 269.034C478.151 269.691 478.067 270.348 477.982 271.001C477.947 271.29 477.911 271.574 477.871 271.862C477.849 272.009 477.831 272.156 477.809 272.302C477.8 272.382 477.791 272.458 477.778 272.533C477.751 272.759 477.716 272.986 477.684 273.208C477.618 273.71 477.547 274.212 477.471 274.709C477.444 274.909 477.418 275.104 477.387 275.304C477.311 275.792 477.24 276.276 477.164 276.765C476.871 278.656 476.556 280.544 476.218 282.422C475.524 286.272 474.742 290.086 473.871 293.865C473.72 294.509 473.569 295.157 473.418 295.797C473.324 296.187 473.231 296.574 473.133 296.96C472.996 297.528 472.853 298.092 472.711 298.656C472.524 299.411 472.329 300.166 472.129 300.916C471.72 302.475 471.298 304.025 470.853 305.57C470.636 306.338 470.413 307.102 470.187 307.866C470.187 307.875 470.182 307.883 470.178 307.892C469.724 309.429 469.258 310.961 468.769 312.484C468.484 313.381 468.196 314.269 467.902 315.152C467.756 315.597 467.609 316.036 467.458 316.48C467.422 316.587 467.387 316.689 467.351 316.795C467.289 316.982 467.222 317.164 467.16 317.351C467.062 317.648 466.96 317.937 466.862 318.234C466.844 318.274 466.831 318.319 466.818 318.359C466.729 318.616 466.64 318.874 466.547 319.131C466.396 319.571 466.24 320.01 466.08 320.45C465.769 321.329 465.449 322.204 465.124 323.079C464.533 324.677 463.924 326.258 463.302 327.834C461.987 331.156 460.604 334.437 459.147 337.683C458.738 338.594 458.324 339.504 457.902 340.41C457.484 341.316 457.058 342.217 456.627 343.114C456.32 343.758 456.009 344.402 455.693 345.041C455.493 345.454 455.289 345.867 455.08 346.28C455.058 346.329 455.036 346.378 455.009 346.427C454.671 347.11 454.324 347.794 453.978 348.474C453.529 349.362 453.071 350.245 452.604 351.125C452.142 352.004 451.676 352.883 451.2 353.758C450.742 354.606 450.276 355.454 449.804 356.298C449.738 356.422 449.671 356.542 449.6 356.662C449.187 357.399 448.773 358.136 448.351 358.869L448.298 358.962C448.044 359.406 447.787 359.85 447.529 360.29C447.307 360.676 447.08 361.062 446.853 361.444C446.818 361.502 446.782 361.564 446.747 361.622C446.364 362.27 445.978 362.918 445.587 363.562C445.449 363.793 445.307 364.024 445.169 364.255C444.867 364.748 444.564 365.236 444.262 365.729C444.102 365.996 443.938 366.258 443.769 366.52C443.427 367.066 443.084 367.616 442.738 368.158C442.68 368.256 442.618 368.349 442.556 368.447C442.533 368.482 442.511 368.518 442.489 368.549C442.08 369.193 441.662 369.837 441.244 370.476C441.044 370.791 440.836 371.107 440.627 371.418C440.2 372.075 439.764 372.727 439.324 373.376C438.822 374.122 438.32 374.868 437.809 375.605C437.756 375.685 437.702 375.765 437.644 375.84C437.111 376.617 436.569 377.39 436.022 378.158C435.489 378.913 434.951 379.663 434.409 380.414L434.329 380.52C433.76 381.302 433.187 382.083 432.609 382.856C432.573 382.901 432.542 382.949 432.507 382.994C431.969 383.713 431.431 384.424 430.893 385.134C430.88 385.147 430.871 385.161 430.862 385.174C430.569 385.551 430.28 385.933 429.987 386.311C429.778 386.582 429.569 386.853 429.356 387.119C429.276 387.23 429.191 387.337 429.107 387.443C428.898 387.705 428.693 387.967 428.484 388.229C428.102 388.722 427.711 389.215 427.316 389.703C426.649 390.534 425.978 391.36 425.298 392.181C424.733 392.865 424.169 393.544 423.596 394.219C423.324 394.543 423.049 394.868 422.773 395.187C422.498 395.511 422.222 395.836 421.947 396.155C421.622 396.533 421.298 396.906 420.973 397.274C420.587 397.723 420.196 398.167 419.804 398.606C419.764 398.655 419.72 398.7 419.68 398.749C419.129 399.37 418.578 399.983 418.022 400.596C417.898 400.738 417.773 400.876 417.644 401.013C417.604 401.058 417.56 401.106 417.52 401.151C417.076 401.639 416.627 402.123 416.178 402.607C415.591 403.251 414.991 403.886 414.387 404.521C414 404.934 413.604 405.347 413.209 405.756C412.698 406.288 412.187 406.817 411.671 407.345C411.396 407.629 411.116 407.914 410.836 408.193C410.449 408.589 410.062 408.979 409.671 409.366C409.076 409.961 408.48 410.556 407.876 411.142C407.289 411.715 406.698 412.288 406.107 412.856C406.089 412.869 406.076 412.883 406.058 412.9C405.996 412.958 405.938 413.016 405.876 413.073C405.48 413.455 405.084 413.833 404.684 414.206C404.213 414.654 403.733 415.098 403.258 415.542C402.778 415.991 402.298 416.43 401.813 416.87C401.458 417.194 401.102 417.518 400.742 417.842C400.724 417.86 400.702 417.878 400.684 417.896C400.436 418.118 400.191 418.34 399.942 418.557C399.636 418.833 399.329 419.108 399.022 419.379C398.933 419.454 398.849 419.534 398.76 419.61C398.338 419.983 397.911 420.356 397.484 420.729C397.302 420.884 397.124 421.04 396.942 421.195C396.391 421.675 395.836 422.15 395.28 422.62C395.004 422.856 394.724 423.096 394.444 423.326C393.947 423.744 393.444 424.166 392.942 424.579C392.569 424.889 392.2 425.191 391.827 425.493C391.187 426.017 390.542 426.537 389.898 427.056C389.871 427.074 389.844 427.096 389.818 427.119C389.173 427.638 388.52 428.153 387.867 428.659C387.84 428.682 387.818 428.704 387.791 428.722C387.333 429.081 386.876 429.437 386.413 429.792C386.076 430.049 385.738 430.307 385.4 430.569C384.271 431.43 383.129 432.283 381.982 433.122C381.551 433.442 381.116 433.757 380.68 434.072C380.524 434.188 380.364 434.303 380.204 434.414C379.453 434.956 378.702 435.493 377.942 436.022C377.564 436.293 377.182 436.559 376.8 436.821C376.787 436.83 376.778 436.839 376.764 436.848C376.609 436.959 376.449 437.07 376.289 437.176C375.729 437.563 375.164 437.949 374.6 438.335C374.511 438.393 374.427 438.455 374.338 438.513C374.258 438.566 374.173 438.624 374.089 438.682C373.404 439.143 372.72 439.601 372.027 440.054C371.804 440.205 371.578 440.351 371.351 440.498C371.329 440.511 371.302 440.529 371.28 440.542C370.787 440.871 370.289 441.19 369.791 441.51C369.676 441.586 369.556 441.661 369.44 441.737C369.347 441.799 369.249 441.861 369.156 441.919C368.458 442.367 367.76 442.807 367.058 443.242C366.862 443.371 366.662 443.491 366.462 443.615C366 443.904 365.533 444.192 365.067 444.472C364.76 444.658 364.449 444.849 364.138 445.036C363.578 445.378 363.013 445.715 362.449 446.048C361.951 446.346 361.453 446.639 360.951 446.927C360.884 446.967 360.818 447.007 360.751 447.047C360.627 447.118 360.498 447.194 360.373 447.265C359.911 447.536 359.449 447.802 358.987 448.064C357.956 448.655 356.916 449.241 355.871 449.814C354.942 450.329 354.009 450.835 353.071 451.337C352.729 451.523 352.382 451.705 352.036 451.887C351.711 452.056 351.387 452.229 351.062 452.398C348.658 453.655 346.227 454.876 343.769 456.053C343.004 456.421 342.236 456.785 341.467 457.145C340.182 457.744 338.893 458.331 337.6 458.903C337.231 459.072 336.862 459.236 336.489 459.396C335.507 459.827 334.524 460.253 333.538 460.671C333.511 460.684 333.489 460.693 333.467 460.697C333.116 460.848 332.764 460.999 332.413 461.141C331.951 461.337 331.48 461.528 331.013 461.719C329.88 462.185 328.742 462.642 327.6 463.091C326.551 463.504 325.498 463.908 324.44 464.303C324.422 464.312 324.404 464.316 324.387 464.321C323.893 464.507 323.404 464.689 322.911 464.871C322.276 465.107 321.64 465.338 321 465.564C320.493 465.746 319.982 465.928 319.471 466.106C317.276 466.878 315.067 467.62 312.844 468.322C312.236 468.521 311.627 468.712 311.013 468.899C308.956 469.538 306.884 470.147 304.8 470.728C303.902 470.977 303.004 471.226 302.102 471.465C301.2 471.705 300.302 471.941 299.396 472.171C298.747 472.336 298.093 472.5 297.44 472.66C296.791 472.82 296.133 472.975 295.48 473.131C294.64 473.33 293.796 473.526 292.951 473.712C290.418 474.285 287.871 474.814 285.307 475.302C284.453 475.466 283.596 475.626 282.738 475.777C281.92 475.924 281.098 476.066 280.276 476.203C280.182 476.221 280.084 476.239 279.987 476.252C279.067 476.408 278.138 476.559 277.209 476.701C276.467 476.816 275.724 476.932 274.978 477.038C274.871 477.056 274.76 477.069 274.653 477.087C273.973 477.185 273.284 477.282 272.6 477.371C271.16 477.571 269.716 477.753 268.267 477.922C267.818 477.975 267.373 478.028 266.929 478.077C266.093 478.171 265.258 478.259 264.418 478.344C264.12 478.375 263.827 478.401 263.529 478.428C262.96 478.486 262.391 478.539 261.822 478.588C261.422 478.628 261.022 478.663 260.618 478.695C260.213 478.73 259.809 478.761 259.409 478.792C259.364 478.792 259.316 478.801 259.271 478.801C258.68 478.85 258.084 478.894 257.489 478.939C257.413 478.943 257.342 478.952 257.267 478.957C256.622 479.001 255.978 479.045 255.333 479.085C254.609 479.13 253.884 479.174 253.16 479.214C252.569 479.245 251.978 479.276 251.387 479.303C250.733 479.334 250.08 479.361 249.422 479.383C249.018 479.401 248.609 479.414 248.2 479.427C246.382 479.494 244.56 479.534 242.733 479.552C241.827 479.565 240.916 479.569 240.004 479.569H239.44C233.996 479.556 228.6 479.361 223.249 478.996C222.689 478.956 222.129 478.917 221.569 478.868C220.244 478.77 218.924 478.659 217.609 478.539C214.68 478.268 211.76 477.944 208.862 477.567C203.187 476.834 197.573 475.901 192.027 474.778C186.991 473.757 182.013 472.58 177.098 471.243H177.08C173.582 470.293 170.12 469.276 166.689 468.175C162.644 466.878 158.653 465.48 154.711 463.979C151.084 462.607 147.507 461.146 143.969 459.596C141.849 458.673 139.742 457.718 137.658 456.728C136.173 456.03 134.698 455.316 133.231 454.587C131.098 453.526 128.982 452.434 126.884 451.31C125.231 450.431 123.587 449.525 121.956 448.597C119.916 447.451 117.893 446.266 115.893 445.054C114.307 444.099 112.738 443.122 111.178 442.127C109.231 440.888 107.302 439.623 105.396 438.326C102.764 436.546 100.173 434.712 97.6178 432.82C38.4044 389.162 0 318.954 0 239.785C0 181.819 20.5867 128.658 54.8533 87.2017C58.9156 82.2817 63.1778 77.5259 67.6222 72.9478C111.244 27.9616 172.356 0 240 0C296.2 0 347.884 19.2982 388.787 51.6292C414.733 72.1352 436.338 97.8899 451.996 127.286C455.627 134.093 458.933 141.091 461.898 148.267C465.062 155.922 467.844 163.773 470.218 171.801C471.733 176.934 473.084 182.139 474.258 187.414C475.049 190.962 475.76 194.536 476.396 198.142C477.6 205.029 478.516 212.018 479.116 219.097C479.56 224.23 479.836 229.412 479.942 234.638C479.947 234.834 479.951 235.024 479.951 235.22C479.956 235.318 479.956 235.411 479.956 235.504C479.969 236.01 479.978 236.521 479.982 237.032C479.987 237.111 479.987 237.187 479.987 237.267C479.987 237.431 479.991 237.596 479.991 237.76C479.996 238.435 480 239.11 480 239.785Z" fill="#D3F0D6"/>
<path d="M480 239.785V240.322C479.996 242.649 479.956 244.962 479.884 247.271C479.716 252.733 479.369 258.155 478.84 263.519C478.782 264.105 478.72 264.691 478.658 265.277C478.618 265.681 478.573 266.081 478.529 266.485C478.507 266.667 478.489 266.854 478.467 267.036C478.409 267.529 478.356 268.022 478.293 268.514C478.276 268.688 478.253 268.861 478.231 269.034C478.151 269.691 478.067 270.348 477.982 271.001C477.929 271.436 477.871 271.871 477.809 272.302C477.8 272.382 477.791 272.458 477.778 272.533C477.751 272.76 477.716 272.986 477.684 273.208C477.618 273.71 477.547 274.212 477.471 274.709C477.444 274.909 477.413 275.109 477.382 275.308C477.311 275.797 477.24 276.281 477.164 276.765C476.871 278.656 476.556 280.544 476.218 282.422C475.524 286.272 474.742 290.086 473.871 293.865C473.72 294.509 473.569 295.157 473.418 295.797C473.324 296.187 473.231 296.574 473.133 296.96C472.996 297.528 472.853 298.092 472.711 298.656C472.52 299.411 472.329 300.166 472.129 300.916C471.72 302.475 471.298 304.025 470.853 305.57C470.636 306.338 470.413 307.102 470.187 307.866C470.187 307.875 470.182 307.884 470.178 307.892C469.724 309.429 469.258 310.961 468.769 312.484C468.484 313.381 468.196 314.269 467.902 315.153C467.756 315.597 467.609 316.036 467.458 316.48C467.422 316.587 467.387 316.689 467.351 316.796C467.191 317.275 467.027 317.755 466.862 318.234C466.844 318.274 466.831 318.319 466.818 318.359C466.729 318.616 466.64 318.874 466.547 319.131C466.396 319.571 466.24 320.01 466.08 320.45C465.769 321.329 465.449 322.204 465.124 323.079C464.533 324.677 463.924 326.258 463.302 327.834C461.987 331.156 460.604 334.437 459.147 337.683C458.738 338.594 458.324 339.504 457.902 340.41C457.484 341.316 457.058 342.217 456.627 343.114C456.32 343.758 456.009 344.402 455.693 345.041C455.493 345.454 455.289 345.867 455.08 346.28C455.058 346.329 455.036 346.378 455.009 346.427C454.671 347.11 454.324 347.794 453.978 348.474C453.529 349.362 453.071 350.245 452.604 351.125C452.142 352.004 451.676 352.883 451.2 353.758C450.742 354.606 450.276 355.454 449.804 356.298C449.738 356.422 449.671 356.542 449.6 356.662C449.187 357.399 448.773 358.136 448.351 358.869L448.298 358.962C448.044 359.406 447.787 359.85 447.529 360.29C447.307 360.676 447.08 361.062 446.853 361.444C446.818 361.502 446.782 361.564 446.747 361.622C446.364 362.27 445.978 362.919 445.587 363.562C445.449 363.793 445.307 364.024 445.169 364.255C444.867 364.748 444.564 365.236 444.262 365.729C444.102 365.996 443.938 366.258 443.769 366.52C443.427 367.066 443.084 367.617 442.738 368.158C442.68 368.256 442.618 368.349 442.556 368.447C442.533 368.482 442.511 368.518 442.489 368.549C442.08 369.193 441.662 369.837 441.244 370.476C441.044 370.791 440.836 371.107 440.627 371.418C440.2 372.075 439.764 372.727 439.324 373.376C438.822 374.122 438.32 374.868 437.809 375.605C437.756 375.685 437.702 375.765 437.644 375.84C437.111 376.617 436.569 377.39 436.022 378.158C435.489 378.913 434.951 379.663 434.409 380.414L434.329 380.52C433.76 381.302 433.187 382.084 432.609 382.856C432.573 382.901 432.542 382.949 432.507 382.994C431.969 383.713 431.431 384.424 430.893 385.134C430.88 385.147 430.871 385.161 430.862 385.174C430.569 385.552 430.28 385.933 429.987 386.311C429.778 386.582 429.569 386.853 429.356 387.119C429.276 387.23 429.191 387.337 429.107 387.443C429.089 387.47 429.067 387.492 429.049 387.519C428.862 387.754 428.676 387.994 428.484 388.229C428.102 388.722 427.711 389.215 427.316 389.703C426.649 390.534 425.978 391.36 425.298 392.181C424.733 392.865 424.169 393.544 423.596 394.219C423.324 394.543 423.049 394.868 422.773 395.187C422.498 395.511 422.222 395.836 421.947 396.155C421.764 396.368 421.578 396.582 421.396 396.795C421.258 396.955 421.116 397.114 420.973 397.274C420.587 397.723 420.196 398.167 419.804 398.606C419.764 398.655 419.72 398.7 419.68 398.749C419.129 399.37 418.578 399.983 418.022 400.596C417.898 400.738 417.773 400.876 417.644 401.013C417.604 401.058 417.56 401.106 417.52 401.151C417.076 401.639 416.627 402.123 416.178 402.607C415.591 403.251 414.991 403.886 414.387 404.521C414 404.934 413.604 405.347 413.209 405.756C412.698 406.288 412.187 406.817 411.671 407.345C411.396 407.629 411.116 407.914 410.836 408.193C410.449 408.589 410.062 408.979 409.671 409.366C409.076 409.961 408.48 410.556 407.876 411.142C407.289 411.715 406.698 412.288 406.107 412.856C406.089 412.869 406.076 412.883 406.058 412.9C405.996 412.958 405.938 413.016 405.876 413.073C405.48 413.455 405.084 413.833 404.684 414.206C404.213 414.654 403.733 415.098 403.258 415.542C402.778 415.991 402.298 416.43 401.813 416.87C401.458 417.194 401.102 417.518 400.742 417.842C400.724 417.86 400.702 417.878 400.684 417.896C400.436 418.118 400.191 418.34 399.942 418.557C399.636 418.833 399.329 419.108 399.022 419.379C398.933 419.454 398.849 419.534 398.76 419.61C398.338 419.983 397.911 420.356 397.484 420.729C397.302 420.884 397.124 421.04 396.942 421.195C396.391 421.675 395.836 422.15 395.28 422.62C395.004 422.856 394.724 423.096 394.444 423.327C393.947 423.744 393.444 424.166 392.942 424.579C392.569 424.889 392.2 425.191 391.827 425.493C391.187 426.017 390.542 426.537 389.898 427.056C389.871 427.074 389.844 427.096 389.818 427.119C389.173 427.638 388.52 428.153 387.867 428.659C387.84 428.682 387.818 428.704 387.791 428.722C387.333 429.081 386.876 429.437 386.413 429.792C386.076 430.049 385.738 430.307 385.4 430.569C384.271 431.43 383.129 432.283 381.982 433.122C381.551 433.442 381.116 433.757 380.68 434.072C380.524 434.188 380.364 434.303 380.204 434.414C379.453 434.956 378.702 435.493 377.942 436.022C377.564 436.293 377.182 436.559 376.8 436.821C376.787 436.83 376.778 436.839 376.764 436.848C376.609 436.959 376.449 437.07 376.289 437.176C375.729 437.563 375.164 437.949 374.6 438.335C374.511 438.393 374.427 438.455 374.338 438.513C374.258 438.566 374.173 438.624 374.089 438.682C373.404 439.143 372.72 439.601 372.027 440.054C371.804 440.205 371.578 440.351 371.351 440.498C371.329 440.511 371.302 440.529 371.28 440.542C370.853 440.826 370.427 441.102 369.996 441.377C369.929 441.421 369.858 441.466 369.791 441.51C369.676 441.586 369.556 441.661 369.44 441.737C369.347 441.799 369.249 441.861 369.156 441.919C368.458 442.367 367.76 442.807 367.058 443.242C366.862 443.371 366.662 443.491 366.462 443.615C366 443.904 365.533 444.192 365.067 444.472C364.76 444.658 364.449 444.849 364.138 445.036C363.578 445.378 363.013 445.715 362.449 446.048C361.951 446.346 361.453 446.639 360.951 446.927C360.884 446.967 360.818 447.007 360.751 447.047C360.627 447.118 360.498 447.194 360.373 447.265C359.911 447.536 359.449 447.802 358.987 448.064C357.956 448.655 356.916 449.241 355.871 449.814C355.338 450.116 354.8 450.409 354.262 450.697C354.187 450.742 354.107 450.786 354.022 450.826C353.707 450.995 353.391 451.168 353.071 451.337C352.729 451.523 352.382 451.705 352.036 451.887C351.711 452.056 351.387 452.229 351.062 452.398C348.658 453.655 346.227 454.876 343.769 456.053C343.004 456.421 342.236 456.785 341.467 457.145C340.787 457.465 340.102 457.776 339.422 458.086C338.813 458.362 338.209 458.633 337.6 458.903C337.231 459.072 336.862 459.236 336.489 459.396C335.507 459.827 334.524 460.253 333.538 460.671C333.516 460.68 333.489 460.688 333.467 460.702C333.116 460.848 332.764 460.999 332.413 461.141C331.951 461.337 331.48 461.528 331.013 461.719C329.88 462.185 328.742 462.642 327.6 463.091C326.551 463.504 325.498 463.908 324.44 464.303C324.422 464.312 324.404 464.316 324.387 464.321C323.893 464.507 323.404 464.689 322.911 464.871C322.276 465.107 321.64 465.338 321 465.564C320.493 465.746 319.982 465.928 319.471 466.106C317.276 466.879 315.067 467.62 312.844 468.322C312.236 468.517 311.627 468.708 311.013 468.899C310.053 469.196 309.093 469.489 308.129 469.774C307.022 470.098 305.916 470.418 304.8 470.728C303.902 470.977 303.004 471.226 302.102 471.465C301.2 471.705 300.302 471.941 299.396 472.171C298.747 472.336 298.093 472.5 297.44 472.66C296.791 472.82 296.133 472.975 295.48 473.131C294.64 473.33 293.796 473.526 292.951 473.712C290.809 474.196 288.653 474.649 286.489 475.071C286.098 475.151 285.702 475.227 285.307 475.302C284.453 475.466 283.596 475.626 282.738 475.777C281.92 475.924 281.098 476.066 280.276 476.203C280.182 476.221 280.084 476.239 279.987 476.252C279.067 476.408 278.138 476.559 277.209 476.701C276.467 476.816 275.724 476.932 274.978 477.038C274.871 477.056 274.76 477.069 274.653 477.087C273.973 477.185 273.284 477.283 272.6 477.371C271.16 477.571 269.716 477.753 268.267 477.922C267.818 477.975 267.373 478.028 266.929 478.077C266.093 478.171 265.258 478.259 264.418 478.344C264.12 478.375 263.827 478.401 263.529 478.428C262.978 478.486 262.427 478.535 261.876 478.584C261.858 478.584 261.84 478.588 261.822 478.588C261.422 478.628 261.022 478.663 260.618 478.695C260.213 478.73 259.809 478.761 259.409 478.792C258.773 478.846 258.138 478.894 257.502 478.939C257.422 478.943 257.347 478.952 257.267 478.957C256.622 479.001 255.978 479.045 255.333 479.085C254.609 479.13 253.884 479.174 253.16 479.214C252.569 479.245 251.978 479.276 251.387 479.303C250.733 479.334 250.08 479.361 249.422 479.383C249.018 479.401 248.609 479.414 248.2 479.427C246.382 479.494 244.56 479.534 242.733 479.552C241.827 479.565 240.916 479.569 240.004 479.569H239.44C236.627 479.56 233.822 479.507 231.036 479.405C228.427 479.307 225.831 479.174 223.249 478.996C222.689 478.957 222.129 478.917 221.569 478.868C220.244 478.77 218.924 478.659 217.609 478.539C214.68 478.268 211.76 477.944 208.862 477.567C203.187 476.834 197.573 475.901 192.027 474.778C186.991 473.757 182.013 472.58 177.098 471.243H177.08C173.582 470.293 170.12 469.276 166.689 468.175C162.644 466.878 158.653 465.48 154.711 463.979C154.68 463.513 154.653 463.042 154.627 462.576C154.422 459.165 154.218 455.76 154.013 452.349C153.973 451.652 153.929 450.951 153.889 450.253C153.711 447.283 153.533 444.308 153.356 441.337C152.92 434.055 152.484 426.772 152.049 419.49C151.493 410.205 150.938 400.92 150.382 391.639C150.102 386.901 149.818 382.163 149.533 377.425C147.889 349.908 146.24 322.395 144.596 294.877C144.133 287.124 143.671 279.376 143.204 271.627C140.68 229.381 138.151 187.134 135.622 144.888C135.622 144.861 135.618 144.839 135.618 144.812H135.622C135.622 144.812 135.627 144.803 135.627 144.799L138.547 140.043L138.56 140.017C141.196 135.723 143.831 131.429 146.471 127.139C146.471 127.139 146.473 127.138 146.476 127.135C146.476 127.135 146.484 127.117 146.493 127.104C147.027 126.233 147.556 125.376 148.084 124.506H148.089L223.898 101.553L240.213 96.6155L241.413 96.2514L254.262 92.3615L255.467 91.9974L267 88.5028L268.2 88.1386L281.044 84.2532L282.244 83.8891L298.658 78.9203L388.796 51.6292C414.742 72.1352 436.347 97.8899 452.004 127.286C455.636 134.093 458.942 141.091 461.907 148.267C465.071 155.922 467.853 163.773 470.227 171.801C471.742 176.934 473.093 182.139 474.267 187.414C475.058 190.962 475.769 194.536 476.404 198.142C477.609 205.029 478.524 212.018 479.124 219.097C479.569 224.23 479.844 229.412 479.951 234.638C479.956 234.834 479.96 235.024 479.96 235.22C479.964 235.318 479.964 235.411 479.964 235.504C479.978 236.01 479.987 236.521 479.991 237.032C479.996 237.112 479.996 237.187 479.996 237.267C479.996 237.431 480 237.596 480 237.76C480.004 238.435 480.009 239.11 480.009 239.785H480Z" fill="#D3F0D6"/>
<path d="M155.658 479.973V480H155.644C155.644 480 155.649 479.982 155.658 479.973Z" fill="#3B5737"/>
<path d="M463.302 327.834C461.987 331.156 460.604 334.437 459.147 337.683C458.738 338.594 458.324 339.504 457.902 340.41C457.484 341.316 457.058 342.217 456.627 343.114C456.32 343.758 456.009 344.402 455.693 345.041C455.493 345.454 455.289 345.867 455.08 346.28C455.058 346.329 455.036 346.378 455.009 346.427C454.671 347.11 454.324 347.794 453.978 348.474C453.529 349.362 453.071 350.245 452.604 351.125C452.142 352.004 451.676 352.883 451.2 353.758C450.742 354.606 450.276 355.454 449.804 356.298C449.738 356.422 449.671 356.542 449.6 356.662C449.187 357.399 448.773 358.136 448.351 358.869L448.298 358.962C448.044 359.406 447.787 359.85 447.529 360.29C447.307 360.676 447.08 361.062 446.853 361.444C446.818 361.502 446.782 361.564 446.747 361.622C446.364 362.27 445.978 362.918 445.587 363.562C445.449 363.793 445.307 364.024 445.169 364.255C444.867 364.748 444.564 365.236 444.262 365.729C444.102 365.996 443.938 366.258 443.769 366.52C443.427 367.066 443.084 367.616 442.738 368.158C442.68 368.256 442.618 368.349 442.556 368.447C442.533 368.482 442.511 368.518 442.489 368.549C442.08 369.193 441.662 369.837 441.244 370.476C441.044 370.791 440.836 371.107 440.627 371.418C440.2 372.075 439.764 372.727 439.324 373.376C438.822 374.122 438.32 374.868 437.809 375.605C437.756 375.685 437.702 375.765 437.644 375.84C437.111 376.617 436.569 377.39 436.022 378.158C435.489 378.913 434.951 379.663 434.409 380.414L434.329 380.52C433.76 381.302 433.187 382.084 432.609 382.856C432.573 382.901 432.542 382.949 432.507 382.994C431.969 383.713 431.431 384.424 430.893 385.134C430.88 385.147 430.871 385.161 430.862 385.174C430.569 385.551 430.28 385.933 429.987 386.311C429.778 386.582 429.569 386.853 429.356 387.119C429.276 387.23 429.191 387.337 429.107 387.443C429.089 387.47 429.067 387.492 429.049 387.519C428.862 387.754 428.676 387.994 428.484 388.229C428.102 388.722 427.711 389.215 427.316 389.703C426.649 390.534 425.978 391.36 425.298 392.181C424.733 392.865 424.169 393.544 423.596 394.219C423.324 394.543 423.049 394.868 422.773 395.187C422.498 395.511 422.222 395.836 421.947 396.155C421.764 396.368 421.578 396.582 421.396 396.795C421.258 396.955 421.116 397.114 420.973 397.274C420.587 397.723 420.196 398.167 419.804 398.606C419.764 398.655 419.72 398.7 419.68 398.749C419.129 399.37 418.578 399.983 418.022 400.596C417.898 400.738 417.773 400.876 417.644 401.013C417.604 401.058 417.56 401.106 417.52 401.151C417.076 401.639 416.627 402.123 416.178 402.607C415.591 403.251 414.991 403.886 414.387 404.521C414 404.934 413.604 405.347 413.209 405.756C412.698 406.288 412.187 406.817 411.671 407.345C411.396 407.629 411.116 407.914 410.836 408.193C410.449 408.589 410.062 408.979 409.671 409.366C409.076 409.961 408.48 410.556 407.876 411.142C407.289 411.715 406.698 412.287 406.107 412.856C406.089 412.869 406.076 412.882 406.058 412.9C405.996 412.958 405.938 413.016 405.876 413.073C405.48 413.455 405.084 413.833 404.684 414.206C404.213 414.654 403.733 415.098 403.258 415.542C402.778 415.991 402.298 416.43 401.813 416.87C401.458 417.194 401.102 417.518 400.742 417.842C400.724 417.86 400.702 417.878 400.684 417.896C400.436 418.118 400.191 418.34 399.942 418.557C399.636 418.833 399.329 419.108 399.022 419.379C398.933 419.454 398.849 419.534 398.76 419.61C398.338 419.983 397.911 420.356 397.484 420.729C397.302 420.884 397.124 421.04 396.942 421.195C396.391 421.675 395.836 422.15 395.28 422.62C395.004 422.856 394.724 423.096 394.444 423.326C393.947 423.744 393.444 424.166 392.942 424.579C392.569 424.889 392.2 425.191 391.827 425.493C391.187 426.017 390.542 426.537 389.898 427.056C389.871 427.074 389.844 427.096 389.818 427.119C389.173 427.638 388.52 428.153 387.867 428.659C387.84 428.682 387.818 428.704 387.791 428.722C387.333 429.081 386.876 429.437 386.413 429.792C386.076 430.049 385.738 430.307 385.4 430.569C384.271 431.43 383.129 432.283 381.982 433.122C381.551 433.442 381.116 433.757 380.68 434.072C380.524 434.188 380.364 434.303 380.204 434.414C379.453 434.956 378.702 435.493 377.942 436.022C377.564 436.293 377.182 436.559 376.8 436.821C376.787 436.83 376.778 436.839 376.764 436.848C376.609 436.959 376.449 437.07 376.289 437.176C375.729 437.563 375.164 437.949 374.6 438.335C374.511 438.393 374.427 438.455 374.338 438.513C374.258 438.566 374.173 438.624 374.089 438.682C373.404 439.143 372.72 439.601 372.027 440.054C371.804 440.205 371.578 440.351 371.351 440.498C371.329 440.511 371.302 440.529 371.28 440.542C370.787 440.871 370.289 441.19 369.791 441.51C369.676 441.586 369.556 441.661 369.44 441.737C369.347 441.799 369.249 441.861 369.156 441.919C368.458 442.367 367.76 442.807 367.058 443.242C366.862 443.371 366.662 443.491 366.462 443.615C366 443.904 365.533 444.192 365.067 444.472C364.76 444.658 364.449 444.849 364.138 445.036C363.578 445.378 363.013 445.715 362.449 446.048C361.951 446.346 361.453 446.639 360.951 446.927C360.884 446.967 360.818 447.007 360.751 447.047C360.627 447.118 360.498 447.194 360.373 447.265C359.911 447.536 359.449 447.802 358.987 448.064C357.956 448.655 356.916 449.241 355.871 449.814C355.338 450.116 354.8 450.409 354.262 450.697C354.187 450.742 354.107 450.786 354.022 450.826C353.707 450.995 353.391 451.168 353.071 451.337C352.729 451.523 352.382 451.705 352.036 451.887C351.711 452.056 351.387 452.229 351.062 452.398C348.658 453.655 346.227 454.876 343.769 456.053C343.004 456.421 342.236 456.785 341.467 457.145C340.182 457.744 338.893 458.331 337.6 458.903C337.231 459.072 336.862 459.236 336.489 459.396C335.507 459.827 334.524 460.253 333.538 460.671C333.516 460.68 333.489 460.688 333.467 460.702C332.284 459.609 331.129 458.544 329.996 457.5C325.493 453.353 321.364 449.547 317.587 446.066C313.982 442.745 310.698 439.716 307.711 436.963C303.591 433.167 300.044 429.894 297.013 427.101C292.702 423.122 289.436 420.107 287.076 417.927C284.916 415.933 283.511 414.632 282.747 413.922C281.604 412.86 280.64 411.946 280.382 411.701C279.662 411.018 278.92 410.307 278.16 409.574C277.569 409.002 276.964 408.415 276.347 407.816C274.782 406.288 273.147 404.663 271.458 402.954C271.231 402.727 271.004 402.496 270.782 402.265C267.098 398.527 263.164 394.388 259.124 389.908C258.351 389.051 257.573 388.18 256.796 387.297C255.004 385.276 253.196 383.185 251.387 381.04C250.213 379.65 249.036 378.234 247.862 376.795C246.507 375.134 245.156 373.442 243.809 371.719C243.236 370.991 242.667 370.259 242.098 369.517C236.711 362.501 231.471 355.041 226.702 347.27C224.524 343.727 222.444 340.117 220.498 336.458C214.018 324.3 208.956 311.587 206.444 298.803C206.116 297.16 205.836 295.517 205.604 293.874C205.493 293.137 205.396 292.408 205.316 291.676C204.769 287.124 204.573 282.582 204.773 278.066C204.773 278.066 205.107 271.223 206.627 264.611C209.822 250.726 226.556 218.666 259.502 208.462C265.004 206.757 269.68 206.055 272.587 205.731H272.591C280.676 204.825 288.853 205.273 297.009 206.788H297.013C297.982 206.965 298.947 207.161 299.916 207.374C301.093 207.627 302.276 207.902 303.449 208.204C315.827 211.321 328.08 216.73 339.773 223.408C343.907 225.766 347.969 228.284 351.947 230.913C358.013 234.927 363.876 239.203 369.462 243.586C373.573 246.809 377.538 250.087 381.324 253.355C382.004 253.941 382.676 254.527 383.342 255.113C386.356 257.755 389.253 260.388 392.018 262.968C392.396 263.324 392.773 263.674 393.142 264.025C393.618 264.474 394.084 264.913 394.551 265.357C399.831 270.384 404.582 275.188 408.684 279.505L408.729 279.549L409.231 280.051C413.236 284.02 417 287.449 420.218 290.242C424.16 293.67 427.293 296.147 429.067 297.524C429.6 297.937 430.009 298.252 430.28 298.465C433.338 300.832 438.338 305.037 446.836 312.706C450.351 315.876 454.462 319.637 459.28 324.104C460.569 325.295 461.911 326.542 463.302 327.834Z" fill="#FF6948"/>
<path d="M369.093 328.927C368.996 329.802 368.867 330.672 368.711 331.533C368.267 334.078 367.587 336.556 366.698 338.94C366.631 339.135 366.556 339.331 366.48 339.526C362.111 350.796 353.12 359.979 342.124 364.881C341.924 364.97 341.724 365.059 341.524 365.139C339.311 366.093 337.018 366.871 334.667 367.457C333.578 367.732 332.476 367.963 331.36 368.149H331.356C327.836 368.749 324.209 368.918 320.551 368.602C308.142 367.537 295.316 360.925 284.653 346.604C291.876 345.028 300.48 340.787 309.151 335.09C312.889 332.63 316.636 329.904 320.293 327.009H320.298C323.782 324.247 327.182 321.329 330.404 318.341C333.858 315.139 337.111 311.853 340.049 308.59C346.356 301.587 351.218 294.678 353.542 288.878C362.764 298.523 367.533 308.607 368.916 318.239C369.444 321.88 369.48 325.459 369.093 328.927Z" fill="#FBF8F4"/>
<path d="M331.356 368.149C327.836 368.749 324.209 368.918 320.551 368.602C320.409 366.076 319.689 362.594 318.876 360.37C322.431 360.636 329.213 365.148 331.356 368.149Z" fill="#B74E41"/>
<path d="M319.836 340.916C316.489 339.566 312.16 337.195 309.151 335.09C312.889 332.63 316.636 329.904 320.293 327.009C319.004 330.401 318.756 337.772 319.836 340.916Z" fill="#B74E41"/>
<path d="M344.209 319.962C341.267 318.43 333.964 317.586 330.404 318.341C333.858 315.139 337.111 311.853 340.049 308.59C341.68 311.871 343.369 316.467 344.209 319.962Z" fill="#B74E41"/>
<path opacity="0.3" d="M366.698 338.94C366.631 339.135 366.556 339.331 366.48 339.526C362.111 350.796 353.12 359.979 342.124 364.881C341.924 364.97 341.724 365.059 341.524 365.139C341.382 364.837 341.249 364.535 341.129 364.233C334.978 349.229 349.751 333.376 365.822 338.634C366.116 338.727 366.404 338.829 366.698 338.94Z" fill="#B74E41"/>
<path d="M342.124 364.881C341.924 364.97 341.724 365.059 341.524 365.139C339.311 366.093 337.018 366.871 334.667 367.457C334.356 365.663 333.476 363.141 332.653 361.702C334.636 361.28 338.48 362.648 341.129 364.233C341.484 364.446 341.822 364.664 342.124 364.881Z" fill="#B74E41"/>
<path d="M369.093 328.927C366.093 326.613 361.804 320.09 361.542 316.631C363.524 317.355 366.502 318.003 368.916 318.239C369.444 321.88 369.48 325.459 369.093 328.927Z" fill="#B74E41"/>
<path d="M368.711 331.533C368.267 334.078 367.587 336.556 366.698 338.94C366.631 339.135 366.556 339.331 366.48 339.526C366.262 339.26 366.044 338.962 365.822 338.634C364.076 336.014 362.413 331.662 362.876 329.509C364.333 330.339 366.911 331.236 368.711 331.533Z" fill="#B74E41"/>
<path d="M283.32 273.781C269.751 273.781 258.311 264.709 254.72 252.311C249.591 257.657 246.431 264.904 246.431 272.893C246.431 289.322 259.764 302.644 276.209 302.644C292.653 302.644 305.987 289.322 305.987 272.893C305.987 270.02 305.569 267.244 304.809 264.611C299.391 270.259 291.769 273.781 283.32 273.781Z" fill="#FBF8F4"/>
<path d="M274.876 283.106C280.03 283.106 284.209 278.931 284.209 273.781C284.209 268.631 280.03 264.456 274.876 264.456C269.721 264.456 265.542 268.631 265.542 273.781C265.542 278.931 269.721 283.106 274.876 283.106Z" fill="#FF6948"/>
<path d="M251.091 241C250.256 250.506 255.238 259.916 262.749 265.217C270.26 270.519 279.931 271.972 288.971 270.402C298.011 268.833 306.473 264.438 314 258.898" stroke="#B74E41" stroke-width="6" stroke-miterlimit="10"/>
<path d="M259.738 373.882C230.351 382.483 214.227 377.665 204.836 371.191C180.209 354.215 194.147 320.508 164.204 288.683C146.551 269.918 117.8 256.228 110.444 262.862C108.169 264.913 108.378 268.514 108.427 269.407C109.164 282.271 132.276 286.414 147.951 296.991C182.236 320.126 166.596 364.371 194.564 384.535C206.049 392.816 226.604 398.269 266.373 384.157C264.16 380.734 261.947 377.306 259.729 373.882H259.738Z" fill="#FF6948"/>
<path d="M452.827 244.9C453.267 252.009 452.364 259.034 448.92 266.014C447.24 269.42 444.889 272.95 441.538 276.414C435.924 282.222 427.502 287.839 414.742 292.355C408.96 294.398 402.289 296.218 394.582 297.724C391.942 298.239 389.178 298.718 386.289 299.158C385.964 299.207 385.636 299.256 385.307 299.305C385.658 295.242 386.004 291.179 386.356 287.116C392.613 285.828 398.089 284.3 402.88 282.586C421.058 276.099 429.431 267.04 433.591 259.034C433.862 258.51 434.116 257.991 434.356 257.471C440.756 243.586 436.013 230.486 431.978 214.954C428.684 202.258 425.867 187.938 429.991 170.229C430.231 169.208 430.493 168.173 430.778 167.125C431.64 163.977 432.693 160.816 433.907 157.703C438.529 145.785 445.382 134.55 451.996 127.286C455.627 134.093 458.933 141.091 461.898 148.267C458.089 153.298 453.871 158.604 450.551 164.168C450.018 165.056 449.511 165.949 449.031 166.85C447.369 169.976 446.098 173.067 445.164 176.122C441.578 187.814 442.831 199.035 445.276 209.923C446.804 216.725 448.796 223.399 450.364 229.976C451.564 235.002 452.52 239.976 452.827 244.9Z" fill="#FF6948"/>
<path d="M359.493 269.993C376.116 261.769 396.391 248.932 396.342 233.177C396.302 220.93 382.902 219.692 368.662 195.953C363.16 186.788 352.551 169.106 349.449 145.465C348.169 135.705 347.351 118.707 340.004 116.735C339.436 116.58 338.938 116.549 338.604 116.549L338.196 99.8392C339.831 100.021 342.298 100.47 344.996 101.704C362.844 109.884 358.427 138.054 368.187 165.585C382.493 205.948 413.32 208.479 412.409 232.609C411.987 243.763 404.849 259.9 371.196 278.714C367.293 275.806 363.396 272.897 359.493 269.993Z" fill="#FF6948"/>
<path d="M291.809 392.674C264.858 422.452 244.778 427.563 230.84 425.88C202.284 422.43 197.129 390.196 152.947 378.225C151.022 377.705 129.947 372.243 105.209 377.918C100.493 379.002 81.4978 383.358 81.1956 390.48C81.0756 393.331 83.9956 395.574 84.7067 396.12C94.7289 403.82 113.116 392.652 125.667 389.521C166.058 379.441 193.827 440.675 238.84 440.933C254.991 441.026 277.489 433.291 304.707 398.176C300.409 396.346 296.107 394.512 291.809 392.683V392.674Z" fill="#FF6948"/>
<path d="M470.218 171.801C471.733 176.934 473.084 182.139 474.258 187.414L445.164 176.122L429.991 170.229L362.773 144.133L348.649 138.649L334.213 133.045H334.209L318.089 126.788L285.027 113.951L267.267 159.612C264.729 166.144 257.369 169.381 250.827 166.841L217.2 153.786C210.662 151.251 207.422 143.893 209.96 137.361L223.889 101.553L250.227 33.8407C252.764 27.3088 260.124 24.0673 266.667 26.6072L300.293 39.6621C306.831 42.2021 310.071 49.5555 307.529 56.0874L298.649 78.9202L289.773 101.749L318.636 112.952L333.12 118.578L345.64 123.436L357.747 128.138L360.151 129.071L433.907 157.703L450.551 164.168L470.218 171.801Z" fill="#C1A193"/>
<path d="M271.273 49.0777C272.436 46.1193 270.978 42.7793 268.017 41.6175C265.056 40.4558 261.713 41.9122 260.55 44.8706L224.647 136.214C223.485 139.172 224.942 142.512 227.903 143.674C230.864 144.836 234.208 143.379 235.37 140.421L271.273 49.0777Z" fill="#F8E4DA"/>
<path d="M291.618 57.3452C292.781 54.3868 291.323 51.0468 288.362 49.885C285.401 48.7233 282.058 50.1797 280.895 53.1381L244.673 145.296C243.51 148.254 244.967 151.594 247.929 152.756C250.89 153.918 254.233 152.461 255.395 149.503L291.618 57.3452Z" fill="#F8E4DA"/>
<path d="M155.658 479.973V480H155.644C155.644 480 155.649 479.982 155.658 479.973Z" fill="white"/>
<path d="M155.658 479.973C155.658 479.973 155.649 479.991 155.644 479.996H155.658V479.973Z" fill="#FF6948"/>
<path d="M239.831 436.075L237.96 440.911L236.089 445.76L235.373 447.607L231.92 456.55L229.898 461.776L228.911 464.325L224.844 474.854L223.244 478.996C222.684 478.956 222.124 478.917 221.564 478.868C220.24 478.77 218.92 478.659 217.604 478.539C214.676 478.268 211.756 477.944 208.858 477.567C203.182 476.834 197.569 475.901 192.022 474.778C186.987 473.757 182.009 472.58 177.093 471.243H177.076C173.578 470.293 170.116 469.276 166.684 468.175C162.64 466.878 158.649 465.48 154.707 463.979C151.08 462.607 147.502 461.146 143.964 459.596C141.844 458.673 139.738 457.718 137.653 456.728L146.436 434.006L152.044 419.49L157.858 404.45C158.396 403.056 159.964 402.363 161.36 402.9L177.947 409.299L238.284 432.576C239.68 433.113 240.373 434.681 239.836 436.075H239.831Z" fill="white"/>
<path d="M164.321 421.613L162.929 425.217C162.346 426.725 163.097 428.419 164.606 429.001L216.707 449.097C218.216 449.679 219.912 448.929 220.494 447.421L221.887 443.817C222.47 442.31 221.719 440.616 220.21 440.034L168.109 419.937C166.6 419.355 164.904 420.105 164.321 421.613Z" fill="#4D8344" fill-opacity="0.6"/>
<path d="M158.03 437.887L156.637 441.491C156.055 442.999 156.806 444.693 158.315 445.275L210.416 465.372C211.925 465.954 213.62 465.203 214.203 463.696L215.596 460.092C216.178 458.584 215.427 456.89 213.918 456.308L161.817 436.211C160.308 435.629 158.613 436.38 158.03 437.887Z" fill="#4D8344" fill-opacity="0.6"/>
<path d="M209.311 476.394L208.858 477.567C203.182 476.834 197.569 475.901 192.022 474.778C186.987 473.757 182.009 472.58 177.093 471.243H177.076L167.489 467.54L154.618 462.576L152.027 461.577C150.52 460.99 149.769 459.299 150.351 457.789L151.742 454.188C152.129 453.18 153.013 452.514 154.004 452.349C154.502 452.269 155.027 452.314 155.529 452.509L177.276 460.897L199.653 469.534L207.631 472.611C209.142 473.193 209.893 474.885 209.311 476.394Z" fill="#4D8344" fill-opacity="0.6"/>
<path d="M369.996 441.377C369.929 441.421 369.858 441.466 369.791 441.51C369.676 441.586 369.556 441.661 369.44 441.737C369.347 441.799 369.249 441.861 369.156 441.919C368.458 442.367 367.76 442.807 367.058 443.242C366.862 443.371 366.662 443.491 366.462 443.615C366 443.904 365.533 444.192 365.067 444.472C364.76 444.658 364.449 444.849 364.138 445.036C363.578 445.378 363.013 445.715 362.449 446.048C361.951 446.346 361.453 446.639 360.951 446.927C360.884 446.967 360.818 447.007 360.751 447.047C360.627 447.118 360.498 447.194 360.373 447.265C359.911 447.536 359.449 447.802 358.987 448.064C357.956 448.655 356.916 449.241 355.871 449.814C355.338 450.116 354.8 450.409 354.262 450.697C354.187 450.742 354.107 450.786 354.022 450.826C353.707 450.995 353.391 451.168 353.071 451.337C352.729 451.523 352.382 451.705 352.036 451.887C351.711 452.056 351.387 452.229 351.062 452.398C348.658 453.655 346.227 454.876 343.769 456.053C343.004 456.421 342.236 456.785 341.467 457.145C340.787 457.465 340.102 457.776 339.422 458.086C338.813 458.362 338.209 458.633 337.6 458.903C337.231 459.072 336.862 459.236 336.489 459.396C335.507 459.827 334.524 460.253 333.538 460.671C333.516 460.68 333.489 460.688 333.467 460.702C333.116 460.848 332.764 460.999 332.413 461.141C331.951 461.337 331.48 461.528 331.013 461.719C329.88 462.185 328.742 462.642 327.6 463.091C326.551 463.504 325.498 463.908 324.44 464.303C324.422 464.312 324.404 464.316 324.387 464.321C323.893 464.507 323.404 464.689 322.911 464.871C322.276 465.107 321.64 465.338 321 465.564C320.493 465.746 319.982 465.928 319.471 466.106C317.276 466.878 315.067 467.62 312.844 468.322C312.236 468.517 311.627 468.708 311.013 468.899C310.053 469.196 309.093 469.489 308.129 469.774C307.022 470.098 305.916 470.417 304.8 470.728C303.902 470.977 303.004 471.226 302.102 471.465C301.2 471.705 300.302 471.941 299.396 472.171C298.747 472.336 298.093 472.5 297.44 472.66C296.791 472.82 296.133 472.975 295.48 473.131C294.64 473.33 293.796 473.526 292.951 473.712C290.809 474.196 288.653 474.649 286.489 475.071C286.098 475.151 285.702 475.227 285.307 475.302C284.453 475.466 283.596 475.626 282.738 475.777C281.92 475.924 281.098 476.066 280.276 476.203C280.182 476.221 280.084 476.239 279.987 476.252C279.067 476.408 278.138 476.559 277.209 476.701C276.467 476.816 275.724 476.932 274.978 477.038C274.871 477.056 274.76 477.069 274.653 477.087C273.973 477.185 273.284 477.282 272.6 477.371C271.16 477.571 269.716 477.753 268.267 477.922C267.818 477.975 267.373 478.028 266.929 478.077C266.093 478.171 265.258 478.259 264.418 478.344C264.12 478.375 263.827 478.401 263.529 478.428C262.978 478.486 262.427 478.535 261.876 478.584C261.858 478.584 261.84 478.588 261.822 478.588C261.422 478.628 261.022 478.663 260.618 478.695C260.213 478.73 259.809 478.761 259.409 478.792C258.773 478.845 258.138 478.894 257.502 478.939C257.422 478.943 257.347 478.952 257.267 478.956C256.622 479.001 255.978 479.045 255.333 479.085C254.609 479.13 253.884 479.174 253.16 479.214C252.569 479.245 251.978 479.276 251.387 479.303C250.733 479.334 250.08 479.361 249.422 479.383C249.018 479.401 248.609 479.414 248.2 479.427C246.382 479.494 244.56 479.534 242.733 479.551C241.827 479.565 240.916 479.569 240.004 479.569H239.44C236.627 479.56 233.822 479.507 231.036 479.405L231.284 479.099L241.156 467.016L241.636 466.426L248.444 458.086L252.036 453.695L258.56 445.702L260.951 442.78L283.667 414.965L284.6 413.819L291.956 404.814C293.489 402.936 296.627 402.416 298.96 403.651L306.809 407.825L307.053 407.954L315.169 412.261L318.262 413.904L325.107 417.536L333.227 421.848L336.507 423.588L341.973 426.497L346.24 428.762L370 441.377H369.996Z" fill="white"/>
<path d="M314.636 440.613L310.636 445.511L305.48 451.825L300.769 457.593L288.733 472.323L286.671 474.849L286.489 475.071C286.098 475.151 285.702 475.227 285.307 475.302C284.453 475.466 283.596 475.626 282.738 475.777C281.92 475.924 281.098 476.066 280.276 476.203C280.182 476.221 280.084 476.239 279.987 476.252C279.067 476.408 278.138 476.559 277.209 476.701C276.467 476.816 275.724 476.932 274.978 477.038C274.871 477.056 274.76 477.069 274.653 477.087C273.973 477.185 273.284 477.282 272.6 477.371C271.16 477.571 269.716 477.753 268.267 477.922C267.818 477.975 267.373 478.028 266.929 478.077C266.093 478.171 265.258 478.259 264.418 478.344C264.12 478.375 263.827 478.401 263.529 478.428C262.978 478.486 262.427 478.535 261.876 478.584L266.698 472.678L267.44 471.772L273.991 463.748L277.676 459.236L279.796 456.643L285.222 450L295.262 437.709L298.982 433.153L299.467 432.558C300.569 431.208 302.822 430.835 304.493 431.723L313.604 436.559C315.276 437.447 315.742 439.263 314.64 440.613H314.636Z" fill="#4D8344" fill-opacity="0.6"/>
<path d="M341.876 455.08L339.422 458.086C338.813 458.362 338.209 458.633 337.6 458.903C337.231 459.072 336.862 459.236 336.489 459.396C335.507 459.827 334.524 460.253 333.538 460.671C333.516 460.68 333.489 460.688 333.467 460.702C333.116 460.848 332.764 460.999 332.413 461.141C331.951 461.337 331.48 461.528 331.013 461.719C329.88 462.185 328.742 462.642 327.6 463.091C326.551 463.504 325.498 463.908 324.44 464.303C324.422 464.312 324.404 464.316 324.387 464.321C323.893 464.507 323.404 464.689 322.911 464.871C322.276 465.107 321.64 465.338 321 465.564C320.493 465.746 319.982 465.928 319.471 466.106C317.276 466.878 315.067 467.62 312.844 468.322C312.236 468.517 311.627 468.708 311.013 468.899C310.053 469.196 309.093 469.489 308.129 469.774L320.236 454.947L326.707 447.025C327.302 446.297 328.236 445.848 329.236 445.737C330.076 445.64 330.964 445.782 331.733 446.19L340.84 451.026C342.516 451.914 342.978 453.73 341.876 455.08Z" fill="#4D8344" fill-opacity="0.6"/>
<path d="M480 239.785V240.322C479.996 242.649 479.956 244.962 479.884 247.271C479.716 252.733 479.369 258.155 478.84 263.519C478.782 264.105 478.72 264.691 478.658 265.277C478.618 265.681 478.573 266.081 478.529 266.485C478.507 266.667 478.489 266.854 478.467 267.036C478.413 267.529 478.356 268.022 478.293 268.514C478.276 268.688 478.253 268.861 478.231 269.034C478.151 269.691 478.067 270.348 477.982 271.001C477.947 271.29 477.911 271.574 477.871 271.863C477.849 272.009 477.831 272.156 477.809 272.302C477.8 272.382 477.791 272.458 477.778 272.533C477.751 272.759 477.716 272.986 477.684 273.208C477.618 273.71 477.547 274.212 477.471 274.709C477.444 274.909 477.418 275.104 477.387 275.304C477.311 275.792 477.24 276.276 477.164 276.765C476.871 278.656 476.556 280.544 476.218 282.422C475.524 286.272 474.742 290.086 473.871 293.865C473.72 294.509 473.569 295.157 473.418 295.797C473.324 296.187 473.231 296.574 473.133 296.96C472.996 297.528 472.853 298.092 472.711 298.656C472.524 299.411 472.329 300.166 472.129 300.916C471.72 302.475 471.298 304.025 470.853 305.57C470.636 306.338 470.413 307.102 470.187 307.866C470.187 307.875 470.182 307.883 470.178 307.892C469.724 309.429 469.258 310.961 468.769 312.484C468.484 313.381 468.196 314.269 467.902 315.153C467.756 315.597 467.609 316.036 467.458 316.48C467.422 316.587 467.387 316.689 467.351 316.795C467.289 316.982 467.222 317.164 467.16 317.351C467.062 317.648 466.96 317.937 466.862 318.234C466.844 318.274 466.831 318.319 466.818 318.359C466.729 318.616 466.64 318.874 466.547 319.131C466.396 319.571 466.24 320.01 466.08 320.45C465.769 321.329 465.449 322.204 465.124 323.079C464.533 324.677 463.924 326.258 463.302 327.834C461.987 331.156 460.604 334.437 459.147 337.683C458.738 338.594 458.324 339.504 457.902 340.41C457.484 341.316 457.058 342.217 456.627 343.114C456.32 343.758 456.009 344.402 455.693 345.041C455.493 345.454 455.289 345.867 455.08 346.28C455.058 346.329 455.036 346.378 455.009 346.427C454.671 347.11 454.324 347.794 453.978 348.474C453.529 349.362 453.071 350.245 452.604 351.125C452.142 352.004 451.676 352.883 451.2 353.758C450.742 354.606 450.276 355.454 449.804 356.298C449.738 356.422 449.671 356.542 449.6 356.662C449.187 357.399 448.773 358.136 448.351 358.869L448.298 358.962L429.28 348.864L404.111 335.494C401.778 334.255 401.133 331.724 402.667 329.846L412.96 317.24L420.933 307.479L423.427 304.424L425.436 301.969L429.067 297.524L443.049 280.402L454.529 266.347L465.738 252.626L479.951 235.224C479.956 235.318 479.956 235.411 479.956 235.504C479.969 236.01 479.978 236.521 479.982 237.032C479.987 237.112 479.987 237.187 479.987 237.267C479.987 237.431 479.991 237.596 479.991 237.76C479.996 238.435 480 239.11 480 239.785Z" fill="#FBF8F4"/>
<path d="M477.387 275.304C477.311 275.792 477.24 276.276 477.164 276.765C476.871 278.656 476.556 280.544 476.218 282.422C475.524 286.272 474.742 290.086 473.871 293.865C473.72 294.509 473.569 295.157 473.418 295.797C473.324 296.187 473.231 296.574 473.133 296.96C472.996 297.528 472.853 298.092 472.711 298.656C472.524 299.411 472.329 300.166 472.129 300.916C471.72 302.475 471.298 304.025 470.853 305.57C470.636 306.338 470.413 307.102 470.187 307.866C470.187 307.875 470.182 307.883 470.178 307.892C469.724 309.429 469.258 310.961 468.769 312.484L459.729 323.554L453.578 331.089L450.662 334.655C449.56 336.005 447.307 336.378 445.636 335.49L436.524 330.65C434.853 329.762 434.387 327.945 435.493 326.596L442.049 318.572L442.102 318.505L452.613 305.632L464.098 291.574L475.76 277.298L477.387 275.304Z" fill="#F8E4DA"/>
<path d="M480 239.785V240.322C479.996 242.649 479.956 244.962 479.884 247.271C479.716 252.733 479.369 258.155 478.84 263.519C478.742 264.509 478.64 265.495 478.529 266.485C478.436 267.333 478.338 268.186 478.231 269.034C478.116 269.98 477.996 270.921 477.871 271.862C477.809 272.311 477.751 272.759 477.684 273.208C477.591 273.91 477.489 274.607 477.387 275.304C477.311 275.792 477.24 276.276 477.164 276.765C476.871 278.656 476.556 280.544 476.218 282.422C475.524 286.272 474.742 290.086 473.871 293.865C473.72 294.509 473.569 295.157 473.418 295.797C473.324 296.187 473.231 296.574 473.133 296.96C472.996 297.528 472.853 298.092 472.711 298.656C472.524 299.411 472.329 300.166 472.129 300.916C471.72 302.475 471.298 304.025 470.853 305.57C470.636 306.338 470.413 307.102 470.187 307.866C470.187 307.875 470.182 307.883 470.178 307.892C469.724 309.429 469.258 310.961 468.769 312.484C468.484 313.381 468.196 314.269 467.902 315.152C467.662 315.89 467.413 316.618 467.16 317.351C467.049 317.688 466.933 318.021 466.818 318.359C466.578 319.056 466.329 319.753 466.08 320.45C465.769 321.329 465.449 322.204 465.124 323.079L462.502 324.073C461.52 324.442 460.458 324.207 459.729 323.554C459.418 323.274 459.164 322.919 459.009 322.501L455.413 313.021L452.613 305.632L449.311 296.92L443.049 280.401L441.538 276.414L434.356 257.471L420.92 222.032C420.387 220.633 421.093 219.07 422.493 218.541L431.978 214.954L445.276 209.923L476.396 198.142C477.6 205.029 478.516 212.018 479.116 219.097C479.56 224.23 479.836 229.412 479.942 234.638C479.947 234.834 479.951 235.024 479.951 235.22C479.951 235.22 479.956 235.22 479.951 235.224C479.969 235.904 479.978 236.583 479.987 237.267C479.996 238.106 480 238.945 480 239.785Z" fill="white"/>
<path d="M479.116 219.097C479.56 224.23 479.836 229.412 479.942 234.638L452.827 244.9L449.947 245.988C448.431 246.561 446.742 245.801 446.169 244.287L442.987 235.899C442.418 234.389 443.178 232.698 444.689 232.125L450.364 229.976L479.116 219.097Z" fill="#4D8344" fill-opacity="0.6"/>
<path d="M479.884 247.271C479.716 252.733 479.369 258.155 478.84 263.519L466.689 268.115L459.382 270.881C457.871 271.454 456.178 270.695 455.604 269.18L454.529 266.347L452.427 260.792C451.853 259.283 452.613 257.591 454.129 257.018L465.738 252.626L474.684 249.238L479.884 247.271Z" fill="#4D8344" fill-opacity="0.6"/>
<path d="M477.164 276.765C476.871 278.656 476.556 280.544 476.218 282.422C475.524 286.272 474.742 290.086 473.871 293.865L470.707 295.059L468.822 295.774C467.307 296.347 465.618 295.583 465.044 294.074L464.098 291.574L461.862 285.686C461.289 284.171 462.053 282.484 463.564 281.911L475.76 277.298L477.164 276.765Z" fill="#4D8344" fill-opacity="0.6"/>
<path d="M357.747 128.138C359.102 116.442 353.818 105.892 344.996 101.7C344.329 101.384 335.138 97.1927 327.107 101.908C316.551 108.107 316 123 321.311 131.784C325 138 334.5 136.5 334.213 133.045C332.182 129.359 331.791 126.167 331.729 124.359C331.658 122.419 331.618 120.403 332.947 118.778C334.258 117.179 336.2 116.802 337.062 116.637C344.08 115.283 357.111 127.53 357.751 128.138H357.747Z" fill="#FF6948"/>
<path d="M156.08 448.18L153.88 450.253L143.96 459.596C141.84 458.673 139.733 457.718 137.649 456.728C136.164 456.03 134.689 455.316 133.222 454.587C131.089 453.526 128.973 452.434 126.876 451.31C125.222 450.431 123.578 449.525 121.947 448.597C119.907 447.451 117.884 446.266 115.884 445.054C114.298 444.099 112.729 443.122 111.169 442.127C109.222 440.888 107.293 439.623 105.387 438.326C102.756 436.546 100.164 434.712 97.6089 432.82L120.893 410.889C121.978 409.863 123.693 409.912 124.72 411L146.431 434.006L153.347 441.337L156.196 444.356C157.222 445.444 157.169 447.154 156.08 448.18Z" fill="#FBF8F4"/>
<path d="M122.458 431.497L111.169 442.127C109.222 440.888 107.293 439.623 105.387 438.326L117.836 426.599C119.013 425.489 120.867 425.547 121.978 426.719L122.582 427.358C123.689 428.535 123.636 430.387 122.458 431.497Z" fill="#F8E4DA"/>
<path d="M130.76 440.293L121.947 448.597C119.907 447.451 117.884 446.266 115.884 445.054L126.138 435.396C127.316 434.286 129.169 434.343 130.276 435.516L130.88 436.155C131.991 437.332 131.938 439.183 130.76 440.293Z" fill="#F8E4DA"/>
<path d="M139.062 449.09L133.222 454.587C131.089 453.526 128.973 452.434 126.876 451.31L134.436 444.192C135.613 443.082 137.467 443.14 138.578 444.312L139.182 444.951C140.293 446.128 140.236 447.98 139.062 449.09Z" fill="#F8E4DA"/>
<path d="M299.396 472.171C298.093 472.505 296.791 472.824 295.48 473.131C288.751 474.72 281.916 476.03 274.978 477.038C274.871 477.056 274.76 477.069 274.653 477.087C267.009 478.193 259.249 478.939 251.387 479.303C247.613 479.48 243.822 479.569 240.004 479.569H239.44C233.996 479.556 228.6 479.361 223.249 478.996C222.689 478.956 222.129 478.917 221.569 478.868C220.244 478.77 218.924 478.659 217.609 478.539L213.813 464.432L213.56 463.49L211.369 455.347L211.333 455.209C210.947 453.766 211.8 452.283 213.249 451.892L231.009 447.127L236.093 445.76L252.124 441.457L285.898 432.394C287.031 432.087 288.191 432.549 288.827 433.464C289 433.713 289.133 433.992 289.218 434.303L293.729 451.088L294.338 453.348L298.169 467.598L298.622 469.285L299.4 472.171H299.396Z" fill="#FBF8F4"/>
<path d="M275.762 444.774L226.728 457.937C225.166 458.357 224.24 459.962 224.659 461.523L224.888 462.372C225.307 463.932 226.914 464.858 228.476 464.438L277.51 451.275C279.073 450.855 279.999 449.25 279.579 447.689L279.351 446.84C278.931 445.28 277.324 444.354 275.762 444.774Z" fill="#F8E4DA"/>
<path d="M278.905 456.454L229.871 469.618C228.309 470.037 227.383 471.642 227.803 473.203L228.031 474.052C228.451 475.613 230.057 476.538 231.62 476.119L280.654 462.955C282.216 462.536 283.142 460.931 282.722 459.37L282.494 458.521C282.074 456.96 280.467 456.035 278.905 456.454Z" fill="#F8E4DA"/>
<path d="M283.782 474.636L275.022 476.989L274.653 477.087C267.009 478.193 259.249 478.939 251.387 479.303C247.613 479.48 243.822 479.569 240.004 479.569H239.44L254.462 475.537L274.587 470.133H274.591L282.036 468.135C282.124 468.108 282.213 468.091 282.302 468.077C283.778 467.82 285.231 468.73 285.627 470.2L285.711 470.52L285.853 471.052C286.276 472.611 285.347 474.219 283.787 474.636H283.782Z" fill="#F8E4DA"/>
<path d="M42.8133 297.995C61.9067 290.779 83.3378 283.75 106.96 277.635C126.382 272.609 144.76 268.856 161.822 266.046C161.951 266.01 162.649 265.837 163.36 266.245C163.809 266.503 164.16 266.934 164.307 267.475C167.671 274.722 171.013 283.084 173.898 292.511C178.427 307.297 180.627 320.774 181.653 331.991C181.689 332.12 181.862 332.817 181.453 333.527C181.196 333.976 180.764 334.326 180.222 334.473L175.916 335.627C174.836 335.916 173.72 335.277 173.431 334.198L167.253 311.218C166.964 310.139 165.849 309.495 164.769 309.788L160.16 311.023C159.08 311.312 158.436 312.426 158.729 313.505L164.907 336.484C165.196 337.564 164.556 338.678 163.476 338.967C153.996 342.617 143.302 346.2 131.471 349.331C120.471 352.244 110.142 354.326 100.693 355.818C100.564 355.854 99.8667 356.027 99.1556 355.618C98.7067 355.361 98.3556 354.93 98.2089 354.388L91.3867 329.016C91.0978 327.937 89.9822 327.293 88.9022 327.586L82.6489 329.264C81.5689 329.553 80.9244 330.667 81.2178 331.746L88.04 357.119C88.3289 358.198 87.6889 359.313 86.6089 359.601C82.3689 361.329 77.4222 363.021 71.8267 364.393C68.0533 365.316 64.4978 365.965 61.2133 366.422C61.0844 366.458 60.3867 366.631 59.6756 366.222C59.2267 365.965 58.8756 365.534 58.7289 364.992C53.6889 354.584 48.4444 341.214 44.9556 325.179C43.0089 316.223 41.9244 307.91 41.3778 300.472C41.3422 300.344 41.1689 299.646 42.8089 297.99L42.8133 297.995Z" fill="white"/>
<path d="M78.6222 363.141L70.3422 332.364" stroke="#D3F0D6" stroke-miterlimit="10"/>
<path d="M68.1778 365.947L59.9022 335.166" stroke="#D3F0D6" stroke-miterlimit="10"/>
<path d="M121.067 351.746L112.791 320.97" stroke="#D3F0D6" stroke-miterlimit="10"/>
<path d="M110.151 354.677L101.871 323.9" stroke="#D3F0D6" stroke-miterlimit="10"/>
<path d="M144.027 345.583L135.751 314.806" stroke="#D3F0D6" stroke-miterlimit="10"/>
<path d="M154.907 342.666L146.627 311.884" stroke="#D3F0D6" stroke-miterlimit="10"/>
<path d="M133.298 348.465L125.022 317.688" stroke="#D3F0D6" stroke-miterlimit="10"/>
<path d="M138.063 281.664L54.0477 304.218C51.9925 304.77 50.7741 306.882 51.3263 308.935L51.7104 310.363C52.2626 312.417 54.3764 313.634 56.4316 313.082L140.447 290.528C142.502 289.976 143.721 287.864 143.169 285.811L142.785 284.383C142.232 282.329 140.118 281.112 138.063 281.664Z" fill="#4D8344" fill-opacity="0.6"/>
<path d="M156.263 291.574L72.2473 314.129C70.1921 314.681 68.9737 316.793 69.5259 318.846L69.91 320.274C70.4622 322.327 72.576 323.545 74.6312 322.993L158.647 300.438C160.702 299.887 161.92 297.775 161.368 295.721L160.984 294.293C160.432 292.24 158.318 291.023 156.263 291.574Z" fill="#4D8344" fill-opacity="0.6"/>
<path d="M95.9644 287.404C97.1111 289.003 101.213 294.726 107.022 294.3C108 294.229 110.96 294.011 112.431 291.893C115.267 287.813 109.018 281.818 111.604 277.742C112.049 277.044 112.782 276.352 120.493 274.349C124.529 273.301 127.889 272.569 130.191 272.093C126.769 268.617 123.351 265.144 119.929 261.667C118.538 261.383 106.88 259.198 98.9467 266.84C97.8933 267.853 91.9511 273.576 92.9867 280.801C93.4267 283.865 94.9467 285.988 95.96 287.404H95.9644Z" fill="#FF6948"/>
<path d="M92.1733 100.341L86.6222 109.861L130.938 135.665C131.382 138.786 132.627 142.703 136.018 145.203C136.142 145.296 136.271 145.385 136.404 145.478C137.44 142.419 138.867 139.009 140.853 135.452C143.293 131.087 145.996 127.534 148.516 124.715C148.187 124.555 147.867 124.408 147.547 124.284C142.684 122.383 138.031 124.235 135.813 125.35C121.267 117.015 106.72 108.68 92.1733 100.341Z" fill="#C1A193"/>
<path d="M147.421 137.974C150.765 132.24 151.253 126.298 148.511 124.701C145.769 123.105 140.835 126.459 137.491 132.192C134.147 137.926 133.659 143.868 136.401 145.465C139.143 147.061 144.077 143.707 147.421 137.974Z" fill="white"/>
<path d="M130.422 119.573C130.351 120.35 129.671 120.874 129.556 120.967C129.342 121.131 129.089 121.256 128.804 121.331C124.653 122.486 113.32 114.719 99.0267 108.134C98.1867 107.748 95.0222 106.305 94.5867 106.948C94.0133 107.788 98.2711 112.077 99.4222 113.241C101.76 115.594 103.578 116.997 103.2 118.356C103.116 118.653 102.924 118.96 102.671 119.204C102.511 119.355 102.324 119.484 102.124 119.568C101.258 119.946 100.284 119.475 99.8844 119.28C90.7956 114.857 90.1467 115.541 85.8311 112.028C83.2844 109.95 81.6933 108.232 78.5422 104.826C75.8356 101.9 73.7289 99.3419 72.28 97.5124L54.8533 87.2017C58.9156 82.2817 63.1778 77.5259 67.6222 72.9478C71.1778 76.0384 74.7289 79.1289 78.2844 82.2195C83.6356 83.6094 88.0533 84.4974 91.0933 85.0525C100.147 86.7088 103.138 86.5223 106.022 89.2931C106.778 90.0125 106.916 90.3544 110.502 98.2096C114.982 108.014 115.267 108.578 116.298 109.528C117.298 110.447 120.213 112.108 126.049 115.43C127.996 116.54 130.573 117.965 130.422 119.573Z" fill="white"/>
<g opacity="0.2">
<path d="M388.787 51.6292L298.649 78.9202L282.236 83.8891L268.191 88.1386L255.458 91.9974L241.404 96.2513L223.889 101.553L148.08 124.506H148.076C148.036 124.484 147.978 124.457 147.898 124.43C147.898 124.43 147.671 124.351 147.413 124.351C147.258 124.351 142.004 125.039 137.813 131.66C137.089 132.81 132.551 139.977 135.302 144.355C135.422 144.546 135.538 144.697 135.618 144.803V144.812C135.618 144.812 135.609 144.817 135.609 144.821C135.609 144.848 135.613 144.87 135.613 144.897C138.142 187.143 140.671 229.39 143.196 271.636C143.662 279.385 144.124 287.133 144.587 294.882C146.231 322.404 147.88 349.917 149.524 377.434C149.809 382.172 150.093 386.91 150.373 391.648C150.929 400.929 151.484 410.214 152.04 419.499C152.476 426.781 152.911 434.063 153.347 441.346C153.524 444.316 153.702 447.292 153.88 450.262C153.92 450.959 153.964 451.661 154.004 452.358C154.209 455.768 154.413 459.174 154.618 462.585C154.644 463.051 154.671 463.521 154.702 463.988C151.076 462.616 147.498 461.155 143.96 459.605C141.84 458.681 139.733 457.727 137.649 456.736C136.164 456.039 134.689 455.324 133.222 454.596C131.089 453.535 128.973 452.443 126.876 451.319C125.222 450.44 123.578 449.534 121.947 448.606C119.907 447.46 117.884 446.275 115.884 445.062C114.298 444.108 112.729 443.131 111.169 442.136C109.222 440.897 107.293 439.632 105.387 438.335C102.756 436.555 100.164 434.721 97.6089 432.829C38.4044 389.162 0 318.954 0 239.785C0 181.819 20.5867 128.658 54.8533 87.2017C58.9156 82.2817 63.1778 77.5259 67.6222 72.9478C111.244 27.9616 172.356 0 240 0C296.2 0 347.884 19.2982 388.787 51.6292Z" fill="#4D8344"/>
</g>
</g>
<defs>
<clipPath id="clip0_214_4518">
<rect width="480" height="480" fill="white"/>
</clipPath>
</defs>
</svg>
