<svg width="480" height="480" viewBox="0 0 480 480" fill="none" xmlns="http://www.w3.org/2000/svg">
<g clip-path="url(#clip0_18_226)">
<path d="M480 239.785V240.322C479.996 242.649 479.956 244.962 479.884 247.271C479.716 252.733 479.369 258.155 478.84 263.519C478.782 264.105 478.72 264.691 478.658 265.277C478.618 265.681 478.573 266.081 478.529 266.485C478.507 266.667 478.489 266.854 478.467 267.036C478.413 267.529 478.356 268.022 478.293 268.514C478.276 268.688 478.253 268.861 478.231 269.034C478.151 269.691 478.067 270.348 477.982 271.001C477.947 271.29 477.911 271.574 477.871 271.862C477.849 272.009 477.831 272.156 477.809 272.302C477.8 272.382 477.791 272.458 477.778 272.533C477.751 272.759 477.716 272.986 477.684 273.208C477.618 273.71 477.547 274.212 477.471 274.709C477.444 274.909 477.418 275.104 477.387 275.304C477.311 275.792 477.24 276.276 477.164 276.765C476.871 278.656 476.556 280.544 476.218 282.422C475.524 286.272 474.742 290.086 473.871 293.865C473.72 294.509 473.569 295.157 473.418 295.797C473.324 296.187 473.231 296.574 473.133 296.96C472.996 297.528 472.853 298.092 472.711 298.656C472.524 299.411 472.329 300.166 472.129 300.916C471.72 302.475 471.298 304.025 470.853 305.57C470.636 306.338 470.413 307.102 470.187 307.866C470.187 307.875 470.182 307.883 470.178 307.892C469.724 309.429 469.258 310.961 468.769 312.484C468.484 313.381 468.196 314.269 467.902 315.152C467.756 315.597 467.609 316.036 467.458 316.48C467.422 316.587 467.387 316.689 467.351 316.795C467.289 316.982 467.222 317.164 467.16 317.351C467.062 317.648 466.96 317.937 466.862 318.234C466.844 318.274 466.831 318.319 466.818 318.359C466.729 318.616 466.64 318.874 466.547 319.131C466.396 319.571 466.24 320.01 466.08 320.45C465.769 321.329 465.449 322.204 465.124 323.079C464.533 324.677 463.924 326.258 463.302 327.834C461.987 331.156 460.604 334.437 459.147 337.683C458.738 338.594 458.324 339.504 457.902 340.41C457.484 341.316 457.058 342.217 456.627 343.114C456.32 343.758 456.009 344.402 455.693 345.041C455.493 345.454 455.289 345.867 455.08 346.28C455.058 346.329 455.036 346.378 455.009 346.427C454.671 347.11 454.324 347.794 453.978 348.474C453.529 349.362 453.071 350.245 452.604 351.125C452.142 352.004 451.676 352.883 451.2 353.758C450.742 354.606 450.276 355.454 449.804 356.298C449.738 356.422 449.671 356.542 449.6 356.662C449.187 357.399 448.773 358.136 448.351 358.869L448.298 358.962C448.044 359.406 447.787 359.85 447.529 360.29C447.307 360.676 447.08 361.062 446.853 361.444C446.818 361.502 446.782 361.564 446.747 361.622C446.364 362.27 445.978 362.918 445.587 363.562C445.449 363.793 445.307 364.024 445.169 364.255C444.867 364.748 444.564 365.236 444.262 365.729C444.102 365.996 443.938 366.258 443.769 366.52C443.427 367.066 443.084 367.616 442.738 368.158C442.68 368.256 442.618 368.349 442.556 368.447C442.533 368.482 442.511 368.518 442.489 368.549C442.08 369.193 441.662 369.837 441.244 370.476C441.044 370.791 440.836 371.107 440.627 371.418C440.2 372.075 439.764 372.727 439.324 373.376C438.822 374.122 438.32 374.868 437.809 375.605C437.756 375.685 437.702 375.765 437.644 375.84C437.111 376.617 436.569 377.39 436.022 378.158C435.489 378.913 434.951 379.663 434.409 380.414L434.329 380.52C433.76 381.302 433.187 382.084 432.609 382.856C432.573 382.901 432.542 382.949 432.507 382.994C431.969 383.713 431.431 384.424 430.893 385.134C430.88 385.147 430.871 385.161 430.862 385.174C430.569 385.551 430.28 385.933 429.987 386.311C429.778 386.582 429.569 386.853 429.356 387.119C429.276 387.23 429.191 387.337 429.107 387.443C428.898 387.705 428.693 387.967 428.484 388.229C428.102 388.722 427.711 389.215 427.316 389.703C426.649 390.534 425.978 391.36 425.298 392.181C424.733 392.865 424.169 393.544 423.596 394.219C423.324 394.543 423.049 394.868 422.773 395.187C422.498 395.511 422.222 395.836 421.947 396.155C421.622 396.533 421.298 396.906 420.973 397.274C420.587 397.723 420.196 398.167 419.804 398.606C419.764 398.655 419.72 398.7 419.68 398.749C419.129 399.37 418.578 399.983 418.022 400.596C417.898 400.738 417.773 400.876 417.644 401.013C417.604 401.058 417.56 401.106 417.52 401.151C417.076 401.639 416.627 402.123 416.178 402.607C415.591 403.251 414.991 403.886 414.387 404.521C414 404.934 413.604 405.347 413.209 405.756C412.698 406.288 412.187 406.817 411.671 407.345C411.396 407.629 411.116 407.914 410.836 408.193C410.449 408.589 410.062 408.979 409.671 409.366C409.076 409.961 408.48 410.556 407.876 411.142C407.289 411.715 406.698 412.287 406.107 412.856C406.089 412.869 406.076 412.883 406.058 412.9C405.996 412.958 405.938 413.016 405.876 413.073C405.48 413.455 405.084 413.833 404.684 414.206C404.213 414.654 403.733 415.098 403.258 415.542C402.778 415.991 402.298 416.43 401.813 416.87C401.458 417.194 401.102 417.518 400.742 417.842C400.724 417.86 400.702 417.878 400.684 417.896C400.436 418.118 400.191 418.34 399.942 418.557C399.636 418.833 399.329 419.108 399.022 419.379C398.933 419.454 398.849 419.534 398.76 419.61C398.338 419.983 397.911 420.356 397.484 420.729C397.302 420.884 397.124 421.04 396.942 421.195C396.391 421.675 395.836 422.15 395.28 422.62C395.004 422.856 394.724 423.096 394.444 423.326C393.947 423.744 393.444 424.166 392.942 424.579C392.569 424.889 392.2 425.191 391.827 425.493C391.187 426.017 390.542 426.537 389.898 427.056C389.871 427.074 389.844 427.096 389.818 427.119C389.173 427.638 388.52 428.153 387.867 428.659C387.84 428.682 387.818 428.704 387.791 428.722C387.333 429.081 386.876 429.437 386.413 429.792C386.076 430.049 385.738 430.307 385.4 430.569C384.271 431.43 383.129 432.283 381.982 433.122C381.551 433.442 381.116 433.757 380.68 434.072C380.524 434.188 380.364 434.303 380.204 434.414C379.453 434.956 378.702 435.493 377.942 436.022C377.564 436.293 377.182 436.559 376.8 436.821C376.787 436.83 376.778 436.839 376.764 436.848C376.609 436.959 376.449 437.07 376.289 437.176C375.729 437.563 375.164 437.949 374.6 438.335C374.511 438.393 374.427 438.455 374.338 438.513C374.258 438.566 374.173 438.624 374.089 438.682C373.404 439.143 372.72 439.601 372.027 440.054C371.804 440.205 371.578 440.351 371.351 440.498C371.329 440.511 371.302 440.529 371.28 440.542C370.787 440.871 370.289 441.19 369.791 441.51C369.676 441.586 369.556 441.661 369.44 441.737C369.347 441.799 369.249 441.861 369.156 441.919C368.458 442.367 367.76 442.807 367.058 443.242C366.862 443.371 366.662 443.491 366.462 443.615C366 443.904 365.533 444.192 365.067 444.472C364.76 444.658 364.449 444.849 364.138 445.036C363.578 445.378 363.013 445.715 362.449 446.048C361.951 446.346 361.453 446.639 360.951 446.927C360.884 446.967 360.818 447.007 360.751 447.047C360.627 447.118 360.498 447.194 360.373 447.265C359.911 447.536 359.449 447.802 358.987 448.064C357.956 448.655 356.916 449.241 355.871 449.814C354.942 450.329 354.009 450.835 353.071 451.337C352.729 451.523 352.382 451.705 352.036 451.887C351.711 452.056 351.387 452.229 351.062 452.398C348.658 453.655 346.227 454.876 343.769 456.053C343.004 456.421 342.236 456.785 341.467 457.145C340.182 457.744 338.893 458.331 337.6 458.903C337.231 459.072 336.862 459.236 336.489 459.396C335.507 459.827 334.524 460.253 333.538 460.671C333.511 460.684 333.489 460.693 333.467 460.697C333.116 460.848 332.764 460.999 332.413 461.141C331.951 461.337 331.48 461.528 331.013 461.719C329.88 462.185 328.742 462.642 327.6 463.091C326.551 463.504 325.498 463.908 324.44 464.303C324.422 464.312 324.404 464.316 324.387 464.321C323.893 464.507 323.404 464.689 322.911 464.871C322.276 465.107 321.64 465.338 321 465.564C320.493 465.746 319.982 465.928 319.471 466.106C317.276 466.878 315.067 467.62 312.844 468.322C312.236 468.521 311.627 468.712 311.013 468.899C308.956 469.538 306.884 470.147 304.8 470.728C303.902 470.977 303.004 471.226 302.102 471.465C301.2 471.705 300.302 471.941 299.396 472.171C298.747 472.336 298.093 472.5 297.44 472.66C296.791 472.82 296.133 472.975 295.48 473.131C294.64 473.33 293.796 473.526 292.951 473.712C290.418 474.285 287.871 474.814 285.307 475.302C284.453 475.466 283.596 475.626 282.738 475.777C281.92 475.924 281.098 476.066 280.276 476.203C280.182 476.221 280.084 476.239 279.987 476.252C279.067 476.408 278.138 476.559 277.209 476.701C276.467 476.816 275.724 476.932 274.978 477.038C274.871 477.056 274.76 477.069 274.653 477.087C273.973 477.185 273.284 477.282 272.6 477.371C271.16 477.571 269.716 477.753 268.267 477.922C267.818 477.975 267.373 478.028 266.929 478.077C266.093 478.171 265.258 478.259 264.418 478.344C264.12 478.375 263.827 478.401 263.529 478.428C262.96 478.486 262.391 478.539 261.822 478.588C261.422 478.628 261.022 478.663 260.618 478.695C260.213 478.73 259.809 478.761 259.409 478.792C259.364 478.792 259.316 478.801 259.271 478.801C258.68 478.85 258.084 478.894 257.489 478.939C257.413 478.943 257.342 478.952 257.267 478.956C256.622 479.001 255.978 479.045 255.333 479.085C254.609 479.13 253.884 479.174 253.16 479.214C252.569 479.245 251.978 479.276 251.387 479.303C250.733 479.334 250.08 479.361 249.422 479.383C249.018 479.401 248.609 479.414 248.2 479.427C246.382 479.494 244.56 479.534 242.733 479.552C241.827 479.565 240.916 479.569 240.004 479.569H239.44C233.996 479.556 228.6 479.361 223.249 478.996C222.689 478.956 222.129 478.917 221.569 478.868C220.244 478.77 218.924 478.659 217.609 478.539C214.68 478.268 211.76 477.944 208.862 477.567C203.187 476.834 197.573 475.901 192.027 474.778C186.991 473.757 182.013 472.58 177.098 471.243H177.08C173.582 470.293 170.12 469.276 166.689 468.175C162.644 466.878 158.653 465.48 154.711 463.979C151.084 462.607 147.507 461.146 143.969 459.596C141.849 458.673 139.742 457.718 137.658 456.728C136.173 456.03 134.698 455.316 133.231 454.587C131.098 453.526 128.982 452.434 126.884 451.31C125.231 450.431 123.587 449.525 121.956 448.597C119.916 447.451 117.893 446.266 115.893 445.054C114.307 444.099 112.738 443.122 111.178 442.127C109.231 440.888 107.302 439.623 105.396 438.326C102.764 436.546 100.173 434.712 97.6178 432.82C38.4044 389.162 0 318.954 0 239.785C0 181.819 20.5867 128.658 54.8533 87.2017C58.9156 82.2817 63.1778 77.5259 67.6222 72.9478C111.244 27.9616 172.356 0 240 0C296.2 0 347.884 19.2982 388.787 51.6292C414.733 72.1352 436.338 97.8899 451.996 127.286C455.627 134.093 458.933 141.091 461.898 148.267C465.062 155.922 467.844 163.773 470.218 171.801C471.733 176.934 473.084 182.139 474.258 187.414C475.049 190.962 475.76 194.536 476.396 198.142C477.6 205.029 478.516 212.018 479.116 219.097C479.56 224.23 479.836 229.412 479.942 234.638C479.947 234.834 479.951 235.024 479.951 235.22C479.956 235.318 479.956 235.411 479.956 235.504C479.969 236.01 479.978 236.521 479.982 237.032C479.987 237.111 479.987 237.187 479.987 237.267C479.987 237.431 479.991 237.595 479.991 237.76C479.996 238.435 480 239.11 480 239.785V239.785Z" fill="#D3F0D6"/>
<path d="M479.999 239.785V240.322C479.995 242.649 479.955 244.962 479.884 247.271C479.715 252.733 479.368 258.155 478.839 263.519C478.782 264.105 478.719 264.691 478.657 265.278C478.617 265.682 478.573 266.081 478.528 266.485C478.506 266.667 478.488 266.854 478.466 267.036C478.408 267.529 478.355 268.022 478.293 268.515C478.275 268.688 478.253 268.861 478.231 269.034C478.151 269.691 478.066 270.349 477.982 271.001C477.928 271.436 477.87 271.872 477.808 272.302C477.799 272.382 477.791 272.458 477.777 272.533C477.751 272.76 477.715 272.986 477.684 273.208C477.617 273.71 477.546 274.212 477.471 274.709C477.444 274.909 477.413 275.109 477.382 275.309C477.311 275.797 477.239 276.281 477.164 276.765C476.871 278.657 476.555 280.544 476.217 282.422C475.524 286.272 474.742 290.086 473.87 293.865C473.719 294.509 473.568 295.157 473.417 295.797C473.324 296.188 473.231 296.574 473.133 296.96C472.995 297.529 472.853 298.092 472.711 298.656C472.519 299.411 472.328 300.166 472.128 300.917C471.719 302.475 471.297 304.025 470.853 305.57C470.635 306.338 470.413 307.102 470.186 307.866C470.186 307.875 470.182 307.884 470.177 307.893C469.724 309.429 469.257 310.961 468.768 312.484C468.484 313.381 468.195 314.269 467.902 315.153C467.755 315.597 467.608 316.036 467.457 316.48C467.422 316.587 467.386 316.689 467.351 316.796C467.191 317.275 467.026 317.755 466.862 318.234C466.844 318.274 466.831 318.319 466.817 318.359C466.728 318.616 466.639 318.874 466.546 319.131C466.395 319.571 466.239 320.011 466.079 320.45C465.768 321.329 465.448 322.204 465.124 323.079C464.533 324.677 463.924 326.258 463.302 327.835C461.986 331.156 460.604 334.438 459.146 337.684C458.737 338.594 458.324 339.504 457.902 340.41C457.484 341.316 457.057 342.217 456.626 343.114C456.319 343.758 456.008 344.402 455.693 345.041C455.493 345.454 455.288 345.867 455.079 346.28C455.057 346.329 455.035 346.378 455.008 346.427C454.671 347.111 454.324 347.795 453.977 348.474C453.528 349.362 453.071 350.246 452.604 351.125C452.142 352.004 451.675 352.883 451.199 353.758C450.742 354.606 450.275 355.454 449.804 356.298C449.737 356.422 449.671 356.542 449.599 356.662C449.186 357.399 448.773 358.136 448.351 358.869L448.297 358.962C448.044 359.406 447.786 359.85 447.528 360.29C447.306 360.676 447.079 361.063 446.853 361.444C446.817 361.502 446.782 361.564 446.746 361.622C446.364 362.27 445.977 362.919 445.586 363.563C445.448 363.793 445.306 364.024 445.168 364.255C444.866 364.748 444.564 365.237 444.262 365.73C444.102 365.996 443.937 366.258 443.768 366.52C443.426 367.066 443.084 367.617 442.737 368.158C442.679 368.256 442.617 368.349 442.555 368.447C442.533 368.483 442.511 368.518 442.488 368.549C442.079 369.193 441.662 369.837 441.244 370.476C441.044 370.792 440.835 371.107 440.626 371.418C440.199 372.075 439.764 372.728 439.324 373.376C438.822 374.122 438.319 374.868 437.808 375.605C437.755 375.685 437.702 375.765 437.644 375.84C437.111 376.618 436.568 377.39 436.022 378.158C435.488 378.913 434.951 379.664 434.408 380.414L434.328 380.521C433.759 381.302 433.186 382.084 432.608 382.856C432.573 382.901 432.542 382.95 432.506 382.994C431.968 383.713 431.431 384.424 430.893 385.134C430.879 385.148 430.871 385.161 430.862 385.174C430.568 385.552 430.279 385.934 429.986 386.311C429.777 386.582 429.568 386.853 429.355 387.119C429.275 387.23 429.191 387.337 429.106 387.443C429.088 387.47 429.066 387.492 429.048 387.519C428.862 387.754 428.675 387.994 428.484 388.229C428.102 388.722 427.711 389.215 427.315 389.704C426.648 390.534 425.977 391.36 425.297 392.181C424.733 392.865 424.168 393.545 423.595 394.219C423.324 394.544 423.048 394.868 422.773 395.187C422.497 395.512 422.222 395.836 421.946 396.156C421.764 396.369 421.577 396.582 421.395 396.795C421.257 396.955 421.115 397.115 420.973 397.274C420.586 397.723 420.195 398.167 419.804 398.607C419.764 398.655 419.719 398.7 419.679 398.749C419.128 399.37 418.577 399.983 418.022 400.596C417.897 400.738 417.773 400.876 417.644 401.013C417.604 401.058 417.559 401.107 417.519 401.151C417.075 401.639 416.626 402.123 416.177 402.607C415.591 403.251 414.991 403.886 414.386 404.521C413.999 404.934 413.604 405.347 413.208 405.756C412.697 406.289 412.186 406.817 411.671 407.345C411.395 407.63 411.115 407.914 410.835 408.194C410.448 408.589 410.062 408.98 409.671 409.366C409.075 409.961 408.479 410.556 407.875 411.142C407.288 411.715 406.697 412.288 406.106 412.856C406.088 412.869 406.075 412.883 406.057 412.9C405.995 412.958 405.937 413.016 405.875 413.074C405.479 413.456 405.084 413.833 404.684 414.206C404.213 414.654 403.733 415.098 403.257 415.543C402.777 415.991 402.297 416.431 401.813 416.87C401.457 417.194 401.102 417.519 400.742 417.843C400.724 417.86 400.702 417.878 400.684 417.896C400.435 418.118 400.191 418.34 399.942 418.558C399.635 418.833 399.328 419.108 399.022 419.379C398.933 419.455 398.848 419.535 398.759 419.61C398.337 419.983 397.911 420.356 397.484 420.729C397.302 420.884 397.124 421.04 396.942 421.195C396.391 421.675 395.835 422.15 395.279 422.621C395.004 422.856 394.724 423.096 394.444 423.327C393.946 423.744 393.444 424.166 392.942 424.579C392.568 424.89 392.199 425.192 391.826 425.494C391.186 426.018 390.542 426.537 389.897 427.057C389.871 427.074 389.844 427.097 389.817 427.119C389.173 427.638 388.519 428.153 387.866 428.66C387.839 428.682 387.817 428.704 387.791 428.722C387.333 429.081 386.875 429.437 386.413 429.792C386.075 430.05 385.737 430.307 385.399 430.569C384.271 431.431 383.128 432.283 381.982 433.122C381.551 433.442 381.115 433.757 380.679 434.073C380.524 434.188 380.364 434.303 380.204 434.414C379.453 434.956 378.702 435.494 377.942 436.022C377.564 436.293 377.182 436.559 376.799 436.821C376.786 436.83 376.777 436.839 376.764 436.848C376.608 436.959 376.448 437.07 376.288 437.176C375.728 437.563 375.164 437.949 374.599 438.335C374.511 438.393 374.426 438.455 374.337 438.513C374.257 438.566 374.173 438.624 374.088 438.682C373.404 439.144 372.719 439.601 372.026 440.054C371.804 440.205 371.577 440.351 371.351 440.498C371.328 440.511 371.302 440.529 371.279 440.542C370.853 440.826 370.426 441.102 369.995 441.377C369.928 441.422 369.857 441.466 369.791 441.51C369.675 441.586 369.555 441.661 369.439 441.737C369.346 441.799 369.248 441.861 369.155 441.919C368.457 442.367 367.759 442.807 367.057 443.242C366.862 443.371 366.662 443.491 366.462 443.615C365.999 443.904 365.533 444.192 365.066 444.472C364.759 444.659 364.448 444.85 364.137 445.036C363.577 445.378 363.013 445.715 362.448 446.048C361.951 446.346 361.453 446.639 360.951 446.928C360.884 446.968 360.817 447.008 360.751 447.048C360.626 447.119 360.497 447.194 360.373 447.265C359.911 447.536 359.448 447.802 358.986 448.064C357.955 448.655 356.915 449.241 355.871 449.814C355.337 450.116 354.799 450.409 354.262 450.698C354.186 450.742 354.106 450.786 354.022 450.826C353.706 450.995 353.391 451.168 353.071 451.337C352.728 451.524 352.382 451.706 352.035 451.888C351.711 452.056 351.386 452.23 351.062 452.398C348.657 453.655 346.226 454.876 343.768 456.053C343.004 456.421 342.235 456.786 341.466 457.145C340.786 457.465 340.102 457.776 339.422 458.087C338.813 458.362 338.208 458.633 337.599 458.904C337.231 459.072 336.862 459.237 336.488 459.396C335.506 459.827 334.524 460.253 333.537 460.671C333.515 460.68 333.488 460.689 333.466 460.702C333.115 460.849 332.764 460.999 332.413 461.142C331.951 461.337 331.479 461.528 331.013 461.719C329.879 462.185 328.742 462.642 327.599 463.091C326.551 463.504 325.497 463.908 324.439 464.303C324.422 464.312 324.404 464.317 324.386 464.321C323.893 464.507 323.404 464.69 322.911 464.872C322.275 465.107 321.639 465.338 320.999 465.564C320.493 465.746 319.982 465.928 319.471 466.106C317.275 466.879 315.066 467.62 312.844 468.322C312.235 468.517 311.626 468.708 311.013 468.899C310.053 469.197 309.093 469.49 308.128 469.774C307.022 470.098 305.915 470.418 304.799 470.729C303.902 470.977 303.004 471.226 302.102 471.466C301.199 471.705 300.302 471.941 299.395 472.172C298.746 472.336 298.093 472.5 297.439 472.66C296.791 472.82 296.133 472.975 295.479 473.131C294.639 473.331 293.795 473.526 292.951 473.713C290.808 474.197 288.653 474.649 286.488 475.071C286.097 475.151 285.702 475.227 285.306 475.302C284.453 475.467 283.595 475.626 282.737 475.777C281.919 475.924 281.097 476.066 280.275 476.204C280.182 476.221 280.084 476.239 279.986 476.252C279.066 476.408 278.137 476.559 277.208 476.701C276.466 476.816 275.724 476.932 274.977 477.038C274.871 477.056 274.759 477.07 274.653 477.087C273.973 477.185 273.284 477.283 272.599 477.371C271.159 477.571 269.715 477.753 268.266 477.922C267.817 477.975 267.373 478.029 266.928 478.077C266.093 478.171 265.257 478.26 264.417 478.344C264.119 478.375 263.826 478.402 263.528 478.428C262.977 478.486 262.426 478.535 261.875 478.584C261.857 478.584 261.839 478.588 261.822 478.588C261.422 478.628 261.022 478.664 260.617 478.695C260.213 478.73 259.808 478.761 259.408 478.792C258.773 478.846 258.137 478.895 257.502 478.939C257.422 478.943 257.346 478.952 257.266 478.957C256.622 479.001 255.977 479.046 255.333 479.085C254.608 479.13 253.884 479.174 253.159 479.214C252.568 479.245 251.977 479.276 251.386 479.303C250.733 479.334 250.079 479.361 249.422 479.383C249.017 479.401 248.608 479.414 248.199 479.427C246.382 479.494 244.559 479.534 242.733 479.552C241.826 479.565 240.915 479.569 240.004 479.569H239.439C236.626 479.561 233.822 479.507 231.035 479.405C228.426 479.307 225.831 479.174 223.248 478.997C222.688 478.957 222.128 478.917 221.568 478.868C220.244 478.77 218.924 478.659 217.608 478.539C214.679 478.268 211.759 477.944 208.862 477.567C203.186 476.834 197.573 475.902 192.026 474.778C186.991 473.757 182.013 472.58 177.097 471.244H177.079C173.582 470.293 170.119 469.276 166.688 468.175C162.644 466.879 158.653 465.48 154.711 463.979C154.679 463.513 154.653 463.042 154.626 462.576C154.422 459.166 154.217 455.76 154.013 452.349C153.973 451.652 153.928 450.951 153.888 450.254C153.711 447.283 153.533 444.308 153.355 441.337C152.919 434.055 152.484 426.772 152.048 419.49C151.493 410.205 150.937 400.92 150.382 391.64C150.102 386.902 149.817 382.164 149.533 377.426C147.888 349.908 146.239 322.395 144.595 294.878C144.133 287.125 143.671 279.376 143.204 271.627C140.679 229.381 138.151 187.134 135.622 144.888C135.622 144.861 135.617 144.839 135.617 144.812H135.622C135.622 144.812 135.626 144.803 135.626 144.799L138.546 140.043L138.559 140.017C141.195 135.723 143.831 131.429 146.471 127.139C146.471 127.139 146.472 127.138 146.475 127.135C146.475 127.135 146.484 127.117 146.493 127.104C147.026 126.234 147.555 125.377 148.084 124.506H148.088L223.897 101.553L240.213 96.6157L241.413 96.2515L254.262 92.3617L255.466 91.9976L266.999 88.5029L268.199 88.1388L281.044 84.2534L282.244 83.8893L298.657 78.9204L388.795 51.6294C414.742 72.1354 436.346 97.8901 452.004 127.286C455.635 134.093 458.942 141.091 461.906 148.267C465.071 155.922 467.853 163.773 470.226 171.801C471.742 176.935 473.093 182.139 474.266 187.414C475.057 190.962 475.768 194.537 476.404 198.142C477.608 205.029 478.524 212.019 479.124 219.097C479.568 224.23 479.844 229.412 479.951 234.638C479.955 234.834 479.959 235.025 479.959 235.22C479.964 235.318 479.964 235.411 479.964 235.504C479.977 236.01 479.986 236.521 479.991 237.032C479.995 237.112 479.995 237.187 479.995 237.267C479.995 237.431 479.999 237.596 479.999 237.76C480.004 238.435 480.008 239.11 480.008 239.785H479.999Z" fill="#D3F0D6"/>
<path d="M155.658 479.973V480H155.645C155.645 480 155.649 479.982 155.658 479.973Z" fill="#3B5737"/>
<path d="M463.301 327.835C461.985 331.156 460.603 334.438 459.145 337.684C458.736 338.594 458.323 339.504 457.901 340.41C457.483 341.316 457.056 342.217 456.625 343.114C456.319 343.758 456.007 344.402 455.692 345.041C455.492 345.454 455.287 345.867 455.079 346.28C455.056 346.329 455.034 346.378 455.007 346.427C454.67 347.111 454.323 347.794 453.976 348.474C453.527 349.362 453.07 350.246 452.603 351.125C452.141 352.004 451.674 352.883 451.199 353.758C450.741 354.606 450.274 355.454 449.803 356.298C449.736 356.422 449.67 356.542 449.599 356.662C449.185 357.399 448.772 358.136 448.35 358.869L448.296 358.962C448.043 359.406 447.785 359.85 447.527 360.29C447.305 360.676 447.079 361.063 446.852 361.444C446.816 361.502 446.781 361.564 446.745 361.622C446.363 362.27 445.976 362.919 445.585 363.563C445.447 363.793 445.305 364.024 445.167 364.255C444.865 364.748 444.563 365.237 444.261 365.729C444.101 365.996 443.936 366.258 443.767 366.52C443.425 367.066 443.083 367.617 442.736 368.158C442.679 368.256 442.616 368.349 442.554 368.447C442.532 368.483 442.51 368.518 442.487 368.549C442.079 369.193 441.661 369.837 441.243 370.476C441.043 370.792 440.834 371.107 440.625 371.418C440.199 372.075 439.763 372.728 439.323 373.376C438.821 374.122 438.319 374.868 437.807 375.605C437.754 375.685 437.701 375.765 437.643 375.84C437.11 376.617 436.567 377.39 436.021 378.158C435.487 378.913 434.95 379.664 434.407 380.414L434.327 380.521C433.759 381.302 433.185 382.084 432.607 382.856C432.572 382.901 432.541 382.95 432.505 382.994C431.967 383.713 431.43 384.424 430.892 385.134C430.879 385.148 430.87 385.161 430.861 385.174C430.567 385.552 430.279 385.934 429.985 386.311C429.776 386.582 429.567 386.853 429.354 387.119C429.274 387.23 429.19 387.337 429.105 387.443C429.087 387.47 429.065 387.492 429.047 387.519C428.861 387.754 428.674 387.994 428.483 388.229C428.101 388.722 427.71 389.215 427.314 389.704C426.647 390.534 425.976 391.36 425.296 392.181C424.732 392.865 424.167 393.544 423.594 394.219C423.323 394.544 423.047 394.868 422.772 395.187C422.496 395.512 422.221 395.836 421.945 396.156C421.763 396.369 421.576 396.582 421.394 396.795C421.256 396.955 421.114 397.115 420.972 397.274C420.585 397.723 420.194 398.167 419.803 398.607C419.763 398.655 419.719 398.7 419.679 398.749C419.127 399.37 418.576 399.983 418.021 400.596C417.896 400.738 417.772 400.876 417.643 401.013C417.603 401.058 417.559 401.107 417.519 401.151C417.074 401.639 416.625 402.123 416.176 402.607C415.59 403.251 414.99 403.886 414.385 404.521C413.999 404.934 413.603 405.347 413.207 405.756C412.696 406.289 412.185 406.817 411.67 407.345C411.394 407.63 411.114 407.914 410.834 408.194C410.447 408.589 410.061 408.98 409.67 409.366C409.074 409.961 408.479 410.556 407.874 411.142C407.287 411.715 406.696 412.288 406.105 412.856C406.087 412.869 406.074 412.883 406.056 412.9C405.994 412.958 405.936 413.016 405.874 413.074C405.479 413.456 405.083 413.833 404.683 414.206C404.212 414.654 403.732 415.098 403.256 415.543C402.776 415.991 402.296 416.431 401.812 416.87C401.456 417.194 401.101 417.519 400.741 417.843C400.723 417.86 400.701 417.878 400.683 417.896C400.434 418.118 400.19 418.34 399.941 418.558C399.634 418.833 399.327 419.108 399.021 419.379C398.932 419.455 398.847 419.534 398.759 419.61C398.336 419.983 397.91 420.356 397.483 420.729C397.301 420.884 397.123 421.04 396.941 421.195C396.39 421.675 395.834 422.15 395.279 422.621C395.003 422.856 394.723 423.096 394.443 423.327C393.945 423.744 393.443 424.166 392.941 424.579C392.567 424.89 392.199 425.192 391.825 425.494C391.185 426.018 390.541 426.537 389.896 427.057C389.87 427.074 389.843 427.097 389.816 427.119C389.172 427.638 388.519 428.153 387.865 428.66C387.839 428.682 387.816 428.704 387.79 428.722C387.332 429.081 386.874 429.437 386.412 429.792C386.074 430.05 385.736 430.307 385.399 430.569C384.27 431.43 383.127 432.283 381.981 433.122C381.55 433.442 381.114 433.757 380.679 434.073C380.523 434.188 380.363 434.303 380.203 434.414C379.452 434.956 378.701 435.494 377.941 436.022C377.563 436.293 377.181 436.559 376.799 436.821C376.785 436.83 376.776 436.839 376.763 436.848C376.607 436.959 376.447 437.07 376.287 437.176C375.727 437.563 375.163 437.949 374.599 438.335C374.51 438.393 374.425 438.455 374.336 438.513C374.256 438.566 374.172 438.624 374.087 438.682C373.403 439.144 372.719 439.601 372.025 440.054C371.803 440.205 371.576 440.351 371.35 440.498C371.327 440.511 371.301 440.529 371.279 440.542C370.785 440.871 370.287 441.191 369.79 441.51C369.674 441.586 369.554 441.661 369.439 441.737C369.345 441.799 369.247 441.861 369.154 441.919C368.456 442.367 367.759 442.807 367.056 443.242C366.861 443.371 366.661 443.491 366.461 443.615C365.999 443.904 365.532 444.192 365.065 444.472C364.759 444.659 364.447 444.85 364.136 445.036C363.576 445.378 363.012 445.715 362.447 446.048C361.95 446.346 361.452 446.639 360.95 446.928C360.883 446.968 360.816 447.008 360.75 447.048C360.625 447.119 360.496 447.194 360.372 447.265C359.91 447.536 359.447 447.802 358.985 448.064C357.954 448.655 356.914 449.241 355.87 449.814C355.336 450.116 354.799 450.409 354.261 450.698C354.185 450.742 354.105 450.786 354.021 450.826C353.705 450.995 353.39 451.168 353.07 451.337C352.727 451.524 352.381 451.706 352.034 451.888C351.71 452.056 351.385 452.23 351.061 452.398C348.656 453.655 346.225 454.876 343.767 456.053C343.003 456.421 342.234 456.785 341.465 457.145C340.181 457.745 338.892 458.331 337.599 458.904C337.23 459.072 336.861 459.237 336.487 459.396C335.505 459.827 334.523 460.253 333.536 460.671C333.514 460.68 333.487 460.689 333.465 460.702C332.283 459.61 331.127 458.544 329.994 457.5C325.492 453.353 321.363 449.548 317.585 446.066C313.981 442.745 310.696 439.716 307.71 436.963C303.59 433.167 300.043 429.894 297.012 427.101C292.701 423.122 289.434 420.107 287.074 417.927C284.914 415.933 283.51 414.632 282.745 413.922C281.603 412.86 280.639 411.946 280.381 411.702C279.661 411.018 278.919 410.307 278.159 409.575C277.567 409.002 276.963 408.416 276.345 407.816C274.781 406.289 273.145 404.663 271.456 402.954C271.23 402.727 271.003 402.496 270.781 402.266C267.096 398.527 263.163 394.388 259.123 389.908C258.35 389.051 257.572 388.18 256.794 387.297C255.003 385.276 253.194 383.185 251.385 381.04C250.212 379.65 249.034 378.234 247.861 376.795C246.505 375.134 245.154 373.443 243.807 371.72C243.234 370.991 242.665 370.259 242.096 369.517C236.71 362.501 231.47 355.041 226.701 347.271C224.523 343.727 222.443 340.117 220.496 336.458C214.016 324.3 208.954 311.587 206.443 298.803C206.114 297.16 205.834 295.517 205.603 293.874C205.492 293.137 205.394 292.409 205.314 291.676C204.767 287.125 204.572 282.582 204.772 278.066C204.772 278.066 205.105 271.223 206.625 264.611C209.821 250.726 226.554 218.666 259.501 208.462C265.003 206.757 269.679 206.055 272.585 205.731H272.59C280.674 204.825 288.852 205.274 297.007 206.788H297.012C297.981 206.965 298.945 207.161 299.914 207.374C301.092 207.627 302.274 207.902 303.447 208.204C315.825 211.322 328.079 216.73 339.772 223.408C343.905 225.766 347.967 228.284 351.945 230.913C358.012 234.927 363.874 239.203 369.461 243.586C373.572 246.81 377.536 250.087 381.323 253.355C382.003 253.941 382.674 254.527 383.341 255.113C386.354 257.755 389.252 260.389 392.016 262.968C392.394 263.324 392.772 263.674 393.141 264.025C393.616 264.474 394.083 264.913 394.55 265.357C399.83 270.384 404.581 275.189 408.683 279.505L408.727 279.549L409.23 280.051C413.234 284.021 416.999 287.449 420.216 290.242C424.159 293.67 427.292 296.148 429.065 297.524C429.599 297.937 430.007 298.252 430.279 298.465C433.336 300.832 438.336 305.037 446.834 312.706C450.35 315.876 454.461 319.638 459.279 324.105C460.567 325.295 461.91 326.542 463.301 327.835V327.835Z" fill="#FF6948"/>
<path d="M369.092 328.927C368.995 329.802 368.866 330.672 368.71 331.533C368.266 334.078 367.586 336.556 366.697 338.94C366.63 339.135 366.555 339.331 366.479 339.526C362.11 350.796 353.119 359.979 342.123 364.881C341.923 364.97 341.723 365.059 341.523 365.139C339.31 366.094 337.017 366.871 334.666 367.457C333.577 367.732 332.475 367.963 331.359 368.149H331.355C327.835 368.749 324.208 368.918 320.55 368.602C308.141 367.537 295.315 360.925 284.652 346.604C291.875 345.028 300.479 340.787 309.15 335.09C312.888 332.63 316.635 329.904 320.292 327.009H320.297C323.781 324.247 327.181 321.329 330.403 318.341C333.857 315.139 337.11 311.853 340.048 308.59C346.355 301.587 351.217 294.678 353.541 288.878C362.763 298.523 367.532 308.607 368.915 318.239C369.443 321.88 369.479 325.459 369.092 328.927V328.927Z" fill="#FBF8F4"/>
<path d="M331.355 368.149C327.835 368.749 324.208 368.917 320.551 368.602C320.408 366.076 319.688 362.594 318.875 360.37C322.431 360.636 329.213 365.148 331.355 368.149V368.149Z" fill="#B74E41"/>
<path d="M319.835 340.916C316.488 339.566 312.159 337.195 309.15 335.09C312.888 332.63 316.635 329.904 320.293 327.009C319.004 330.401 318.755 337.772 319.835 340.916V340.916Z" fill="#B74E41"/>
<path d="M344.209 319.962C341.267 318.43 333.964 317.586 330.404 318.341C333.858 315.139 337.111 311.854 340.049 308.59C341.68 311.871 343.369 316.467 344.209 319.962V319.962Z" fill="#B74E41"/>
<path opacity="0.3" d="M366.696 338.94C366.629 339.135 366.554 339.331 366.478 339.526C362.109 350.796 353.118 359.979 342.123 364.881C341.923 364.97 341.723 365.059 341.523 365.139C341.381 364.837 341.247 364.535 341.127 364.233C334.976 349.229 349.749 333.376 365.821 338.634C366.114 338.727 366.403 338.829 366.696 338.94V338.94Z" fill="#B74E41"/>
<path d="M342.123 364.881C341.923 364.97 341.723 365.059 341.523 365.139C339.31 366.093 337.017 366.871 334.666 367.457C334.355 365.663 333.475 363.141 332.652 361.702C334.635 361.28 338.479 362.648 341.128 364.233C341.483 364.446 341.821 364.664 342.123 364.881V364.881Z" fill="#B74E41"/>
<path d="M369.092 328.927C366.092 326.613 361.803 320.09 361.541 316.631C363.523 317.355 366.501 318.003 368.914 318.239C369.443 321.88 369.479 325.459 369.092 328.927Z" fill="#B74E41"/>
<path d="M368.711 331.534C368.266 334.078 367.586 336.556 366.697 338.94C366.631 339.136 366.555 339.331 366.48 339.526C366.262 339.26 366.044 338.963 365.822 338.634C364.075 336.014 362.413 331.662 362.875 329.509C364.333 330.339 366.911 331.236 368.711 331.534Z" fill="#B74E41"/>
<path d="M283.319 273.781C269.75 273.781 258.31 264.709 254.719 252.312C249.59 257.658 246.43 264.905 246.43 272.893C246.43 289.323 259.763 302.644 276.207 302.644C292.652 302.644 305.985 289.323 305.985 272.893C305.985 270.02 305.567 267.245 304.807 264.612C299.39 270.26 291.767 273.781 283.319 273.781Z" fill="#FBF8F4"/>
<path d="M274.874 283.106C280.029 283.106 284.208 278.931 284.208 273.781C284.208 268.631 280.029 264.456 274.874 264.456C269.72 264.456 265.541 268.631 265.541 273.781C265.541 278.931 269.72 283.106 274.874 283.106Z" fill="#FF6948"/>
<path d="M251.089 241C250.254 250.506 255.236 259.916 262.747 265.218C270.258 270.519 279.929 271.972 288.969 270.403C298.009 268.833 306.471 264.438 313.998 258.898" stroke="#B74E41" stroke-width="6" stroke-miterlimit="10"/>
<path d="M259.737 373.882C230.35 382.483 214.226 377.665 204.835 371.191C180.208 354.215 194.146 320.508 164.204 288.683C146.55 269.918 117.799 256.228 110.444 262.862C108.168 264.913 108.377 268.515 108.426 269.407C109.164 282.271 132.275 286.414 147.95 296.991C182.235 320.126 166.595 364.371 194.564 384.535C206.048 392.816 226.604 398.269 266.373 384.157C264.159 380.734 261.946 377.306 259.728 373.882H259.737Z" fill="#FF6948"/>
<path d="M452.827 244.9C453.267 252.009 452.364 259.034 448.92 266.014C447.24 269.42 444.889 272.95 441.538 276.414C435.924 282.222 427.502 287.839 414.742 292.355C408.96 294.398 402.289 296.218 394.582 297.724C391.942 298.239 389.178 298.718 386.289 299.158C385.964 299.207 385.636 299.256 385.307 299.304C385.658 295.241 386.004 291.178 386.356 287.115C392.613 285.828 398.089 284.3 402.88 282.586C421.058 276.099 429.431 267.04 433.591 259.034C433.862 258.51 434.116 257.99 434.356 257.471C440.756 243.586 436.013 230.486 431.978 214.954C428.684 202.258 425.867 187.938 429.991 170.229C430.231 169.208 430.493 168.173 430.778 167.125C431.64 163.977 432.693 160.816 433.907 157.703C438.529 145.785 445.382 134.55 451.996 127.286C455.627 134.093 458.933 141.091 461.898 148.267C458.089 153.298 453.871 158.604 450.551 164.168C450.018 165.056 449.511 165.949 449.031 166.85C447.369 169.976 446.098 173.067 445.164 176.122C441.578 187.814 442.831 199.035 445.276 209.923C446.804 216.725 448.796 223.399 450.364 229.976C451.564 235.002 452.52 239.976 452.827 244.9V244.9Z" fill="#FF6948"/>
<path d="M359.493 269.993C376.115 261.77 396.391 248.932 396.342 233.177C396.302 220.931 382.902 219.692 368.662 195.953C363.16 186.788 352.551 169.106 349.449 145.465C348.169 135.705 347.351 118.707 340.004 116.735C339.435 116.58 338.938 116.549 338.604 116.549L338.195 99.8394C339.831 100.021 342.298 100.47 344.995 101.704C362.844 109.884 358.426 138.054 368.186 165.585C382.493 205.949 413.32 208.48 412.409 232.609C411.986 243.763 404.849 259.9 371.195 278.714C367.293 275.806 363.395 272.897 359.493 269.993V269.993Z" fill="#FF6948"/>
<path d="M291.808 392.674C264.857 422.452 244.777 427.563 230.839 425.88C202.284 422.43 197.128 390.197 152.946 378.225C151.022 377.706 129.946 372.244 105.208 377.919C100.493 379.002 81.4972 383.358 81.195 390.481C81.075 393.332 83.995 395.574 84.7061 396.12C94.7283 403.82 113.115 392.652 125.666 389.522C166.057 379.442 193.826 440.676 238.839 440.933C254.991 441.026 277.488 433.291 304.706 398.176C300.408 396.347 296.106 394.513 291.808 392.683V392.674Z" fill="#FF6948"/>
<path d="M470.218 171.801C471.733 176.934 473.084 182.138 474.258 187.414L445.164 176.122L429.991 170.229L362.773 144.133L348.649 138.649L334.213 133.045H334.209L318.089 126.788L285.027 113.951L267.267 159.612C264.729 166.144 257.369 169.381 250.827 166.841L217.2 153.786C210.662 151.251 207.422 143.893 209.96 137.361L223.889 101.553L250.227 33.8406C252.764 27.3087 260.124 24.0671 266.667 26.6071L300.293 39.662C306.831 42.202 310.071 49.5553 307.529 56.0873L298.649 78.9201L289.773 101.748L318.636 112.952L333.12 118.578L345.64 123.436L357.747 128.138L360.151 129.071L433.907 157.703L450.551 164.168L470.218 171.801V171.801Z" fill="#C1A193"/>
<path d="M271.274 49.0774C272.436 46.119 270.979 42.779 268.018 41.6172C265.057 40.4555 261.714 41.9119 260.551 44.8703L224.648 136.214C223.485 139.172 224.943 142.512 227.904 143.674C230.865 144.835 234.208 143.379 235.371 140.421L271.274 49.0774Z" fill="#F8E4DA"/>
<path d="M291.617 57.3449C292.78 54.3866 291.322 51.0465 288.361 49.8848C285.4 48.723 282.057 50.1795 280.895 53.1379L244.672 145.295C243.509 148.254 244.967 151.594 247.928 152.756C250.889 153.917 254.232 152.461 255.395 149.502L291.617 57.3449Z" fill="#F8E4DA"/>
<path d="M155.658 479.973V480H155.645C155.645 480 155.649 479.982 155.658 479.973Z" fill="white"/>
<path d="M155.658 479.973C155.658 479.973 155.649 479.991 155.645 479.995H155.658V479.973Z" fill="#FF6948"/>
<path d="M239.832 436.075L237.961 440.911L236.09 445.759L235.374 447.607L231.921 456.55L229.899 461.776L228.912 464.325L224.845 474.853L223.245 478.996C222.685 478.956 222.125 478.916 221.565 478.868C220.241 478.77 218.921 478.659 217.605 478.539C214.677 478.268 211.757 477.944 208.859 477.566C203.183 476.834 197.57 475.901 192.023 474.778C186.988 473.757 182.01 472.58 177.094 471.243H177.077C173.579 470.293 170.117 469.276 166.685 468.175C162.641 466.878 158.65 465.48 154.708 463.979C151.081 462.607 147.503 461.146 143.965 459.596C141.845 458.672 139.739 457.718 137.654 456.727L146.437 434.006L152.045 419.49L157.859 404.45C158.397 403.056 159.965 402.363 161.361 402.9L177.948 409.299L238.285 432.576C239.681 433.113 240.374 434.681 239.837 436.075H239.832Z" fill="white"/>
<path d="M164.322 421.613L162.93 425.217C162.347 426.725 163.098 428.419 164.607 429.001L216.708 449.097C218.217 449.679 219.913 448.929 220.495 447.421L221.888 443.817C222.471 442.31 221.72 440.616 220.211 440.033L168.11 419.937C166.601 419.355 164.905 420.105 164.322 421.613Z" fill="#4D8344" fill-opacity="0.6"/>
<path d="M158.031 437.887L156.639 441.491C156.056 442.999 156.807 444.693 158.316 445.275L210.417 465.372C211.926 465.954 213.622 465.203 214.204 463.696L215.597 460.092C216.18 458.584 215.429 456.89 213.92 456.308L161.819 436.211C160.31 435.629 158.614 436.38 158.031 437.887Z" fill="#4D8344" fill-opacity="0.6"/>
<path d="M209.311 476.394L208.858 477.567C203.183 476.834 197.569 475.901 192.023 474.778C186.987 473.757 182.009 472.58 177.094 471.243H177.076L167.489 467.54L154.618 462.576L152.027 461.576C150.52 460.99 149.769 459.299 150.351 457.789L151.743 454.188C152.129 453.18 153.014 452.514 154.005 452.349C154.503 452.269 155.027 452.314 155.529 452.509L177.276 460.897L199.654 469.534L207.631 472.611C209.143 473.193 209.894 474.885 209.311 476.394V476.394Z" fill="#4D8344" fill-opacity="0.6"/>
<path d="M369.995 441.377C369.928 441.421 369.857 441.466 369.791 441.51C369.675 441.586 369.555 441.661 369.44 441.737C369.346 441.799 369.248 441.861 369.155 441.919C368.457 442.367 367.76 442.807 367.057 443.242C366.862 443.371 366.662 443.491 366.462 443.615C366 443.904 365.533 444.192 365.066 444.472C364.76 444.659 364.448 444.849 364.137 445.036C363.577 445.378 363.013 445.715 362.448 446.048C361.951 446.346 361.453 446.639 360.951 446.928C360.884 446.968 360.817 447.008 360.751 447.047C360.626 447.119 360.497 447.194 360.373 447.265C359.911 447.536 359.448 447.802 358.986 448.064C357.955 448.655 356.915 449.241 355.871 449.814C355.337 450.116 354.8 450.409 354.262 450.698C354.186 450.742 354.106 450.786 354.022 450.826C353.706 450.995 353.391 451.168 353.071 451.337C352.728 451.523 352.382 451.705 352.035 451.888C351.711 452.056 351.386 452.229 351.062 452.398C348.657 453.655 346.226 454.876 343.768 456.053C343.004 456.421 342.235 456.785 341.466 457.145C340.786 457.465 340.102 457.776 339.422 458.086C338.813 458.362 338.208 458.633 337.6 458.903C337.231 459.072 336.862 459.236 336.488 459.396C335.506 459.827 334.524 460.253 333.537 460.671C333.515 460.68 333.488 460.689 333.466 460.702C333.115 460.848 332.764 460.999 332.413 461.141C331.951 461.337 331.48 461.528 331.013 461.719C329.88 462.185 328.742 462.642 327.6 463.091C326.551 463.504 325.497 463.908 324.44 464.303C324.422 464.312 324.404 464.316 324.386 464.321C323.893 464.507 323.404 464.689 322.911 464.871C322.275 465.107 321.64 465.338 321 465.564C320.493 465.746 319.982 465.928 319.471 466.106C317.275 466.879 315.066 467.62 312.844 468.322C312.235 468.517 311.626 468.708 311.013 468.899C310.053 469.196 309.093 469.49 308.128 469.774C307.022 470.098 305.915 470.418 304.8 470.728C303.902 470.977 303.004 471.226 302.102 471.466C301.2 471.705 300.302 471.941 299.395 472.172C298.746 472.336 298.093 472.5 297.44 472.66C296.791 472.82 296.133 472.975 295.48 473.131C294.64 473.331 293.795 473.526 292.951 473.712C290.808 474.196 288.653 474.649 286.488 475.071C286.097 475.151 285.702 475.227 285.306 475.302C284.453 475.466 283.595 475.626 282.737 475.777C281.92 475.924 281.097 476.066 280.275 476.204C280.182 476.221 280.084 476.239 279.986 476.252C279.066 476.408 278.137 476.559 277.208 476.701C276.466 476.816 275.724 476.932 274.977 477.038C274.871 477.056 274.76 477.069 274.653 477.087C273.973 477.185 273.284 477.283 272.6 477.371C271.16 477.571 269.715 477.753 268.266 477.922C267.817 477.975 267.373 478.029 266.928 478.077C266.093 478.171 265.257 478.259 264.417 478.344C264.12 478.375 263.826 478.402 263.528 478.428C262.977 478.486 262.426 478.535 261.875 478.584C261.857 478.584 261.84 478.588 261.822 478.588C261.422 478.628 261.022 478.664 260.617 478.695C260.213 478.73 259.808 478.761 259.408 478.792C258.773 478.846 258.137 478.894 257.502 478.939C257.422 478.943 257.346 478.952 257.266 478.957C256.622 479.001 255.977 479.045 255.333 479.085C254.608 479.13 253.884 479.174 253.16 479.214C252.568 479.245 251.977 479.276 251.386 479.303C250.733 479.334 250.08 479.361 249.422 479.383C249.017 479.401 248.608 479.414 248.2 479.427C246.382 479.494 244.56 479.534 242.733 479.552C241.826 479.565 240.915 479.569 240.004 479.569H239.44C236.626 479.56 233.822 479.507 231.035 479.405L231.284 479.099L241.155 467.016L241.635 466.426L248.444 458.086L252.035 453.695L258.56 445.702L260.951 442.78L283.666 414.965L284.6 413.82L291.955 404.814C293.488 402.936 296.626 402.416 298.96 403.651L306.808 407.825L307.053 407.954L315.168 412.261L318.262 413.904L325.106 417.536L333.226 421.848L336.506 423.589L341.973 426.497L346.24 428.762L370 441.377H369.995Z" fill="white"/>
<path d="M314.635 440.613L310.635 445.511L305.479 451.825L300.768 457.594L288.733 472.323L286.671 474.849L286.488 475.071C286.097 475.151 285.702 475.227 285.306 475.302C284.453 475.466 283.595 475.626 282.737 475.777C281.919 475.924 281.097 476.066 280.275 476.204C280.182 476.221 280.084 476.239 279.986 476.252C279.066 476.408 278.137 476.559 277.208 476.701C276.466 476.816 275.724 476.932 274.977 477.038C274.871 477.056 274.759 477.069 274.653 477.087C273.973 477.185 273.284 477.283 272.599 477.371C271.159 477.571 269.715 477.753 268.266 477.922C267.817 477.975 267.373 478.029 266.928 478.077C266.093 478.171 265.257 478.259 264.417 478.344C264.119 478.375 263.826 478.402 263.528 478.428C262.977 478.486 262.426 478.535 261.875 478.584L266.697 472.678L267.439 471.772L273.991 463.748L277.675 459.237L279.795 456.643L285.222 450L295.262 437.709L298.982 433.153L299.466 432.558C300.568 431.208 302.822 430.835 304.493 431.723L313.604 436.559C315.275 437.447 315.742 439.263 314.639 440.613H314.635Z" fill="#4D8344" fill-opacity="0.6"/>
<path d="M341.876 455.08L339.422 458.087C338.813 458.362 338.209 458.633 337.6 458.904C337.231 459.072 336.862 459.237 336.489 459.396C335.507 459.827 334.524 460.253 333.538 460.671C333.516 460.68 333.489 460.689 333.467 460.702C333.116 460.849 332.764 460.999 332.413 461.142C331.951 461.337 331.48 461.528 331.013 461.719C329.88 462.185 328.742 462.642 327.6 463.091C326.551 463.504 325.498 463.908 324.44 464.303C324.422 464.312 324.404 464.317 324.387 464.321C323.893 464.507 323.404 464.69 322.911 464.872C322.276 465.107 321.64 465.338 321 465.564C320.493 465.746 319.982 465.928 319.471 466.106C317.276 466.879 315.067 467.62 312.844 468.322C312.236 468.517 311.627 468.708 311.013 468.899C310.053 469.197 309.093 469.49 308.129 469.774L320.236 454.947L326.707 447.025C327.302 446.297 328.236 445.849 329.236 445.738C330.076 445.64 330.964 445.782 331.733 446.191L340.84 451.026C342.516 451.914 342.978 453.73 341.876 455.08V455.08Z" fill="#4D8344" fill-opacity="0.6"/>
<path d="M480 239.784V240.322C479.995 242.649 479.955 244.962 479.884 247.271C479.715 252.733 479.369 258.155 478.84 263.519C478.782 264.105 478.72 264.691 478.657 265.277C478.617 265.681 478.573 266.081 478.529 266.485C478.506 266.667 478.489 266.853 478.466 267.036C478.413 267.528 478.355 268.021 478.293 268.514C478.275 268.687 478.253 268.861 478.231 269.034C478.151 269.691 478.066 270.348 477.982 271.001C477.946 271.29 477.911 271.574 477.871 271.862C477.849 272.009 477.831 272.155 477.809 272.302C477.8 272.382 477.791 272.457 477.777 272.533C477.751 272.759 477.715 272.986 477.684 273.208C477.618 273.71 477.546 274.211 477.471 274.709C477.444 274.908 477.417 275.104 477.386 275.304C477.311 275.792 477.24 276.276 477.164 276.765C476.871 278.656 476.555 280.543 476.217 282.422C475.524 286.272 474.742 290.086 473.871 293.865C473.72 294.509 473.569 295.157 473.417 295.796C473.324 296.187 473.231 296.573 473.133 296.96C472.995 297.528 472.853 298.092 472.711 298.656C472.524 299.411 472.329 300.166 472.129 300.916C471.72 302.475 471.298 304.025 470.853 305.57C470.635 306.338 470.413 307.102 470.186 307.866C470.186 307.874 470.182 307.883 470.178 307.892C469.724 309.429 469.257 310.961 468.769 312.484C468.484 313.381 468.195 314.269 467.902 315.152C467.755 315.596 467.609 316.036 467.458 316.48C467.422 316.587 467.386 316.689 467.351 316.795C467.289 316.982 467.222 317.164 467.16 317.35C467.062 317.648 466.96 317.936 466.862 318.234C466.844 318.274 466.831 318.318 466.817 318.358C466.729 318.616 466.64 318.873 466.546 319.131C466.395 319.571 466.24 320.01 466.08 320.45C465.769 321.329 465.449 322.204 465.124 323.079C464.533 324.677 463.924 326.258 463.302 327.834C461.986 331.156 460.604 334.437 459.146 337.683C458.737 338.593 458.324 339.504 457.902 340.41C457.484 341.315 457.058 342.217 456.626 343.114C456.32 343.758 456.009 344.402 455.693 345.041C455.493 345.454 455.289 345.867 455.08 346.28C455.057 346.329 455.035 346.378 455.009 346.426C454.671 347.11 454.324 347.794 453.977 348.474C453.529 349.362 453.071 350.245 452.604 351.124C452.142 352.004 451.675 352.883 451.2 353.758C450.742 354.606 450.275 355.454 449.804 356.298C449.737 356.422 449.671 356.542 449.6 356.662C449.186 357.399 448.773 358.136 448.351 358.869L448.297 358.962L429.28 348.864L404.111 335.494C401.777 334.255 401.133 331.724 402.666 329.846L412.96 317.239L420.933 307.479L423.426 304.424L425.435 301.969L429.066 297.524L443.049 280.401L454.529 266.347L465.738 252.626L479.951 235.224C479.955 235.317 479.955 235.411 479.955 235.504C479.969 236.01 479.977 236.521 479.982 237.031C479.986 237.111 479.986 237.187 479.986 237.267C479.986 237.431 479.991 237.595 479.991 237.76C479.995 238.435 480 239.11 480 239.784V239.784Z" fill="#FBF8F4"/>
<path d="M477.387 275.304C477.311 275.792 477.24 276.276 477.165 276.765C476.871 278.656 476.556 280.543 476.218 282.422C475.525 286.272 474.742 290.086 473.871 293.865C473.72 294.509 473.569 295.157 473.418 295.796C473.325 296.187 473.231 296.574 473.134 296.96C472.996 297.528 472.854 298.092 472.711 298.656C472.525 299.411 472.329 300.166 472.129 300.916C471.72 302.475 471.298 304.025 470.854 305.57C470.636 306.338 470.414 307.102 470.187 307.866C470.187 307.874 470.182 307.883 470.178 307.892C469.725 309.429 469.258 310.961 468.769 312.484L459.729 323.554L453.578 331.089L450.662 334.655C449.56 336.005 447.307 336.378 445.636 335.49L436.525 330.65C434.854 329.761 434.387 327.945 435.494 326.595L442.049 318.572L442.102 318.505L452.614 305.632L464.098 291.574L475.76 277.297L477.387 275.304Z" fill="#F8E4DA"/>
<path d="M480 239.785V240.322C479.996 242.649 479.956 244.962 479.885 247.271C479.716 252.733 479.369 258.155 478.84 263.519C478.742 264.509 478.64 265.495 478.529 266.485C478.436 267.333 478.338 268.186 478.231 269.034C478.116 269.98 477.996 270.921 477.871 271.863C477.809 272.311 477.751 272.76 477.685 273.208C477.591 273.91 477.489 274.607 477.387 275.304C477.311 275.792 477.24 276.276 477.165 276.765C476.871 278.656 476.556 280.544 476.218 282.422C475.525 286.272 474.742 290.086 473.871 293.865C473.72 294.509 473.569 295.157 473.418 295.797C473.325 296.187 473.231 296.574 473.133 296.96C472.996 297.528 472.853 298.092 472.711 298.656C472.525 299.411 472.329 300.166 472.129 300.916C471.72 302.475 471.298 304.025 470.853 305.57C470.636 306.338 470.413 307.102 470.187 307.866C470.187 307.875 470.182 307.884 470.178 307.892C469.725 309.429 469.258 310.961 468.769 312.484C468.485 313.381 468.196 314.269 467.902 315.153C467.662 315.89 467.413 316.618 467.16 317.351C467.049 317.688 466.933 318.021 466.818 318.359C466.578 319.056 466.329 319.753 466.08 320.45C465.769 321.329 465.449 322.204 465.125 323.079L462.502 324.073C461.52 324.442 460.458 324.207 459.729 323.554C459.418 323.274 459.165 322.919 459.009 322.502L455.413 313.021L452.613 305.632L449.311 296.92L443.049 280.402L441.538 276.414L434.356 257.471L420.92 222.032C420.387 220.633 421.093 219.07 422.493 218.542L431.978 214.954L445.276 209.923L476.396 198.142C477.6 205.029 478.516 212.019 479.116 219.097C479.56 224.23 479.836 229.412 479.942 234.638C479.947 234.834 479.951 235.025 479.951 235.22C479.951 235.22 479.956 235.22 479.951 235.224C479.969 235.904 479.978 236.583 479.987 237.267C479.996 238.106 480 238.945 480 239.785V239.785Z" fill="white"/>
<path d="M479.116 219.097C479.561 224.23 479.836 229.412 479.943 234.638L452.828 244.9L449.948 245.988C448.432 246.561 446.743 245.802 446.17 244.287L442.988 235.899C442.419 234.39 443.179 232.698 444.69 232.125L450.365 229.976L479.116 219.097V219.097Z" fill="#4D8344" fill-opacity="0.6"/>
<path d="M479.885 247.271C479.716 252.733 479.37 258.155 478.841 263.519L466.69 268.115L459.383 270.881C457.872 271.454 456.179 270.695 455.605 269.181L454.53 266.348L452.427 260.793C451.854 259.283 452.614 257.591 454.13 257.018L465.739 252.627L474.685 249.239L479.885 247.271V247.271Z" fill="#4D8344" fill-opacity="0.6"/>
<path d="M477.165 276.765C476.871 278.656 476.556 280.543 476.218 282.422C475.525 286.272 474.742 290.086 473.871 293.865L470.707 295.059L468.822 295.774C467.307 296.347 465.618 295.583 465.045 294.074L464.098 291.574L461.862 285.686C461.289 284.171 462.054 282.484 463.565 281.911L475.76 277.297L477.165 276.765Z" fill="#4D8344" fill-opacity="0.6"/>
<path d="M357.746 128.138C359.101 116.442 353.817 105.892 344.995 101.7C344.328 101.385 335.137 97.1929 327.106 101.909C316.55 108.108 315.999 123 321.31 131.784C324.999 138 334.499 136.5 334.212 133.045C332.181 129.36 331.79 126.167 331.728 124.36C331.657 122.419 331.617 120.403 332.946 118.778C334.257 117.179 336.199 116.802 337.061 116.638C344.079 115.283 357.11 127.53 357.75 128.138H357.746Z" fill="#FF6948"/>
<path d="M156.08 448.18L153.88 450.253L143.96 459.596C141.84 458.672 139.734 457.718 137.649 456.727C136.165 456.03 134.689 455.315 133.223 454.587C131.089 453.526 128.974 452.434 126.876 451.31C125.223 450.431 123.578 449.525 121.947 448.597C119.907 447.451 117.885 446.266 115.885 445.054C114.298 444.099 112.729 443.122 111.169 442.127C109.223 440.888 107.294 439.623 105.387 438.326C102.756 436.546 100.165 434.712 97.6094 432.82L120.894 410.889C121.978 409.863 123.694 409.912 124.72 411L146.432 434.006L153.347 441.337L156.196 444.356C157.223 445.444 157.169 447.154 156.08 448.18V448.18Z" fill="#FBF8F4"/>
<path d="M122.458 431.497L111.169 442.127C109.222 440.888 107.293 439.623 105.387 438.326L117.836 426.599C119.013 425.489 120.867 425.547 121.978 426.719L122.582 427.358C123.689 428.535 123.636 430.387 122.458 431.497V431.497Z" fill="#F8E4DA"/>
<path d="M130.76 440.293L121.947 448.597C119.907 447.451 117.885 446.266 115.885 445.053L126.138 435.395C127.316 434.285 129.169 434.343 130.276 435.515L130.88 436.155C131.991 437.331 131.938 439.183 130.76 440.293V440.293Z" fill="#F8E4DA"/>
<path d="M139.064 449.09L133.224 454.587C131.09 453.526 128.975 452.434 126.877 451.31L134.437 444.192C135.615 443.082 137.468 443.14 138.579 444.312L139.184 444.952C140.295 446.128 140.237 447.98 139.064 449.09V449.09Z" fill="#F8E4DA"/>
<path d="M299.395 472.172C298.093 472.505 296.791 472.824 295.48 473.131C288.751 474.721 281.915 476.031 274.978 477.038C274.871 477.056 274.76 477.07 274.653 477.087C267.009 478.193 259.249 478.939 251.387 479.303C247.613 479.481 243.822 479.57 240.004 479.57H239.44C233.995 479.556 228.6 479.361 223.249 478.997C222.689 478.957 222.129 478.917 221.569 478.868C220.244 478.77 218.924 478.659 217.609 478.539L213.813 464.432L213.56 463.491L211.369 455.347L211.333 455.209C210.947 453.766 211.8 452.283 213.249 451.892L231.009 447.128L236.093 445.76L252.124 441.457L285.898 432.394C287.031 432.088 288.191 432.55 288.827 433.464C289 433.713 289.133 433.993 289.218 434.304L293.729 451.088L294.338 453.349L298.169 467.598L298.622 469.285L299.4 472.172H299.395Z" fill="#FBF8F4"/>
<path d="M275.761 444.774L226.727 457.937C225.165 458.357 224.239 459.962 224.658 461.523L224.887 462.372C225.307 463.933 226.913 464.858 228.475 464.439L277.509 451.275C279.072 450.856 279.998 449.25 279.578 447.69L279.35 446.841C278.93 445.28 277.323 444.355 275.761 444.774Z" fill="#F8E4DA"/>
<path d="M278.906 456.454L229.872 469.618C228.309 470.037 227.383 471.642 227.803 473.203L228.031 474.052C228.451 475.613 230.058 476.538 231.62 476.119L280.654 462.955C282.216 462.536 283.142 460.931 282.723 459.37L282.494 458.521C282.074 456.96 280.468 456.035 278.906 456.454Z" fill="#F8E4DA"/>
<path d="M283.782 474.636L275.022 476.99L274.653 477.087C267.008 478.193 259.248 478.939 251.386 479.303C247.613 479.481 243.822 479.57 240.004 479.57H239.439L254.462 475.538L274.586 470.134H274.591L282.035 468.135C282.124 468.109 282.213 468.091 282.302 468.078C283.777 467.82 285.231 468.73 285.626 470.2L285.711 470.52L285.853 471.053C286.275 472.611 285.346 474.219 283.786 474.636H283.782Z" fill="#F8E4DA"/>
<path d="M42.8137 297.995C61.9071 290.779 83.3382 283.75 106.96 277.635C126.383 272.609 144.76 268.857 161.823 266.046C161.951 266.01 162.649 265.837 163.36 266.246C163.809 266.503 164.16 266.934 164.307 267.476C167.671 274.722 171.014 283.084 173.898 292.511C178.427 307.298 180.627 320.774 181.654 331.991C181.689 332.12 181.863 332.817 181.454 333.527C181.196 333.976 180.765 334.327 180.223 334.473L175.916 335.628C174.836 335.916 173.72 335.277 173.431 334.198L167.254 311.219C166.965 310.139 165.849 309.496 164.769 309.789L160.16 311.023C159.08 311.312 158.436 312.426 158.729 313.505L164.907 336.485C165.196 337.564 164.556 338.678 163.476 338.967C153.996 342.617 143.303 346.2 131.471 349.331C120.471 352.244 110.143 354.326 100.694 355.818C100.565 355.854 99.8671 356.027 99.1559 355.619C98.7071 355.361 98.3559 354.93 98.2093 354.389L91.3871 329.016C91.0982 327.937 89.9826 327.293 88.9026 327.586L82.6493 329.265C81.5693 329.553 80.9248 330.668 81.2182 331.747L88.0404 357.12C88.3293 358.199 87.6893 359.313 86.6093 359.602C82.3693 361.329 77.4226 363.021 71.8271 364.393C68.0537 365.317 64.4982 365.965 61.2137 366.422C61.0848 366.458 60.3871 366.631 59.676 366.222C59.2271 365.965 58.876 365.534 58.7293 364.992C53.6893 354.584 48.4448 341.214 44.956 325.179C43.0093 316.223 41.9248 307.91 41.3782 300.473C41.3426 300.344 41.1693 299.647 42.8093 297.99L42.8137 297.995Z" fill="white"/>
<path d="M78.6218 363.141L70.3418 332.364" stroke="#D3F0D6" stroke-miterlimit="10"/>
<path d="M68.1779 365.947L59.9023 335.166" stroke="#D3F0D6" stroke-miterlimit="10"/>
<path d="M121.067 351.747L112.791 320.97" stroke="#D3F0D6" stroke-miterlimit="10"/>
<path d="M110.151 354.677L101.871 323.9" stroke="#D3F0D6" stroke-miterlimit="10"/>
<path d="M144.028 345.583L135.752 314.807" stroke="#D3F0D6" stroke-miterlimit="10"/>
<path d="M154.907 342.666L146.627 311.885" stroke="#D3F0D6" stroke-miterlimit="10"/>
<path d="M133.299 348.465L125.023 317.688" stroke="#D3F0D6" stroke-miterlimit="10"/>
<path d="M138.063 281.664L54.0475 304.218C51.9923 304.77 50.7739 306.882 51.3261 308.935L51.7101 310.363C52.2624 312.417 54.3762 313.634 56.4314 313.082L140.447 290.528C142.502 289.976 143.721 287.864 143.168 285.811L142.784 284.383C142.232 282.329 140.118 281.112 138.063 281.664Z" fill="#4D8344" fill-opacity="0.6"/>
<path d="M156.264 291.574L72.2487 314.129C70.1934 314.681 68.975 316.793 69.5273 318.846L69.9113 320.274C70.4635 322.327 72.5773 323.545 74.6326 322.993L158.648 300.438C160.703 299.887 161.922 297.775 161.369 295.721L160.985 294.293C160.433 292.24 158.319 291.023 156.264 291.574Z" fill="#4D8344" fill-opacity="0.6"/>
<path d="M95.9656 287.404C97.1123 289.003 101.214 294.726 107.023 294.3C108.001 294.229 110.961 294.011 112.432 291.893C115.268 287.813 109.019 281.818 111.606 277.742C112.05 277.045 112.783 276.352 120.494 274.349C124.53 273.301 127.89 272.569 130.192 272.093C126.77 268.617 123.352 265.144 119.93 261.667C118.539 261.383 106.881 259.198 98.9478 266.84C97.8945 267.853 91.9523 273.577 92.9878 280.801C93.4278 283.865 94.9478 285.988 95.9612 287.404H95.9656Z" fill="#FF6948"/>
<path d="M92.1742 100.341L86.623 109.861L130.939 135.665C131.383 138.786 132.627 142.703 136.019 145.203C136.143 145.296 136.272 145.385 136.405 145.478C137.441 142.419 138.868 139.008 140.854 135.452C143.294 131.087 145.996 127.534 148.516 124.714C148.187 124.555 147.867 124.408 147.547 124.284C142.685 122.383 138.032 124.235 135.814 125.349C121.267 117.015 106.721 108.68 92.1742 100.341V100.341Z" fill="#C1A193"/>
<path d="M147.423 137.974C150.767 132.24 151.255 126.298 148.513 124.701C145.771 123.105 140.837 126.459 137.493 132.192C134.148 137.926 133.66 143.868 136.403 145.465C139.145 147.061 144.079 143.707 147.423 137.974Z" fill="white"/>
<path d="M130.422 119.573C130.351 120.35 129.671 120.874 129.556 120.967C129.342 121.131 129.089 121.255 128.805 121.331C124.654 122.485 113.32 114.719 99.0268 108.134C98.1868 107.748 95.0224 106.304 94.5869 106.948C94.0135 107.788 98.2713 112.077 99.4224 113.24C101.76 115.594 103.578 116.997 103.2 118.356C103.116 118.653 102.925 118.96 102.671 119.204C102.511 119.355 102.325 119.484 102.125 119.568C101.258 119.946 100.285 119.475 99.8846 119.279C90.7957 114.857 90.1468 115.541 85.8313 112.028C83.2846 109.95 81.6935 108.232 78.5424 104.826C75.8357 101.9 73.7291 99.3418 72.2802 97.5124L54.8535 87.2016C58.9157 82.2816 63.178 77.5259 67.6224 72.9478C71.178 76.0383 74.7291 79.1289 78.2846 82.2194C83.6357 83.6093 88.0535 84.4974 91.0935 85.0524C100.147 86.7087 103.138 86.5222 106.022 89.2931C106.778 90.0124 106.916 90.3543 110.502 98.2095C114.982 108.014 115.267 108.578 116.298 109.528C117.298 110.447 120.214 112.108 126.049 115.43C127.996 116.54 130.574 117.965 130.422 119.573V119.573Z" fill="white"/>
<g opacity="0.2">
<path d="M388.787 51.6292L298.649 78.9202L282.236 83.8891L268.191 88.1386L255.458 91.9974L241.404 96.2513L223.889 101.553L148.08 124.506H148.076C148.036 124.484 147.978 124.457 147.898 124.43C147.898 124.43 147.671 124.351 147.413 124.351C147.258 124.351 142.004 125.039 137.813 131.66C137.089 132.81 132.551 139.977 135.302 144.355C135.422 144.546 135.538 144.697 135.618 144.803V144.812C135.618 144.812 135.609 144.817 135.609 144.821C135.609 144.848 135.613 144.87 135.613 144.897C138.142 187.143 140.671 229.39 143.196 271.636C143.662 279.385 144.124 287.133 144.587 294.882C146.231 322.404 147.88 349.917 149.524 377.434C149.809 382.172 150.093 386.91 150.373 391.648C150.929 400.929 151.484 410.214 152.04 419.499C152.476 426.781 152.911 434.063 153.347 441.346C153.524 444.316 153.702 447.292 153.88 450.262C153.92 450.959 153.964 451.661 154.004 452.358C154.209 455.768 154.413 459.174 154.618 462.585C154.644 463.051 154.671 463.521 154.702 463.988C151.076 462.616 147.498 461.155 143.96 459.605C141.84 458.681 139.733 457.727 137.649 456.736C136.164 456.039 134.689 455.324 133.222 454.596C131.089 453.535 128.973 452.443 126.876 451.319C125.222 450.44 123.578 449.534 121.947 448.606C119.907 447.46 117.884 446.275 115.884 445.062C114.298 444.108 112.729 443.131 111.169 442.136C109.222 440.897 107.293 439.632 105.387 438.335C102.756 436.555 100.164 434.721 97.6089 432.829C38.4044 389.162 0 318.954 0 239.785C0 181.819 20.5867 128.658 54.8533 87.2017C58.9156 82.2817 63.1778 77.5259 67.6222 72.9478C111.244 27.9616 172.356 0 240 0C296.2 0 347.884 19.2982 388.787 51.6292Z" fill="#4D8344"/>
</g>
</g>
<defs>
<clipPath id="clip0_18_226">
<rect width="480" height="480" fill="white"/>
</clipPath>
</defs>
</svg>
