<svg width="1000" height="2411" viewBox="0 0 1000 2411" fill="none" xmlns="http://www.w3.org/2000/svg">
<g clip-path="url(#clip0_46_143)">
<path d="M-139.097 -365C-154.146 -128.5 21.0106 65.3404 231.551 182C442.092 298.66 853.239 179 1044.08 283.5C1234.93 388 1130.95 577 821.138 625C652.991 651.051 696.776 837.308 476.388 862.5C256 887.692 160.014 1442.02 525.5 1404C780.237 1377.5 788.955 1536.21 656 1653.5C556.816 1741 388 1631.5 295 1785C201.073 1940.03 289.485 2126.86 483.912 2111.5C838.239 2083.5 836.344 2329 744 2410.5" stroke="#FF6948" stroke-width="2" stroke-linecap="round" stroke-dasharray="30 30"/>
<path d="M273.746 1008.31H298.297V1094.5H282.008V1023.72H264.254L273.746 1008.31Z" fill="#F8E4DA"/>
<path d="M450.11 267.435C449.77 266.8 449.427 266.115 449.069 265.392C448.663 264.569 448.238 263.694 447.788 262.785C446.487 260.157 444.968 257.254 442.998 254.553C442.489 253.845 441.944 253.157 441.368 252.488C439.666 250.514 437.669 248.732 435.269 247.346C435.221 247.318 435.178 247.293 435.131 247.27C434.395 246.849 433.643 246.484 432.887 246.162C430.175 245.014 427.339 244.441 424.556 244.198C423.595 244.11 422.64 244.062 421.699 244.047C418.722 243.985 415.873 244.208 413.379 244.376C412.337 244.444 411.355 244.507 410.452 244.538C410.406 244.54 410.359 244.537 410.312 244.534C408.835 244.461 408.34 242.441 409.695 241.713C410.766 241.137 411.988 240.548 413.298 239.903C414.696 239.22 416.192 238.484 417.714 237.649C422.189 235.193 426.868 231.921 429.783 226.872C432.178 222.724 432.94 218.149 433.07 213.814C433.119 212.267 433.089 210.751 433.02 209.302C432.895 206.607 432.658 204.127 432.591 202.054C432.543 200.471 434.666 199.902 435.416 201.297C435.808 202.031 436.21 202.84 436.635 203.694C437.037 204.523 437.461 205.393 437.909 206.298C438.985 208.45 440.209 210.769 441.703 212.999C442.193 213.733 442.715 214.453 443.27 215.159C444.922 217.27 446.88 219.217 449.256 220.763C449.577 220.981 449.916 221.189 450.257 221.386C450.641 221.608 451.025 221.813 451.416 222.002C454.019 223.302 456.764 224.014 459.485 224.371C460.425 224.495 461.359 224.58 462.282 224.626C465.988 224.832 469.551 224.526 472.571 224.325C473.457 224.268 474.293 224.218 475.074 224.194C475.253 224.188 475.423 224.209 475.575 224.256C476.762 224.612 477.069 226.353 475.831 227.019C474.921 227.505 473.902 228.005 472.814 228.538C471.44 229.21 469.951 229.939 468.433 230.747C463.772 233.242 458.797 236.578 455.743 241.86C453.229 246.215 452.515 251.046 452.439 255.566C452.415 257.091 452.46 258.583 452.533 260.01C452.664 262.477 452.872 264.754 452.935 266.678C452.983 268.261 450.86 268.83 450.11 267.435V267.435Z" fill="#D3F0D6"/>
<path d="M575.284 2055.28C574.896 2054.56 574.504 2053.77 574.094 2052.95C573.63 2052.01 573.144 2051.01 572.631 2049.97C571.144 2046.97 569.407 2043.65 567.156 2040.56C566.574 2039.75 565.952 2038.97 565.294 2038.2C563.348 2035.94 561.066 2033.91 558.323 2032.32C558.268 2032.29 558.219 2032.26 558.165 2032.24C557.324 2031.76 556.465 2031.34 555.601 2030.97C552.502 2029.66 549.261 2029 546.079 2028.73C544.982 2028.63 543.89 2028.57 542.814 2028.55C539.412 2028.48 536.156 2028.74 533.306 2028.93C532.115 2029.01 530.993 2029.08 529.961 2029.11C529.908 2029.12 529.854 2029.11 529.801 2029.11C528.113 2029.03 527.548 2026.72 529.096 2025.89C530.32 2025.23 531.716 2024.55 533.213 2023.82C534.811 2023.04 536.521 2022.2 538.26 2021.24C543.375 2018.44 548.722 2014.7 552.054 2008.93C554.791 2004.18 555.661 1998.96 555.81 1994C555.866 1992.23 555.831 1990.5 555.753 1988.85C555.61 1985.76 555.339 1982.93 555.263 1980.56C555.208 1978.75 557.634 1978.1 558.491 1979.7C558.94 1980.54 559.399 1981.46 559.884 1982.44C560.344 1983.38 560.828 1984.38 561.341 1985.41C562.57 1987.87 563.969 1990.52 565.676 1993.07C566.236 1993.91 566.833 1994.73 567.467 1995.54C569.355 1997.95 571.593 2000.18 574.308 2001.94C574.675 2002.19 575.062 2002.43 575.452 2002.66C575.891 2002.91 576.33 2003.14 576.777 2003.36C579.752 2004.85 582.888 2005.66 585.999 2006.07C587.072 2006.21 588.14 2006.31 589.195 2006.36C593.43 2006.59 597.503 2006.24 600.954 2006.01C601.966 2005.95 602.922 2005.89 603.815 2005.87C604.019 2005.86 604.214 2005.88 604.387 2005.94C605.744 2006.34 606.094 2008.33 604.68 2009.09C603.64 2009.65 602.475 2010.22 601.232 2010.83C599.661 2011.6 597.96 2012.43 596.224 2013.35C590.898 2016.2 585.212 2020.02 581.722 2026.05C578.848 2031.03 578.033 2036.55 577.946 2041.72C577.919 2043.46 577.97 2045.17 578.053 2046.8C578.203 2049.62 578.441 2052.22 578.513 2054.42C578.568 2056.23 576.141 2056.88 575.284 2055.28V2055.28Z" fill="#F8E4DA"/>
<path d="M777.547 1779.1C774.423 1773.69 752.772 1786.19 749.648 1780.78C746.523 1775.37 768.174 1762.87 765.05 1757.46C761.925 1752.05 740.275 1764.55 737.15 1759.13C734.026 1753.72 755.677 1741.22 752.552 1735.81C749.428 1730.4 727.777 1742.9 724.653 1737.49C721.529 1732.08 743.179 1719.58 740.055 1714.16C736.931 1708.75 715.28 1721.25 712.15 1715.83C709.021 1710.41 730.677 1697.92 727.547 1692.5" stroke="#D3F0D6" stroke-opacity="0.6" stroke-width="10" stroke-miterlimit="10" stroke-linecap="round"/>
<path d="M368.793 1654.58H353.031C353.852 1648.21 356.137 1643.09 359.887 1639.23C365.121 1633.84 371.703 1631.14 379.633 1631.14C386.703 1631.14 392.621 1633.39 397.387 1637.88C402.191 1642.37 404.594 1647.7 404.594 1653.88C404.594 1657.7 403.539 1661.2 401.43 1664.36C399.359 1667.53 396.332 1670.09 392.348 1672.04C397.582 1673.6 401.664 1676.34 404.594 1680.24C407.562 1684.11 409.047 1688.68 409.047 1693.95C409.047 1701.69 406.195 1708.25 400.492 1713.64C394.789 1718.99 387.523 1721.67 378.695 1721.67C370.336 1721.67 363.52 1719.15 358.246 1714.11C352.973 1709.03 350.082 1702.14 349.574 1693.43H365.805C366.508 1697.88 368.051 1701.2 370.434 1703.39C372.855 1705.54 375.902 1706.61 379.574 1706.61C383.402 1706.61 386.566 1705.38 389.066 1702.92C391.605 1700.46 392.875 1697.45 392.875 1693.89C392.875 1689.99 391.176 1686.69 387.777 1683.99C384.379 1681.3 379.477 1679.91 373.07 1679.83V1665.77C377.016 1665.46 379.945 1664.85 381.859 1663.95C383.812 1663.02 385.316 1661.75 386.371 1660.14C387.465 1658.54 388.012 1656.84 388.012 1655.05C388.012 1652.7 387.191 1650.77 385.551 1649.25C383.91 1647.68 381.762 1646.9 379.105 1646.9C376.762 1646.9 374.633 1647.62 372.719 1649.07C370.805 1650.48 369.496 1652.31 368.793 1654.58Z" fill="#F8E4DA"/>
<path d="M620.918 1357.08H604.922C605.352 1347.79 608.262 1340.48 613.652 1335.17C619.082 1329.82 626.035 1327.14 634.512 1327.14C639.746 1327.14 644.355 1328.25 648.34 1330.48C652.363 1332.67 655.566 1335.85 657.949 1340.03C660.371 1344.17 661.582 1348.39 661.582 1352.69C661.582 1357.8 660.117 1363.31 657.188 1369.21C654.297 1375.11 648.984 1382.08 641.25 1390.13L631.582 1400.32H662.285V1415.5H602.578V1407.65L629.238 1380.46C635.684 1373.94 639.961 1368.7 642.07 1364.76C644.219 1360.77 645.293 1357.18 645.293 1353.98C645.293 1350.66 644.18 1347.92 641.953 1345.77C639.766 1343.59 636.934 1342.49 633.457 1342.49C629.941 1342.49 627.012 1343.8 624.668 1346.42C622.324 1349.04 621.074 1352.59 620.918 1357.08Z" fill="#D3F0D6"/>
<path d="M583.082 1120.43C583.715 1121.92 584.779 1123.08 586.069 1123.82C588.009 1124.94 590.455 1125.13 592.686 1124.11C592.692 1124.11 592.697 1124.11 592.703 1124.11C592.708 1124.1 592.713 1124.1 592.718 1124.1L592.726 1124.09C592.732 1124.09 592.737 1124.09 592.742 1124.09L600.689 1120.39L601.465 1129.12C601.465 1129.13 601.467 1129.14 601.468 1129.15C601.468 1129.15 601.468 1129.16 601.469 1129.16C601.85 1133.24 605.429 1136.16 609.459 1135.67C613.493 1135.18 616.483 1131.45 616.14 1127.36L616.14 1127.35C616.14 1127.34 616.139 1127.34 616.137 1127.33L615.373 1118.6L623.796 1120.3C627.753 1121.09 631.711 1118.44 632.614 1114.39C633.518 1110.33 631.035 1106.39 627.077 1105.58L618.66 1103.88L623.093 1096.19C625.173 1092.58 624.033 1088.01 620.551 1086C617.068 1083.99 612.538 1085.29 610.45 1088.9L606.011 1096.57L600.327 1090.14C600.324 1090.13 600.321 1090.13 600.318 1090.13C600.314 1090.12 600.311 1090.12 600.308 1090.12C597.634 1087.11 592.987 1086.94 589.935 1089.74C586.884 1092.55 586.561 1097.28 589.207 1100.31C589.21 1100.31 589.212 1100.31 589.214 1100.32L589.223 1100.33L589.227 1100.33L594.902 1106.78L586.963 1110.48C586.959 1110.48 586.955 1110.48 586.951 1110.49C586.946 1110.49 586.942 1110.49 586.939 1110.49C583.221 1112.24 581.49 1116.7 583.082 1120.43Z" fill="#D3F0D6" fill-opacity="0.6"/>
<path d="M202.14 1442.88C211.094 1433.93 215.599 1422.22 215.647 1410.49C215.671 1404.41 209.806 1400 203.911 1401.53C199.821 1402.58 196.834 1406.22 196.818 1410.44C196.786 1417.37 194.117 1424.29 188.832 1429.57C179.94 1438.46 166.453 1439.92 156.064 1433.95C152.324 1431.81 147.636 1432.33 144.588 1435.38L144.567 1435.4C140.217 1439.75 141.118 1447.06 146.425 1450.16C164.035 1460.43 187.022 1458 202.14 1442.88Z" fill="#D3F0D6" fill-opacity="0.6"/>
<path d="M433.979 1380.36C434.767 1380.59 435.598 1380.87 436.472 1381.16C437.465 1381.5 438.515 1381.86 439.613 1382.24C442.788 1383.31 446.363 1384.43 450.137 1385.02C451.12 1385.18 452.116 1385.29 453.123 1385.37C456.094 1385.59 459.147 1385.42 462.207 1384.6C462.269 1384.58 462.323 1384.56 462.38 1384.55C463.315 1384.29 464.217 1383.98 465.089 1383.63C468.208 1382.36 470.963 1380.54 473.409 1378.48C474.256 1377.78 475.066 1377.04 475.839 1376.3C478.295 1373.94 480.418 1371.46 482.296 1369.31C483.084 1368.41 483.827 1367.56 484.532 1366.81C484.567 1366.77 484.608 1366.74 484.648 1366.7C485.9 1365.57 487.932 1366.8 487.426 1368.48C487.025 1369.81 486.515 1371.28 485.977 1372.86C485.4 1374.54 484.785 1376.34 484.23 1378.25C482.598 1383.85 481.461 1390.27 483.186 1396.71C484.602 1402 487.685 1406.31 491.081 1409.92C492.293 1411.21 493.542 1412.41 494.769 1413.52C497.048 1415.6 499.244 1417.41 500.972 1419.03C502.291 1420.27 501.035 1422.45 499.301 1421.93C498.391 1421.65 497.412 1421.32 496.379 1420.98C495.384 1420.63 494.338 1420.27 493.245 1419.9C490.636 1419.03 487.774 1418.15 484.764 1417.55C483.775 1417.35 482.771 1417.19 481.752 1417.07C478.711 1416.7 475.555 1416.71 472.386 1417.38C471.95 1417.46 471.508 1417.57 471.074 1417.69C470.585 1417.82 470.107 1417.96 469.639 1418.13C466.485 1419.18 463.692 1420.82 461.204 1422.73C460.344 1423.39 459.521 1424.08 458.738 1424.79C455.576 1427.61 452.944 1430.74 450.666 1433.34C449.997 1434.11 449.361 1434.82 448.749 1435.47C448.61 1435.62 448.455 1435.74 448.294 1435.83C447.047 1436.5 445.393 1435.34 445.854 1433.8C446.197 1432.67 446.617 1431.45 447.065 1430.14C447.633 1428.48 448.247 1426.69 448.821 1424.81C450.571 1419.03 451.896 1412.31 450.095 1405.57C448.607 1400.02 445.28 1395.54 441.689 1391.83C440.475 1390.58 439.234 1389.41 438.021 1388.31C435.922 1386.43 433.914 1384.75 432.308 1383.25C430.99 1382.01 432.246 1379.83 433.979 1380.36V1380.36Z" fill="#F8E4DA"/>
<path d="M784.398 1376.15C789.81 1373.03 777.31 1351.38 782.721 1348.25C788.133 1345.13 800.633 1366.78 806.044 1363.65C811.456 1360.53 798.956 1338.88 804.367 1335.75C809.779 1332.63 822.279 1354.28 827.69 1351.16C833.102 1348.03 820.602 1326.38 826.013 1323.26C831.425 1320.13 843.925 1341.78 849.336 1338.66C854.748 1335.53 842.248 1313.88 847.669 1310.75C853.089 1307.62 865.58 1329.28 871.001 1326.15" stroke="#F8E4DA" stroke-opacity="0.6" stroke-width="10" stroke-miterlimit="10" stroke-linecap="round"/>
<path d="M89.8984 785.329C95.3544 788.375 107.541 766.546 112.997 769.592C118.453 772.638 106.266 794.467 111.722 797.513C117.178 800.559 129.365 778.73 134.821 781.776C140.277 784.821 128.091 806.65 133.547 809.696C139.003 812.742 151.189 790.913 156.645 793.959C162.101 797.005 149.915 818.834 155.371 821.88C160.827 824.926 173.013 803.097 178.478 806.148C183.944 809.199 171.748 831.023 177.214 834.074" stroke="#D3F0D6" stroke-opacity="0.6" stroke-width="10" stroke-miterlimit="10" stroke-linecap="round"/>
<path d="M775.217 778.886C787.416 785.929 801.176 787.607 813.591 784.621C820.036 783.071 822.91 775.797 819.502 770.027C817.143 766.023 812.382 763.843 807.907 764.92C800.573 766.68 792.441 765.681 785.24 761.524C773.125 754.529 767.471 740.804 770.622 728.395C771.751 723.929 769.771 719.161 765.618 716.764L765.59 716.748C759.663 713.325 752.203 716.162 750.543 722.513C745.041 743.587 754.618 766.993 775.217 778.886Z" fill="#F8E4DA" fill-opacity="0.6"/>
</g>
<defs>
<clipPath id="clip0_46_143">
<rect width="1000" height="2411" fill="white"/>
</clipPath>
</defs>
</svg>
