<svg width="621" height="2397" viewBox="0 0 621 2397" fill="none" xmlns="http://www.w3.org/2000/svg">
<path d="M399.746 932.309H424.297V1018.5H408.008V947.719H390.254L399.746 932.309Z" fill="#F8E4DA"/>
<path d="M1 1C270.5 115 149.5 54.5 349.5 171C549.5 287.5 556.5 315 556.5 415C556.5 514.999 368.5 548 368.5 741.5C368.5 863 286.5 833.5 266 925.5C245.5 1017.5 334.869 1030.21 500.862 1107.07C592.5 1149.5 565 1365 459.5 1396.5C392.784 1416.42 310.342 1334.4 266 1429C206 1557 526.322 1514.85 534.403 1611.13C549.5 1791 430.5 1763 333 1812.5C264.952 1847.05 291.923 1976.72 356.5 2006.5C453 2051 620 2043.07 620 2111.5C620 2266.5 441 2297.5 391 2395.5" stroke="#FF6948" stroke-width="2" stroke-linecap="round" stroke-dasharray="30 30"/>
<path d="M215.793 1851.58H200.031C200.852 1845.21 203.137 1840.09 206.887 1836.23C212.121 1830.84 218.703 1828.14 226.633 1828.14C233.703 1828.14 239.621 1830.39 244.387 1834.88C249.191 1839.37 251.594 1844.7 251.594 1850.88C251.594 1854.7 250.539 1858.2 248.43 1861.36C246.359 1864.53 243.332 1867.09 239.348 1869.04C244.582 1870.6 248.664 1873.34 251.594 1877.24C254.562 1881.11 256.047 1885.68 256.047 1890.95C256.047 1898.69 253.195 1905.25 247.492 1910.64C241.789 1915.99 234.523 1918.67 225.695 1918.67C217.336 1918.67 210.52 1916.15 205.246 1911.11C199.973 1906.03 197.082 1899.14 196.574 1890.43H212.805C213.508 1894.88 215.051 1898.2 217.434 1900.39C219.855 1902.54 222.902 1903.61 226.574 1903.61C230.402 1903.61 233.566 1902.38 236.066 1899.92C238.605 1897.46 239.875 1894.45 239.875 1890.89C239.875 1886.99 238.176 1883.69 234.777 1880.99C231.379 1878.3 226.477 1876.91 220.07 1876.83V1862.77C224.016 1862.46 226.945 1861.85 228.859 1860.95C230.812 1860.02 232.316 1858.75 233.371 1857.14C234.465 1855.54 235.012 1853.84 235.012 1852.05C235.012 1849.7 234.191 1847.77 232.551 1846.25C230.91 1844.68 228.762 1843.9 226.105 1843.9C223.762 1843.9 221.633 1844.62 219.719 1846.07C217.805 1847.48 216.496 1849.31 215.793 1851.58Z" fill="#F8E4DA"/>
<path d="M399.918 1404.08H383.922C384.352 1394.79 387.262 1387.48 392.652 1382.17C398.082 1376.82 405.035 1374.14 413.512 1374.14C418.746 1374.14 423.355 1375.25 427.34 1377.48C431.363 1379.67 434.566 1382.85 436.949 1387.03C439.371 1391.17 440.582 1395.39 440.582 1399.69C440.582 1404.8 439.117 1410.31 436.188 1416.21C433.297 1422.11 427.984 1429.08 420.25 1437.13L410.582 1447.32H441.285V1462.5H381.578V1454.65L408.238 1427.46C414.684 1420.94 418.961 1415.7 421.07 1411.76C423.219 1407.77 424.293 1404.18 424.293 1400.98C424.293 1397.66 423.18 1394.92 420.953 1392.77C418.766 1390.59 415.934 1389.49 412.457 1389.49C408.941 1389.49 406.012 1390.8 403.668 1393.42C401.324 1396.04 400.074 1399.59 399.918 1404.08Z" fill="#D3F0D6"/>
<path d="M444 884.329C449.456 887.375 461.642 865.546 467.098 868.592C472.554 871.638 460.368 893.467 465.824 896.513C471.28 899.559 483.466 877.73 488.922 880.776C494.378 883.821 482.192 905.65 487.648 908.696C493.104 911.742 505.29 889.913 510.746 892.959C516.202 896.005 504.016 917.834 509.472 920.88C514.928 923.926 527.114 902.097 532.58 905.148C538.045 908.199 525.85 930.023 531.315 933.074" stroke="#D3F0D6" stroke-opacity="0.6" stroke-width="10" stroke-miterlimit="10" stroke-linecap="round"/>
<path d="M177.386 2244.78C176.997 2244.06 176.605 2243.27 176.196 2242.45C175.732 2241.51 175.246 2240.51 174.732 2239.47C173.245 2236.47 171.509 2233.15 169.258 2230.06C168.676 2229.25 168.053 2228.47 167.395 2227.7C165.449 2225.44 163.168 2223.41 160.425 2221.82C160.369 2221.79 160.321 2221.76 160.266 2221.74C159.426 2221.26 158.566 2220.84 157.703 2220.47C154.603 2219.16 151.362 2218.5 148.181 2218.23C147.083 2218.13 145.992 2218.07 144.916 2218.05C141.514 2217.98 138.257 2218.24 135.408 2218.43C134.217 2218.51 133.094 2218.58 132.062 2218.61C132.01 2218.62 131.956 2218.61 131.902 2218.61C130.215 2218.53 129.649 2216.22 131.197 2215.39C132.421 2214.73 133.818 2214.05 135.315 2213.32C136.912 2212.54 138.623 2211.7 140.362 2210.74C145.476 2207.94 150.824 2204.2 154.155 2198.43C156.892 2193.68 157.762 2188.46 157.912 2183.5C157.968 2181.73 157.933 2180 157.854 2178.35C157.711 2175.26 157.44 2172.43 157.365 2170.06C157.309 2168.25 159.736 2167.6 160.593 2169.2C161.041 2170.04 161.501 2170.96 161.986 2171.94C162.446 2172.88 162.93 2173.88 163.442 2174.91C164.672 2177.37 166.07 2180.02 167.777 2182.57C168.338 2183.41 168.935 2184.23 169.569 2185.04C171.457 2187.45 173.694 2189.68 176.41 2191.44C176.777 2191.69 177.164 2191.93 177.554 2192.16C177.992 2192.41 178.432 2192.64 178.878 2192.86C181.854 2194.35 184.99 2195.16 188.1 2195.57C189.174 2195.71 190.241 2195.81 191.297 2195.86C195.532 2196.09 199.604 2195.74 203.055 2195.51C204.068 2195.45 205.024 2195.39 205.917 2195.37C206.12 2195.36 206.315 2195.38 206.489 2195.44C207.845 2195.84 208.196 2197.83 206.782 2198.59C205.742 2199.15 204.577 2199.72 203.334 2200.33C201.762 2201.1 200.061 2201.93 198.326 2202.85C193 2205.7 187.313 2209.52 183.824 2215.55C180.95 2220.53 180.134 2226.05 180.048 2231.22C180.02 2232.96 180.071 2234.67 180.155 2236.3C180.305 2239.12 180.543 2241.72 180.614 2243.92C180.669 2245.73 178.243 2246.38 177.386 2244.78V2244.78Z" fill="#F8E4DA"/>
<path d="M522.652 1860.1C519.528 1854.69 497.877 1867.19 494.753 1861.78C491.629 1856.37 513.279 1843.87 510.155 1838.46C507.031 1833.05 485.38 1845.55 482.256 1840.13C479.131 1834.72 500.782 1822.22 497.658 1816.81C494.533 1811.4 472.883 1823.9 469.759 1818.49C466.634 1813.08 488.285 1800.58 485.161 1795.16C482.036 1789.75 460.386 1802.25 457.256 1796.83C454.126 1791.41 475.782 1778.92 472.652 1773.5" stroke="#D3F0D6" stroke-opacity="0.6" stroke-width="10" stroke-miterlimit="10" stroke-linecap="round"/>
<path d="M153.183 918.435C153.816 919.922 154.881 921.078 156.17 921.823C158.111 922.943 160.557 923.129 162.788 922.111C162.793 922.11 162.799 922.108 162.804 922.106C162.81 922.103 162.815 922.101 162.82 922.099L162.828 922.095C162.833 922.092 162.839 922.09 162.844 922.087L170.791 918.395L171.566 927.123C171.567 927.132 171.568 927.14 171.569 927.148C171.57 927.152 171.57 927.156 171.57 927.16C171.952 931.244 175.53 934.161 179.561 933.668C183.595 933.177 186.585 929.451 186.242 925.36L186.241 925.35C186.241 925.341 186.241 925.335 186.239 925.328L185.475 916.601L193.898 918.295C197.854 919.091 201.813 916.439 202.716 912.386C203.619 908.333 201.137 904.385 197.179 903.584L188.761 901.88L193.195 894.195C195.274 890.585 194.135 886.012 190.652 884.001C187.169 881.99 182.639 883.29 180.551 886.899L176.112 894.573L170.428 888.135C170.425 888.134 170.422 888.131 170.419 888.128C170.416 888.124 170.412 888.12 170.41 888.116C167.736 885.105 163.089 884.937 160.037 887.741C156.985 890.545 156.663 895.278 159.309 898.308C159.311 898.31 159.313 898.313 159.315 898.316L159.324 898.327L159.328 898.332L165.004 904.778L157.064 908.479C157.061 908.482 157.057 908.484 157.052 908.485C157.048 908.487 157.044 908.489 157.04 908.492C153.322 910.239 151.591 914.696 153.183 918.435Z" fill="#D3F0D6" fill-opacity="0.6"/>
<path d="M189.99 1360.43C190.383 1360.55 190.799 1360.68 191.236 1360.83C191.733 1361 192.258 1361.18 192.807 1361.37C194.394 1361.9 196.181 1362.46 198.068 1362.76C198.56 1362.84 199.058 1362.9 199.561 1362.93C201.047 1363.04 202.574 1362.96 204.103 1362.55C204.134 1362.54 204.162 1362.53 204.19 1362.52C204.657 1362.39 205.109 1362.24 205.544 1362.06C207.104 1361.43 208.482 1360.52 209.704 1359.49C210.128 1359.14 210.533 1358.77 210.92 1358.4C212.148 1357.22 213.209 1355.98 214.148 1354.9C214.542 1354.45 214.913 1354.03 215.266 1353.65C215.284 1353.64 215.304 1353.62 215.324 1353.6C215.95 1353.03 216.966 1353.65 216.713 1354.49C216.513 1355.16 216.257 1355.89 215.988 1356.68C215.7 1357.52 215.392 1358.42 215.115 1359.37C214.299 1362.17 213.73 1365.39 214.593 1368.6C215.301 1371.25 216.842 1373.4 218.541 1375.21C219.146 1375.85 219.771 1376.45 220.384 1377.01C221.524 1378.05 222.622 1378.96 223.486 1379.77C224.145 1380.39 223.517 1381.47 222.651 1381.21C222.195 1381.08 221.706 1380.91 221.189 1380.74C220.692 1380.56 220.169 1380.38 219.623 1380.2C218.318 1379.77 216.887 1379.32 215.382 1379.03C214.887 1378.93 214.386 1378.85 213.876 1378.79C212.356 1378.6 210.778 1378.6 209.193 1378.94C208.975 1378.98 208.754 1379.03 208.537 1379.09C208.292 1379.16 208.054 1379.23 207.82 1379.31C206.242 1379.84 204.846 1380.66 203.602 1381.62C203.172 1381.94 202.761 1382.29 202.369 1382.64C200.788 1384.06 199.472 1385.62 198.333 1386.92C197.998 1387.3 197.68 1387.66 197.374 1387.99C197.305 1388.06 197.227 1388.12 197.147 1388.16C196.524 1388.5 195.696 1387.92 195.927 1387.15C196.098 1386.59 196.308 1385.97 196.532 1385.32C196.816 1384.49 197.123 1383.59 197.41 1382.65C198.285 1379.76 198.948 1376.4 198.047 1373.04C197.304 1370.26 195.64 1368.02 193.844 1366.16C193.238 1365.54 192.617 1364.95 192.011 1364.41C190.961 1363.46 189.957 1362.63 189.154 1361.87C188.495 1361.25 189.123 1360.17 189.99 1360.43V1360.43Z" fill="#F8E4DA"/>
<path d="M464.217 642.886C476.416 649.929 490.176 651.607 502.591 648.621C509.036 647.071 511.91 639.797 508.502 634.027C506.143 630.023 501.382 627.843 496.907 628.92C489.573 630.68 481.441 629.681 474.24 625.524C462.125 618.529 456.471 604.804 459.622 592.395C460.751 587.929 458.771 583.161 454.618 580.764L454.59 580.748C448.663 577.325 441.203 580.162 439.543 586.513C434.041 607.587 443.618 630.993 464.217 642.886Z" fill="#F8E4DA" fill-opacity="0.6"/>
<path d="M406.534 236.894C406.914 236.283 407.336 235.642 407.782 234.971C408.292 234.208 408.837 233.402 409.4 232.558C411.025 230.118 412.779 227.35 414.133 224.294C414.492 223.499 414.816 222.684 415.108 221.85C415.966 219.388 416.511 216.769 416.511 213.997C416.511 213.941 416.511 213.892 416.507 213.839C416.504 212.992 416.444 212.158 416.346 211.342C415.983 208.42 415.062 205.677 413.88 203.145C413.476 202.269 413.04 201.418 412.583 200.595C411.148 197.986 409.53 195.63 408.138 193.555C407.558 192.687 407.013 191.867 406.534 191.101C406.51 191.062 406.489 191.02 406.467 190.977C405.792 189.662 407.294 188.224 408.602 189.033C409.636 189.673 410.758 190.436 411.971 191.248C413.262 192.117 414.647 193.045 416.131 193.945C420.495 196.593 425.668 199.009 431.499 199.009C436.289 199.009 440.632 197.381 444.451 195.327C445.815 194.596 447.113 193.811 448.333 193.027C450.605 191.571 452.634 190.126 454.396 189.032C455.743 188.199 457.297 189.753 456.464 191.1C456.024 191.807 455.525 192.559 454.997 193.354C454.48 194.117 453.939 194.919 453.38 195.76C452.054 197.768 450.658 199.987 449.472 202.396C449.082 203.187 448.72 203.999 448.386 204.833C447.384 207.319 446.677 209.988 446.525 212.819C446.497 213.206 446.487 213.603 446.487 213.997C446.487 214.44 446.501 214.876 446.532 215.309C446.708 218.213 447.464 220.946 448.516 223.481C448.878 224.357 449.272 225.208 449.694 226.031C451.368 229.344 453.414 232.276 455.099 234.791C455.591 235.529 456.052 236.229 456.463 236.894C456.558 237.045 456.625 237.203 456.66 237.358C456.945 238.564 455.591 239.7 454.395 238.962C453.52 238.417 452.577 237.784 451.572 237.108C450.302 236.254 448.927 235.329 447.468 234.418C442.977 231.63 437.6 228.989 431.499 228.985C426.47 228.985 421.93 230.782 417.977 232.977C416.644 233.719 415.375 234.503 414.175 235.28C412.104 236.627 410.237 237.946 408.602 238.962C407.255 239.796 405.7 238.241 406.534 236.894V236.894Z" fill="#D3F0D6"/>
</svg>
