<svg width="744" height="2766" viewBox="0 0 744 2766" fill="none" xmlns="http://www.w3.org/2000/svg">
<path d="M-267.097 -10.5C-282.146 226 -106.989 419.84 103.551 536.5C314.092 653.16 725.239 533.5 916.083 638C1106.93 742.5 1002.95 931.5 693.138 979.5C524.991 1005.55 568.776 1191.81 348.388 1217C128 1242.19 32.0138 1796.52 397.5 1758.5C652.237 1732 660.955 1890.71 528 2008C428.816 2095.5 260 1986 167 2139.5C73.0728 2294.53 161.485 2481.36 355.912 2466C710.239 2438 708.344 2683.5 616 2765" stroke="#FF6948" stroke-width="2" stroke-linecap="round" stroke-dasharray="30 30"/>
<path d="M145.746 1362.81H170.297V1449H154.008V1378.22H136.254L145.746 1362.81Z" fill="#F8E4DA"/>
<path d="M322.111 621.935C321.771 621.3 321.427 620.615 321.069 619.892C320.663 619.069 320.238 618.194 319.789 617.285C318.487 614.657 316.968 611.754 314.998 609.053C314.489 608.345 313.945 607.657 313.369 606.988C311.666 605.014 309.67 603.232 307.27 601.846C307.221 601.818 307.178 601.793 307.131 601.77C306.395 601.349 305.644 600.984 304.888 600.662C302.176 599.514 299.34 598.941 296.556 598.698C295.596 598.61 294.641 598.562 293.699 598.547C290.722 598.485 287.873 598.708 285.38 598.876C284.338 598.944 283.355 599.007 282.452 599.038C282.407 599.04 282.359 599.037 282.312 599.034C280.836 598.961 280.341 596.941 281.696 596.213C282.767 595.637 283.988 595.048 285.299 594.403C286.696 593.72 288.193 592.984 289.715 592.149C294.19 589.693 298.869 586.421 301.784 581.372C304.179 577.224 304.94 572.649 305.071 568.314C305.12 566.767 305.089 565.251 305.02 563.802C304.895 561.107 304.658 558.627 304.592 556.554C304.544 554.971 306.667 554.402 307.417 555.797C307.809 556.531 308.211 557.34 308.636 558.194C309.038 559.023 309.462 559.893 309.91 560.798C310.986 562.95 312.21 565.269 313.703 567.499C314.193 568.233 314.716 568.953 315.27 569.659C316.922 571.77 318.881 573.717 321.257 575.263C321.578 575.481 321.916 575.689 322.257 575.886C322.641 576.108 323.026 576.313 323.416 576.502C326.02 577.802 328.764 578.514 331.486 578.871C332.425 578.995 333.359 579.08 334.283 579.126C337.988 579.332 341.552 579.026 344.572 578.825C345.457 578.768 346.294 578.718 347.075 578.694C347.253 578.688 347.424 578.709 347.575 578.756C348.762 579.112 349.069 580.853 347.832 581.519C346.922 582.005 345.903 582.505 344.815 583.038C343.44 583.71 341.952 584.439 340.433 585.247C335.773 587.742 330.797 591.078 327.744 596.36C325.229 600.715 324.515 605.546 324.44 610.066C324.416 611.591 324.46 613.083 324.534 614.51C324.664 616.977 324.873 619.254 324.935 621.178C324.984 622.761 322.86 623.33 322.111 621.935Z" fill="#D3F0D6"/>
<path d="M447.284 2409.78C446.896 2409.06 446.504 2408.27 446.094 2407.45C445.63 2406.51 445.144 2405.51 444.631 2404.47C443.144 2401.47 441.407 2398.15 439.156 2395.06C438.574 2394.25 437.952 2393.47 437.294 2392.7C435.348 2390.44 433.066 2388.41 430.323 2386.82C430.268 2386.79 430.219 2386.76 430.165 2386.74C429.324 2386.26 428.465 2385.84 427.601 2385.47C424.502 2384.16 421.261 2383.5 418.079 2383.23C416.982 2383.13 415.89 2383.07 414.814 2383.05C411.412 2382.98 408.156 2383.24 405.306 2383.43C404.115 2383.51 402.993 2383.58 401.961 2383.61C401.908 2383.62 401.854 2383.61 401.801 2383.61C400.113 2383.53 399.548 2381.22 401.096 2380.39C402.32 2379.73 403.716 2379.05 405.213 2378.32C406.811 2377.54 408.521 2376.7 410.26 2375.74C415.375 2372.94 420.722 2369.2 424.054 2363.43C426.791 2358.68 427.661 2353.46 427.81 2348.5C427.866 2346.73 427.831 2345 427.753 2343.35C427.61 2340.26 427.339 2337.43 427.263 2335.06C427.208 2333.25 429.634 2332.6 430.491 2334.2C430.94 2335.04 431.399 2335.96 431.884 2336.94C432.344 2337.88 432.828 2338.88 433.341 2339.91C434.57 2342.37 435.969 2345.02 437.676 2347.57C438.236 2348.41 438.833 2349.23 439.467 2350.04C441.355 2352.45 443.593 2354.68 446.308 2356.44C446.675 2356.69 447.062 2356.93 447.452 2357.16C447.891 2357.41 448.33 2357.64 448.777 2357.86C451.752 2359.35 454.888 2360.16 457.999 2360.57C459.072 2360.71 460.14 2360.81 461.195 2360.86C465.43 2361.09 469.503 2360.74 472.954 2360.51C473.966 2360.45 474.922 2360.39 475.815 2360.37C476.019 2360.36 476.214 2360.38 476.387 2360.44C477.744 2360.84 478.094 2362.83 476.68 2363.59C475.64 2364.15 474.475 2364.72 473.232 2365.33C471.661 2366.1 469.96 2366.93 468.224 2367.85C462.898 2370.7 457.212 2374.52 453.722 2380.55C450.848 2385.53 450.033 2391.05 449.946 2396.22C449.919 2397.96 449.97 2399.67 450.053 2401.3C450.203 2404.12 450.441 2406.72 450.513 2408.92C450.568 2410.73 448.141 2411.38 447.284 2409.78Z" fill="#F8E4DA"/>
<path d="M649.548 2133.6C646.424 2128.19 624.773 2140.69 621.649 2135.28C618.524 2129.87 640.175 2117.37 637.051 2111.96C633.926 2106.55 612.276 2119.05 609.151 2113.63C606.027 2108.22 627.678 2095.72 624.553 2090.31C621.429 2084.9 599.778 2097.4 596.654 2091.99C593.53 2086.58 615.18 2074.08 612.056 2068.66C608.932 2063.25 587.281 2075.75 584.151 2070.33C581.022 2064.91 602.678 2052.42 599.548 2047" stroke="#D3F0D6" stroke-opacity="0.6" stroke-width="10" stroke-miterlimit="10" stroke-linecap="round"/>
<path d="M240.793 2009.08H225.031C225.852 2002.71 228.137 1997.59 231.887 1993.73C237.121 1988.34 243.703 1985.64 251.633 1985.64C258.703 1985.64 264.621 1987.89 269.387 1992.38C274.191 1996.87 276.594 2002.2 276.594 2008.38C276.594 2012.2 275.539 2015.7 273.43 2018.86C271.359 2022.03 268.332 2024.59 264.348 2026.54C269.582 2028.1 273.664 2030.84 276.594 2034.74C279.562 2038.61 281.047 2043.18 281.047 2048.45C281.047 2056.19 278.195 2062.75 272.492 2068.14C266.789 2073.49 259.523 2076.17 250.695 2076.17C242.336 2076.17 235.52 2073.65 230.246 2068.61C224.973 2063.53 222.082 2056.64 221.574 2047.93H237.805C238.508 2052.38 240.051 2055.7 242.434 2057.89C244.855 2060.04 247.902 2061.11 251.574 2061.11C255.402 2061.11 258.566 2059.88 261.066 2057.42C263.605 2054.96 264.875 2051.95 264.875 2048.39C264.875 2044.49 263.176 2041.19 259.777 2038.49C256.379 2035.8 251.477 2034.41 245.07 2034.33V2020.27C249.016 2019.96 251.945 2019.35 253.859 2018.45C255.812 2017.52 257.316 2016.25 258.371 2014.64C259.465 2013.04 260.012 2011.34 260.012 2009.55C260.012 2007.2 259.191 2005.27 257.551 2003.75C255.91 2002.18 253.762 2001.4 251.105 2001.4C248.762 2001.4 246.633 2002.12 244.719 2003.57C242.805 2004.98 241.496 2006.81 240.793 2009.08Z" fill="#F8E4DA"/>
<path d="M492.918 1711.58H476.922C477.352 1702.29 480.262 1694.98 485.652 1689.67C491.082 1684.32 498.035 1681.64 506.512 1681.64C511.746 1681.64 516.355 1682.75 520.34 1684.98C524.363 1687.17 527.566 1690.35 529.949 1694.53C532.371 1698.67 533.582 1702.89 533.582 1707.19C533.582 1712.3 532.117 1717.81 529.188 1723.71C526.297 1729.61 520.984 1736.58 513.25 1744.63L503.582 1754.82H534.285V1770H474.578V1762.15L501.238 1734.96C507.684 1728.44 511.961 1723.2 514.07 1719.26C516.219 1715.27 517.293 1711.68 517.293 1708.48C517.293 1705.16 516.18 1702.42 513.953 1700.27C511.766 1698.09 508.934 1696.99 505.457 1696.99C501.941 1696.99 499.012 1698.3 496.668 1700.92C494.324 1703.54 493.074 1707.09 492.918 1711.58Z" fill="#D3F0D6"/>
<path d="M455.081 1474.93C455.714 1476.42 456.778 1477.58 458.068 1478.32C460.008 1479.44 462.454 1479.63 464.685 1478.61C464.691 1478.61 464.696 1478.61 464.702 1478.61C464.707 1478.6 464.712 1478.6 464.717 1478.6L464.725 1478.59C464.731 1478.59 464.736 1478.59 464.741 1478.59L472.688 1474.89L473.464 1483.62C473.464 1483.63 473.466 1483.64 473.467 1483.65C473.467 1483.65 473.467 1483.66 473.468 1483.66C473.849 1487.74 477.428 1490.66 481.459 1490.17C485.492 1489.68 488.482 1485.95 488.139 1481.86L488.139 1481.85C488.139 1481.84 488.138 1481.84 488.136 1481.83L487.372 1473.1L495.795 1474.8C499.752 1475.59 503.71 1472.94 504.613 1468.89C505.517 1464.83 503.034 1460.89 499.076 1460.08L490.659 1458.38L495.092 1450.69C497.172 1447.08 496.032 1442.51 492.55 1440.5C489.067 1438.49 484.537 1439.79 482.449 1443.4L478.01 1451.07L472.326 1444.64C472.323 1444.63 472.32 1444.63 472.317 1444.63C472.313 1444.62 472.31 1444.62 472.307 1444.62C469.633 1441.61 464.986 1441.44 461.934 1444.24C458.883 1447.05 458.56 1451.78 461.206 1454.81C461.209 1454.81 461.211 1454.81 461.213 1454.82L461.222 1454.83L461.226 1454.83L466.901 1461.28L458.962 1464.98C458.958 1464.98 458.954 1464.98 458.95 1464.99C458.945 1464.99 458.941 1464.99 458.938 1464.99C455.22 1466.74 453.489 1471.2 455.081 1474.93Z" fill="#D3F0D6" fill-opacity="0.6"/>
<path d="M74.1409 1797.38C83.0942 1788.43 87.5993 1776.71 87.6475 1764.99C87.6717 1758.91 81.807 1754.5 75.9113 1756.03C71.8218 1757.08 68.8346 1760.72 68.8184 1764.94C68.7868 1771.87 66.1179 1778.79 60.8332 1784.07C51.9412 1792.96 38.4539 1794.42 28.0652 1788.45C24.3252 1786.31 19.6363 1786.83 16.5883 1789.88L16.5678 1789.9C12.2173 1794.25 13.1191 1801.56 18.4258 1804.66C36.0355 1814.93 59.0232 1812.5 74.1409 1797.38Z" fill="#D3F0D6" fill-opacity="0.6"/>
<path d="M305.98 1734.85C306.768 1735.09 307.599 1735.37 308.473 1735.66C309.466 1736 310.516 1736.36 311.614 1736.74C314.789 1737.81 318.363 1738.93 322.137 1739.52C323.121 1739.68 324.117 1739.79 325.124 1739.87C328.095 1740.09 331.148 1739.92 334.207 1739.1C334.269 1739.08 334.324 1739.06 334.381 1739.05C335.316 1738.79 336.218 1738.48 337.089 1738.13C340.208 1736.86 342.964 1735.04 345.409 1732.98C346.256 1732.28 347.067 1731.54 347.84 1730.8C350.296 1728.44 352.419 1725.96 354.297 1723.81C355.084 1722.91 355.828 1722.06 356.532 1721.31C356.568 1721.27 356.608 1721.24 356.649 1721.2C357.901 1720.07 359.933 1721.3 359.427 1722.98C359.026 1724.31 358.516 1725.78 357.978 1727.36C357.401 1729.04 356.786 1730.84 356.231 1732.75C354.598 1738.35 353.462 1744.77 355.186 1751.21C356.603 1756.5 359.685 1760.81 363.082 1764.42C364.293 1765.71 365.543 1766.91 366.769 1768.02C369.049 1770.1 371.244 1771.91 372.973 1773.53C374.291 1774.77 373.035 1776.95 371.302 1776.43C370.392 1776.15 369.413 1775.82 368.38 1775.48C367.384 1775.13 366.339 1774.77 365.246 1774.4C362.637 1773.53 359.774 1772.65 356.765 1772.05C355.776 1771.85 354.772 1771.69 353.753 1771.57C350.712 1771.2 347.556 1771.21 344.386 1771.88C343.951 1771.96 343.509 1772.07 343.074 1772.19C342.585 1772.32 342.108 1772.46 341.64 1772.62C338.485 1773.68 335.693 1775.32 333.205 1777.23C332.345 1777.89 331.522 1778.58 330.739 1779.29C327.577 1782.11 324.945 1785.24 322.667 1787.84C321.998 1788.61 321.361 1789.32 320.749 1789.97C320.61 1790.12 320.455 1790.24 320.295 1790.33C319.048 1791 317.393 1789.84 317.855 1788.3C318.198 1787.17 318.618 1785.95 319.065 1784.64C319.633 1782.98 320.248 1781.19 320.821 1779.31C322.571 1773.53 323.896 1766.81 322.095 1760.07C320.608 1754.52 317.281 1750.04 313.689 1746.33C312.476 1745.08 311.235 1743.91 310.022 1742.81C307.923 1740.92 305.914 1739.25 304.309 1737.75C302.99 1736.51 304.246 1734.33 305.98 1734.85Z" fill="#F8E4DA"/>
<path d="M656.397 1730.65C661.809 1727.53 649.309 1705.88 654.72 1702.75C660.132 1699.63 672.632 1721.28 678.043 1718.15C683.455 1715.03 670.955 1693.38 676.366 1690.25C681.778 1687.13 694.278 1708.78 699.689 1705.66C705.101 1702.53 692.601 1680.88 698.012 1677.76C703.424 1674.63 715.924 1696.28 721.335 1693.16C726.747 1690.03 714.247 1668.38 719.668 1665.25C725.089 1662.12 737.579 1683.78 743 1680.65" stroke="#F8E4DA" stroke-opacity="0.6" stroke-width="10" stroke-miterlimit="10" stroke-linecap="round"/>
<path d="M-38.1025 1139.83C-32.6465 1142.87 -20.4603 1121.05 -15.0043 1124.09C-9.54832 1127.14 -21.7345 1148.97 -16.2785 1152.01C-10.8225 1155.06 1.36369 1133.23 6.8197 1136.28C12.2757 1139.32 0.0895286 1161.15 5.54554 1164.2C11.0015 1167.24 23.1877 1145.41 28.6437 1148.46C34.0998 1151.5 21.9136 1173.33 27.3696 1176.38C32.8256 1179.43 45.0118 1157.6 50.4773 1160.65C55.9429 1163.7 43.7471 1185.52 49.2127 1188.57" stroke="#D3F0D6" stroke-opacity="0.6" stroke-width="10" stroke-miterlimit="10" stroke-linecap="round"/>
<path d="M647.215 1133.39C659.414 1140.43 673.175 1142.11 685.589 1139.12C692.034 1137.57 694.908 1130.3 691.5 1124.53C689.141 1120.52 684.38 1118.34 679.905 1119.42C672.571 1121.18 664.439 1120.18 657.238 1116.02C645.123 1109.03 639.469 1095.3 642.62 1082.9C643.749 1078.43 641.769 1073.66 637.616 1071.26L637.588 1071.25C631.661 1067.82 624.201 1070.66 622.541 1077.01C617.039 1098.09 626.616 1121.49 647.215 1133.39Z" fill="#F8E4DA" fill-opacity="0.6"/>
</svg>
