<svg width="480" height="480" viewBox="0 0 480 480" fill="none" xmlns="http://www.w3.org/2000/svg">
<g clip-path="url(#clip0_214_4602)">
<path d="M480 240C480 285.991 467.062 328.96 444.627 365.467C402.413 434.178 326.556 480 240 480C153.444 480 77.5867 434.178 35.3733 365.467C12.9378 328.96 0 285.991 0 240C0 201.009 9.29778 164.187 25.8044 131.636C31.0622 121.258 37.0578 111.311 43.7156 101.867C77.4578 54.0089 128.258 19.0356 187.28 5.81333C187.858 5.68 188.436 5.55111 189.018 5.42667C205.449 1.87111 222.507 0 240 0C248.111 0 256.129 0.404444 264.031 1.19111C264.173 1.20444 264.311 1.21778 264.453 1.23556C324.471 7.30667 377.951 35.4889 416.622 77.5111C423.533 85.0222 429.973 92.9689 435.889 101.316C437.996 104.28 440.036 107.302 442.004 110.369C442.796 111.591 443.573 112.822 444.333 114.062C446.96 118.307 449.453 122.644 451.809 127.062C452.009 127.431 452.204 127.8 452.4 128.169C454.027 131.249 455.587 134.369 457.08 137.529C457.151 137.68 457.222 137.827 457.293 137.978C457.431 138.267 457.569 138.56 457.707 138.853C457.742 138.933 457.782 139.013 457.818 139.093C458.68 140.951 459.52 142.827 460.333 144.716C460.449 144.978 460.564 145.24 460.676 145.507C462.027 148.658 463.316 151.844 464.533 155.062C466.311 159.751 467.942 164.511 469.427 169.338C469.444 169.396 469.462 169.458 469.48 169.516C472.2 178.391 474.427 187.484 476.111 196.764C476.138 196.898 476.164 197.036 476.187 197.169C476.476 198.764 476.747 200.364 477 201.969C478.973 214.356 480 227.058 480 240Z" fill="#F8E4DA"/>
<path d="M444.627 365.467C402.413 434.178 326.556 480 240 480C153.444 480 77.5867 434.178 35.3734 365.467H444.627Z" fill="#C1A193"/>
<path opacity="0.4" d="M196.573 18.7689C195.653 26.1111 183.6 27.1422 178.498 35.9022C172.76 45.7511 184.044 51.1956 182.44 64.3733C180.44 80.7956 161.867 81.0089 158.444 96.6267C154.627 114.102 176.422 120.476 172.293 138.387C168.889 153.156 150.24 156.227 151.569 166.369C152.893 176.502 172.382 178.951 172.147 188.027C171.991 194 163.52 194.396 161.373 202.2C158.253 213.547 173.56 222.156 170.253 231.116C168.018 237.173 160.862 233.693 150.787 241.889C141.871 249.142 133.893 262.92 128.929 271.493C127.489 273.982 125.027 278.373 122.502 278.044C120.129 277.738 119.884 273.547 117.587 269.982C112.356 261.862 101.769 265.227 91.76 259.778C81.9866 254.458 73.5422 241.156 75.1911 230.227C77.0844 217.698 90.1911 212.24 89.4311 199.622C89.3555 198.338 88.9511 197.018 88.1333 195.644C80.36 182.564 47.3555 185.6 38.6222 171.836C31.0222 159.871 52.4 151.991 43.7955 140.653C40.04 135.698 33.2222 133.604 25.7955 131.636C31.0533 121.258 37.0489 111.311 43.7066 101.867C77.4578 54.0089 128.258 19.0356 187.28 5.81333C191.693 8.79555 197.231 13.5022 196.573 18.7689Z" fill="#C1A193"/>
<path opacity="0.4" d="M399.373 123.587C394.676 134.671 409.618 143.04 404.382 154.391C399.551 164.876 384.724 162.231 379.791 172.533C373.996 184.622 391.609 194.089 386.467 206.991C381.6 219.164 363.778 216.062 357.44 229.289C351.529 241.631 364.2 250.28 356.902 262.364C351.529 271.262 338.951 276.018 335.671 273.76C332.711 271.716 339.404 265.329 336.258 257.636C333.631 251.227 327.067 250.991 316.524 242.769C310.338 237.951 304.511 233.409 302.151 227.271C296.916 213.653 314.542 206.893 313.036 190.36C311.627 174.867 295.604 174.084 294.031 157.227C292.702 143.093 303.427 137.991 298.813 127.369C294.484 117.391 283.649 118.702 279.227 109.227C273.822 97.6489 287.911 91.2267 288.369 75.2089C288.973 54.0044 264.693 50.5822 261.378 24.1867C261.244 23.1244 259.92 11.1644 264.453 1.23556C324.471 7.30667 377.951 35.4889 416.622 77.5111C423.533 85.0222 429.973 92.9689 435.889 101.316C435.204 102.276 434.409 103.231 433.48 104.187C421.387 116.653 404.151 112.329 399.373 123.587Z" fill="#C1A193"/>
<path d="M52.0533 288.422C46.7466 293.747 47.8089 305 51.9911 312.462C61.1111 328.738 88.8044 333.6 88.8044 333.6V296.093C74.2311 283.636 58.3733 282.08 52.0533 288.422ZM84.2089 324.516C84.2089 324.516 64.5777 319.911 59.2133 310.924C56.56 306.48 54.9289 297.467 58.08 294.422C62.6577 290 73.8489 293.049 84.2089 301.907V324.516Z" fill="white"/>
<path d="M211.138 283.36V330.209C211.138 345.849 198.462 358.529 182.818 358.529H110.378C94.7377 358.529 82.0577 345.853 82.0577 330.209V283.36H211.138Z" fill="white"/>
<path d="M211.138 295.831H82.0577V300.236H211.138V295.831Z" fill="#FF6948"/>
<path opacity="0.2" d="M211.138 283.36V330.209C211.138 345.849 198.462 358.529 182.818 358.529H142.08C150.884 358.529 171.507 357.284 180.498 343.569C182.462 340.569 184.484 336.049 185.4 312.627C185.844 301.164 185.791 291.222 185.582 283.364H211.142L211.138 283.36Z" fill="#C1A193"/>
<path d="M217.151 353.587C217.151 353.587 214.769 360.84 209.876 365.467H85.2755C85.2755 365.467 81.36 363.8 76.0444 353.587H217.151Z" fill="white"/>
<path opacity="0.2" d="M217.151 353.587C217.151 353.587 214.769 360.84 209.876 365.467H114.08C148.018 364.591 180.151 361.978 188.809 359.276C192.818 358.027 197.147 356.902 202.471 353.587H217.151Z" fill="#C1A193"/>
<path d="M391.196 295.369V332.876C391.196 332.876 418.889 328.013 428.009 311.738C432.187 304.28 433.253 293.027 427.947 287.698C421.627 281.356 405.769 282.911 391.196 295.369ZM395.787 301.182C406.147 292.324 417.338 289.276 421.916 293.698C425.067 296.742 423.436 305.756 420.782 310.2C415.418 319.187 395.787 323.791 395.787 323.791V301.182Z" fill="white"/>
<path opacity="0.2" d="M391.196 295.369V332.876C391.196 332.876 418.889 328.013 428.009 311.738C432.187 304.28 433.253 293.027 427.947 287.698C421.627 281.356 405.769 282.911 391.196 295.369ZM395.787 301.182C406.147 292.324 417.338 289.276 421.916 293.698C425.067 296.742 423.436 305.756 420.782 310.2C415.418 319.187 395.787 323.791 395.787 323.791V301.182Z" fill="#C1A193"/>
<path d="M397.107 283.36V330.209C397.107 345.849 384.422 358.529 368.782 358.529H296.342C280.702 358.529 268.022 345.853 268.022 330.209V283.36H397.107Z" fill="white"/>
<path d="M397.102 295.831H268.022V300.236H397.102V295.831Z" fill="#FF6948"/>
<path opacity="0.2" d="M397.107 283.36V330.209C397.107 345.849 384.422 358.529 368.782 358.529H328.049C336.853 358.529 357.471 357.284 366.467 343.569C368.431 340.569 370.444 336.049 371.36 312.627C371.809 301.164 371.755 291.227 371.547 283.364H397.107V283.36Z" fill="#C1A193"/>
<path d="M403.116 353.587C403.116 353.587 400.742 360.84 395.844 365.467H271.236C271.236 365.467 267.32 363.8 262.004 353.587H403.111H403.116Z" fill="white"/>
<path opacity="0.2" d="M403.116 353.587C403.116 353.587 400.742 360.84 395.844 365.467H300.049C333.987 364.591 366.116 361.978 374.773 359.276C378.782 358.027 383.111 356.902 388.435 353.587H403.116Z" fill="#C1A193"/>
<path d="M140.027 230.884C141.444 230.884 142.6 232.036 142.6 233.458V283.231H137.453V233.458C137.453 232.04 138.604 230.884 140.027 230.884Z" fill="#C1A193"/>
<path d="M112.542 150.156C112.618 149.889 112.68 149.542 112.676 149.133C112.662 148.004 112.129 147.196 111.902 146.889C110.324 144.867 108.049 143.88 105.978 144.418C105.671 144.498 103.044 145.227 102.484 147.693C101.996 149.84 103.453 151.636 103.711 151.956C105.116 153.684 107.662 154.644 109.844 153.542C111.72 152.596 112.391 150.609 112.533 150.151L112.542 150.156Z" fill="#C1A193"/>
<path d="M111.413 151.44C111.258 151.253 110.769 150.622 110.698 149.64C110.622 148.551 111.12 147.787 111.249 147.604C110.018 145.031 107.6 143.724 105.547 144.298C104.302 144.644 102.947 145.747 102.489 147.484C101.982 149.413 102.88 151.018 103.027 151.267C104.32 153.489 107.178 154.133 109.262 153.244C110.369 152.773 111.062 151.933 111.409 151.436L111.413 151.44Z" fill="#D3F0D6"/>
<path d="M123.262 153.409C123.609 153.107 124.769 152.009 125.107 150.342C125.631 147.769 123.907 145.311 121.769 144.587C119.591 143.849 116.476 144.729 115.209 147.204C114.133 149.298 114.942 151.44 115.049 151.716C116.004 154.138 118.409 154.484 118.96 154.564C119.604 154.658 121.529 154.933 123.262 153.413V153.409Z" fill="#C1A193"/>
<path d="M122.662 153.067C122.991 152.773 124.089 151.72 124.427 150.124C124.942 147.667 123.342 145.333 121.338 144.658C119.298 143.969 116.36 144.84 115.147 147.213C114.12 149.222 114.858 151.258 114.956 151.52C115.831 153.822 118.089 154.133 118.609 154.204C119.218 154.289 121.018 154.533 122.662 153.067Z" fill="#D3F0D6"/>
<path d="M120.467 144.089C118.787 143.88 116.969 143.716 115.022 143.636C113.027 143.551 111.156 143.56 109.427 143.627C109.182 143.773 106.258 145.569 106.044 149.058C105.956 150.502 106.418 152.191 107.907 154.058C109.227 154.347 110.658 154.6 112.191 154.804C114.124 155.058 115.929 155.187 117.573 155.231C117.28 154.591 116.102 151.84 117.164 148.591C118.009 146.009 119.796 144.578 120.458 144.093L120.467 144.089Z" fill="white"/>
<path d="M106.342 143.462C98.5867 142.782 92.7867 144.653 92.0578 147.48C91.8356 148.347 91.6978 150.813 93.2 152.4C93.5067 152.724 93.9067 152.987 94.56 153.351C96.0578 154.187 104.453 153.871 104.453 153.871C104.093 153.156 103.249 151.244 103.578 148.76C103.973 145.773 105.8 143.96 106.342 143.462Z" fill="white"/>
<path d="M139.6 153.138L125.693 145.64C125.693 145.64 118.751 149.418 119.196 155.604L132.907 160.662L139.6 153.138Z" fill="white"/>
<path d="M92.5156 168.2C92.6623 167.924 92.8134 167.556 92.9201 167.107C93.2089 165.858 92.8934 164.827 92.7512 164.431C91.7289 161.8 89.7467 160.129 87.56 160.2C87.2356 160.209 84.4489 160.351 83.2445 162.933C82.1956 165.182 83.1556 167.538 83.3245 167.951C84.2534 170.218 86.5112 171.924 88.9601 171.262C91.0578 170.693 92.2534 168.667 92.5156 168.2Z" fill="#C1A193"/>
<path d="M91.0622 169.333C90.96 169.089 90.6445 168.262 90.8356 167.164C91.0489 165.942 91.7467 165.227 91.92 165.053C91.3867 161.898 89.3467 159.844 87.1689 159.956C85.8489 160.022 84.2178 160.898 83.3067 162.702C82.2934 164.707 82.7556 166.707 82.8356 167.018C83.52 169.8 86.1734 171.24 88.4667 170.782C89.6845 170.542 90.5911 169.787 91.0622 169.329V169.333Z" fill="#D3F0D6"/>
<path d="M103.551 168.698C104.12 168.844 106.107 169.284 108.111 168.453C111.204 167.173 112.573 163.604 111.813 160.84C111.04 158.022 107.88 155.373 104.356 155.804C101.373 156.169 99.6845 158.542 99.4711 158.849C97.5911 161.578 98.9467 164.356 99.2578 164.996C99.6223 165.742 100.702 167.96 103.551 168.698Z" fill="#C1A193"/>
<path d="M103.489 167.822C104.031 167.96 105.933 168.364 107.858 167.578C110.827 166.369 112.151 163.022 111.431 160.431C110.702 157.796 107.685 155.324 104.302 155.742C101.445 156.093 99.8178 158.324 99.6134 158.613C97.8045 161.178 99.0889 163.773 99.3867 164.369C99.7334 165.067 100.76 167.138 103.485 167.822H103.489Z" fill="#D3F0D6"/>
<path d="M127.502 168.827C126.804 168.898 124.356 169.071 121.938 167.987C118.2 166.311 116.662 162.604 117.693 159.969C118.742 157.284 122.702 155.08 126.996 155.969C130.627 156.72 132.604 159.293 132.853 159.622C135.049 162.569 133.293 165.138 132.893 165.729C132.422 166.418 131.018 168.471 127.511 168.827H127.502Z" fill="#D3F0D6"/>
<path d="M130.627 156.298C130.627 156.298 111.724 153.893 109.631 154.471C109.631 154.471 105.52 164.378 108.791 168.902C108.791 168.902 127.644 169.96 129.187 169.48C129.187 169.48 126.476 157.698 130.631 156.302L130.627 156.298Z" fill="white"/>
<path d="M101.671 155.28C100.542 155.613 98.8312 156.12 96.7378 156.716C91.2178 158.289 90.4845 158.382 89.7423 159.031C88.9689 159.707 86.7378 162.249 89.7423 171.44C91.5378 170.88 93.4978 170.347 95.6134 169.876C97.8489 169.378 99.9601 169.022 101.916 168.769C101.311 167.507 100.436 165.262 100.329 162.338C100.213 159.102 101.098 156.596 101.671 155.276V155.28Z" fill="white"/>
<path d="M86.1111 159.827C85.4711 159.836 75.5556 160.124 73 165.827C72.6889 166.524 71.6489 168.84 72.6711 170.884C73.4756 172.489 75.1378 173.111 76.1822 173.484C81.04 175.218 86.08 172.822 87.7556 171.933C87.3911 171.649 84.0267 168.929 84.24 164.636C84.3644 162.209 85.5689 160.502 86.1111 159.827Z" fill="white"/>
<path d="M215.671 155.622C215.071 157.124 213.133 162.427 213.956 168.489C215.222 177.84 222.32 183.64 228.72 183.058C235.236 182.467 242.565 175.12 243.365 165.04C244.04 156.516 239.702 150.476 239.138 149.716C234.116 142.951 227.404 145.187 225.858 145.698C224.053 146.298 218.689 148.08 215.676 155.622H215.671Z" fill="#C1A193"/>
<path d="M201.627 157.173C201.556 158.884 201.236 165.667 205.4 171.778C210.885 179.827 222.285 184.049 231.48 180.6C236.129 178.858 238.813 175.676 239.733 174.489C246.427 165.813 242.64 154.6 242.005 152.827C241.089 150.276 237.813 142.711 229.36 138.693C219.68 134.093 211.996 139.96 210.231 141.311C208.164 142.889 202.031 147.573 201.631 157.173H201.627Z" fill="#D3F0D6"/>
<path d="M234.56 142.093C233.231 146.889 229.653 162.142 238.098 173.351C238.973 174.511 240.018 175.684 241.276 176.822L245.36 166.458L240.098 142.089H234.56V142.093Z" fill="#C1A193"/>
<path d="M122.671 182.769C123.467 182.907 126.249 183.289 129.004 182.058C133.253 180.16 135.004 175.516 133.831 172.076C132.636 168.573 128.133 165.493 123.249 166.351C119.12 167.076 116.871 170.236 116.587 170.644C114.089 174.271 116.089 177.671 116.547 178.453C117.084 179.369 118.68 182.084 122.671 182.769Z" fill="#C1A193"/>
<path d="M124.076 182.467C124.764 182.627 127.178 183.089 129.52 181.942C133.129 180.173 134.507 175.587 133.391 172.116C132.258 168.582 128.28 165.378 124.089 166.089C120.547 166.689 118.698 169.782 118.467 170.182C116.418 173.729 118.244 177.187 118.662 177.978C119.151 178.907 120.609 181.662 124.076 182.467Z" fill="#D3F0D6"/>
<path d="M97.4489 186.844C98.1022 186.871 100.369 186.88 102.342 185.48C105.382 183.324 105.973 179.058 104.453 176.187C102.907 173.262 98.8134 171.093 95.0934 172.413C91.9467 173.529 90.7067 176.556 90.5556 176.947C89.2 180.409 91.3645 183.151 91.8622 183.782C92.4445 184.52 94.1734 186.707 97.4489 186.84V186.844Z" fill="#C1A193"/>
<path d="M97.28 186.196C97.9067 186.222 100.08 186.231 101.969 184.889C104.88 182.822 105.449 178.733 103.996 175.978C102.516 173.173 98.5911 171.098 95.0223 172.364C92.0089 173.436 90.8178 176.338 90.6711 176.711C89.3689 180.031 91.4445 182.658 91.9245 183.262C92.4845 183.969 94.1378 186.067 97.28 186.196Z" fill="#D3F0D6"/>
<path d="M85.6756 185.849C85.6578 185.538 85.6 185.151 85.44 184.733C84.9911 183.573 84.0578 182.982 83.68 182.769C81.0711 181.4 78.0534 181.418 75.8578 182.92C75.5334 183.142 72.7689 185.093 73.0711 187.898C73.3334 190.338 75.7156 191.529 76.1378 191.738C78.4311 192.884 81.7556 192.711 83.8667 190.578C85.6756 188.747 85.6889 186.382 85.68 185.849H85.6756Z" fill="#C1A193"/>
<path d="M84.7956 187.551C84.5378 187.418 83.7067 186.947 83.2222 185.907C82.68 184.747 82.9467 183.689 83.0178 183.427C80.52 181.164 77.1733 180.831 75.0222 182.387C73.7245 183.329 72.6045 185.151 72.7911 187.258C73.0045 189.6 74.7111 190.951 74.9867 191.156C77.4089 193.004 81 192.418 83.0533 190.498C84.1422 189.48 84.6 188.244 84.7956 187.547V187.551Z" fill="#D3F0D6"/>
<path d="M99.9423 169.738C100.551 169.111 121.684 165.507 123.36 162.813C123.36 162.813 123.462 184.36 117.324 183.978C111.187 183.596 104.142 185.324 104.142 185.324C104.142 185.324 96.7823 173.009 99.9467 169.742L99.9423 169.738Z" fill="white"/>
<path d="M94.1156 171.133C89.1378 174.111 84.1556 177.089 79.1778 180.067C79.1778 180.067 82.5378 191.204 84.1067 190.956C84.1067 190.956 94.7022 187.387 96.1378 188.524C96.1645 188.547 96.2445 188.613 96.3111 188.587C96.8222 188.369 94.4934 183.093 94.0045 177.04C93.8045 174.578 93.9511 172.52 94.12 171.129L94.1156 171.133Z" fill="white"/>
<path d="M74.3956 182.173C74.3956 182.173 62.8 190.818 61.2356 191.004C59.6711 191.191 54.5467 193.573 57.6089 198.147C60.6667 202.72 68.2089 202.356 79.6623 193.707C79.6623 193.707 73.1156 188.062 74.3956 182.173Z" fill="white"/>
<path d="M115.307 221.049C115.84 221.493 117.738 222.956 120.289 223C124.222 223.067 127.444 219.711 128.004 216.222C128.573 212.671 126.52 208.142 122.547 206.902C119.191 205.858 116.213 207.711 115.836 207.951C112.48 210.111 112.551 213.902 112.564 214.773C112.582 215.791 112.636 218.818 115.307 221.044V221.049Z" fill="#C1A193"/>
<path d="M115.671 220.031C116.182 220.449 118.009 221.836 120.453 221.889C124.218 221.973 127.284 218.849 127.8 215.578C128.324 212.249 126.329 207.991 122.524 206.809C119.307 205.809 116.467 207.529 116.107 207.756C112.907 209.76 112.996 213.316 113.013 214.133C113.036 215.089 113.107 217.929 115.676 220.027L115.671 220.031Z" fill="#D3F0D6"/>
<path d="M118.853 190.164C118.858 191.013 118.991 193.947 120.982 196.262C124.058 199.836 129.8 199.893 133.547 197.462C137.36 194.982 140.005 189.333 138.005 184.742C136.316 180.862 132.187 179.756 131.658 179.622C126.938 178.44 123.409 181.689 122.596 182.436C121.645 183.311 118.827 185.902 118.853 190.164Z" fill="#C1A193"/>
<path d="M119.84 190.391C119.885 191.236 120.147 194.147 122.178 196.427C125.311 199.947 130.853 199.96 134.351 197.511C137.911 195.018 140.196 189.387 138.053 184.844C136.24 181.004 132.209 179.942 131.693 179.813C127.089 178.68 123.836 181.933 123.089 182.684C122.213 183.56 119.618 186.16 119.845 190.387L119.84 190.391Z" fill="#D3F0D6"/>
<path d="M129.907 230.489C129.978 230.124 130.022 229.653 129.96 229.12C129.791 227.631 128.929 226.649 128.565 226.28C126.062 223.858 122.707 222.911 119.849 223.947C119.422 224.102 115.805 225.476 115.342 228.822C114.938 231.738 117.245 233.88 117.649 234.258C119.867 236.32 123.605 237.187 126.551 235.391C129.08 233.849 129.769 231.111 129.907 230.489Z" fill="#C1A193"/>
<path d="M128.48 232.364C128.236 232.142 127.458 231.382 127.231 230.102C126.978 228.676 127.587 227.591 127.742 227.324C125.658 224.12 122.058 222.778 119.227 223.858C117.516 224.511 115.738 226.182 115.325 228.547C114.862 231.178 116.351 233.156 116.591 233.462C118.716 236.196 122.853 236.596 125.689 235.089C127.196 234.289 128.062 233.071 128.484 232.364H128.48Z" fill="#D3F0D6"/>
<path d="M118.969 185.831C118.969 185.831 115.982 202.707 113.636 206.693C111.289 210.684 125.956 214.4 128.653 211.72C131.351 209.04 137.116 199.916 136.013 197.458C136.013 197.458 123.058 194.604 118.969 185.827V185.831Z" fill="white"/>
<path d="M111.573 214.493L113 225.978C113 225.978 122.782 234.596 128.564 226.28L127.689 219.218C127.689 219.218 118.418 223.844 111.573 214.493Z" fill="white"/>
<path d="M116.587 233.462C116.587 233.462 133.142 257.124 136.485 247.369C139.822 237.613 133.729 230.453 130.782 228.84C130.782 228.84 126.604 239.333 116.591 233.462H116.587Z" fill="white"/>
<path d="M179.862 202.196C179.316 203.182 177.56 206.662 178.431 210.689C179.769 216.898 186.582 220.849 192.636 220.56C198.8 220.267 205.631 215.511 206.236 208.849C206.747 203.213 202.547 199.151 202 198.636C197.142 194.08 190.813 195.458 189.36 195.773C187.658 196.142 182.604 197.244 179.862 202.191V202.196Z" fill="#C1A193"/>
<path d="M181.133 202.822C180.636 203.813 179.036 207.311 179.796 211.338C180.969 217.551 187.089 221.471 192.547 221.147C198.107 220.818 204.289 216.022 204.871 209.347C205.364 203.702 201.596 199.653 201.107 199.142C196.751 194.604 191.04 196.018 189.729 196.342C188.191 196.72 183.631 197.849 181.133 202.822Z" fill="#D3F0D6"/>
<path d="M171.293 232.756C170.613 232.636 168.262 232.324 166.196 233.711C163.009 235.853 162.329 240.822 163.858 244.427C165.418 248.093 169.631 251.209 173.511 250.142C176.791 249.244 178.129 245.827 178.293 245.387C179.756 241.471 177.551 237.938 177.044 237.124C176.453 236.173 174.693 233.351 171.293 232.756Z" fill="#C1A193"/>
<path d="M171.578 233.916C170.929 233.809 168.68 233.529 166.693 234.844C163.631 236.876 162.947 241.542 164.387 244.911C165.853 248.342 169.867 251.236 173.587 250.209C176.733 249.342 178.031 246.133 178.191 245.716C179.613 242.031 177.529 238.729 177.049 237.973C176.489 237.084 174.822 234.449 171.573 233.911L171.578 233.916Z" fill="#D3F0D6"/>
<path d="M178.04 211.324C178.04 211.324 174.027 221.711 175.2 225.044C175.2 225.044 167.351 231.373 167.049 233.476C166.427 237.804 172.196 245.471 177.738 246.369C190.609 248.458 205.084 214.227 206.124 211.716C205.16 210.747 200.08 205.849 192.013 205.796C184.138 205.742 179.067 210.347 178.04 211.32V211.324Z" fill="white"/>
<path d="M165.804 234C164.427 234.067 146.284 235.107 143.156 244.564C142.587 246.28 142.04 249.702 143.778 251.329C145.902 253.32 149.178 250.507 155.978 249.853C165.787 248.907 171.636 253.547 175.556 249.92C176.382 249.156 176.827 248.298 177.053 247.773C176.178 248.413 172.791 250.756 169.733 249.711C165.822 248.378 163.102 241.724 165.809 234H165.804Z" fill="white"/>
<path d="M175.284 225.142C176.773 226.911 179.191 229.311 182.756 231.24C187.204 233.644 191.418 234.209 193.987 234.342C192.996 234.667 185.796 236.88 180.08 232.427C176.969 230 175.751 226.733 175.284 225.147V225.142Z" fill="#D3F0D6"/>
<path d="M209.502 136.52C209.502 136.52 223.164 177.884 228.164 183.271C225.284 187.244 222.102 191.369 218.591 195.587C214.391 200.631 210.227 205.2 206.204 209.32C206.227 208.507 206.293 202.351 201.36 198.249C197.382 194.947 192.8 195.173 191.418 195.267C189.387 195.4 184.453 196.147 181.027 200.493C177.764 204.636 178.04 209.284 178.138 210.4C176.302 209.013 174.298 207.613 172.129 206.24C166.831 202.889 161.724 200.453 157.169 198.662C157.169 198.662 141.009 197.453 137.16 195.267C133.311 193.08 120.884 159.413 133.929 154.796C146.973 150.178 169.676 137.48 209.502 136.52Z" fill="white"/>
<path d="M477 201.844C475.253 203.662 472.329 204.849 469.013 204.849H298.089C284.916 204.849 272.68 201.973 262.542 197.044C262.267 196.916 261.996 196.782 261.724 196.64C252.493 192.013 245.067 185.667 240.342 178.253C236.68 172.507 234.64 166.12 234.64 159.391C234.64 155.573 235.298 151.867 236.533 148.324C242.324 131.738 260.827 118.769 284.2 115.036H284.204C288.676 114.316 293.316 113.938 298.089 113.938H444.333C446.96 118.182 449.453 122.52 451.809 126.938C452.009 127.307 452.204 127.676 452.4 128.044C454.027 131.124 455.587 134.244 457.08 137.404C457.151 137.556 457.222 137.702 457.293 137.853C457.431 138.142 457.569 138.436 457.707 138.729C457.742 138.809 457.782 138.889 457.818 138.969C458.68 140.827 459.52 142.702 460.333 144.591C460.449 144.853 460.564 145.116 460.676 145.382C462.027 148.533 463.316 151.72 464.533 154.938C466.311 159.627 467.942 164.387 469.427 169.213C469.444 169.271 469.462 169.333 469.48 169.391C472.2 178.267 474.427 187.36 476.111 196.64C476.138 196.773 476.164 196.911 476.187 197.044C476.476 198.64 476.747 200.24 477 201.844Z" fill="white"/>
<path opacity="0.2" d="M377.04 113.933H376.453V204.849H377.04V113.933Z" fill="#C1A193"/>
<path opacity="0.2" d="M476.187 197.044H262.542C262.267 196.916 261.996 196.782 261.724 196.64H476.111C476.138 196.773 476.165 196.911 476.187 197.044Z" fill="#C1A193"/>
<path opacity="0.2" d="M452.4 128.044V204.849H451.809V126.938C452.009 127.307 452.204 127.676 452.4 128.044Z" fill="#C1A193"/>
<path opacity="0.2" d="M301.68 113.933H301.093V204.849H301.68V113.933Z" fill="#C1A193"/>
<path d="M457.818 138.969V143.827C457.818 147.938 455.653 151.542 452.4 153.564C452.205 153.684 452.009 153.8 451.809 153.911C450.187 154.791 448.329 155.289 446.351 155.289H307.142C305.164 155.289 303.307 154.791 301.684 153.911C301.484 153.8 301.289 153.684 301.093 153.564C298.227 151.782 296.209 148.769 295.773 145.262C295.711 144.791 295.68 144.311 295.68 143.827V121.711C295.68 118.716 296.827 115.978 298.716 113.938C300.809 111.667 303.809 110.244 307.142 110.244H442.005C442.796 111.467 443.573 112.698 444.333 113.938C446.96 118.182 449.453 122.52 451.809 126.938C452.009 127.307 452.205 127.676 452.4 128.044C454.027 131.124 455.587 134.244 457.08 137.404C457.151 137.556 457.222 137.702 457.293 137.853C457.431 138.142 457.569 138.436 457.707 138.729C457.742 138.809 457.782 138.889 457.818 138.969Z" fill="#D3F0D6"/>
<path d="M313.027 110.244H362.044V120.978C362.044 123.92 359.658 126.307 356.716 126.307H318.356C315.413 126.307 313.027 123.92 313.027 120.978V110.244Z" fill="#FF6948"/>
</g>
<defs>
<clipPath id="clip0_214_4602">
<rect width="480" height="480" fill="white"/>
</clipPath>
</defs>
</svg>
