<svg width="480" height="480" viewBox="0 0 480 480" fill="none" xmlns="http://www.w3.org/2000/svg">
<g clip-path="url(#clip0_18_339)">
<path d="M480 240C480 285.991 467.062 328.96 444.627 365.467C402.413 434.178 326.556 480 240 480C153.444 480 77.5867 434.178 35.3733 365.467C12.9378 328.96 0 285.991 0 240C0 201.009 9.29778 164.187 25.8044 131.636C31.0622 121.258 37.0578 111.311 43.7156 101.867C77.4578 54.0089 128.258 19.0356 187.28 5.81333C187.858 5.68 188.436 5.55111 189.018 5.42667C205.449 1.87111 222.507 0 240 0C248.111 0 256.129 0.404444 264.031 1.19111C264.173 1.20444 264.311 1.21778 264.453 1.23556C324.471 7.30667 377.951 35.4889 416.622 77.5111C423.533 85.0222 429.973 92.9689 435.889 101.316C437.996 104.28 440.036 107.302 442.004 110.369C442.796 111.591 443.573 112.822 444.333 114.062C446.96 118.307 449.453 122.644 451.809 127.062C452.009 127.431 452.204 127.8 452.4 128.169C454.027 131.249 455.587 134.369 457.08 137.529C457.151 137.68 457.222 137.827 457.293 137.978C457.431 138.267 457.569 138.56 457.707 138.853C457.742 138.933 457.782 139.013 457.818 139.093C458.68 140.951 459.52 142.827 460.333 144.716C460.449 144.978 460.564 145.24 460.676 145.507C462.027 148.658 463.316 151.844 464.533 155.062C466.311 159.751 467.942 164.511 469.427 169.338C469.444 169.396 469.462 169.458 469.48 169.516C472.2 178.391 474.427 187.484 476.111 196.764C476.138 196.898 476.164 197.036 476.187 197.169C476.476 198.764 476.747 200.364 477 201.969C478.973 214.356 480 227.058 480 240V240Z" fill="#F8E4DA"/>
<path d="M444.626 365.467C402.413 434.178 326.555 480 240 480C153.444 480 77.5864 434.178 35.373 365.467H444.626Z" fill="#C1A193"/>
<path opacity="0.4" d="M196.573 18.769C195.653 26.1113 183.599 27.1424 178.497 35.9024C172.759 45.7513 184.044 51.1957 182.439 64.3735C180.439 80.7957 161.866 81.009 158.444 96.6268C154.626 114.102 176.422 120.476 172.293 138.387C168.888 153.156 150.239 156.227 151.568 166.369C152.893 176.502 172.382 178.951 172.146 188.027C171.99 194 163.519 194.396 161.373 202.2C158.253 213.547 173.559 222.156 170.253 231.116C168.017 237.173 160.862 233.693 150.786 241.889C141.87 249.142 133.893 262.92 128.928 271.493C127.488 273.982 125.026 278.373 122.502 278.045C120.128 277.738 119.884 273.547 117.586 269.982C112.355 261.862 101.768 265.227 91.7594 259.778C81.986 254.458 73.5416 241.156 75.1905 230.227C77.0838 217.698 90.1905 212.24 89.4305 199.622C89.3549 198.338 88.9505 197.018 88.1327 195.645C80.3594 182.565 47.3549 185.6 38.6216 171.836C31.0216 159.871 52.3994 151.991 43.7949 140.653C40.0394 135.698 33.2216 133.605 25.7949 131.636C31.0527 121.258 37.0483 111.311 43.706 101.867C77.4571 54.009 128.257 19.0357 187.279 5.81348C191.693 8.7957 197.23 13.5024 196.573 18.769Z" fill="#C1A193"/>
<path opacity="0.4" d="M399.373 123.586C394.675 134.671 409.617 143.04 404.382 154.391C399.55 164.875 384.724 162.231 379.79 172.533C373.995 184.622 391.608 194.089 386.466 206.991C381.599 219.164 363.777 216.062 357.439 229.289C351.528 241.631 364.199 250.28 356.902 262.364C351.528 271.262 338.95 276.018 335.67 273.76C332.71 271.715 339.404 265.329 336.257 257.635C333.63 251.226 327.066 250.991 316.524 242.769C310.337 237.951 304.51 233.409 302.15 227.271C296.915 213.653 314.542 206.893 313.035 190.36C311.626 174.866 295.604 174.084 294.03 157.226C292.702 143.093 303.426 137.991 298.813 127.369C294.484 117.391 283.648 118.702 279.226 109.226C273.822 97.6487 287.91 91.2265 288.368 75.2087C288.973 54.0042 264.693 50.582 261.377 24.1865C261.244 23.1242 259.919 11.1642 264.453 1.23535C324.47 7.30646 377.95 35.4887 416.622 77.5109C423.533 85.022 429.973 92.9687 435.888 101.315C435.204 102.275 434.408 103.231 433.479 104.186C421.386 116.653 404.15 112.329 399.373 123.586V123.586Z" fill="#C1A193"/>
<path d="M52.0524 288.423C46.7457 293.747 47.8079 305.001 51.9902 312.463C61.1102 328.739 88.8035 333.601 88.8035 333.601V296.094C74.2302 283.636 58.3724 282.081 52.0524 288.423V288.423ZM84.2079 324.516C84.2079 324.516 64.5768 319.912 59.2124 310.925C56.5591 306.481 54.9279 297.467 58.0791 294.423C62.6568 290.001 73.8479 293.05 84.2079 301.907V324.516V324.516Z" fill="white"/>
<path d="M211.137 283.36V330.209C211.137 345.849 198.461 358.529 182.817 358.529H110.377C94.7366 358.529 82.0566 345.854 82.0566 330.209V283.36H211.137Z" fill="white"/>
<path d="M211.137 295.831H82.0566V300.236H211.137V295.831Z" fill="#FF6948"/>
<path opacity="0.2" d="M211.136 283.36V330.209C211.136 345.849 198.46 358.529 182.816 358.529H142.078C150.883 358.529 171.505 357.285 180.496 343.569C182.46 340.569 184.483 336.049 185.398 312.627C185.843 301.165 185.789 291.223 185.58 283.365H211.14L211.136 283.36Z" fill="#C1A193"/>
<path d="M217.15 353.587C217.15 353.587 214.767 360.84 209.874 365.467H85.2741C85.2741 365.467 81.3585 363.8 76.043 353.587H217.15Z" fill="white"/>
<path opacity="0.2" d="M217.149 353.587C217.149 353.587 214.767 360.84 209.874 365.467H114.078C148.016 364.591 180.149 361.978 188.807 359.276C192.816 358.027 197.145 356.902 202.469 353.587H217.149V353.587Z" fill="#C1A193"/>
<path d="M391.195 295.37V332.876C391.195 332.876 418.889 328.014 428.009 311.738C432.186 304.281 433.253 293.027 427.946 287.698C421.626 281.356 405.769 282.912 391.195 295.37ZM395.786 301.183C406.146 292.325 417.338 289.276 421.915 293.698C425.066 296.743 423.435 305.756 420.782 310.201C415.418 319.187 395.786 323.792 395.786 323.792V301.183Z" fill="white"/>
<path opacity="0.2" d="M391.195 295.37V332.876C391.195 332.876 418.889 328.014 428.009 311.738C432.186 304.281 433.253 293.027 427.946 287.698C421.626 281.356 405.769 282.912 391.195 295.37ZM395.786 301.183C406.146 292.325 417.338 289.276 421.915 293.698C425.066 296.743 423.435 305.756 420.782 310.201C415.418 319.187 395.786 323.792 395.786 323.792V301.183Z" fill="#C1A193"/>
<path d="M397.106 283.36V330.209C397.106 345.849 384.421 358.529 368.781 358.529H296.341C280.701 358.529 268.021 345.854 268.021 330.209V283.36H397.106Z" fill="white"/>
<path d="M397.101 295.831H268.021V300.236H397.101V295.831Z" fill="#FF6948"/>
<path opacity="0.2" d="M397.107 283.36V330.209C397.107 345.849 384.422 358.529 368.782 358.529H328.049C336.853 358.529 357.471 357.285 366.467 343.569C368.431 340.569 370.444 336.049 371.36 312.627C371.809 301.165 371.755 291.227 371.547 283.365H397.107V283.36Z" fill="#C1A193"/>
<path d="M403.115 353.587C403.115 353.587 400.742 360.84 395.844 365.467H271.235C271.235 365.467 267.319 363.8 262.004 353.587H403.111H403.115Z" fill="white"/>
<path opacity="0.2" d="M403.116 353.587C403.116 353.587 400.742 360.84 395.844 365.467H300.049C333.987 364.591 366.115 361.978 374.773 359.276C378.782 358.027 383.111 356.902 388.435 353.587H403.116V353.587Z" fill="#C1A193"/>
<path d="M140.026 230.884C141.444 230.884 142.6 232.035 142.6 233.457V283.23H137.453V233.457C137.453 232.039 138.604 230.884 140.026 230.884V230.884Z" fill="#C1A193"/>
<path d="M112.54 150.155C112.616 149.889 112.678 149.542 112.673 149.133C112.66 148.004 112.127 147.195 111.9 146.889C110.322 144.866 108.047 143.88 105.976 144.418C105.669 144.498 103.042 145.226 102.482 147.693C101.993 149.84 103.451 151.635 103.709 151.955C105.113 153.684 107.66 154.644 109.842 153.542C111.718 152.595 112.389 150.609 112.531 150.151L112.54 150.155Z" fill="#C1A193"/>
<path d="M111.412 151.44C111.256 151.253 110.767 150.622 110.696 149.64C110.621 148.551 111.119 147.786 111.247 147.604C110.016 145.031 107.599 143.724 105.545 144.297C104.301 144.644 102.945 145.746 102.487 147.484C101.981 149.413 102.879 151.017 103.025 151.266C104.319 153.489 107.176 154.133 109.261 153.244C110.367 152.773 111.061 151.933 111.407 151.435L111.412 151.44Z" fill="#D3F0D6"/>
<path d="M123.26 153.409C123.606 153.107 124.766 152.009 125.104 150.342C125.628 147.769 123.904 145.311 121.766 144.587C119.588 143.849 116.473 144.729 115.206 147.204C114.131 149.298 114.94 151.44 115.046 151.715C116.002 154.138 118.406 154.484 118.957 154.564C119.602 154.658 121.526 154.933 123.26 153.413V153.409Z" fill="#C1A193"/>
<path d="M122.66 153.066C122.989 152.773 124.087 151.72 124.424 150.124C124.94 147.666 123.34 145.333 121.336 144.657C119.296 143.969 116.358 144.84 115.144 147.213C114.118 149.222 114.856 151.257 114.953 151.52C115.829 153.822 118.087 154.133 118.607 154.204C119.216 154.289 121.016 154.533 122.66 153.066V153.066Z" fill="#D3F0D6"/>
<path d="M120.466 144.089C118.786 143.88 116.968 143.715 115.021 143.635C113.026 143.551 111.155 143.56 109.426 143.626C109.181 143.773 106.257 145.569 106.044 149.058C105.955 150.502 106.417 152.191 107.906 154.058C109.226 154.346 110.657 154.6 112.19 154.804C114.124 155.058 115.928 155.186 117.573 155.231C117.279 154.591 116.101 151.84 117.164 148.591C118.008 146.009 119.795 144.578 120.457 144.093L120.466 144.089Z" fill="white"/>
<path d="M106.341 143.462C98.5853 142.782 92.7853 144.653 92.0564 147.48C91.8342 148.347 91.6964 150.813 93.1987 152.4C93.5053 152.724 93.9053 152.987 94.5587 153.351C96.0564 154.187 104.452 153.871 104.452 153.871C104.092 153.156 103.248 151.244 103.576 148.76C103.972 145.773 105.799 143.96 106.341 143.462V143.462Z" fill="white"/>
<path d="M139.599 153.137L125.692 145.64C125.692 145.64 118.75 149.417 119.194 155.604L132.905 160.662L139.599 153.137Z" fill="white"/>
<path d="M92.5141 168.199C92.6608 167.924 92.8119 167.555 92.9186 167.106C93.2075 165.857 92.8919 164.826 92.7497 164.431C91.7275 161.799 89.7453 160.128 87.5586 160.199C87.2341 160.208 84.4475 160.351 83.243 162.933C82.1941 165.182 83.1541 167.537 83.323 167.951C84.2519 170.217 86.5097 171.924 88.9586 171.262C91.0564 170.693 92.2519 168.666 92.5141 168.199V168.199Z" fill="#C1A193"/>
<path d="M91.0613 169.333C90.9591 169.089 90.6435 168.262 90.8346 167.164C91.0479 165.942 91.7457 165.227 91.9191 165.053C91.3857 161.898 89.3457 159.844 87.1679 159.955C85.8479 160.022 84.2168 160.898 83.3057 162.702C82.2924 164.707 82.7546 166.707 82.8346 167.018C83.5191 169.8 86.1724 171.24 88.4657 170.782C89.6835 170.542 90.5902 169.787 91.0613 169.329V169.333Z" fill="#D3F0D6"/>
<path d="M103.549 168.697C104.118 168.844 106.105 169.284 108.109 168.453C111.203 167.173 112.572 163.604 111.812 160.84C111.038 158.022 107.878 155.373 104.354 155.804C101.372 156.169 99.6826 158.542 99.4693 158.849C97.5893 161.577 98.9449 164.355 99.256 164.995C99.6204 165.742 100.7 167.96 103.549 168.697Z" fill="#C1A193"/>
<path d="M103.487 167.822C104.029 167.959 105.931 168.364 107.856 167.577C110.824 166.368 112.149 163.022 111.429 160.431C110.7 157.795 107.682 155.324 104.3 155.742C101.442 156.093 99.8156 158.324 99.6111 158.613C97.8022 161.177 99.0867 163.773 99.3845 164.368C99.7311 165.066 100.758 167.137 103.482 167.822H103.487Z" fill="#D3F0D6"/>
<path d="M127.501 168.826C126.803 168.898 124.355 169.071 121.937 167.986C118.199 166.311 116.661 162.604 117.692 159.969C118.741 157.284 122.701 155.08 126.995 155.969C130.626 156.72 132.603 159.293 132.852 159.622C135.048 162.569 133.292 165.138 132.892 165.729C132.421 166.418 131.017 168.471 127.51 168.826H127.501Z" fill="#D3F0D6"/>
<path d="M130.625 156.297C130.625 156.297 111.723 153.893 109.629 154.47C109.629 154.47 105.518 164.377 108.789 168.902C108.789 168.902 127.643 169.959 129.185 169.479C129.185 169.479 126.474 157.697 130.629 156.302L130.625 156.297Z" fill="white"/>
<path d="M101.67 155.28C100.541 155.613 98.83 156.12 96.7367 156.715C91.2167 158.289 90.4833 158.382 89.7411 159.031C88.9678 159.707 86.7367 162.249 89.7411 171.44C91.5367 170.88 93.4967 170.347 95.6122 169.875C97.8478 169.378 99.9589 169.022 101.914 168.769C101.31 167.507 100.434 165.262 100.328 162.338C100.212 159.102 101.097 156.595 101.67 155.275V155.28Z" fill="white"/>
<path d="M86.1098 159.826C85.4698 159.835 75.5543 160.124 72.9987 165.826C72.6876 166.524 71.6476 168.84 72.6698 170.884C73.4743 172.488 75.1365 173.111 76.181 173.484C81.0387 175.217 86.0787 172.822 87.7543 171.933C87.3898 171.648 84.0254 168.928 84.2387 164.635C84.3632 162.208 85.5676 160.502 86.1098 159.826Z" fill="white"/>
<path d="M215.67 155.622C215.07 157.124 213.132 162.427 213.954 168.489C215.221 177.84 222.319 183.64 228.719 183.058C235.234 182.467 242.563 175.12 243.363 165.04C244.039 156.516 239.701 150.476 239.136 149.716C234.114 142.951 227.403 145.187 225.856 145.698C224.052 146.298 218.687 148.08 215.674 155.622H215.67Z" fill="#C1A193"/>
<path d="M201.625 157.173C201.554 158.884 201.234 165.666 205.398 171.777C210.883 179.826 222.283 184.049 231.478 180.6C236.127 178.857 238.812 175.675 239.732 174.489C246.425 165.813 242.638 154.6 242.003 152.826C241.087 150.275 237.812 142.711 229.358 138.693C219.678 134.093 211.994 139.96 210.229 141.311C208.163 142.889 202.029 147.573 201.629 157.173H201.625Z" fill="#D3F0D6"/>
<path d="M234.558 142.093C233.229 146.889 229.652 162.142 238.096 173.351C238.972 174.511 240.016 175.684 241.274 176.822L245.358 166.458L240.096 142.089H234.558V142.093Z" fill="#C1A193"/>
<path d="M122.669 182.768C123.465 182.906 126.247 183.288 129.003 182.057C133.251 180.159 135.003 175.515 133.829 172.075C132.634 168.572 128.131 165.492 123.247 166.35C119.118 167.075 116.869 170.235 116.585 170.643C114.087 174.27 116.087 177.67 116.545 178.452C117.083 179.368 118.678 182.083 122.669 182.768Z" fill="#C1A193"/>
<path d="M124.074 182.466C124.763 182.626 127.177 183.088 129.519 181.941C133.128 180.172 134.505 175.586 133.39 172.115C132.257 168.581 128.279 165.377 124.088 166.088C120.545 166.688 118.697 169.781 118.465 170.181C116.417 173.728 118.243 177.186 118.661 177.977C119.15 178.906 120.608 181.661 124.074 182.466Z" fill="#D3F0D6"/>
<path d="M97.4484 186.843C98.1018 186.87 100.368 186.879 102.342 185.479C105.382 183.323 105.973 179.057 104.453 176.185C102.906 173.261 98.8129 171.092 95.0929 172.412C91.9462 173.528 90.7062 176.554 90.5551 176.945C89.1995 180.408 91.364 183.15 91.8618 183.781C92.444 184.519 94.1729 186.705 97.4484 186.839V186.843Z" fill="#C1A193"/>
<path d="M97.28 186.195C97.9066 186.221 100.08 186.23 101.969 184.888C104.88 182.821 105.449 178.732 103.996 175.977C102.516 173.172 98.5911 171.097 95.0222 172.364C92.0089 173.435 90.8177 176.337 90.6711 176.71C89.3689 180.03 91.4444 182.657 91.9244 183.261C92.4844 183.968 94.1378 186.066 97.28 186.195V186.195Z" fill="#D3F0D6"/>
<path d="M85.6744 185.848C85.6566 185.537 85.5988 185.15 85.4388 184.732C84.9899 183.572 84.0566 182.981 83.6788 182.768C81.0699 181.399 78.0521 181.417 75.8566 182.919C75.5321 183.141 72.7677 185.092 73.0699 187.897C73.3321 190.337 75.7144 191.528 76.1366 191.737C78.4299 192.883 81.7544 192.71 83.8655 190.577C85.6744 188.745 85.6877 186.381 85.6788 185.848H85.6744Z" fill="#C1A193"/>
<path d="M84.7944 187.55C84.5366 187.417 83.7055 186.946 83.2211 185.906C82.6789 184.746 82.9455 183.688 83.0166 183.426C80.5188 181.164 77.1722 180.83 75.0211 182.386C73.7233 183.328 72.6033 185.15 72.79 187.257C73.0033 189.599 74.71 190.95 74.9855 191.155C77.4077 193.004 80.9989 192.417 83.0522 190.497C84.1411 189.479 84.5988 188.244 84.7944 187.546V187.55Z" fill="#D3F0D6"/>
<path d="M99.9421 169.737C100.551 169.11 121.684 165.506 123.36 162.812C123.36 162.812 123.462 184.359 117.324 183.977C111.187 183.595 104.142 185.324 104.142 185.324C104.142 185.324 96.7821 173.008 99.9466 169.741L99.9421 169.737Z" fill="white"/>
<path d="M94.1155 171.132C89.1377 174.11 84.1555 177.088 79.1777 180.066C79.1777 180.066 82.5377 191.203 84.1066 190.955C84.1066 190.955 94.7022 187.386 96.1377 188.523C96.1644 188.546 96.2444 188.612 96.3111 188.586C96.8222 188.368 94.4933 183.092 94.0044 177.039C93.8044 174.577 93.9511 172.519 94.12 171.128L94.1155 171.132Z" fill="white"/>
<path d="M74.3946 182.173C74.3946 182.173 62.7991 190.817 61.2346 191.004C59.6702 191.191 54.5457 193.573 57.6079 198.146C60.6657 202.72 68.2079 202.355 79.6613 193.706C79.6613 193.706 73.1146 188.062 74.3946 182.173Z" fill="white"/>
<path d="M115.305 221.048C115.839 221.493 117.736 222.955 120.288 222.999C124.221 223.066 127.443 219.711 128.003 216.222C128.572 212.671 126.519 208.142 122.545 206.902C119.19 205.857 116.212 207.711 115.834 207.951C112.479 210.111 112.55 213.902 112.563 214.773C112.581 215.791 112.634 218.817 115.305 221.044V221.048Z" fill="#C1A193"/>
<path d="M115.67 220.03C116.181 220.448 118.007 221.835 120.452 221.888C124.216 221.972 127.283 218.848 127.799 215.577C128.323 212.248 126.327 207.99 122.523 206.808C119.305 205.808 116.465 207.528 116.105 207.755C112.905 209.759 112.994 213.315 113.012 214.132C113.034 215.088 113.105 217.928 115.674 220.026L115.67 220.03Z" fill="#D3F0D6"/>
<path d="M118.852 190.164C118.856 191.013 118.99 193.946 120.981 196.262C124.056 199.835 129.798 199.893 133.545 197.462C137.358 194.982 140.003 189.333 138.003 184.742C136.314 180.862 132.185 179.755 131.656 179.622C126.936 178.439 123.407 181.688 122.594 182.435C121.643 183.31 118.825 185.902 118.852 190.164Z" fill="#C1A193"/>
<path d="M119.838 190.39C119.882 191.235 120.144 194.146 122.175 196.426C125.309 199.946 130.851 199.959 134.349 197.51C137.909 195.017 140.193 189.386 138.051 184.844C136.238 181.004 132.207 179.941 131.691 179.813C127.087 178.679 123.833 181.933 123.087 182.684C122.211 183.559 119.615 186.159 119.842 190.386L119.838 190.39Z" fill="#D3F0D6"/>
<path d="M129.905 230.488C129.976 230.123 130.02 229.652 129.958 229.119C129.789 227.63 128.927 226.648 128.563 226.279C126.06 223.857 122.705 222.91 119.847 223.946C119.42 224.101 115.803 225.474 115.34 228.821C114.936 231.737 117.243 233.879 117.647 234.257C119.865 236.319 123.603 237.186 126.549 235.39C129.078 233.848 129.767 231.11 129.905 230.488Z" fill="#C1A193"/>
<path d="M128.478 232.364C128.234 232.141 127.456 231.381 127.229 230.101C126.976 228.675 127.585 227.59 127.741 227.324C125.656 224.119 122.056 222.777 119.225 223.857C117.514 224.51 115.736 226.181 115.323 228.546C114.861 231.177 116.349 233.155 116.589 233.461C118.714 236.195 122.852 236.595 125.687 235.088C127.194 234.288 128.061 233.07 128.483 232.364H128.478Z" fill="#D3F0D6"/>
<path d="M118.967 185.831C118.967 185.831 115.981 202.706 113.634 206.693C111.287 210.684 125.954 214.4 128.652 211.72C131.35 209.04 137.114 199.915 136.012 197.457C136.012 197.457 123.056 194.604 118.967 185.826V185.831Z" fill="white"/>
<path d="M111.572 214.492L112.999 225.977C112.999 225.977 122.781 234.594 128.563 226.279L127.688 219.217C127.688 219.217 118.417 223.843 111.572 214.492V214.492Z" fill="white"/>
<path d="M116.586 233.461C116.586 233.461 133.141 257.123 136.484 247.368C139.821 237.612 133.728 230.452 130.781 228.839C130.781 228.839 126.604 239.332 116.59 233.461H116.586Z" fill="white"/>
<path d="M179.861 202.195C179.314 203.182 177.559 206.662 178.43 210.688C179.768 216.897 186.581 220.848 192.634 220.559C198.799 220.266 205.63 215.511 206.234 208.848C206.745 203.213 202.545 199.151 201.999 198.635C197.141 194.079 190.812 195.457 189.359 195.773C187.656 196.142 182.603 197.244 179.861 202.191V202.195Z" fill="#C1A193"/>
<path d="M181.133 202.821C180.635 203.813 179.035 207.31 179.795 211.337C180.969 217.55 187.089 221.47 192.546 221.146C198.106 220.817 204.288 216.021 204.871 209.346C205.364 203.701 201.595 199.653 201.106 199.141C196.751 194.604 191.04 196.017 189.729 196.341C188.191 196.719 183.631 197.848 181.133 202.821Z" fill="#D3F0D6"/>
<path d="M171.292 232.755C170.612 232.635 168.26 232.324 166.194 233.71C163.007 235.852 162.327 240.821 163.856 244.426C165.416 248.092 169.629 251.208 173.509 250.141C176.789 249.244 178.127 245.826 178.292 245.386C179.754 241.47 177.549 237.937 177.043 237.124C176.452 236.172 174.692 233.35 171.292 232.755V232.755Z" fill="#C1A193"/>
<path d="M171.576 233.915C170.927 233.808 168.678 233.528 166.691 234.843C163.629 236.875 162.945 241.541 164.385 244.91C165.851 248.341 169.865 251.235 173.585 250.208C176.731 249.341 178.029 246.132 178.189 245.715C179.611 242.03 177.527 238.728 177.047 237.972C176.487 237.083 174.82 234.448 171.571 233.91L171.576 233.915Z" fill="#D3F0D6"/>
<path d="M178.037 211.324C178.037 211.324 174.024 221.711 175.197 225.044C175.197 225.044 167.348 231.373 167.046 233.475C166.424 237.804 172.193 245.471 177.735 246.369C190.606 248.458 205.082 214.226 206.122 211.715C205.157 210.746 200.077 205.849 192.011 205.795C184.135 205.742 179.064 210.346 178.037 211.32V211.324Z" fill="white"/>
<path d="M165.803 233.999C164.425 234.066 146.283 235.106 143.154 244.563C142.585 246.279 142.038 249.701 143.776 251.328C145.9 253.319 149.176 250.506 155.976 249.852C165.785 248.906 171.634 253.546 175.554 249.919C176.38 249.155 176.825 248.297 177.052 247.772C176.176 248.412 172.789 250.755 169.732 249.71C165.82 248.377 163.1 241.723 165.807 233.999H165.803Z" fill="white"/>
<path d="M175.283 225.142C176.772 226.91 179.19 229.31 182.754 231.239C187.203 233.644 191.417 234.208 193.985 234.342C192.994 234.666 185.794 236.879 180.079 232.426C176.968 229.999 175.75 226.733 175.283 225.146V225.142Z" fill="#D3F0D6"/>
<path d="M209.501 136.52C209.501 136.52 223.163 177.884 228.163 183.271C225.283 187.244 222.101 191.368 218.59 195.586C214.39 200.631 210.225 205.2 206.203 209.32C206.225 208.506 206.292 202.351 201.359 198.248C197.381 194.946 192.799 195.173 191.417 195.266C189.385 195.4 184.452 196.146 181.025 200.493C177.763 204.635 178.039 209.284 178.137 210.4C176.301 209.013 174.297 207.613 172.128 206.24C166.83 202.888 161.723 200.453 157.168 198.662C157.168 198.662 141.008 197.453 137.159 195.266C133.31 193.08 120.883 159.413 133.928 154.795C146.972 150.177 169.674 137.48 209.501 136.52V136.52Z" fill="white"/>
<path d="M476.999 201.844C475.252 203.662 472.328 204.849 469.012 204.849H298.088C284.914 204.849 272.679 201.973 262.541 197.044C262.265 196.915 261.994 196.782 261.723 196.64C252.492 192.013 245.065 185.666 240.341 178.253C236.679 172.506 234.639 166.12 234.639 159.391C234.639 155.573 235.296 151.866 236.532 148.324C242.323 131.738 260.825 118.769 284.199 115.035H284.203C288.674 114.315 293.314 113.938 298.088 113.938H444.332C446.959 118.182 449.452 122.52 451.808 126.938C452.008 127.306 452.203 127.675 452.399 128.044C454.025 131.124 455.585 134.244 457.079 137.404C457.15 137.555 457.221 137.702 457.292 137.853C457.43 138.142 457.568 138.435 457.705 138.729C457.741 138.809 457.781 138.889 457.816 138.969C458.679 140.826 459.519 142.702 460.332 144.591C460.448 144.853 460.563 145.115 460.674 145.382C462.025 148.533 463.314 151.72 464.532 154.938C466.31 159.626 467.941 164.386 469.425 169.213C469.443 169.271 469.461 169.333 469.479 169.391C472.199 178.266 474.425 187.36 476.11 196.64C476.136 196.773 476.163 196.911 476.185 197.044C476.474 198.64 476.745 200.24 476.999 201.844V201.844Z" fill="white"/>
<path opacity="0.2" d="M377.038 113.933H376.451V204.848H377.038V113.933Z" fill="#C1A193"/>
<path opacity="0.2" d="M476.185 197.044H262.54C262.265 196.915 261.994 196.782 261.723 196.64H476.109C476.136 196.773 476.163 196.911 476.185 197.044Z" fill="#C1A193"/>
<path opacity="0.2" d="M452.398 128.044V204.849H451.807V126.938C452.007 127.306 452.202 127.675 452.398 128.044Z" fill="#C1A193"/>
<path opacity="0.2" d="M301.678 113.933H301.092V204.848H301.678V113.933Z" fill="#C1A193"/>
<path d="M457.815 138.969V143.826C457.815 147.937 455.651 151.542 452.398 153.564C452.202 153.684 452.007 153.8 451.807 153.911C450.184 154.791 448.327 155.289 446.349 155.289H307.14C305.162 155.289 303.304 154.791 301.682 153.911C301.482 153.8 301.287 153.684 301.091 153.564C298.224 151.782 296.207 148.769 295.771 145.262C295.709 144.791 295.678 144.311 295.678 143.826V121.711C295.678 118.715 296.824 115.977 298.713 113.937C300.807 111.666 303.807 110.244 307.14 110.244H442.002C442.793 111.466 443.571 112.697 444.331 113.937C446.958 118.182 449.451 122.52 451.807 126.937C452.007 127.306 452.202 127.675 452.398 128.044C454.024 131.124 455.584 134.244 457.078 137.404C457.149 137.555 457.22 137.702 457.291 137.853C457.429 138.142 457.567 138.435 457.704 138.729C457.74 138.809 457.78 138.889 457.815 138.969V138.969Z" fill="#D3F0D6"/>
<path d="M313.025 110.244H362.043V120.977C362.043 123.92 359.656 126.306 356.714 126.306H318.354C315.412 126.306 313.025 123.92 313.025 120.977V110.244V110.244Z" fill="#FF6948"/>
</g>
<defs>
<clipPath id="clip0_18_339">
<rect width="480" height="480" fill="white"/>
</clipPath>
</defs>
</svg>
